<svg xmlns="http://www.w3.org/2000/svg" width="20.6" height="20.6" viewBox="0 0 20.6 20.6">
    <defs>
        <style>
            .cls-2{fill:#2e3e6a;stroke:#2e3e6a;stroke-width:.6px}
        </style>
    </defs>
    <g id="account" transform="translate(.3 .3)">
        <path id="Path_4992" fill="none" d="M108.426 115.5a7.079 7.079 0 1 0 7.079-7.079 7.073 7.073 0 0 0-7.079 7.079zm4.163-.785a.5.5 0 0 1 .308-.432v.887a.488.488 0 0 1-.308-.454zm.269-1.176v-.517a2.618 2.618 0 1 1 5.235 0v.5l-.04-.007a.669.669 0 0 0-.231-.409c-.114-.127-.269-.288-.617-.662a.561.561 0 0 0-.72-.088 4.936 4.936 0 0 1-2.985.8.565.565 0 0 0-.567.359zm5.2.722a.489.489 0 0 1 0 .908zm-4.438 1.243v-1.613a5.69 5.69 0 0 0 3.151-.858c.313.336.488.519.567.61v1.862a1.86 1.86 0 0 1-3.719 0zm1.891 2.547a2.58 2.58 0 0 0 .879-.156v.251a.661.661 0 0 0 .354.582 1.738 1.738 0 0 1-2.512.017.676.676 0 0 0 .39-.609v-.227a2.817 2.817 0 0 0 .886.144zm-2 .976l.164.174a2.46 2.46 0 0 0 3.616 0l.178-.189 2.44.945c.01 0 .041.019.087.045a6.349 6.349 0 0 1-8.972 0c.044-.024.074-.038.084-.043l2.4-.93zm6.974.429a2.077 2.077 0 0 0-.3-.165h-.007l-3.062-1.186v-.618a2.547 2.547 0 0 0 .915-1.569 1.209 1.209 0 0 0 .792-1.962v-.932a3.337 3.337 0 1 0-6.674 0v.957a1.143 1.143 0 0 0-.27.736 1.211 1.211 0 0 0 1.063 1.2 2.579 2.579 0 0 0 .966 1.61v.577l-.428.166-2.63 1.02h-.007a2.036 2.036 0 0 0-.3.165 6.357 6.357 0 1 1 9.949 0zm0 0" transform="translate(-105.505 -105.501)"/>
        <path id="Path_4993" d="M273.121 6.809h-1.143a7.155 7.155 0 0 0-.583-1.4l.809-.809a.8.8 0 0 0 0-1.138l-1.729-1.729a.8.8 0 0 0-1.138 0l-.809.809a7.147 7.147 0 0 0-1.4-.583V.8a.806.806 0 0 0-.8-.8h-.638a.259.259 0 0 0 0 .518h.638A.287.287 0 0 1 266.6.8v1.147a.524.524 0 0 0 .374.5 6.622 6.622 0 0 1 1.3.541.524.524 0 0 0 .619-.089l.809-.809a.287.287 0 0 1 .406 0l1.728 1.729a.287.287 0 0 1 0 .406l-.809.809a.524.524 0 0 0-.089.618 6.633 6.633 0 0 1 .541 1.3.524.524 0 0 0 .5.374h1.143a.287.287 0 0 1 .287.287v.618a.259.259 0 1 0 .518 0v-.617a.805.805 0 0 0-.8-.8zm0 0" class="cls-2" transform="translate(-253.925)"/>
        <path id="Path_4994" d="M19.707 10.391a.293.293 0 0 0-.293.293v.7a.325.325 0 0 1-.325.325H17.8a.593.593 0 0 0-.566.423 7.507 7.507 0 0 1-.612 1.473.593.593 0 0 0 .1.7l.916.916a.324.324 0 0 1 0 .459l-1.956 1.956a.325.325 0 0 1-.459 0l-.916-.916a.594.594 0 0 0-.7-.1 7.5 7.5 0 0 1-1.473.612.593.593 0 0 0-.423.566v1.292a.325.325 0 0 1-.325.325H8.617a.325.325 0 0 1-.325-.325V17.8a.593.593 0 0 0-.423-.566 7.5 7.5 0 0 1-1.469-.615.593.593 0 0 0-.7.1l-.916.916a.325.325 0 0 1-.459 0l-1.96-1.956a.324.324 0 0 1 0-.459l.916-.916a.593.593 0 0 0 .1-.7 7.5 7.5 0 0 1-.612-1.473.593.593 0 0 0-.566-.423H.911a.325.325 0 0 1-.325-.325V8.617a.325.325 0 0 1 .325-.325H2.2a.593.593 0 0 0 .566-.423A7.5 7.5 0 0 1 3.381 6.4a.593.593 0 0 0-.1-.7l-.916-.92a.324.324 0 0 1 0-.459l1.956-1.956a.324.324 0 0 1 .459 0l.916.916a.593.593 0 0 0 .7.1 7.506 7.506 0 0 1 1.473-.612.593.593 0 0 0 .423-.569V.91a.325.325 0 0 1 .325-.324h.677a.293.293 0 1 0 0-.586h-.677a.912.912 0 0 0-.91.91V2.2a8.1 8.1 0 0 0-1.588.66l-.916-.916a.91.91 0 0 0-1.288 0L1.951 3.907a.91.91 0 0 0 0 1.288l.916.916A8.092 8.092 0 0 0 2.208 7.7H.911a.912.912 0 0 0-.91.91v2.766a.912.912 0 0 0 .91.91H2.2a8.083 8.083 0 0 0 .66 1.588l-.916.916a.91.91 0 0 0 0 1.288L3.9 18.034a.912.912 0 0 0 1.288 0l.916-.916a8.1 8.1 0 0 0 1.588.66v1.312a.912.912 0 0 0 .91.91h2.766a.912.912 0 0 0 .91-.91V17.8a8.094 8.094 0 0 0 1.588-.66l.916.916a.912.912 0 0 0 1.288 0l1.956-1.956a.91.91 0 0 0 0-1.288l-.916-.916a8.1 8.1 0 0 0 .66-1.588h1.32a.911.911 0 0 0 .91-.91v-.7a.293.293 0 0 0-.293-.293zm0 0" class="cls-2"/>
    </g>
</svg>
