<svg xmlns="http://www.w3.org/2000/svg" width="106.775" height="26.069" viewBox="0 0 106.775 26.069"><defs><style>.a{fill:#fff;}</style></defs><g transform="translate(7 0)"><g transform="translate(-7)"><path class="a" d="M113.734,284.035a18.928,18.928,0,0,1-1.7,3.157c-1.1,1.674-2.655,3.755-4.568,3.779-1.7.024-2.153-1.1-4.472-1.1-2.32.024-2.8,1.124-4.52,1.1-1.913-.024-3.4-1.913-4.5-3.588-3.037-4.664-3.372-10.165-1.459-13.083A6.785,6.785,0,0,1,98,271c2.033,0,3.324,1.124,5,1.124,1.626,0,2.631-1.124,4.975-1.124a6.653,6.653,0,0,1,5,2.655A5.738,5.738,0,0,0,113.734,284.035Z" transform="translate(-91.331 -264.901)"/><g transform="translate(10.763)"><path class="a" d="M140.414,249.733a5.685,5.685,0,0,0,1.268-4.233,6.172,6.172,0,0,0-3.994,2.153,5.288,5.288,0,0,0-1.292,4.138A5.292,5.292,0,0,0,140.414,249.733Z" transform="translate(-136.331 -245.5)"/></g></g><g transform="translate(27.377 0.048)"><g transform="translate(0 9.065)"><path class="a" d="M210.2,284.5l-4.4,12.963h2.009l1.315-3.994h4.257l1.363,3.994h2.081L212.4,284.5Zm1.052,2.129c.144.574.311,1.172.526,1.842l1.2,3.444H209.6l1.172-3.468C210.918,287.872,211.086,287.274,211.253,286.629Z" transform="translate(-205.8 -284.285)"/><path class="a" d="M259.975,298.5a3.633,3.633,0,0,0-3.109,1.507l-.072-1.292H255v.167c.048.813.072,1.7.072,2.966v10h1.961v-4.664a3.457,3.457,0,0,0,2.679,1.148,4.029,4.029,0,0,0,2.966-1.268,5.379,5.379,0,0,0,1.315-3.779,5.077,5.077,0,0,0-1.148-3.444A3.69,3.69,0,0,0,259.975,298.5Zm-.5,1.626c1.746,0,2.535,1.626,2.535,3.229,0,2.081-1,3.348-2.607,3.348a2.379,2.379,0,0,1-2.32-1.818,2.407,2.407,0,0,1-.072-.646v-1.555a1.787,1.787,0,0,1,.072-.478c0-.048.024-.1.024-.167A2.51,2.51,0,0,1,259.472,300.126Z" transform="translate(-243.233 -294.936)"/><path class="a" d="M302.175,298.5a3.633,3.633,0,0,0-3.109,1.507l-.072-1.292H297.2v.167c.048.813.072,1.7.072,2.966v10h1.961v-4.664a3.457,3.457,0,0,0,2.679,1.148,4.029,4.029,0,0,0,2.966-1.268,5.379,5.379,0,0,0,1.315-3.779,5.077,5.077,0,0,0-1.148-3.444A3.655,3.655,0,0,0,302.175,298.5Zm-.478,1.626c1.746,0,2.535,1.626,2.535,3.229,0,2.081-1,3.348-2.607,3.348a2.379,2.379,0,0,1-2.32-1.818,2.407,2.407,0,0,1-.072-.646v-1.555a1.787,1.787,0,0,1,.072-.478c0-.048.024-.1.024-.167A2.489,2.489,0,0,1,301.7,300.126Z" transform="translate(-275.34 -294.936)"/><path class="a" d="M356.088,289.316c-1.842-.717-2.416-1.268-2.416-2.3,0-.861.694-1.746,2.224-1.746a4.361,4.361,0,0,1,2.3.574l.167.1.55-1.626-.12-.072a5.734,5.734,0,0,0-2.87-.646c-2.511,0-4.257,1.483-4.257,3.588,0,1.7,1.1,2.894,3.444,3.755,1.674.622,2.3,1.268,2.3,2.344,0,1.244-.957,2.009-2.487,2.009a5.192,5.192,0,0,1-2.822-.813l-.167-.12-.526,1.674.1.072a6.633,6.633,0,0,0,3.324.861c3.372,0,4.568-2.057,4.568-3.827C359.388,291.349,358.432,290.225,356.088,289.316Z" transform="translate(-316.577 -283.6)"/><path class="a" d="M389.024,290.1l-1.913.6v1.626H385.7V293.9h1.411v4.807a3.644,3.644,0,0,0,.67,2.487,2.52,2.52,0,0,0,1.889.741,4.265,4.265,0,0,0,1.507-.239l.12-.048-.1-1.579-.191.048a3.1,3.1,0,0,1-.909.1c-.765,0-1.076-.478-1.076-1.6V293.9h2.368v-1.579h-2.368Z" transform="translate(-342.673 -288.545)"/><path class="a" d="M414.964,298.5c-2.75,0-4.664,2.057-4.664,4.975a4.483,4.483,0,0,0,4.52,4.831h.024a4.619,4.619,0,0,0,4.664-5,4.965,4.965,0,0,0-1.244-3.468A4.468,4.468,0,0,0,414.964,298.5Zm-.048,1.555c1.77,0,2.559,1.722,2.559,3.324,0,1.961-1.1,3.4-2.607,3.4h-.024c-1.483,0-2.559-1.411-2.559-3.348C412.285,301.753,413.1,300.055,414.916,300.055Z" transform="translate(-361.39 -294.936)"/><path class="a" d="M458.379,298.6l-.12-.024a1.657,1.657,0,0,0-.478-.072,2.806,2.806,0,0,0-2.463,1.578l-.048-1.363H453.5v.167c.048.765.072,1.65.072,2.822l-.024,6.41h1.961v-5c0-.263.024-.526.048-.765a2.172,2.172,0,0,1,2.057-1.985c.191,0,.359.024.526.024l.215.024V298.6Z" transform="translate(-394.258 -294.936)"/><path class="a" d="M478.249,298.5c-2.607,0-4.449,2.081-4.449,5.07a4.389,4.389,0,0,0,4.616,4.736,7.643,7.643,0,0,0,3.109-.6l.12-.048-.383-1.459-.167.072a6.121,6.121,0,0,1-2.463.43,2.73,2.73,0,0,1-2.942-2.846l6.338.024.024-.12a3.881,3.881,0,0,0,.048-.813C482.147,300.892,481.119,298.5,478.249,298.5Zm-.143,1.483a1.947,1.947,0,0,1,1.435.55,2.646,2.646,0,0,1,.67,1.818h-4.449A2.485,2.485,0,0,1,478.105,299.983Z" transform="translate(-409.703 -294.936)"/></g><path class="a" d="M205.8,247.02a14.782,14.782,0,0,1,1.889-.12,4.224,4.224,0,0,1,2.774.765,2.688,2.688,0,0,1,.981,2.224,3.148,3.148,0,0,1-.981,2.392,4.557,4.557,0,0,1-3.037.885,15.109,15.109,0,0,1-1.6-.072V247.02Zm.885,5.453a4.793,4.793,0,0,0,.885.048c1.889,0,2.894-.957,2.894-2.607,0-1.459-.909-2.368-2.774-2.368a8.907,8.907,0,0,0-1.028.072v4.855Z" transform="translate(-205.8 -246.613)"/><path class="a" d="M235.044,258.516a2.217,2.217,0,0,1-2.344-2.272,2.272,2.272,0,0,1,2.44-2.344,2.193,2.193,0,0,1,2.368,2.248,2.326,2.326,0,0,1-2.463,2.368Zm.024-.6a1.557,1.557,0,0,0,1.483-1.722,1.522,1.522,0,0,0-1.459-1.674,1.712,1.712,0,0,0-.024,3.4Z" transform="translate(-226.266 -251.939)"/><path class="a" d="M255.709,254.148l.67,2.224c.12.5.263.957.359,1.411h.024c.12-.454.263-.909.43-1.411l.789-2.248h.741l.765,2.2a11.64,11.64,0,0,1,.43,1.435h.024a9.934,9.934,0,0,1,.383-1.435l.694-2.224h.885l-1.579,4.4h-.813l-.741-2.1a14.652,14.652,0,0,1-.43-1.459h-.024a8.674,8.674,0,0,1-.454,1.459l-.789,2.1h-.789l-1.483-4.4h.909Z" transform="translate(-243.081 -252.091)"/><path class="a" d="M288.148,255.191a9.224,9.224,0,0,0-.048-1.2h.789l.048.718h.024a1.864,1.864,0,0,1,1.626-.813,1.668,1.668,0,0,1,1.722,1.866V258.4h-.885v-2.535c0-.718-.287-1.315-1.124-1.315a1.3,1.3,0,0,0-1.2.813.91.91,0,0,0-.072.383V258.4h-.885Z" transform="translate(-268.416 -251.939)"/><path class="a" d="M311.8,245.7h.885v6.458H311.8Z" transform="translate(-286.448 -245.7)"/><path class="a" d="M322.544,258.516a2.217,2.217,0,0,1-2.344-2.272,2.272,2.272,0,0,1,2.44-2.344,2.193,2.193,0,0,1,2.368,2.248,2.326,2.326,0,0,1-2.463,2.368Zm.024-.6a1.557,1.557,0,0,0,1.483-1.722,1.522,1.522,0,0,0-1.459-1.674,1.712,1.712,0,0,0-.024,3.4Z" transform="translate(-292.839 -251.939)"/><path class="a" d="M347.127,257.268a6.817,6.817,0,0,0,.072,1.052h-.789l-.072-.55h-.024a1.9,1.9,0,0,1-1.507.646,1.347,1.347,0,0,1-1.507-1.268c0-1.076,1.052-1.65,2.942-1.65v-.1c0-.359-.12-1.028-1.124-1.028a2.6,2.6,0,0,0-1.292.335l-.191-.526a3.336,3.336,0,0,1,1.626-.383,1.627,1.627,0,0,1,1.866,1.794Zm-.861-1.172c-.981-.024-2.081.143-2.081,1a.747.747,0,0,0,.837.765,1.216,1.216,0,0,0,1.2-.741.861.861,0,0,0,.048-.263Z" transform="translate(-310.414 -251.863)"/><path class="a" d="M368.468,245.7v5.333a8.655,8.655,0,0,0,.048,1.148h-.789l-.048-.765h-.024a1.793,1.793,0,0,1-1.65.861,2.1,2.1,0,0,1-2.1-2.248,2.2,2.2,0,0,1,2.2-2.368,1.661,1.661,0,0,1,1.483.67h.024V245.7Zm-.885,3.851a.76.76,0,0,0-.048-.335,1.274,1.274,0,0,0-1.292-.909c-.933,0-1.459.718-1.459,1.7a1.473,1.473,0,0,0,1.459,1.65,1.335,1.335,0,0,0,1.315-.957,1.614,1.614,0,0,0,.048-.335v-.813Z" transform="translate(-326.087 -245.7)"/><path class="a" d="M399.044,258.516a2.217,2.217,0,0,1-2.344-2.272,2.272,2.272,0,0,1,2.44-2.344,2.193,2.193,0,0,1,2.368,2.248,2.326,2.326,0,0,1-2.463,2.368Zm.024-.6a1.557,1.557,0,0,0,1.483-1.722,1.522,1.522,0,0,0-1.459-1.674,1.712,1.712,0,0,0-.024,3.4Z" transform="translate(-351.043 -251.939)"/><path class="a" d="M421.248,255.191a9.23,9.23,0,0,0-.048-1.2h.789l.048.718h.024a1.864,1.864,0,0,1,1.626-.813,1.668,1.668,0,0,1,1.722,1.866V258.4h-.885v-2.535c0-.718-.287-1.315-1.124-1.315a1.3,1.3,0,0,0-1.2.813.91.91,0,0,0-.072.383V258.4h-.885Z" transform="translate(-369.683 -251.939)"/><path class="a" d="M453.2,249.9v1.052h1.268v.622H453.2v2.368c0,.55.167.861.67.861a2.82,2.82,0,0,0,.526-.048l.048.622a2.883,2.883,0,0,1-.789.12,1.328,1.328,0,0,1-.957-.335,1.609,1.609,0,0,1-.335-1.148V251.6H451.6v-.622h.765v-.813Z" transform="translate(-392.812 -248.895)"/><path class="a" d="M467.9,245.7h.885v2.75h.024a1.521,1.521,0,0,1,.646-.574,1.9,1.9,0,0,1,.909-.239,1.687,1.687,0,0,1,1.722,1.889v2.631H471.2v-2.535c0-.717-.287-1.315-1.124-1.315a1.265,1.265,0,0,0-1.2.813.991.991,0,0,0-.072.383v2.655h-.885V245.7Z" transform="translate(-405.214 -245.7)"/><path class="a" d="M490.761,256.34a1.5,1.5,0,0,0,1.674,1.531,3.75,3.75,0,0,0,1.363-.215l.167.574a4.531,4.531,0,0,1-1.65.287,2.178,2.178,0,0,1-2.416-2.224,2.248,2.248,0,0,1,2.3-2.392,1.925,1.925,0,0,1,2.009,2.081,1.7,1.7,0,0,1-.024.383Zm2.583-.574a1.182,1.182,0,0,0-1.22-1.292,1.381,1.381,0,0,0-1.363,1.292Z" transform="translate(-421.952 -251.939)"/></g></g></svg>