<svg xmlns="http://www.w3.org/2000/svg" width="22.92" height="15.91" viewBox="0 0 22.92 15.91">
    <defs>
        <style>
            .cls-1{fill:#343a40}
        </style>
    </defs>
    <g id="back" transform="rotate(90 11.815 11.748)">
        <path id="Shape" d="M7.87 0a.779.779 0 0 0-.083.021.668.668 0 0 0-.521.667v19.69l-6.125-6.125a.666.666 0 0 0-.479-.208.666.666 0 0 0-.462 1.146l7.25 7.271.479.458.479-.458 7.25-7.271a.667.667 0 1 0-.937-.937L8.6 20.378V.691A.667.667 0 0 0 7.87 0z" class="cls-1" transform="translate(.068 .643)"/>
    </g>
</svg>
