<svg xmlns="http://www.w3.org/2000/svg" width="16.164" height="20.4" viewBox="0 0 16.164 20.4">
    <path fill="#2e3e6a" stroke="#2e3e6a" stroke-width="0.4px" d="M14.681 12.2V9.076a6.729 6.729 0 0 0-4.675-6.423V1.99a1.976 1.976 0 1 0-3.952-.028v.692a6.729 6.729 0 0 0-4.675 6.422V12.2a2.125 2.125 0 0 0-1.231 1.92v1.011a2.125 2.125 0 0 0 2.122 2.122h2.7a3.083 3.083 0 0 0 6.129 0h2.7a2.125 2.125 0 0 0 2.122-2.122V14.12a2.125 2.125 0 0 0-1.24-1.92zM7.053 1.99a.977.977 0 1 1 1.954-.02v.453a6.607 6.607 0 0 0-1.954 0zm.977 1.36a5.7 5.7 0 0 1 5.652 5.726V12H2.378V9.076A5.7 5.7 0 0 1 8.03 3.35zm0 15.65a2.087 2.087 0 0 1-2.056-1.746h4.113A2.087 2.087 0 0 1 8.03 19zm6.883-3.868a1.124 1.124 0 0 1-1.123 1.123H2.271a1.124 1.124 0 0 1-1.123-1.123V14.12A1.124 1.124 0 0 1 2.271 13h11.518a1.124 1.124 0 0 1 1.123 1.123zm0 0" transform="translate(.052 .201)"/>
</svg>
