<svg xmlns="http://www.w3.org/2000/svg" width="57.296" height="55.222" viewBox="0 0 57.296 55.222">
    <defs>
        <style>
            .cls-1{fill:#fff}.cls-1,.cls-3{stroke:#674cf3;stroke-miterlimit:10}.cls-2{fill:#674cf3;opacity:.1}.cls-3{fill:none}
        </style>
    </defs>
    <g id="capsules" transform="translate(-2.418 -2.113)">
        <path id="Rectangle-path" d="M6.672 0h35.766a6.672 6.672 0 0 1 6.672 6.672V12.7a6.672 6.672 0 0 1-6.672 6.672H6.672A6.672 6.672 0 0 1 0 12.7V6.672A6.672 6.672 0 0 1 6.672 0z" class="cls-1" transform="rotate(-75.83 33.812 23.215)"/>
        <path id="Shape" d="M12.728 9.223L5.515 37.957A9.68 9.68 0 0 1 0 44.494a9.647 9.647 0 0 0 5.24 3.461 9.711 9.711 0 0 0 11.773-7.071L24.2 12.15a9.8 9.8 0 0 0-1.065-7.4A9.68 9.68 0 0 0 17.182.293a9.547 9.547 0 0 0-6.237.534 9.752 9.752 0 0 1 1.783 8.396z" class="cls-2" transform="translate(7.18 4.777)"/>
        <path id="Shape-2" d="M0 0l18.773 4.73" class="cls-3" transform="translate(9.004 26.53)"/>
        <path id="Rectangle-path-2" d="M6.672 0h35.712a6.672 6.672 0 0 1 6.672 6.672v6.058a6.672 6.672 0 0 1-6.672 6.67H6.672A6.672 6.672 0 0 1 0 12.73V6.672A6.672 6.672 0 0 1 6.672 0z" class="cls-1" transform="rotate(-30.83 75.995 7.373)"/>
        <path id="Shape-3" d="M34.1 7.212L8.631 22.295a9.71 9.71 0 0 1-8.552.7 9.526 9.526 0 0 0 1.283 6.131 9.793 9.793 0 0 0 13.384 3.352l25.486-15.083A9.652 9.652 0 0 0 43.61 4.052 9.815 9.815 0 0 0 38.778 0 9.54 9.54 0 0 1 34.1 7.212z" class="cls-2" transform="translate(10.559 19.175)"/>
        <path id="Shape-4" fill="#ffbe0b" d="M24.034 4.306L5.9 15.125A8.634 8.634 0 0 1 .276 16.44a3.691 3.691 0 0 0 .148 3.118c1.273 2.121 4.985 2.249 8.273.3L26.856 9.015c3.288-1.973 4.943-5.282 3.67-7.4A3.564 3.564 0 0 0 27.853 0a8.7 8.7 0 0 1-3.819 4.306z" opacity="0.78" transform="translate(18.9 27.724)"/>
        <path id="Shape-5" d="M0 0l9.928 16.631" class="cls-3" transform="translate(28.097 27.375)"/>
    </g>
</svg>
