<svg xmlns="http://www.w3.org/2000/svg" width="16.2" height="16.2" viewBox="0 0 16.2 16.2">
    <defs>
        <style>
            .cls-1{fill:#674cf3;stroke:#674cf3;stroke-width:.2px}
        </style>
    </defs>
    <g id="user-interface" transform="translate(-.9 -.9)">
        <path id="Path_7981" d="M9.114 3.842a.533.533 0 0 0-.753 0L3.842 8.361a.533.533 0 0 0 0 .753l7.532 7.532a.533.533 0 0 0 .753 0l4.519-4.519a.533.533 0 0 0 0-.753zm-2.636 6.4l3.766-3.766 3.766 3.766-3.766 3.768zm2.26-5.27l.754.753-3.767 3.766-.754-.754zm3.013 10.545L11 14.764 14.763 11l.754.753z" class="cls-1" data-name="Path 7981" transform="translate(-1.244 -1.244)"/>
        <path id="Path_7982" d="M9.051 22.517a6.989 6.989 0 0 1-6.827-5.529l1.08 1.08a.537.537 0 1 0 .759-.759l-2.147-2.147a.537.537 0 0 0-.916.377 8.06 8.06 0 0 0 8.051 8.051.537.537 0 0 0 0-1.074z" class="cls-1" data-name="Path 7982" transform="translate(0 -6.59)"/>
        <path id="Path_7983" d="M15.537 1a.537.537 0 1 0 0 1.074A6.989 6.989 0 0 1 22.364 7.6l-1.08-1.08a.537.537 0 1 0-.759.759l2.147 2.147a.537.537 0 0 0 .916-.379A8.06 8.06 0 0 0 15.537 1z" class="cls-1" data-name="Path 7983" transform="translate(-6.588)"/>
    </g>
</svg>
