<svg xmlns="http://www.w3.org/2000/svg" width="22.5" height="22.5" viewBox="0 0 22.5 22.5">
    <defs>
        <style>
            .cls-1,.cls-2{fill:#fff;stroke:#fff;stroke-width:.5px}.cls-2{font-size:6px;font-family:Quicksand-Bold,Quicksand;font-weight:700;letter-spacing:.02em}
        </style>
    </defs>
    <g id="cost" transform="translate(.25 .25)">
        <path id="Path_3897" d="M2.627 20.948A12.314 12.314 0 0 0 8.422 22a14.233 14.233 0 0 0 4.968-.689 1.93 1.93 0 0 0 1.477.689h5.2a1.932 1.932 0 0 0 1.44-3.223 1.929 1.929 0 0 0 0-2.578 1.929 1.929 0 0 0 0-2.578 1.932 1.932 0 0 0-1.44-3.223h-5.2c-.063 0-.125 0-.186.009a8.826 8.826 0 0 0-2.24-1.944 1.931 1.931 0 0 0-.614-3.035l1.075-3.3a.645.645 0 0 0-.613-.844h-2.045a1.934 1.934 0 0 0-3.646 0H4.554a.645.645 0 0 0-.613.844l1.075 3.3A1.932 1.932 0 0 0 4.4 8.464 9.194 9.194 0 0 0 0 16.2a4.969 4.969 0 0 0 2.627 4.748zm18.084-6.038a.645.645 0 0 1-.645.645h-5.2a.645.645 0 0 1 0-1.289h5.2a.645.645 0 0 1 .645.644zm0 2.578a.645.645 0 0 1-.645.645h-5.2a.645.645 0 1 1 0-1.289h5.2a.645.645 0 0 1 .645.645zm-.645 3.223h-5.2a.645.645 0 1 1 0-1.289h5.2a.645.645 0 1 1 0 1.289zm.645-8.379a.645.645 0 0 1-.645.645h-5.2a.645.645 0 1 1 0-1.289h5.2a.645.645 0 0 1 .645.644zm-9.73-4.512H5.843a.644.644 0 0 1 0-1.289H11a.644.644 0 0 1 0 1.289h-.018zM7.133 2.578a.644.644 0 0 0 .645-.645.645.645 0 1 1 1.289 0v1.29a.645.645 0 1 0 1.289 0v-.645H11.4l-.869 2.664h-4.22l-.869-2.664zM5.969 9.11h4.9a7.284 7.284 0 0 1 2.608 1.878 1.929 1.929 0 0 0-.052 2.633 1.929 1.929 0 0 0 0 2.578 1.929 1.929 0 0 0 0 2.578 1.926 1.926 0 0 0-.494 1.289v.039a13.026 13.026 0 0 1-4.513.605 11.167 11.167 0 0 1-5.186-.9 3.677 3.677 0 0 1-1.943-3.61 7.82 7.82 0 0 1 4.68-7.09zm0 0" class="cls-1" data-name="Path 3897"/>
        <text id="LC" class="cls-2" transform="translate(4 17)">
            <tspan x="0" y="0">LC</tspan>
        </text>
    </g>
</svg>
