<svg xmlns="http://www.w3.org/2000/svg" width="15.4" height="10.4" viewBox="0 0 15.4 10.4">
    <defs>
        <style>
            .cls-1{fill:#dbdbdb;stroke:#dbdbdb;stroke-width:.4px}
        </style>
    </defs>
    <g id="credit-card" transform="translate(.2 -85.133)">
        <g id="Group_1746" data-name="Group 1746" transform="translate(0 85.333)">
            <g id="Group_1745" data-name="Group 1745">
                <path id="Path_3861" d="M13.437 85.333H1.562A1.565 1.565 0 0 0 0 86.9v6.875a1.565 1.565 0 0 0 1.562 1.563h11.875A1.565 1.565 0 0 0 15 93.771V86.9a1.565 1.565 0 0 0-1.563-1.567zm.938 8.437a.939.939 0 0 1-.937.938H1.562a.939.939 0 0 1-.937-.937V86.9a.939.939 0 0 1 .937-.937h11.875a.939.939 0 0 1 .938.937v6.87z" class="cls-1" data-name="Path 3861" transform="translate(0 -85.333)"/>
            </g>
        </g>
        <g id="Group_1748" data-name="Group 1748" transform="translate(0 87.199)">
            <g id="Group_1747" data-name="Group 1747">
                <path id="Path_3862" d="M14.687 149.333H.313a.315.315 0 0 0-.313.317v1.9a.315.315 0 0 0 .313.317h14.374a.315.315 0 0 0 .313-.317v-1.9a.315.315 0 0 0-.313-.317zm-.312 1.9H.625v-1.268h13.75v1.268z" class="cls-1" data-name="Path 3862" transform="translate(0 -149.333)"/>
            </g>
        </g>
        <g id="Group_1750" data-name="Group 1750" transform="translate(1.902 91.577)">
            <g id="Group_1749" data-name="Group 1749">
                <path id="Path_3863" d="M68.121 298.667h-3.8a.317.317 0 1 0 0 .634h3.8a.317.317 0 1 0 0-.634z" class="cls-1" data-name="Path 3863" transform="translate(-64 -298.667)"/>
            </g>
        </g>
        <g id="Group_1752" data-name="Group 1752" transform="translate(1.902 92.826)">
            <g id="Group_1751" data-name="Group 1751">
                <path id="Path_3864" d="M68.121 341.333h-3.8a.317.317 0 0 0 0 .634h3.8a.317.317 0 1 0 0-.634z" class="cls-1" data-name="Path 3864" transform="translate(-64 -341.333)"/>
            </g>
        </g>
        <g id="Group_1754" data-name="Group 1754" transform="translate(10.562 90.931)">
            <g id="Group_1753" data-name="Group 1753">
                <path id="Path_3865" d="M364.252 277.333h-.634a.952.952 0 0 0-.951.951v.634a.952.952 0 0 0 .951.951h.634a.952.952 0 0 0 .951-.951v-.634a.952.952 0 0 0-.951-.951zm.317 1.585a.317.317 0 0 1-.317.317h-.634a.317.317 0 0 1-.317-.317v-.634a.317.317 0 0 1 .317-.317h.634a.317.317 0 0 1 .317.317z" class="cls-1" data-name="Path 3865" transform="translate(-362.667 -277.333)"/>
            </g>
        </g>
    </g>
</svg>
