<svg xmlns="http://www.w3.org/2000/svg" width="16.4" height="10.662" viewBox="0 0 16.4 10.662">
    <defs>
        <style>
            .cls-1{fill:#dbdbdb;stroke:#dbdbdb;stroke-width:.4px}
        </style>
    </defs>
    <g id="cvv" transform="translate(.2 .2)">
        <path id="Path_3790" d="M14.726 0H1.274A1.276 1.276 0 0 0 0 1.274v7.713a1.276 1.276 0 0 0 1.274 1.274h13.452A1.276 1.276 0 0 0 16 8.987V1.274A1.276 1.276 0 0 0 14.726 0zM1.274.425h13.452a.85.85 0 0 1 .85.85v.605H.425v-.606a.85.85 0 0 1 .849-.849zm14.3 1.88v1.214H.425V2.3zm-.85 7.532H1.274a.85.85 0 0 1-.85-.85V3.944h15.15v5.043a.85.85 0 0 1-.848.85zm0 0" class="cls-1" data-name="Path 3790"/>
        <path id="Path_3791" d="M80.828 185.945H70.212c-.117 0-.212.13-.212.29v2.419c0 .16.1.29.212.29h10.616c.117 0 .212-.13.212-.29v-2.419c0-.16-.095-.29-.212-.29zm-10.4.581h4.429v1.716l-4.429.122zm10.191 1.839h-5.171v-1.839h5.168zm0 0" class="cls-1" data-name="Path 3791" transform="translate(-67.52 -180.164)"/>
        <path id="Path_3792" d="M338.476 206.724a.39.39 0 1 0-.39-.39.39.39 0 0 0 .39.39zm0-.425a.035.035 0 1 1-.035.035.035.035 0 0 1 .035-.034zm0 0" class="cls-1" data-name="Path 3792" transform="translate(-326.58 -199.058)"/>
        <path id="Path_3793" d="M306.476 206.724a.39.39 0 1 0-.39-.39.39.39 0 0 0 .39.39zm0-.425a.035.035 0 1 1-.035.035.035.035 0 0 1 .035-.034zm0 0" class="cls-1" data-name="Path 3793" transform="translate(-296.08 -199.058)"/>
        <path id="Path_3794" d="M275.476 206.724a.39.39 0 1 0-.39-.39.39.39 0 0 0 .39.39zm0-.425a.035.035 0 1 1-.035.035.035.035 0 0 1 .035-.034zm0 0" class="cls-1" data-name="Path 3794" transform="translate(-266.48 -199.058)"/>
    </g>
</svg>
