<svg xmlns="http://www.w3.org/2000/svg" width="11.854" height="16.5" viewBox="0 0 11.854 16.5">
    <defs>
        <style>
            .cls-1,.cls-2{fill:#dfdfdf}.cls-2{stroke:#dfdfdf;stroke-width:.5px}
        </style>
    </defs>
    <g id="d.l_code" data-name="d.l code" transform="translate(-9.75 -.75)">
        <path id="Path_3148" d="M23.786 22.5a3.989 3.989 0 0 0-1.583-.467 5.823 5.823 0 0 0 1.519-2.233.231.231 0 0 0-.044-.226.235.235 0 0 0-.217-.076 5.87 5.87 0 0 0-2.176.981 6.725 6.725 0 0 0-.665-2.322.241.241 0 0 0-.408 0 6.762 6.762 0 0 0-.669 2.363 5.855 5.855 0 0 0-2.233-1.023.235.235 0 0 0-.217.076.231.231 0 0 0-.044.226 5.82 5.82 0 0 0 1.524 2.241 3.994 3.994 0 0 0-1.526.462.231.231 0 0 0 0 .4 3.992 3.992 0 0 0 1.487.459 2.335 2.335 0 0 0-.379.948.231.231 0 0 0 .225.261 2.194 2.194 0 0 0 1.334-.462c.074-.064.155-.129.236-.195s.16-.13.235-.194v1.021a.231.231 0 0 0 .462 0v-1.071c.09.08.188.16.289.242.08.065.16.129.233.193a2.183 2.183 0 0 0 1.324.462h.01a.231.231 0 0 0 .224-.261 2.329 2.329 0 0 0-.382-.953 4 4 0 0 0 1.439-.454.231.231 0 0 0 0-.4zm-1.816.412h-.138a.231.231 0 0 0-.16.414c.035.027.069.053.1.084a1.529 1.529 0 0 1 .421.669 1.53 1.53 0 0 1-.725-.321 7.422 7.422 0 0 0-.243-.2c-.185-.15-.493-.4-.521-.509a.226.226 0 0 0-.06-.1v-.981a.231.231 0 1 0-.462 0v1.066c0 .006-.007.012-.009.019-.028.107-.334.355-.517.5a82.9 82.9 0 0 1-.247.2 1.54 1.54 0 0 1-.726.32 1.527 1.527 0 0 1 .423-.67c.032-.028.065-.055.1-.079a.231.231 0 0 0 .079-.261.222.222 0 0 0-.226-.154h-.2a3.367 3.367 0 0 1-1.135-.213 3.366 3.366 0 0 1 1.135-.212c.116 0 .228 0 .347.009a.227.227 0 0 0 .227-.154.231.231 0 0 0-.08-.262 7.042 7.042 0 0 1-.444-.359 5.329 5.329 0 0 1-1.242-1.651 5.293 5.293 0 0 1 1.8.986c.041.039.083.075.124.112a.231.231 0 0 0 .384-.172 6.306 6.306 0 0 1 .436-2.159 6.264 6.264 0 0 1 .432 2.11.231.231 0 0 0 .141.2.238.238 0 0 0 .25-.042.634.634 0 0 0 .049-.046 5.331 5.331 0 0 1 1.812-.992 5.319 5.319 0 0 1-1.243 1.651c-.145.126-.3.248-.451.365a.231.231 0 0 0-.077.266.236.236 0 0 0 .232.149q.194-.014.407-.013a3.373 3.373 0 0 1 1.137.218 3.366 3.366 0 0 1-1.13.211z" class="cls-1" data-name="Path 3148" transform="translate(-4.739 -13.24)"/>
        <path id="Path_3149" d="M21.1 3.06a.258.258 0 0 0-.258-.253.258.258 0 0 1 0-.516.258.258 0 0 0 .258-.258v-.775A.258.258 0 0 0 20.839 1H10.516a.258.258 0 0 0-.258.258v.774a.258.258 0 0 0 .258.258.258.258 0 0 1 0 .516.258.258 0 0 0-.258.253L10 16.737a.258.258 0 0 0 .258.263H21.1a.258.258 0 0 0 .258-.263zM10.521 16.484l.249-13.2a.774.774 0 0 0 0-1.461v-.3h9.806v.3a.774.774 0 0 0 0 1.461l.249 13.2z" class="cls-2" data-name="Path 3149"/>
        <path id="Path_3150" d="M17.258 6.516h6.194a.258.258 0 1 0 0-.516h-6.194a.258.258 0 0 0 0 .516z" class="cls-1" data-name="Path 3150" transform="translate(-5.194 -3.71)"/>
        <path id="Path_3151" d="M44.258 6.516h.258a.258.258 0 0 0 0-.516h-.258a.258.258 0 0 0 0 .516z" class="cls-1" data-name="Path 3151" transform="translate(-25.226 -3.71)"/>
    </g>
</svg>
