<svg xmlns="http://www.w3.org/2000/svg" width="15.772" height="16.384" viewBox="0 0 15.772 16.384">
    <defs>
        <style>
            .cls-1{fill:#fff;stroke:#fff;stroke-width:.3px}
        </style>
    </defs>
    <g id="discount" transform="translate(-10.15 .235)">
        <g id="Group_1649" data-name="Group 1649" transform="translate(10.359 -.002)">
            <g id="Group_1648" data-name="Group 1648">
                <path id="Path_3803" d="M24.972 8.206a.469.469 0 0 1 0-.414l.6-1.221a1.389 1.389 0 0 0-.6-1.845l-1.2-.637a.469.469 0 0 1-.244-.335l-.235-1.338a1.389 1.389 0 0 0-1.569-1.14l-1.345.19a.469.469 0 0 1-.394-.128l-.98-.945a1.389 1.389 0 0 0-1.939 0l-.977.945a.469.469 0 0 1-.394.128l-1.345-.19a1.389 1.389 0 0 0-1.569 1.14l-.235 1.338a.469.469 0 0 1-.244.335l-1.2.637a1.389 1.389 0 0 0-.6 1.845l.6 1.221a.469.469 0 0 1 0 .414l-.6 1.221a1.389 1.389 0 0 0 .6 1.845l1.2.637a.469.469 0 0 1 .244.335l.235 1.338a1.388 1.388 0 0 0 1.369 1.154 1.427 1.427 0 0 0 .2-.014l1.345-.19a.469.469 0 0 1 .394.128l.977.945a1.389 1.389 0 0 0 1.939 0l.977-.945a.469.469 0 0 1 .394-.128l1.345.19a1.389 1.389 0 0 0 1.569-1.14l.235-1.338a.469.469 0 0 1 .244-.335l1.2-.637a1.389 1.389 0 0 0 .6-1.845zm-.435 2.25l-1.2.637a1.386 1.386 0 0 0-.72.991l-.235 1.338a.47.47 0 0 1-.531.386l-1.345-.19A1.386 1.386 0 0 0 19.34 14l-.977.945a.47.47 0 0 1-.656 0L16.731 14a1.384 1.384 0 0 0-.966-.393 1.416 1.416 0 0 0-.2.014l-1.345.19a.47.47 0 0 1-.531-.386l-.235-1.338a1.386 1.386 0 0 0-.72-.991l-1.2-.637a.47.47 0 0 1-.2-.624l.6-1.221a1.386 1.386 0 0 0 0-1.225l-.6-1.221a.47.47 0 0 1 .2-.624l1.2-.637a1.386 1.386 0 0 0 .72-.991l.235-1.338a.47.47 0 0 1 .531-.386l1.345.19A1.386 1.386 0 0 0 16.731 2l.977-.945a.47.47 0 0 1 .656 0L19.34 2a1.386 1.386 0 0 0 1.165.379l1.345-.19a.47.47 0 0 1 .531.386l.235 1.338a1.386 1.386 0 0 0 .72.991l1.2.637a.47.47 0 0 1 .2.624l-.6 1.221a1.386 1.386 0 0 0 0 1.225l.6 1.221a.47.47 0 0 1-.199.624z" class="cls-1" data-name="Path 3803" transform="translate(-10.359 .002)"/>
            </g>
        </g>
        <g id="Group_1651" data-name="Group 1651" transform="translate(14.527 4.49)">
            <g id="Group_1650" data-name="Group 1650">
                <path id="Path_3804" d="M150.673 143.927a.462.462 0 0 0-.653 0l-6.094 6.094a.462.462 0 1 0 .653.653l6.094-6.094a.462.462 0 0 0 0-.653z" class="cls-1" data-name="Path 3804" transform="translate(-143.791 -143.791)"/>
            </g>
        </g>
        <g id="Group_1653" data-name="Group 1653" transform="translate(14.497 3.845)">
            <g id="Group_1652" data-name="Group 1652">
                <path id="Path_3805" d="M144.495 123.116a1.693 1.693 0 1 0 1.693 1.693 1.695 1.695 0 0 0-1.693-1.693zm0 2.462a.769.769 0 1 1 .769-.769.77.77 0 0 1-.769.769z" class="cls-1" data-name="Path 3805" transform="translate(-142.802 -123.116)"/>
            </g>
        </g>
        <g id="Group_1655" data-name="Group 1655" transform="translate(18.188 8.766)">
            <g id="Group_1654" data-name="Group 1654">
                <path id="Path_3806" d="M262.615 280.61a1.693 1.693 0 1 0 1.693 1.693 1.695 1.695 0 0 0-1.693-1.693zm0 2.462a.769.769 0 1 1 .769-.77.77.77 0 0 1-.769.77z" class="cls-1" data-name="Path 3806" transform="translate(-260.922 -280.61)"/>
            </g>
        </g>
    </g>
</svg>
