<svg xmlns="http://www.w3.org/2000/svg" width="16" height="16" viewBox="0 0 16 16">
    <defs>
        <style>
            .cls-1{fill:#5b636a;stroke:#5b636a;stroke-width:.1px}
        </style>
    </defs>
    <g id="rEGISTER" transform="translate(0 -.849)">
        <path id="XMLID_109_" d="M254.362 222.684a.467.467 0 0 0-.467.467v1.518a.467.467 0 0 0 .935 0v-1.518a.467.467 0 0 0-.468-.467z" class="cls-1" transform="translate(-245.959 -214.872)"/>
        <path id="XMLID_108_" d="M254.362 184.447a.467.467 0 0 0-.467.467v.115a.467.467 0 0 0 .935 0v-.115a.467.467 0 0 0-.468-.467z" class="cls-1" transform="translate(-245.959 -177.839)"/>
        <path id="XMLID_107_" fill="#5b636a" d="M14.462 11.936a1.334 1.334 0 0 0-.669.179l-2.587-2.162a3.2 3.2 0 0 0 .37-1.092h1.439a1.35 1.35 0 1 0 0-.941h-1.439a3.2 3.2 0 0 0-.567-1.4l3.085-3.092a1.334 1.334 0 0 0 .56.123 1.35 1.35 0 1 0-1.223-.788l-3.074 3.08A3.189 3.189 0 0 0 8.9 5.215V3.732a1.346 1.346 0 1 0-.938 0v1.473a3.19 3.19 0 0 0-1.6.7l-1.913-1.6a1.348 1.348 0 1 0-.64.695l1.926 1.608a3.2 3.2 0 0 0-.505 1.313H3.16a1.35 1.35 0 1 0 0 .941h2.07a3.205 3.205 0 0 0 .63 1.488l-3.925 3.935a1.335 1.335 0 0 0-.588-.136 1.35 1.35 0 1 0 1.236.816L6.534 11a3.185 3.185 0 0 0 1.433.574v1.676a1.346 1.346 0 1 0 .938 0v-1.682a3.2 3.2 0 0 0 1.729-.868l2.559 2.137a1.345 1.345 0 1 0 1.269-.9zm-.185-3.954a.409.409 0 1 1-.409.409.409.409 0 0 1 .409-.409zm.377-6.193a.409.409 0 1 1-.409.409.409.409 0 0 1 .409-.408zm-6.218.268a.409.409 0 1 1-.409.409.409.409 0 0 1 .409-.409zM2.8 3.79a.409.409 0 1 1 .41.41.409.409 0 0 1-.41-.41zM1.9 8.8a.409.409 0 1 1 .409-.409.409.409 0 0 1-.409.409zm-.552 7.108a.409.409 0 1 1 .409-.409.409.409 0 0 1-.411.409zm7.09-.983a.409.409 0 1 1 .409-.409.409.409 0 0 1-.411.409zM8.4 10.667a2.276 2.276 0 1 1 2.27-2.276 2.275 2.275 0 0 1-2.27 2.276zm6.059 3.028a.409.409 0 1 1 .409-.409.409.409 0 0 1-.406.409z"/>
    </g>
</svg>
