<svg xmlns="http://www.w3.org/2000/svg" width="16.353" height="16.3" viewBox="0 0 16.353 16.3">
    <defs>
        <style>
            .cls-1,.cls-2{fill:#dbdbdb;stroke:#dbdbdb}.cls-1{stroke-width:.1px}.cls-2{stroke-width:.3px}
        </style>
    </defs>
    <g id="rEGISTER" transform="translate(.15 -.699)">
        <path id="XMLID_109_" d="M254.362 222.684a.467.467 0 0 0-.467.467v1.518a.467.467 0 0 0 .935 0v-1.518a.467.467 0 0 0-.468-.467z" class="cls-1" transform="translate(-245.931 -214.872)"/>
        <path id="XMLID_108_" d="M254.362 184.447a.467.467 0 0 0-.467.467v.115a.467.467 0 0 0 .935 0v-.115a.467.467 0 0 0-.468-.467z" class="cls-1" transform="translate(-245.931 -177.839)"/>
        <path id="XMLID_107_" d="M14.511 11.936a1.342 1.342 0 0 0-.671.179l-2.6-2.161a3.191 3.191 0 0 0 .371-1.092h1.444a1.35 1.35 0 1 0 0-.941h-1.44a3.2 3.2 0 0 0-.569-1.4l3.1-3.092a1.351 1.351 0 1 0-.665-.665l-3.09 3.079a3.2 3.2 0 0 0-1.457-.628V3.732a1.351 1.351 0 1 0-.941 0v1.473a3.206 3.206 0 0 0-1.608.7l-1.92-1.6A1.353 1.353 0 1 0 3.822 5l1.932 1.608a3.2 3.2 0 0 0-.507 1.313H3.17a1.35 1.35 0 1 0 0 .941h2.077a3.2 3.2 0 0 0 .633 1.488l-3.939 3.935a1.351 1.351 0 1 0 .65.68L6.556 11a3.2 3.2 0 0 0 1.438.574v1.676a1.351 1.351 0 1 0 .941 0v-1.682a3.212 3.212 0 0 0 1.735-.868l2.567 2.137a1.351 1.351 0 1 0 1.274-.9zm-.186-3.954a.409.409 0 1 1-.41.409.41.41 0 0 1 .41-.409zM14.7 1.79a.409.409 0 1 1-.41.409.41.41 0 0 1 .41-.409zm-6.239.268a.409.409 0 1 1-.41.409.41.41 0 0 1 .41-.409zM2.811 3.79a.41.41 0 1 1 .41.409.41.41 0 0 1-.41-.409zM1.9 8.8a.409.409 0 1 1 .41-.409.41.41 0 0 1-.41.409zm-.554 7.108a.409.409 0 1 1 .41-.409.41.41 0 0 1-.405.409zm7.113-.983a.409.409 0 1 1 .41-.409.41.41 0 0 1-.405.409zm-.033-4.258a2.276 2.276 0 1 1 2.278-2.276 2.279 2.279 0 0 1-2.273 2.276zm6.08 3.028a.409.409 0 1 1 .41-.409.41.41 0 0 1-.405.409z" class="cls-2"/>
    </g>
</svg>
