<svg xmlns="http://www.w3.org/2000/svg" width="20.5" height="20.5" viewBox="0 0 20.5 20.5">
    <defs>
        <style>
            .cls-1{fill:#674cf3;stroke:#674cf3;stroke-width:.5px}
        </style>
    </defs>
    <g id="download_1_" transform="translate(.25 .25)">
        <g id="Group_4963">
            <g id="Group_4962">
                <path id="Path_10769" d="M18.909 1.091A3.7 3.7 0 0 0 16.276 0H3.724A3.728 3.728 0 0 0 0 3.724v12.552A3.728 3.728 0 0 0 3.724 20h12.552A3.728 3.728 0 0 0 20 16.276V3.724a3.7 3.7 0 0 0-1.091-2.633zm-.081 15.185a2.555 2.555 0 0 1-2.552 2.552H3.724a2.555 2.555 0 0 1-2.552-2.552V3.724a2.555 2.555 0 0 1 2.552-2.552h12.552a2.552 2.552 0 0 1 2.552 2.552z" class="cls-1"/>
            </g>
        </g>
        <g id="Group_4965" transform="translate(6.285 3.748)">
            <g id="Group_4964">
                <path id="Path_10770" d="M168.728 101.159a.589.589 0 0 0-.834 0l-2.119 2.119v-6.289a.589.589 0 1 0-1.179 0v6.288l-2.119-2.119a.589.589 0 0 0-.834.834l3.125 3.125a.589.589 0 0 0 .834 0l3.125-3.125a.589.589 0 0 0 .001-.833z" class="cls-1" transform="translate(-161.472 -96.4)"/>
            </g>
        </g>
        <g id="Group_4967" transform="translate(3.728 15.057)">
            <g id="Group_4966">
                <path id="Path_10771" d="M108.357 385.6H96.991a.589.589 0 0 0 0 1.179h11.365a.589.589 0 0 0 0-1.179z" class="cls-1" transform="translate(-96.402 -385.601)"/>
            </g>
        </g>
    </g>
</svg>
