<svg xmlns="http://www.w3.org/2000/svg" width="25.795" height="57.004" viewBox="0 0 25.795 57.004">
    <defs>
        <style>
            .cls-1{fill:#fff;stroke:#674cf3;stroke-miterlimit:10}.cls-2{fill:#674cf3;opacity:.1}
        </style>
    </defs>
    <g id="drops" transform="translate(-12.086 -1.707)">
        <path id="Rectangle-path" d="M2.82 0h19.155a2.82 2.82 0 0 1 2.82 2.82v19.295a2.82 2.82 0 0 1-2.82 2.82H2.82A2.82 2.82 0 0 1 0 22.115V2.82A2.82 2.82 0 0 1 2.82 0z" class="cls-1" transform="translate(12.586 33.277)"/>
        <path id="Shape" d="M19.631 0H3.805a4.438 4.438 0 0 1 .572 2.185V17.9A4.6 4.6 0 0 1 0 22.5a4.586 4.586 0 0 0 4.034 2.431h15.6a4.6 4.6 0 0 0 4.589-4.616V4.632a4.629 4.629 0 0 0-1.338-3.274A4.576 4.576 0 0 0 19.631 0z" class="cls-2" transform="translate(13.161 33.277)"/>
        <path id="Rectangle-path-2" d="M1.5 0h20.136a1.5 1.5 0 0 1 1.5 1.5v1.944a1.5 1.5 0 0 1-1.5 1.5H1.5a1.5 1.5 0 0 1-1.5-1.5V1.5A1.5 1.5 0 0 1 1.5 0z" class="cls-1" transform="translate(13.424 28.552)"/>
        <path id="Shape-2" fill="none" stroke="#674cf3" stroke-miterlimit="10" d="M0 22.889l.3-7.376a6.383 6.383 0 0 1 1.516-3.926 19.341 19.341 0 0 0 4.008-9.494A2.484 2.484 0 0 1 8.254.007h1.891a2.594 2.594 0 0 1 2.69 1.905c.6 2.562 1.94 7.145 4.109 9.642a6.5 6.5 0 0 1 1.631 3.946l.375 7.359a3.481 3.481 0 0 1-.942 2.568 3.428 3.428 0 0 1-2.5 1.078H3.444a3.428 3.428 0 0 1-2.487-1.07A3.48 3.48 0 0 1 0 22.889z" transform="translate(15.54 2.212)"/>
        <path id="Shape-3" d="M14.294 15.243a6.472 6.472 0 0 0-1.643-3.959c-2.168-2.5-3.515-7.063-4.139-9.642A2.316 2.316 0 0 0 7.165 0a2.513 2.513 0 0 0-1.33 1.774 19.12 19.12 0 0 1-4.041 9.478 6.57 6.57 0 0 0-1.528 3.926L0 22.569a3.466 3.466 0 0 0 3.466 3.614h7.72a3.466 3.466 0 0 0 3.466-3.614z" class="cls-2" transform="translate(19.227 2.318)"/>
        <path id="Shape-4" fill="#ffbe0b" d="M2.957 0h10.956v12.04H2.957A2.957 2.957 0 0 1 0 9.084V2.94A2.957 2.957 0 0 1 2.957 0z" opacity="0.78" transform="translate(22.63 39.486)"/>
    </g>
</svg>
