<svg xmlns="http://www.w3.org/2000/svg" id="banner_1" width="328" height="165" data-name="banner 1" viewBox="0 0 328 165">
    <defs>
        <style>
            .cls-1{opacity:.9;fill:url(#linear-gradient)}.cls-10,.cls-11,.cls-13,.cls-14,.cls-2,.cls-4,.cls-5{fill:#fff}.cls-2{font-size:14px}.cls-15,.cls-2{font-family:Quicksand-Medium,Quicksand;font-weight:500}.cls-3{fill:#f7fff7;font-family:Quicksand-Regular,Quicksand;font-size:11px}.cls-4{font-size:11px;font-family:OpenSans-SemiBold,Open Sans;font-weight:600}.cls-17,.cls-6{fill:none}.cls-6{stroke:#fff;stroke-miterlimit:10}.cls-7{fill:#ffbe0b}.cls-8{fill:#fafbf2}.cls-9{opacity:.699}.cls-10,.cls-11,.cls-12{opacity:.704}.cls-13{opacity:.698}.cls-14{opacity:.702}.cls-15{fill:#002f4f;font-size:16px}.cls-16{stroke:none}
        </style>
        <linearGradient id="linear-gradient" x2="1.272" y1=".5" y2=".5" gradientUnits="objectBoundingBox">
            <stop offset="0" stop-color="#674cf3"/>
            <stop offset=".465" stop-color="#ef2b4a"/>
            <stop offset="1" stop-color="#f28411"/>
        </linearGradient>
    </defs>
    <g id="Offer_Banner" data-name="Offer Banner">
        <rect id="Rectangle_45" width="328" height="165" class="cls-1" data-name="Rectangle 45" rx="4"/>
        <text id="Flat_25_Off_on_your" class="cls-2" data-name="Flat 25% Off on your" transform="translate(12 64)">
            <tspan x="0" y="0">Flat 20% Off </tspan><tspan x="0" y="18">on all prescribed medicine</tspan>
        </text>
        <text id="Special_offer" class="cls-3" data-name="Special offer" transform="translate(12 42)">
            <tspan x="0" y="0">Diwali Super Sale</tspan>
        </text>
        <text id="Use_Code:_FLAT25" class="cls-4" data-name="Use Code: FLAT25" transform="translate(12 110)">
            <tspan x="0" y="0">C-Square Medical Store</tspan>
        </text>
        <g id="Group_3" data-name="Group 3" transform="translate(149 145)">
            <circle id="carousal_control_active" cx="4" cy="4" r="4" class="cls-5" data-name="carousal control active"/>
            <g id="carousal_control_inactive" class="cls-6" data-name="carousal control inactive" transform="translate(14)">
                <circle cx="4" cy="4" r="4" class="cls-16"/>
                <circle cx="4" cy="4" r="3.5" class="cls-17"/>
            </g>
            <g id="carousal_control_inactive-2" class="cls-6" data-name="carousal control inactive" transform="translate(28)">
                <circle cx="4" cy="4" r="4" class="cls-16"/>
                <circle cx="4" cy="4" r="3.5" class="cls-17"/>
            </g>
        </g>
        <rect id="Rectangle_2241" width="86" height="24" class="cls-7" data-name="Rectangle 2241" rx="3" transform="translate(12 119)"/>
    </g>
    <g id="ILLUSTRATION" transform="translate(2.625 6.766)">
        <g id="dollar-symbol" transform="translate(220.997 37.089)">
            <circle id="Oval" cx="21.577" cy="21.577" r="21.577" class="cls-5" transform="translate(15.453 17.271)"/>
            <path id="Shape" d="M37.238 78.462a3.844 3.844 0 0 1-2.738-1.154l-6.852-6.893a1.017 1.017 0 0 0-.714-.3.982.982 0 0 0-.146.011l-9.561 1.539a3.991 3.991 0 0 1-.621.048 3.874 3.874 0 0 1-3.825-3.3l-1.5-9.635a.973.973 0 0 0-.525-.738l-8.637-4.412A3.917 3.917 0 0 1 .43 48.37l4.429-8.69a1.016 1.016 0 0 0 0-.914L.446 30.093a3.917 3.917 0 0 1 1.689-5.259l8.636-4.409a1.011 1.011 0 0 0 .526-.737l1.514-9.636a3.849 3.849 0 0 1 3.824-3.3 4.1 4.1 0 0 1 .622.048l9.561 1.539a.982.982 0 0 0 .147.011 1.016 1.016 0 0 0 .714-.3l6.852-6.894A3.792 3.792 0 0 1 37.27 0a3.846 3.846 0 0 1 2.741 1.154l6.851 6.894a1.016 1.016 0 0 0 .714.3.982.982 0 0 0 .147-.011l9.56-1.537a4.1 4.1 0 0 1 .622-.048 3.873 3.873 0 0 1 3.824 3.3l1.53 9.636a.97.97 0 0 0 .525.737l8.637 4.409a3.917 3.917 0 0 1 1.689 5.259l-4.461 8.69a1.02 1.02 0 0 0 0 .914l4.414 8.673a3.917 3.917 0 0 1-1.689 5.259l-8.636 4.409a1.015 1.015 0 0 0-.526.738L61.7 68.41a3.849 3.849 0 0 1-3.824 3.3 4 4 0 0 1-.622-.048l-9.564-1.536a.978.978 0 0 0-.146-.011 1.017 1.017 0 0 0-.714.3l-6.851 6.893a3.789 3.789 0 0 1-2.741 1.154zm-10.23-11.254a3.9 3.9 0 0 1 2.741 1.154l6.851 6.894a.959.959 0 0 0 .695.288 1 1 0 0 0 .705-.288l6.852-6.894a3.792 3.792 0 0 1 2.741-1.154 4.045 4.045 0 0 1 .605.047L57.76 68.8a.932.932 0 0 0 .162.014 1.006 1.006 0 0 0 .97-.848l1.514-9.636a3.9 3.9 0 0 1 2.071-2.87l8.637-4.425a.929.929 0 0 0 .493-.577 1 1 0 0 0-.063-.77l-4.414-8.677a4.061 4.061 0 0 1-.048-3.575l4.418-8.673a1 1 0 0 0 .064-.77.972.972 0 0 0-.494-.578l-8.636-4.409a3.9 3.9 0 0 1-2.071-2.869L58.844 10.5a1 1 0 0 0-.988-.844.985.985 0 0 0-.144.011l-9.561 1.539a3.684 3.684 0 0 1-.624.053 3.845 3.845 0 0 1-2.739-1.143l-6.849-6.893a.961.961 0 0 0-.7-.288 1 1 0 0 0-.707.288l-6.852 6.894a3.792 3.792 0 0 1-2.741 1.154 4.05 4.05 0 0 1-.605-.048l-9.561-1.54a.931.931 0 0 0-.14-.011 1.017 1.017 0 0 0-.992.844l-1.5 9.636a3.9 3.9 0 0 1-2.071 2.87l-8.628 4.409a.933.933 0 0 0-.494.577 1 1 0 0 0 .064.77l4.478 8.69a3.991 3.991 0 0 1 0 3.559L3.075 49.7a1 1 0 0 0-.064.77.985.985 0 0 0 .494.577l8.636 4.409a3.9 3.9 0 0 1 2.071 2.87l1.5 9.636a1 1 0 0 0 .988.844.985.985 0 0 0 .144-.011l9.561-1.54a3.684 3.684 0 0 1 .603-.047z" class="cls-8"/>
            <path id="Shape-2" d="M.631 2.682a1.463 1.463 0 0 0 .828.26 1.5 1.5 0 0 0 1.218-.635 1.472 1.472 0 1 0-2.047.374z" class="cls-8" data-name="Shape" transform="translate(48.058 20.596)"/>
            <path id="Shape-3" d="M1.47 2.942a1.42 1.42 0 0 0 .977-.373A1.468 1.468 0 1 0 .493.378a1.463 1.463 0 0 0-.114 2.077 1.426 1.426 0 0 0 1.091.487z" class="cls-8" data-name="Shape" transform="translate(51.981 23.539)"/>
            <path id="Shape-4" d="M.944.1a1.472 1.472 0 0 0 .536 2.845 1.4 1.4 0 0 0 .52-.1A1.471 1.471 0 0 0 .944.1z" class="cls-8" data-name="Shape" transform="translate(43.154 57.866)"/>
            <path id="Shape-5" d="M.629.258a1.488 1.488 0 0 0-.372 2.05 1.5 1.5 0 0 0 1.215.635 1.468 1.468 0 0 0 .842-.26A1.488 1.488 0 0 0 2.686.632 1.492 1.492 0 0 0 .629.258z" class="cls-8" data-name="Shape" transform="translate(48.058 55.905)"/>
            <path id="Shape-6" d="M1.993.1A1.469 1.469 0 1 0 .956 2.845a1.406 1.406 0 0 0 .519.1A1.47 1.47 0 0 0 1.993.1z" class="cls-8" data-name="Shape" transform="translate(28.442 57.866)"/>
            <path id="Shape-7" d="M1.293.011A1.463 1.463 0 0 0 .011 1.647a1.483 1.483 0 0 0 1.46 1.3.667.667 0 0 0 .178-.016 1.469 1.469 0 1 0-.356-2.92z" class="cls-8" data-name="Shape" transform="translate(38.25 58.847)"/>
            <path id="Shape-8" d="M1.648.011a1.476 1.476 0 0 0-1.637 1.3 1.45 1.45 0 0 0 1.281 1.62c.065 0 .113.016.178.016a1.482 1.482 0 0 0 1.459-1.3A1.452 1.452 0 0 0 1.648.011z" class="cls-8" data-name="Shape" transform="translate(33.346 58.847)"/>
            <path id="Shape-9" d="M.043 1.825a1.472 1.472 0 0 0 1.428 1.117 1.354 1.354 0 0 0 .357-.049A1.469 1.469 0 1 0 .043 1.825z" class="cls-8" data-name="Shape" transform="translate(56.885 32.366)"/>
            <path id="Shape-10" d="M1.479 0A1.485 1.485 0 0 0 0 1.479a1.46 1.46 0 0 0 1.479 1.463 1.46 1.46 0 0 0 1.463-1.479A1.447 1.447 0 0 0 1.479 0z" class="cls-8" data-name="Shape" transform="translate(57.866 38.251)"/>
            <path id="Shape-11" d="M1.824.043a1.469 1.469 0 0 0-.713 2.851 1.263 1.263 0 0 0 .356.049 1.47 1.47 0 0 0 1.426-1.118A1.443 1.443 0 0 0 1.824.043z" class="cls-8" data-name="Shape" transform="translate(56.885 42.174)"/>
            <path id="Shape-12" d="M1.471 2.942a1.458 1.458 0 0 0 .685-.163A1.474 1.474 0 0 0 .787.167a1.481 1.481 0 0 0-.62 1.992 1.464 1.464 0 0 0 1.304.783z" class="cls-8" data-name="Shape" transform="translate(54.924 27.462)"/>
            <path id="Shape-13" d="M.369.494A1.467 1.467 0 0 0 .5 2.569a1.491 1.491 0 0 0 .972.373 1.436 1.436 0 0 0 1.1-.5A1.47 1.47 0 1 0 .369.494z" class="cls-8" data-name="Shape" transform="translate(51.981 51.982)"/>
            <path id="Shape-14" d="M2.156.167A1.474 1.474 0 0 0 .787 2.779a1.458 1.458 0 0 0 .685.163A1.474 1.474 0 0 0 2.156.167z" class="cls-8" data-name="Shape" transform="translate(54.924 48.058)"/>
            <path id="Shape-15" d="M1.471 2.942A1.463 1.463 0 1 0 .5 2.584a1.44 1.44 0 0 0 .971.358z" class="cls-8" data-name="Shape" transform="translate(19.596 23.539)"/>
            <path id="Shape-16" d="M.787.166a1.488 1.488 0 0 0-.619 2 1.465 1.465 0 0 0 1.3.779A1.459 1.459 0 0 0 2.775.8 1.468 1.468 0 0 0 .787.166z" class="cls-8" data-name="Shape" transform="translate(16.673 48.058)"/>
            <path id="Shape-17" d="M2.893 1.113a1.469 1.469 0 1 0-1.425 1.83 1.348 1.348 0 0 0 .356-.049 1.449 1.449 0 0 0 1.069-1.781z" class="cls-8" data-name="Shape" transform="translate(14.889 43.154)"/>
            <path id="Shape-18" d="M1.115 2.894a1.353 1.353 0 0 0 .357.049 1.488 1.488 0 1 0-.357-.049z" class="cls-8" data-name="Shape" transform="translate(14.692 32.366)"/>
            <path id="Shape-19" d="M1.479 2.942A1.451 1.451 0 0 0 2.942 1.5v-.06A1.465 1.465 0 0 0 1.463 0 1.451 1.451 0 0 0 0 1.44v.06a1.476 1.476 0 0 0 1.479 1.44z" class="cls-8" data-name="Shape" transform="translate(14.378 38.251)"/>
            <path id="Shape-20" d="M.787 2.779a1.505 1.505 0 0 0 .685.163 1.464 1.464 0 1 0-.685-.163z" class="cls-8" data-name="Shape" transform="translate(16.673 27.462)"/>
            <path id="Shape-21" d="M.491.372a1.473 1.473 0 0 0 .989 2.57 1.381 1.381 0 0 0 .972-.374A1.472 1.472 0 0 0 .491.372z" class="cls-8" data-name="Shape" transform="translate(19.596 51.982)"/>
            <path id="Shape-22" d="M1.471 2.942a.667.667 0 0 0 .178-.016A1.469 1.469 0 1 0 1.293.011 1.463 1.463 0 0 0 .011 1.647a1.483 1.483 0 0 0 1.46 1.295z" class="cls-8" data-name="Shape" transform="translate(33.346 16.673)"/>
            <path id="Shape-23" d="M1.293 2.926c.065 0 .114.016.179.016a1.483 1.483 0 0 0 1.461-1.3 1.471 1.471 0 1 0-1.639 1.28z" class="cls-8" data-name="Shape" transform="translate(38.25 16.673)"/>
            <path id="Shape-24" d="M.954 2.845a1.4 1.4 0 0 0 .517.1 1.458 1.458 0 0 0 1.374-.954A1.469 1.469 0 0 0 .1.954a1.459 1.459 0 0 0 .854 1.891z" class="cls-8" data-name="Shape" transform="translate(43.154 17.654)"/>
            <path id="Shape-25" d="M1.467 2.942a1.416 1.416 0 0 0 .521-.1 1.48 1.48 0 0 0 .863-1.9A1.491 1.491 0 0 0 .946.09 1.458 1.458 0 0 0 .1 1.986a1.447 1.447 0 0 0 1.367.956z" class="cls-8" data-name="Shape" transform="translate(28.442 17.654)"/>
            <path id="Shape-26" d="M2.3.258A1.474 1.474 0 0 0 .257.632a1.484 1.484 0 0 0 .373 2.05 1.459 1.459 0 0 0 .827.26 1.5 1.5 0 0 0 1.217-.635A1.458 1.458 0 0 0 2.3.258z" class="cls-8" data-name="Shape" transform="translate(23.538 55.905)"/>
            <path id="Shape-27" d="M1.463 2.942A1.472 1.472 0 0 0 2.684.632 1.486 1.486 0 0 0 .633.258a1.483 1.483 0 0 0-.375 2.05 1.416 1.416 0 0 0 1.205.634z" class="cls-8" data-name="Shape" transform="translate(23.538 19.596)"/>
        </g>
        <g id="MED_ICON_BANNER" data-name="MED ICON BANNER" transform="translate(200.975 18)">
            <g id="icons8-vaccine_drop" class="cls-9" transform="translate(12.529 11.648)">
                <path id="Shape-28" d="M2.3 23A2.3 2.3 0 0 1 0 20.7a3.065 3.065 0 0 1 .331-1.2 12.642 12.642 0 0 1 .647-1.251c.465-.8.945-1.489.95-1.5l.374-.547.374.547c0 .007.483.691.95 1.5a12.823 12.823 0 0 1 .646 1.251 3.081 3.081 0 0 1 .328 1.2A2.3 2.3 0 0 1 2.3 23zm0-5.121l-.051.077c-.14.213-.233.354-.467.757a12.793 12.793 0 0 0-.619 1.165 2.777 2.777 0 0 0-.244.819 1.38 1.38 0 1 0 2.761 0 2.752 2.752 0 0 0-.244-.819 12.794 12.794 0 0 0-.619-1.165 12.201 12.201 0 0 0-.48-.777l-.037-.059zm.3-3.092l-1.291-1.296.187-.3 1.237-2.043-.533-.534a1.259 1.259 0 0 1 0-1.755h.015l.791-.759a1.381 1.381 0 0 1 .072-1.856L8.931.4a1.354 1.354 0 0 1 1.927 0l4.832 4.832a1.365 1.365 0 0 1 0 1.927l-5.838 5.857a1.355 1.355 0 0 1-.966.4 1.384 1.384 0 0 1-.875-.31l-.776.791a1.254 1.254 0 0 1-1.754 0l-.532-.532L2.905 14.6l-.3.186zm1.05-6.026l-.791.762a.261.261 0 0 0 0 .446l.776.791.265.24-.187.317-1.24 2.044.259.259 2.043-1.237.316-.187.245.259.791.777a.334.334 0 0 0 .223.125.334.334 0 0 0 .223-.125l.776-.777-3.7-3.7zM9.9.892a.455.455 0 0 0-.317.159L3.725 6.889a.417.417 0 0 0 0 .647l4.832 4.832a.417.417 0 0 0 .648 0l5.839-5.854a.4.4 0 0 0 0-.632L10.212 1.05A.459.459 0 0 0 9.9.892z" class="cls-5" data-name="Shape"/>
            </g>
            <g id="icons8-prescription_pill_bottle" transform="translate(68.012)">
                <path id="Shape-29" d="M13.988 19.5H2.12a1.273 1.273 0 0 1-1.272-1.272V15.8a.436.436 0 0 1 0-.252V7.325a.433.433 0 0 1 0-.251V4.239H0V2.12A1.273 1.273 0 0 1 1.272.848h.013A1.227 1.227 0 0 1 2.411 0H13.7a1.226 1.226 0 0 1 1.126.848h.013a1.273 1.273 0 0 1 1.269 1.272v2.119h-.848v2.874a.415.415 0 0 1 0 .172v8.306a.41.41 0 0 1 0 .172v2.465a1.273 1.273 0 0 1-1.272 1.272zM1.7 16.108v2.12a.415.415 0 0 0 .424.424h11.864a.415.415 0 0 0 .424-.424v-2.12zm0-8.478v7.63h12.713V7.63zm0-3.392v2.544h12.713V4.239zM1.272 1.7a.415.415 0 0 0-.424.424v1.268H15.26V2.12a.415.415 0 0 0-.424-.424H14.2l-.067-.358-.027-.132A.415.415 0 0 0 13.7.848H2.411A.415.415 0 0 0 2 1.206l-.027.132-.052.362zm6.782 12.713h-.848l1.1-1.537-1.246-1.855h-.7v1.272h-.849V8.478h1.7a1.265 1.265 0 0 1 .6 2.385l.941 1.4.583-.821h.848l-1.02 1.43 1.02 1.535h-.857l-.61-.914-.662.914zm-1.7-5.087v.848h.847a.424.424 0 1 0 0-.848z" class="cls-10" data-name="Shape"/>
            </g>
            <g id="icons8-wine_bottle" transform="translate(103.808 31.321)">
                <path id="Shape-30" d="M7.383 21.438H1.208A1.224 1.224 0 0 1 0 20.229V9.155A3.644 3.644 0 0 1 1.007 6.5a3.358 3.358 0 0 1 1.141-.765V2.7a.429.429 0 0 1 0-.255V.859A.874.874 0 0 1 2.39.242.873.873 0 0 1 3.007 0h2.577A.874.874 0 0 1 6.2.242a.874.874 0 0 1 .242.618v1.623a.426.426 0 0 1 0 .175v3.087a3.347 3.347 0 0 1 1.141.765 3.662 3.662 0 0 1 1.008 2.645v11.074a1.224 1.224 0 0 1-1.208 1.209zM3.007 3.007v3.007a.428.428 0 0 1-.295.4 2.818 2.818 0 0 0-1.1.671 2.789 2.789 0 0 0-.753 2.07v11.074a.341.341 0 0 0 .349.349h6.175a.341.341 0 0 0 .349-.349V9.155a2.768 2.768 0 0 0-.752-2.041 2.931 2.931 0 0 0-1.1-.7.428.428 0 0 1-.3-.4V3.007zm0-2.147v1.288h2.577V.859zm3.436 17.61h-4.3a.43.43 0 0 1-.43-.429v-6.872a.429.429 0 0 1 .35-.43h4.38a.43.43 0 0 1 .429.43v6.873a.43.43 0 0 1-.429.428zm-3.866-4.724v3.866h3.437v-3.866zm0-2.148v1.289h3.437V11.6z" class="cls-11" data-name="Shape"/>
            </g>
            <g id="icons8-pills" class="cls-12" transform="translate(0 62.643)">
                <path id="Shape-31" d="M10.855 15.407a5.2 5.2 0 0 1-3.831-1.67A3.853 3.853 0 0 1 0 11.54V3.868a3.852 3.852 0 1 1 7.7 0v2.1A5.205 5.205 0 0 1 10.855 4.9a5.252 5.252 0 1 1 0 10.5zm0-9.8a4.552 4.552 0 1 0 4.552 4.552A4.557 4.557 0 0 0 10.855 5.6zm-9.1 8.054a.35.35 0 0 1 .35.35.366.366 0 0 1-.031.144 3.116 3.116 0 0 0 3.562 0 .361.361 0 0 1-.028-.139.35.35 0 0 1 .35-.35.345.345 0 0 1 .185.052 3.142 3.142 0 0 0 .417-.547 5.328 5.328 0 0 1-.517-.917.337.337 0 0 1-.085.01.349.349 0 0 1-.146-.667 5.254 5.254 0 0 1-.2-1.434 5.17 5.17 0 0 1 .447-2.1H.7V8.4a.35.35 0 0 1 0 .7v1.4a.35.35 0 0 1 0 .7v.334a3.163 3.163 0 0 0 .862 2.172.355.355 0 0 1 .189-.049zM3.852.7A3.162 3.162 0 0 0 .7 3.866v3.487h5.6a.37.37 0 0 1 .107.016A5.4 5.4 0 0 1 7 6.6V3.87A3.163 3.163 0 0 0 3.852.7zm0 13.657a.35.35 0 1 1 .35-.35.351.351 0 0 1-.35.35zm1.05-1.05a.35.35 0 1 1 .35-.35.351.351 0 0 1-.352.35zm-2.1 0a.35.35 0 1 1 .35-.35.351.351 0 0 1-.352.35zm5.573-.321a.358.358 0 0 1-.088-.011.35.35 0 0 1-.154-.592l4.952-4.952a.348.348 0 0 1 .241-.106h.012a.349.349 0 0 1 .321.214.353.353 0 0 1-.078.387l-4.953 4.953a.352.352 0 0 1-.254.107zm-4.522-.73a.35.35 0 1 1 .35-.35.35.35 0 0 1-.351.35zm-2.1 0a.35.35 0 1 1 .35-.35.35.35 0 0 1-.352.35zm3.147-1.05a.35.35 0 1 1 .35-.35.351.351 0 0 1-.35.35zm-2.1 0a.35.35 0 1 1 .35-.35.351.351 0 0 1-.35.35zm1.051-1.05a.35.35 0 1 1 .35-.35.351.351 0 0 1-.349.349zm-2.1 0a.35.35 0 1 1 .35-.35.351.351 0 0 1-.35.349zM4.9 9.1a.35.35 0 1 1 .35-.35.35.35 0 0 1-.35.35zm-2.1 0a.35.35 0 1 1 .35-.35.35.35 0 0 1-.35.35z" class="cls-5" data-name="Shape"/>
            </g>
            <g id="icons8-syringe" transform="translate(84.121 86.299)">
                <path id="Shape-32" d="M0 20.1v-1.6l2.725-2.725-.7-2.8a.4.4 0 0 1 .1-.39l8.55-8.55-.917-.917a.4.4 0 0 1-.113-.408.4.4 0 0 1 .314-.283.412.412 0 0 1 .05-.012h.032a.4.4 0 0 1 .294.127l1.118 1.13a.334.334 0 0 1 .037.025l.063.05a.42.42 0 0 1 .076.1l.427.414 3.039-3.038L14.577.7a.405.405 0 0 1-.113-.4.4.4 0 0 1 .314-.283.316.316 0 0 1 .05-.017h.033a.4.4 0 0 1 .294.126l4.017 4.018a.408.408 0 1 1-.577.577l-.515-.515-3.038 3.04.44.452a.423.423 0 0 1 .126.113l1.155 1.155a.409.409 0 1 1-.577.578l-.917-.917-8.551 8.55a.4.4 0 0 1-.389.1l-2.8-.7L0 20.1zm3.415-7.659L2.862 13l.678 2.762 2.763.678 8.388-8.388-3.441-3.443-.829.841a.194.194 0 0 1 .026.026l1.494 1.481a.409.409 0 0 1-.289.7.4.4 0 0 1-.288-.12L9.882 6.04a.183.183 0 0 1-.025-.025L8.814 7.057a.182.182 0 0 1 .025.025l.69.678a.408.408 0 1 1-.577.577l-.677-.69a.194.194 0 0 1-.026-.026L7.207 8.664a.254.254 0 0 1 .026.025l1.494 1.482a.408.408 0 1 1-.577.577L6.667 9.255a.182.182 0 0 1-.025-.025L5.6 10.272a.183.183 0 0 1 .025.025l.691.678a.409.409 0 1 1-.578.577l-.677-.691a.15.15 0 0 1-.026-.025h-.012l-1.03 1.042a.255.255 0 0 1 .026.025l1.494 1.482a.409.409 0 0 1-.289.7.4.4 0 0 1-.288-.12l-1.483-1.496-.015-.01-.023-.015zM15.67 1.8l-3.039 3.035 1.833 1.834L17.5 3.63z" class="cls-13" data-name="Shape"/>
            </g>
            <g id="icons8-toothpaste" transform="translate(28.849 97.757)">
                <path id="Shape-33" d="M6.711 17.473L0 10.761l.246-.261.939-.929.015-.018.011-.011 9.651-7.752.078-.056.1-.011L13.7 1.4 15.1 0l2.371 2.371-.246.258-1.151 1.141-.291 2.684-.011.112-.067.078-7.775 9.62-.011.011-.022.011-.929.94-.257.245zm4.34-14.922l-9.362 7.528-.033.023-.638.648 5.7 5.706.649-.638.023-.034 7.551-9.34-3.889-3.893zm2.674-.425l-1.869.213 3.3 3.3.191-1.89v-.013l-1.61-1.611h-.011zM15.1 1.018l-.727.727L15.739 3.1l.726-.727L15.1 1.018zM7.316 15.594l-.256-.256.515-.5.257.257-.514.5zm-.516-.515l-.256-.256.5-.515.257.257-.5.514zm-.514-.526l-.257-.253.5-.5.258.257-.5.5zm-.526-.514l-.26-.258.515-.5.258.258-.514.5zm-.515-.515l-.257-.257.5-.515.258.258-.5.514zM4.732 13l-.256-.257.5-.5.257.258-.5.5zm-.526-.515l-.256-.256.515-.5.257.257-.514.5zm-.515-.515l-.256-.256.5-.515.257.257-.5.514zm-.515-.526l-.256-.256.5-.5.257.257-.5.5zm4.944-.335a.955.955 0 0 1-.682-.28 1 1 0 0 1-.279-.514 1 1 0 0 1-.515-.28c-.585-.585-.116-1.328.164-1.772v-.006c.069-.11.122-.2.168-.279a1.083 1.083 0 0 0 .093-.264l.019-.071a1.97 1.97 0 0 1 .492-.95 1.755 1.755 0 0 1 1.241-.537 1.849 1.849 0 0 1 1.309.593 2.1 2.1 0 0 1 .269.325 2.178 2.178 0 0 1 .324.268 1.886 1.886 0 0 1 .597 1.318 1.718 1.718 0 0 1-.536 1.228 1.968 1.968 0 0 1-.951.492l-.071.019a1.069 1.069 0 0 0-.264.093c-.091.05-.184.108-.274.164h-.006l-.02.013a2.1 2.1 0 0 1-1.077.439zm.4-2.316a.168.168 0 0 1 .145.087.139.139 0 0 1-.01.147 6.386 6.386 0 0 1-.671.851.4.4 0 0 0-.13.237.258.258 0 0 0 .085.21.246.246 0 0 0 .179.068 1.7 1.7 0 0 0 .718-.331c.1-.062.2-.126.3-.183a2.063 2.063 0 0 1 .51-.188 1.276 1.276 0 0 0 .631-.3 1.036 1.036 0 0 0-.056-1.544 1.247 1.247 0 0 0-.343-.247 1.292 1.292 0 0 0-.246-.347 1.153 1.153 0 0 0-.805-.38 1.052 1.052 0 0 0-.738.335 1.266 1.266 0 0 0-.3.625 2.071 2.071 0 0 1-.188.505c-.057.1-.122.2-.184.3-.23.366-.447.711-.264.894a.267.267 0 0 0 .19.089.383.383 0 0 0 .257-.135 6.275 6.275 0 0 1 .85-.672.122.122 0 0 1 .074-.021zm-5.869 2.136l-.257-.256.515-.5.258.257-.514.5zm-.515-.514l-.257-.257.5-.515.261.257-.5.514z" class="cls-14" data-name="Shape"/>
            </g>
        </g>
        <text id="_1" class="cls-15" data-name="1" transform="translate(242.375 81.234)">
            <tspan x="0" y="0">20%</tspan>
        </text>
    </g>
</svg>
