<svg xmlns="http://www.w3.org/2000/svg" width="11.315" height="15.731" viewBox="0 0 11.315 15.731">
    <defs>
        <style>
            .cls-1{fill:#dbdbdb;stroke:#dbdbdb;stroke-width:.3px}
        </style>
    </defs>
    <g id="drug" transform="translate(.15 .15)">
        <path id="Path_3770" d="M44.4 314.807a.31.31 0 0 1 .31.31.226.226 0 0 0 .226.226c.453 0 .2-.988-.536-.988s-.989.988-.536.988a.226.226 0 0 0 .226-.226.31.31 0 0 1 .31-.31zm0 0" class="cls-1" data-name="Path 3770" transform="translate(-42.323 -304.881)"/>
        <path id="Path_3771" d="M62.173 441.141c-.739 0-.989.988-.536.988a.226.226 0 0 0 .226-.226.31.31 0 1 1 .619 0 .226.226 0 0 0 .226.226c.454 0 .204-.988-.535-.988zm0 0" class="cls-1" data-name="Path 3771" transform="translate(-59.561 -427.846)"/>
        <path id="Path_3772" d="M213.547 273.832c-.741 0-.988.988-.536.988a.226.226 0 0 0 .226-.226.31.31 0 1 1 .619 0 .226.226 0 0 0 .226.226c.453 0 .204-.988-.535-.988zm0 0" class="cls-1" data-name="Path 3772" transform="translate(-206.372 -265.579)"/>
        <path id="Path_3773" d="M185.025 412.578c-.739 0-.989.988-.536.988a.226.226 0 0 0 .226-.226.31.31 0 1 1 .619 0 .226.226 0 1 0 .452 0 .762.762 0 0 0-.761-.762zm0 0" class="cls-1" data-name="Path 3773" transform="translate(-178.71 -400.144)"/>
        <path id="Path_3774" d="M281.6 370.5c-.739 0-.989.988-.536.988a.226.226 0 0 0 .226-.226.31.31 0 1 1 .619 0 .226.226 0 0 0 .452 0 .763.763 0 0 0-.761-.762zm0 0" class="cls-1" data-name="Path 3774" transform="translate(-272.375 -359.334)"/>
        <path id="Path_3775" d="M10.789 0H6.737a.226.226 0 1 0 0 .452h3.825v.763H.452V.452h5.441a.226.226 0 0 0 0-.452H.225A.226.226 0 0 0 0 .226V2.9a.226.226 0 0 0 .226.226.467.467 0 0 1 0 .934.226.226 0 0 0-.226.231v1.79a.226.226 0 0 0 .452 0V4.489a.919.919 0 0 0 0-1.782V2.23h10.111v.477a.919.919 0 0 0 0 1.782v3.52a1.082 1.082 0 0 0-.811.015.75.75 0 0 0-.464-.139.915.915 0 0 0-.716-.518 1.043 1.043 0 0 0-1.817-.529 1.042 1.042 0 0 0-1.309.147.924.924 0 0 0-1.392.315.93.93 0 0 0-.408.043 1.043 1.043 0 0 0-1.653.545 1.04 1.04 0 0 0-.689.169 1.2 1.2 0 0 0-.852-.078V6.925a.226.226 0 1 0-.452 0v7.619a.888.888 0 0 0 .887.887h9.241a.888.888 0 0 0 .887-.887V4.291a.226.226 0 0 0-.226-.226.467.467 0 1 1 0-.934.226.226 0 0 0 .226-.226V.226A.226.226 0 0 0 10.789 0zm-.226 14.544a.436.436 0 0 1-.435.435H.887a.436.436 0 0 1-.435-.435V8.465a.741.741 0 0 1 .743.055.226.226 0 0 0 .282-.02.59.59 0 0 1 .623-.121.226.226 0 0 0 .309-.218.591.591 0 0 1 1.026-.4.226.226 0 0 0 .278.044.475.475 0 0 1 .4-.028.226.226 0 0 0 .3-.164.471.471 0 0 1 .857-.156.226.226 0 0 0 .391-.018.59.59 0 0 1 .966-.119.226.226 0 0 0 .374-.053.59.59 0 0 1 1.124.252.264.264 0 0 0 .067.235.226.226 0 0 0 .188.059.472.472 0 0 1 .527.362.227.227 0 0 0 .1.142c.133.084.2-.019.393.03a.341.341 0 0 0 .46.12.624.624 0 0 1 .7.053v6.019zM.452 1.778v-.719h10.111v.719zm0 0" class="cls-1" data-name="Path 3775"/>
    </g>
</svg>
