<svg xmlns="http://www.w3.org/2000/svg" width="16.341" height="16.312" viewBox="0 0 16.341 16.312">
    <defs>
        <style>
            .cls-1{fill:#dbdbdb;stroke:#dbdbdb;stroke-width:.3px}
        </style>
    </defs>
    <path id="writing" d="M14.378.137a.469.469 0 0 0-.663 0L10.1 3.751H1.908A1.408 1.408 0 0 0 .5 5.157v6.564a1.408 1.408 0 0 0 1.407 1.407h.5v2.407a.469.469 0 0 0 .8.328l2.675-2.735h5.46a1.408 1.408 0 0 0 1.407-1.407V6.4l3.618-3.61a.469.469 0 0 0 0-.663zm-4.31 7.625L8.742 6.436l3.978-3.978 1.326 1.326zm-1.826-.5l1 1-1.712.713zm3.574 4.458a.469.469 0 0 1-.469.469H5.69a.469.469 0 0 0-.335.141l-2.01 2.055v-1.726a.469.469 0 0 0-.469-.469h-.968a.469.469 0 0 1-.469-.469V5.157a.469.469 0 0 1 .469-.469h7.256L7.747 6.1a.479.479 0 0 0-.1.157l-1.3 3.116H3.814a.469.469 0 1 0 0 .937h2.845a.474.474 0 0 0 .184-.038l3.4-1.416a.476.476 0 0 0 .157-.1l1.416-1.416zm2.894-8.6l-1.326-1.325.663-.663 1.326 1.326zm0 0" class="cls-1" transform="translate(-.351 .15)"/>
</svg>
