<svg xmlns="http://www.w3.org/2000/svg" width="67.518" height="72" viewBox="0 0 67.518 72">
    <defs>
        <linearGradient id="alwmshaa6a" x2="1" y1=".504" y2=".504" gradientUnits="objectBoundingBox">
            <stop offset="0" stop-color="#674cf3"/>
            <stop offset=".021" stop-color="#194bf2"/>
            <stop offset=".293" stop-color="#674cf3"/>
            <stop offset=".554" stop-color="#674cf3"/>
            <stop offset=".796" stop-color="#8039db"/>
            <stop offset="1" stop-color="#194bf2"/>
        </linearGradient>
    </defs>
    <path fill="url(#alwmshaa6a)" d="M31.687 45.844a2.812 2.812 0 0 1 2.813 2.812 2.812 2.812 0 1 1-5.625 0 2.812 2.812 0 0 1 2.812-2.812zm7.734 2.812a2.813 2.813 0 0 0 5.625 0 2.813 2.813 0 0 0-5.625 0zm10.547 0a2.813 2.813 0 0 0 5.625 0 2.813 2.813 0 0 0-5.625 0zm15.047 20.532A2.812 2.812 0 0 1 62.2 72H27.187a11.263 11.263 0 0 1-11.25-11.25V37.688a11.263 11.263 0 0 1 11.25-11.25h3.37v-9.919a16.879 16.879 0 0 1 33.75 0v9.919h3.38a11.176 11.176 0 0 1 3.1.39 2.813 2.813 0 0 1-1.549 5.407 5.726 5.726 0 0 0-1.553-.173h-40.5a5.631 5.631 0 0 0-5.625 5.625V60.75a5.631 5.631 0 0 0 5.625 5.625H62.2a2.813 2.813 0 0 1 2.815 2.813zm-28.833-42.75h22.5v-9.919a11.256 11.256 0 0 0-22.5 0zm37.271 39.937a2.813 2.813 0 0 0 0 5.625 2.812 2.812 0 1 0 0-5.625zm10-19.8a9.988 9.988 0 0 0-19.975.115 2.812 2.812 0 1 0 5.625 0 4.363 4.363 0 0 1 8.726 0v.076a4.361 4.361 0 0 1-2.653 3.942 7.481 7.481 0 0 0-4.524 6.9v2.432a2.813 2.813 0 0 0 5.625 0v-2.425a1.863 1.863 0 0 1 1.107-1.732 9.979 9.979 0 0 0 6.07-9.193q.001-.057-.002-.114z" transform="translate(-15.937)"/>
</svg>
