<svg xmlns="http://www.w3.org/2000/svg" xmlns:xlink="http://www.w3.org/1999/xlink" width="123.043" height="30.145" viewBox="0 0 123.043 30.145"><defs><style>.a{clip-path:url(#a);}.b{fill:url(#b);}.c{fill:url(#d);}.d{fill:url(#f);}.e{fill:url(#h);}.f{fill:#f9f9f9;}</style><clipPath id="a"><path d="M90.179,258.153l-6.3-3.645s-11.471-6.62-12.141-7-1.34-.161-1.34.67v28.543c0,.616.482.884,1.072.536s12.409-7.183,12.409-7.183l6.3-3.645s5.333-3.082,6.057-3.484c.7-.4.643-.965.054-1.286C95.673,261.369,90.179,258.153,90.179,258.153Z" transform="translate(-70.4 -247.335)"/></clipPath><linearGradient id="b" x1="0.5" x2="0.5" y2="1" gradientUnits="objectBoundingBox"><stop offset="0" stop-color="#257db0"/><stop offset="0.208" stop-color="#3c90b3"/><stop offset="0.742" stop-color="#73bdb9"/><stop offset="1" stop-color="#89cebc"/></linearGradient><linearGradient id="d" y1="0.501" x2="1" y2="0.501" gradientUnits="objectBoundingBox"><stop offset="0" stop-color="#51bfac"/><stop offset="1" stop-color="#dee899"/></linearGradient><linearGradient id="f" x1="0.5" x2="0.5" y2="1" gradientUnits="objectBoundingBox"><stop offset="0" stop-color="#eb403d"/><stop offset="0.194" stop-color="#d64252"/><stop offset="0.737" stop-color="#9f4887"/><stop offset="1" stop-color="#894a9c"/></linearGradient><linearGradient id="h" x1="0.5" y1="0.001" x2="0.5" y2="1" gradientUnits="objectBoundingBox"><stop offset="0" stop-color="#f48779"/><stop offset="0.612" stop-color="#fab076"/><stop offset="1" stop-color="#fdc674"/></linearGradient></defs><g transform="translate(0 0)"><g transform="translate(0 0.063)"><g class="a"><path class="b" d="M70.4,245.6v30.9l15.571-15.464Z" transform="translate(-70.4 -246.065)"/></g><g class="a"><path class="c" d="M90.179,256.517l-6.3-3.618L70.4,245.1v.134l15.571,15.437Z" transform="translate(-70.4 -245.699)"/></g><g class="a"><path class="d" d="M70.4,318.664v.107L83.881,311l6.3-3.645L85.971,303.2Z" transform="translate(-70.4 -288.228)"/></g><g class="a"><path class="e" d="M132.708,287.7l-4.208,4.154,4.208,4.154,7.183-4.154Z" transform="translate(-112.929 -276.882)"/></g></g><g transform="translate(93.938 8.174)"><path class="f" d="M425.081,300.4a3.916,3.916,0,0,1-1.608-.322,2.871,2.871,0,0,1-1.206-.992h-.107c.054.536.107,1.018.107,1.5v3.7H420.9V291.261H422l.188,1.233h.054a3.117,3.117,0,0,1,1.233-1.072,3.743,3.743,0,0,1,1.608-.322,3.3,3.3,0,0,1,2.761,1.233,5.389,5.389,0,0,1,.965,3.431,5.234,5.234,0,0,1-.992,3.431A3.377,3.377,0,0,1,425.081,300.4Zm-.188-8.174a2.384,2.384,0,0,0-1.983.75,4.09,4.09,0,0,0-.643,2.439v.295a4.413,4.413,0,0,0,.643,2.707,2.442,2.442,0,0,0,2.037.8,2.112,2.112,0,0,0,1.822-.938,4.543,4.543,0,0,0,.67-2.6,4.148,4.148,0,0,0-.67-2.573A2.23,2.23,0,0,0,424.893,292.226Z" transform="translate(-420.9 -287.482)"/><path class="f" d="M458.467,290.357H457.1V277.6h1.367Z" transform="translate(-447.398 -277.6)"/><path class="f" d="M474.564,300.239l-.268-1.286h-.054a3.956,3.956,0,0,1-1.34,1.152,4.289,4.289,0,0,1-1.662.295,3.027,3.027,0,0,1-2.09-.7,2.507,2.507,0,0,1-.75-1.956c0-1.822,1.447-2.76,4.369-2.868l1.528-.054v-.536a2.29,2.29,0,0,0-.456-1.554,1.8,1.8,0,0,0-1.447-.509,5.987,5.987,0,0,0-2.546.7l-.429-1.045a6.758,6.758,0,0,1,1.447-.563,6.417,6.417,0,0,1,1.581-.214,3.386,3.386,0,0,1,2.385.724,3,3,0,0,1,.777,2.278v6.137Zm-3.055-.965a2.862,2.862,0,0,0,2.01-.7,2.589,2.589,0,0,0,.724-1.957v-.8l-1.367.054a4.844,4.844,0,0,0-2.332.509,1.5,1.5,0,0,0-.724,1.394,1.452,1.452,0,0,0,.456,1.126A1.831,1.831,0,0,0,471.509,299.274Z" transform="translate(-455.669 -287.482)"/><path class="f" d="M498.2,291.6h1.447l1.956,5.119a20.221,20.221,0,0,1,.8,2.546h.054c.08-.268.214-.75.456-1.42.214-.67.965-2.76,2.224-6.218h1.447l-3.859,10.238a4.838,4.838,0,0,1-1.34,2.144,2.8,2.8,0,0,1-1.876.643,6.2,6.2,0,0,1-1.233-.134v-1.1a5.657,5.657,0,0,0,1.018.107,2.1,2.1,0,0,0,2.01-1.581l.509-1.286Z" transform="translate(-477.483 -287.848)"/></g><g transform="translate(31.893 7.102)"><path class="f" d="M323.222,292.87a3.151,3.151,0,0,1,1.34,2.546,3.2,3.2,0,0,1-1.581,2.68,1.341,1.341,0,0,0-.536.911,1.075,1.075,0,0,0,.482.8l.67.536a3.273,3.273,0,0,1,1.581,2.627c0,1.769-1.715,3.565-4.931,3.565-2.734,0-4.047-1.286-4.047-2.68a2.768,2.768,0,0,1,1.447-2.3,7.84,7.84,0,0,1,3.591-.858,1.978,1.978,0,0,1-.563-1.286,1.786,1.786,0,0,1,.188-.724,4.544,4.544,0,0,1-.59.027,2.96,2.96,0,0,1-3.109-2.948,3.413,3.413,0,0,1,1.206-2.519,5.159,5.159,0,0,1,3.377-1.045h3.859l-1.206.67Zm-1.34,8.362a2.165,2.165,0,0,0-.429-.027,7.4,7.4,0,0,0-1.983.295,2.116,2.116,0,0,0-1.608,1.93c0,1.34,1.286,2.3,3.323,2.3,1.8,0,2.761-.858,2.761-2.037C323.945,302.76,323.329,302.25,321.882,301.232Zm.563-3.565a1.9,1.9,0,0,0,.456-1.367c0-1.367-.8-3.457-2.358-3.457a1.751,1.751,0,0,0-1.313.616,2.179,2.179,0,0,0-.4,1.394c0,1.26.724,3.35,2.358,3.35A2.075,2.075,0,0,0,322.445,297.667Z" transform="translate(-282.216 -287.215)"/><path class="f" d="M285.783,300.278a4.439,4.439,0,0,1-4.583-4.422,4.642,4.642,0,0,1,4.851-4.556,4.385,4.385,0,0,1,4.476,4.422A4.557,4.557,0,0,1,285.783,300.278Zm2.332-1.528a3.333,3.333,0,0,0,.563-2.09c0-1.662-.777-4.8-3.109-4.8a2.6,2.6,0,0,0-1.688.643,2.826,2.826,0,0,0-.858,2.278c0,1.849.911,4.9,3.189,4.9A2.324,2.324,0,0,0,288.115,298.751Z" transform="translate(-256.597 -286.556)"/><path class="f" d="M247.783,300.278a4.439,4.439,0,0,1-4.583-4.422,4.642,4.642,0,0,1,4.851-4.556,4.385,4.385,0,0,1,4.476,4.422A4.557,4.557,0,0,1,247.783,300.278Zm2.359-1.528a3.333,3.333,0,0,0,.563-2.09c0-1.662-.777-4.8-3.109-4.8a2.6,2.6,0,0,0-1.688.643,2.826,2.826,0,0,0-.858,2.278c0,1.849.911,4.9,3.189,4.9A2.4,2.4,0,0,0,250.141,298.751Z" transform="translate(-228.781 -286.556)"/><path class="f" d="M202.4,288.345l-2.707.616a21.109,21.109,0,0,1-3.109.322c-5.2,0-7.183-3.833-7.183-6.834,0-3.672,2.814-7.049,7.638-7.049a11.1,11.1,0,0,1,2.895.4,7.307,7.307,0,0,1,2.492,1.179l-1.554,1.5-.67.161.482-.75a5.444,5.444,0,0,0-4.047-1.769,5.224,5.224,0,0,0-5.226,5.575,6.682,6.682,0,0,0,6.673,6.888,5.322,5.322,0,0,0,2.385-.482v-3.029l-2.841.161,1.5-.8h3.993l-.482.482a.406.406,0,0,0-.188.295c-.027.161-.027.724-.027.911v2.224Z" transform="translate(-189.4 -274.918)"/><path class="f" d="M353.72,286.465c-.616-.054-.75-.161-.75-.911V274.726c.08-.67.268-.777.858-1.126H351.12l-1.42.67h1.447v11.659c0,.375-.08.429-.509.992h3.35l.7-.4A5.831,5.831,0,0,1,353.72,286.465Z" transform="translate(-306.738 -273.6)"/><path class="f" d="M374.634,299.535c-.214.107-.4.241-.616.348a4.573,4.573,0,0,1-1.822.348,3.986,3.986,0,0,1-2.493-.724,4.816,4.816,0,0,1-1.9-3.967,4.263,4.263,0,0,1,4.288-4.342,3.5,3.5,0,0,1,1.93.536,3.115,3.115,0,0,1,1.313,1.849l-4.4,1.769-1.447.107c.456,2.385,2.091,3.779,3.859,3.779a4.976,4.976,0,0,0,2.278-.643Zm-1.742-5.6c.348-.134.536-.241.536-.509a1.844,1.844,0,0,0-1.849-1.608,2.3,2.3,0,0,0-2.144,2.6c0,.322.027.643.054.992Z" transform="translate(-319.987 -286.483)"/><g transform="translate(55.907 4.717)"><path class="f" d="M398.563,291.334v1.233H398.4v-1.233H398V291.2h.965v.134Z" transform="translate(-398 -291.2)"/><path class="f" d="M403.692,292.567v-1.26h0l-.375,1.26h-.107l-.375-1.26h0v1.26H402.7V291.2h.241l.348,1.1h0l.348-1.1h.241v1.367Z" transform="translate(-401.44 -291.2)"/></g></g><g transform="translate(31.893)"><path class="f" d="M193.125,251.206h-.938a5.566,5.566,0,0,0-.268-1.1h-1.367a5.158,5.158,0,0,0-.268,1.1H189.4c0-.08.241-.7.7-1.876a17.86,17.86,0,0,0,.7-1.93h1.1a18.237,18.237,0,0,0,.616,1.9A15.507,15.507,0,0,1,193.125,251.206Zm-1.34-1.635c-.322-1.018-.509-1.554-.509-1.635h-.054a14.732,14.732,0,0,1-.509,1.635Z" transform="translate(-189.4 -247.32)"/><path class="f" d="M208.909,251.133h-.724a6.681,6.681,0,0,0-.8-1.26,7.114,7.114,0,0,1-.965-1.662h-.027a9.276,9.276,0,0,1,.08,1.152c0,.482.027,1.072.054,1.769H205.8c.027-.616.054-1.26.054-1.983s-.027-1.313-.054-1.822h.858a5.491,5.491,0,0,0,.724,1.233,8.181,8.181,0,0,1,.884,1.554h.054a9.685,9.685,0,0,1-.08-1.179c0-.536-.027-1.072-.054-1.635h.724c-.027.482-.054,1.1-.054,1.822C208.882,249.873,208.882,250.543,208.909,251.133Z" transform="translate(-201.405 -247.246)"/><path class="f" d="M224.443,249.169a2.147,2.147,0,0,1-.536,1.447,1.9,1.9,0,0,1-1.5.616c-.295,0-.7,0-1.206-.027.027-.59.027-1.26.027-1.983s0-1.313-.027-1.822h1.206a1.992,1.992,0,0,1,1.528.536A1.619,1.619,0,0,1,224.443,249.169Zm-.8.134a1.375,1.375,0,0,0-.322-.938,1.2,1.2,0,0,0-.992-.375,1.922,1.922,0,0,0-.348.027c.027.4.027.8.027,1.233,0,.456,0,.938.027,1.394a1.769,1.769,0,0,0,.375.027,1.107,1.107,0,0,0,.938-.4A1.648,1.648,0,0,0,223.639,249.3Z" transform="translate(-212.677 -247.32)"/><path class="f" d="M239.555,251.206H238.7a6,6,0,0,0-.509-1.286.712.712,0,0,0-.59-.241h-.322c0,.509,0,1.018.027,1.528h-.8c.027-.59.027-1.26.027-1.983s0-1.313-.027-1.822h1.394c.884,0,1.34.295,1.34.911a1.045,1.045,0,0,1-.777,1.018v.054a.912.912,0,0,1,.509.456C239.1,250.08,239.287,250.536,239.555,251.206Zm-1.1-2.68c0-.4-.241-.59-.75-.59a2.4,2.4,0,0,0-.482.054c.027.295.027.7.027,1.179h.268C238.135,249.169,238.456,248.954,238.456,248.526Z" transform="translate(-223.877 -247.32)"/><path class="f" d="M253.425,249.03a2.13,2.13,0,0,1-.563,1.5,1.788,1.788,0,0,1-1.367.59,1.76,1.76,0,0,1-1.286-.536,1.946,1.946,0,0,1-.509-1.394,2.13,2.13,0,0,1,.563-1.5,1.788,1.788,0,0,1,1.367-.59,1.76,1.76,0,0,1,1.286.536A2.069,2.069,0,0,1,253.425,249.03Zm-.831.08a1.471,1.471,0,0,0-.322-.992.991.991,0,0,0-.777-.375.89.89,0,0,0-.724.375,1.648,1.648,0,0,0-.295.965,1.52,1.52,0,0,0,.322.992.916.916,0,0,0,.777.375.89.89,0,0,0,.724-.375A1.478,1.478,0,0,0,252.595,249.11Z" transform="translate(-233.539 -247.1)"/><path class="f" d="M267.431,251.206H266.6c.027-.616.027-1.26.027-1.983s0-1.313-.027-1.822h.831c-.027.482-.027,1.1-.027,1.822S267.4,250.616,267.431,251.206Z" transform="translate(-245.91 -247.32)"/><path class="f" d="M276.743,249.169a2.146,2.146,0,0,1-.536,1.447,1.9,1.9,0,0,1-1.5.616c-.295,0-.7,0-1.206-.027.027-.59.027-1.26.027-1.983s0-1.313-.027-1.822h1.206a1.992,1.992,0,0,1,1.528.536A1.619,1.619,0,0,1,276.743,249.169Zm-.8.134a1.375,1.375,0,0,0-.322-.938,1.2,1.2,0,0,0-.992-.375,1.922,1.922,0,0,0-.348.027c.027.4.027.8.027,1.233,0,.456,0,.938.027,1.394a1.769,1.769,0,0,0,.375.027,1.107,1.107,0,0,0,.938-.4A1.647,1.647,0,0,0,275.939,249.3Z" transform="translate(-250.96 -247.32)"/><path class="f" d="M296.425,251.206h-.938a5.566,5.566,0,0,0-.268-1.1h-1.367a5.157,5.157,0,0,0-.268,1.1H292.7c0-.08.241-.7.7-1.876a17.854,17.854,0,0,0,.7-1.93h1.1a18.228,18.228,0,0,0,.616,1.9C296.211,250.482,296.425,251.125,296.425,251.206Zm-1.34-1.635c-.322-1.018-.509-1.554-.509-1.635h-.054a14.729,14.729,0,0,1-.509,1.635Z" transform="translate(-265.014 -247.32)"/><path class="f" d="M311.787,248.392a1.182,1.182,0,0,1-.509,1.045,2.411,2.411,0,0,1-1.286.322H309.8c0,.375,0,.858.027,1.447H309c.027-.563.027-1.233.027-1.983,0-.7,0-1.313-.027-1.822h1.474a1.681,1.681,0,0,1,.938.241A.869.869,0,0,1,311.787,248.392Zm-.75.161c0-.429-.268-.616-.831-.616a2.347,2.347,0,0,0-.429.054c.027.375.027.777.027,1.26h.161C310.662,249.249,311.037,249.008,311.037,248.552Z" transform="translate(-276.946 -247.32)"/><path class="f" d="M324.887,248.392a1.182,1.182,0,0,1-.509,1.045,2.411,2.411,0,0,1-1.286.322H322.9c0,.375,0,.858.027,1.447H322.1c.027-.563.027-1.233.027-1.983,0-.7,0-1.313-.027-1.822h1.474a1.681,1.681,0,0,1,.938.241A.869.869,0,0,1,324.887,248.392Zm-.75.161c0-.429-.268-.616-.831-.616a2.347,2.347,0,0,0-.429.054c.027.375.027.777.027,1.26h.161C323.762,249.249,324.137,249.008,324.137,248.552Z" transform="translate(-286.535 -247.32)"/><path class="f" d="M343.725,249.03a2.13,2.13,0,0,1-.563,1.5,1.788,1.788,0,0,1-1.367.59,1.76,1.76,0,0,1-1.286-.536,1.946,1.946,0,0,1-.509-1.394,2.13,2.13,0,0,1,.563-1.5,1.788,1.788,0,0,1,1.367-.59,1.76,1.76,0,0,1,1.286.536A1.946,1.946,0,0,1,343.725,249.03Zm-.8.08a1.471,1.471,0,0,0-.322-.992.991.991,0,0,0-.777-.375.89.89,0,0,0-.724.375,1.647,1.647,0,0,0-.295.965,1.52,1.52,0,0,0,.322.992.916.916,0,0,0,.777.375.89.89,0,0,0,.724-.375A1.648,1.648,0,0,0,342.921,249.11Z" transform="translate(-299.638 -247.1)"/><path class="f" d="M360.163,251.133h-.724a6.683,6.683,0,0,0-.8-1.26,7.114,7.114,0,0,1-.965-1.662h-.054a9.276,9.276,0,0,1,.08,1.152c0,.482.027,1.072.054,1.769H357c.027-.616.054-1.26.054-1.983s-.027-1.313-.054-1.822h.858a5.492,5.492,0,0,0,.724,1.233,8.179,8.179,0,0,1,.884,1.554h.054a9.678,9.678,0,0,1-.08-1.179c0-.536-.027-1.072-.054-1.635h.724c-.027.482-.054,1.1-.054,1.822C360.109,249.873,360.136,250.543,360.163,251.133Z" transform="translate(-312.081 -247.246)"/></g></g></svg>