<svg xmlns="http://www.w3.org/2000/svg" width="20" height="16" viewBox="0 0 20 16">
    <defs>
        <style>
            .cls-1{fill:#c3cde4}
        </style>
    </defs>
    <g id="seen_gray" transform="translate(-2 -4)">
        <path id="Path_11349" d="M12 4c-4.326 0-8.227 3.005-9.938 7.654a.993.993 0 0 0 0 .692C3.773 17 7.674 20 12 20s8.227-3 9.938-7.654a.993.993 0 0 0 0-.692C20.227 7.005 16.326 4 12 4zm0 14c-3.374 0-6.451-2.343-7.928-6C5.549 8.343 8.626 6 12 6s6.451 2.343 7.928 6c-1.477 3.657-4.554 6-7.928 6z" class="cls-1"/>
        <path id="Path_11350" d="M12 8a4 4 0 1 0 4 4 4 4 0 0 0-4-4zm0 6a2 2 0 1 1 2-2 2 2 0 0 1-2 2z" class="cls-1"/>
    </g>
</svg>
