<svg xmlns="http://www.w3.org/2000/svg" width="337.5" height="273.976" viewBox="0 0 337.5 273.976">
    <defs>
        <clipPath id="clip-path">
            <path id="Rectangle_10731" d="M0 0H98.335V98.335H0z" class="cls-1" transform="translate(0 0)"/>
        </clipPath>
        <clipPath id="clip-path-2">
            <path id="Mask" d="M1.313 0a1.311 1.311 0 0 0-.927 2.237l3.389 3.389a1.311 1.311 0 0 0 1.853 0l3.389-3.389A1.311 1.311 0 0 0 8.091 0z" class="cls-2" transform="translate(0)"/>
        </clipPath>
        <clipPath id="clip-path-4">
            <path id="Rectangle_10734" d="M0 0H98.338V98.336H0z" class="cls-1" transform="translate(0 0)"/>
        </clipPath>
        <clipPath id="clip-path-7">
            <path id="Rectangle_10733" d="M0 0H62.543V62.543H0z" class="cls-1" transform="translate(0 0)"/>
        </clipPath>
        <linearGradient id="linear-gradient" x1=".124" x2=".906" y1=".245" y2=".73" gradientUnits="objectBoundingBox">
            <stop offset="0" stop-color="#dcfdee" stop-opacity="0"/>
            <stop offset=".629" stop-color="#d2f3e4"/>
        </linearGradient>
        <style>
            .cls-1,.cls-12{fill:#fff}.cls-1{stroke:#707070}.cls-2{fill:#674cf3}.cls-33{fill:none}.cls-8{fill:#00d3b4}.cls-9{fill:#6583fe}.cls-10{fill:#d5f4e6}.cls-11{fill:#b6d3e6}.cls-13{fill:#c7daff}.cls-14{fill:#ecf2ff}.cls-15{fill:#fea3a2}.cls-16{fill:#dde9ff}.cls-17{fill:#fe7c7a}.cls-18{fill:#c6ef9a}.cls-19{fill:#2e9de3}.cls-23{fill:#ebf6fc}.cls-24{fill:#f4f8ff}.cls-33{stroke:#674cf3;stroke-miterlimit:10;opacity:.8}.cls-34{clip-path:url(#clip-path-2)}
        </style>
    </defs>
    <g id="Illustration_splash" opacity="0.7" transform="translate(20227 4885.803)">
        <path id="Path_24739" fill="none" stroke="#000" stroke-width="5px" d="M-4673.782-13911.339h334.27" transform="translate(-15549.988 9297.012)"/>
        <g id="Group_5968" transform="translate(-20161.113 -4773.69)">
            <path id="Path_24740" fill="#ebf3fa" d="M443.98 285.521s14.94-18.383 7.555-53.889c-4.645-22.334-24.155-33.4-50.309-32.341-8.99.363-23.617-10.458-44.635-23.75-44.956-28.433-109.986-16.358-94.422 47.6 7.532 30.949-23.692 31.445-8.173 62.382z" transform="translate(-249.609 -128.733)"/>
            <g id="Group_1681" transform="translate(17.45 0)">
                <path id="Path_11" fill="url(#linear-gradient)" d="M6.715 133.86C-1.2 120.852-2.032 98.329 3.764 84.249 8.841 71.916 18.941 60.34 32.2 58.89c4.875-.533 9.859.338 14.684-.541 16.593-3.021 22.766-23.472 35.662-34.343 8.975-7.565 21.428-10.243 33.076-8.785s22.552 6.723 32.152 13.479c7.58 5.335 14.672 11.894 18.412 20.375 7.84 17.777-1.383 39.127-15.712 52.248-4.463 4.087-9.437 7.691-13.166 12.457s-6.1 11.125-4.325 16.91c1.418 4.615 5.233 8.192 6.679 12.8 1.967 6.268-1 13.3-5.878 17.7s-11.328 6.617-17.72 8.136c-26.779 6.366-85.459 3.805-109.349-35.466z" transform="translate(0 -14.84)"/>
            </g>
            <path id="Path_32" fill="#ff5ba8" d="M64.346 379.517a4.719 4.719 0 1 0 4.719 4.719 4.724 4.724 0 0 0-4.719-4.719zm0 6.136a1.417 1.417 0 1 1 1.417-1.417 1.419 1.419 0 0 1-1.417 1.417z" transform="translate(-29.513 -352.21)"/>
            <path id="Path_33" d="M429.073 142.963a1.651 1.651 0 0 0-1.651 1.651 1.983 1.983 0 0 1-1.981 1.981 1.651 1.651 0 0 0 0 3.3 1.983 1.983 0 0 1 1.981 1.981 1.651 1.651 0 1 0 3.3 0 1.983 1.983 0 0 1 1.978-1.976 1.651 1.651 0 1 0 0-3.3 1.983 1.983 0 0 1-1.981-1.981 1.651 1.651 0 0 0-1.646-1.656z" class="cls-8" transform="translate(-249.354 -105.907)"/>
            <path id="Path_34" d="M415.073 189.679a1.651 1.651 0 0 0-1.651 1.651 1.983 1.983 0 0 1-1.981 1.981 1.651 1.651 0 1 0 0 3.3 1.983 1.983 0 0 1 1.981 1.981 1.651 1.651 0 1 0 3.3 0 1.983 1.983 0 0 1 1.981-1.981 1.651 1.651 0 0 0 0-3.3 1.983 1.983 0 0 1-1.981-1.981 1.651 1.651 0 0 0-1.649-1.651z" class="cls-9" transform="translate(-229.942 -173.064)"/>
            <path id="Path_35" d="M47.91 295.557a1.651 1.651 0 0 0-1.651 1.651 1.983 1.983 0 0 1-1.981 1.981 1.651 1.651 0 1 0 0 3.3 1.983 1.983 0 0 1 1.981 1.981 1.651 1.651 0 0 0 3.3 0 1.983 1.983 0 0 1 1.981-1.981 1.651 1.651 0 1 0 0-3.3 1.983 1.983 0 0 1-1.981-1.981 1.651 1.651 0 0 0-1.649-1.651z" class="cls-8" transform="translate(-18.126 -241.655)"/>
            <path id="Path_36" d="M77.806 325.206a1.651 1.651 0 0 0-1.651 1.651 1.983 1.983 0 0 1-1.981 1.981 1.651 1.651 0 0 0 0 3.3 1.983 1.983 0 0 1 1.981 1.981 1.651 1.651 0 0 0 3.3 0 1.983 1.983 0 0 1 1.981-1.981 1.651 1.651 0 0 0 0-3.3 1.983 1.983 0 0 1-1.981-1.981 1.651 1.651 0 0 0-1.649-1.651z" class="cls-9" transform="translate(-38.151 -281.094)"/>
        </g>
        <g id="Group_5962" transform="translate(-20212.426 -4770.448)">
            <ellipse id="Ellipse_1977" cx="9.5" cy="10" class="cls-10" rx="9.5" ry="10" transform="translate(2 85)"/>
            <circle id="Ellipse_1979" cx="11" cy="11" r="11" class="cls-10" transform="translate(33 32)"/>
            <ellipse id="Ellipse_1980" cx="6" cy="5.5" class="cls-10" rx="6" ry="5.5" transform="translate(77.027 40)"/>
            <circle id="Ellipse_1981" cx="4.5" cy="4.5" r="4.5" class="cls-10" transform="translate(124.042)"/>
            <circle id="Ellipse_1982" cx="10.5" cy="10.5" r="10.5" class="cls-10" transform="translate(181.064 7)"/>
            <circle id="Ellipse_1983" cx="10.5" cy="10.5" r="10.5" class="cls-10" transform="translate(281.106 35)"/>
            <circle id="Ellipse_1984" cx="2" cy="2" r="2" class="cls-10" transform="translate(314.106 71)"/>
            <circle id="Ellipse_1985" cx="7" cy="7" r="7" class="cls-10" transform="translate(291.106 104)"/>
            <circle id="Ellipse_1978" cx="3" cy="3" r="3" class="cls-10" transform="translate(0 51)"/>
        </g>
        <g id="Group_5963" transform="translate(-20188.426 -4757.448)">
            <circle id="Ellipse_1986" cx="2" cy="2" r="2" class="cls-11" transform="translate(0 17)"/>
            <circle id="Ellipse_1987" cx="4" cy="4" r="4" class="cls-11" transform="translate(141.053)"/>
            <ellipse id="Ellipse_1988" cx="1.5" cy="2" class="cls-11" rx="1.5" ry="2" transform="translate(253.105 62)"/>
            <circle id="Ellipse_1989" cx="3" cy="3" r="3" class="cls-11" transform="translate(280.106 105)"/>
        </g>
        <g id="Group_5965" transform="translate(-20227 -4702.289)">
            <path id="Rectangle_4147" d="M0 0H68V85H0z" class="cls-12" transform="translate(27.575 2.841)"/>
            <g id="store" transform="translate(0)">
                <path id="Rectangle_4143" d="M0 0H52.681V86.482H0z" class="cls-13" transform="translate(43.367 1.913)"/>
                <path id="Rectangle_4144" d="M0 0H12V52H0z" class="cls-14" transform="translate(37.575 35.841)"/>
                <path id="Rectangle_4145" d="M0 0H35V41H0z" class="cls-12" transform="translate(60.575 35.841)"/>
                <path id="Rectangle_4146" d="M0 0H19.835V42.093H0z" class="cls-14" transform="translate(76.213 34.822)"/>
                <path id="Path_24723" d="M291.772 41.48V30H286v11.48a6.888 6.888 0 0 0 6.888 6.888 6.86 6.86 0 0 0 2.886-.634 6.887 6.887 0 0 1-4.002-6.254z" class="cls-12" transform="translate(-231.279 -28.087)"/>
                <path id="Path_24724" d="M324.171 41.48V30h-8v11.48a6.887 6.887 0 0 0 4 6.254 6.888 6.888 0 0 0 4-6.254z" class="cls-15" transform="translate(-255.674 -28.087)"/>
                <path id="Path_24725" d="M363.644 41.48V30H358v11.48a6.888 6.888 0 0 0 6.888 6.888 6.859 6.859 0 0 0 2.822-.6 6.887 6.887 0 0 1-4.066-6.288z" class="cls-12" transform="translate(-289.503 -28.087)"/>
                <path id="Path_24726" d="M395.632 41.48V30H387.5v11.48a6.887 6.887 0 0 0 4.066 6.283 6.887 6.887 0 0 0 4.066-6.283z" class="cls-16" transform="translate(-313.359 -28.087)"/>
                <path id="Path_24727" d="M435.738 41.48V30H430v11.48a6.888 6.888 0 0 0 6.888 6.888 6.857 6.857 0 0 0 2.869-.626 6.887 6.887 0 0 1-4.019-6.262z" class="cls-12" transform="translate(-347.728 -28.087)"/>
                <path id="Path_24728" d="M468.026 41.48V30h-8.038v11.48a6.887 6.887 0 0 0 4.019 6.262 6.887 6.887 0 0 0 4.019-6.262z" class="cls-15" transform="translate(-371.978 -28.087)"/>
                <path id="Path_24729" d="M219.883 41.48V30H214v11.48a6.888 6.888 0 0 0 6.888 6.888 6.861 6.861 0 0 0 2.942-.659 6.888 6.888 0 0 1-3.947-6.229z" class="cls-12" transform="translate(-173.055 -28.087)"/>
                <path id="Path_24730" d="M252.642 41.48V30h-7.892v11.48a6.888 6.888 0 0 0 3.946 6.229 6.888 6.888 0 0 0 3.946-6.229z" class="cls-16" transform="translate(-197.922 -28.087)"/>
                <path id="Path_24731" d="M177.837 47.65a6.887 6.887 0 0 0 3.825-6.17V30h-7.651v11.48a6.887 6.887 0 0 0 3.826 6.17z" class="cls-15" transform="translate(-140.718 -28.087)"/>
                <circle id="Ellipse_1976" cx="10.109" cy="10.109" r="10.109" class="cls-17" transform="translate(1.913 1.989)"/>
                <path id="Path_24732" d="M97.566 179.291A13.819 13.819 0 0 0 94 188.574v22.494a13.819 13.819 0 0 0 3.566 9.283 11.483 11.483 0 0 0 9.062-11.223v-18.614a11.482 11.482 0 0 0-9.062-11.223z" class="cls-18" transform="translate(-76.015 -148.814)"/>
                <path id="Path_24733" d="M97.962 21.913A1.913 1.913 0 0 0 96.048 20H27.169a1.913 1.913 0 0 0-1.913 1.913v8.271H23.89a12.022 12.022 0 1 0 0 3.827h1.366v9.714a1.913 1.913 0 0 0 3.827 0v-3.077a8.782 8.782 0 0 0 11.863-1.786 8.785 8.785 0 0 0 13.776 0 8.785 8.785 0 0 0 13.776 0 8.785 8.785 0 0 0 13.776 0 8.782 8.782 0 0 0 11.863 1.786v12.261H60.843a1.913 1.913 0 0 0-1.913 1.913v42.093a1.913 1.913 0 0 0 1.913 1.913h33.292v7.653H52.042V54.822a1.913 1.913 0 0 0-1.913-1.913H36.237a1.913 1.913 0 1 0 0 3.827h11.978v49.746H29.082v-9.567a1.913 1.913 0 1 0-3.827 0v9.567h-4.209V93.57a13.412 13.412 0 0 0 11.48-13.254V61.7a13.393 13.393 0 0 0-26.786 0v18.616A13.412 13.412 0 0 0 17.22 93.57v12.912H5.038a1.913 1.913 0 0 0 0 3.827h91.01a1.913 1.913 0 0 0 1.913-1.913zm-88.4 58.4V61.7a9.567 9.567 0 0 1 19.133 0v18.616a9.583 9.583 0 0 1-7.653 9.374v-5.876l4.036-4.309a1.913 1.913 0 0 0-2.793-2.616l-1.243 1.327v-9.211a1.913 1.913 0 1 0-3.827 0v3.961l-.971-1.037a1.913 1.913 0 0 0-2.793 2.616l3.764 4.018V89.69a9.583 9.583 0 0 1-7.648-9.374zm2.455-40.023a8.2 8.2 0 1 1 8.2-8.2 8.2 8.2 0 0 1-8.195 8.203zm22.035-1.925a4.98 4.98 0 0 1-4.975-4.975v-9.563h9.949v9.567a4.98 4.98 0 0 1-4.969 4.974zm13.776 0a4.98 4.98 0 0 1-4.975-4.975v-9.563h9.949v9.567a4.98 4.98 0 0 1-4.969 4.974zm13.776 0a4.98 4.98 0 0 1-4.975-4.975v-9.563h9.949v9.567a4.98 4.98 0 0 1-4.969 4.974zm13.776 0a4.98 4.98 0 0 1-4.975-4.975v-9.563h9.949v9.567a4.98 4.98 0 0 1-4.97 4.974zm13.776 0a4.98 4.98 0 0 1-4.975-4.975v-9.563h9.949v9.567a4.98 4.98 0 0 1-4.97 4.974zM62.757 95V56.736h31.378V95z" transform="translate(0 -20)"/>
                <path id="Path_24734" d="M36.626 53.193v-2.827a1.913 1.913 0 1 0-3.827 0v2.827h-2.826a1.913 1.913 0 1 0 0 3.827H32.8v2.827a1.913 1.913 0 1 0 3.827 0V57.02h2.827a1.913 1.913 0 1 0 0-3.827z" transform="translate(-22.691 -43.009)"/>
                <path id="Path_24735" d="M223.266 335.266a1.912 1.912 0 1 0-1.353.561 1.927 1.927 0 0 0 1.353-.561z" transform="translate(-177.907 -272.305)"/>
                <path id="Path_24736" d="M403.564 270h-10.651a1.913 1.913 0 1 0 0 3.827h10.651a1.913 1.913 0 1 0 0-3.827z" transform="translate(-316.189 -222.167)"/>
                <path id="Path_24737" d="M356.243 273.827a1.914 1.914 0 1 0-1.353-.561 1.927 1.927 0 0 0 1.353.561z" transform="translate(-286.536 -222.167)"/>
                <path id="Path_24738" d="M373.914 334h-17.667a1.913 1.913 0 1 0 0 3.827h17.666a1.913 1.913 0 0 0 0-3.827z" transform="translate(-286.539 -273.922)"/>
            </g>
        </g>
        <g id="Group_5966" transform="translate(-20101.32 -4683.116)">
            <path id="Path_24742" d="M10.36 3.588l7.873-2.5 5.374 2.5 4.749 4.624v7.748l5.873 1.625h15.745l2.249 2.249 1.125 7h8.873l3.124 2.75 9.372 8.748 3 5-1.125 15-7.623 2.624h-3.624L63.72 70.7l-7.248.544-2.5-4.418 1.25-5.874H21.607l1.5 5.874-2.75 3.874h-6.248l-2.624-3.875 1.624-6.625-8.748-.75-1.624-4.125V19.833l3.624-2.249 1.125-6.749z" class="cls-12" transform="translate(1.814 -0.104)"/>
            <g id="delivery-truck_1_" transform="translate(0)">
                <g id="Group_5957" transform="translate(18.35 60.616)">
                    <path id="Path_24658" d="M125.712 406.363a5.752 5.752 0 0 0 0 10.43 5.752 5.752 0 0 0 0-10.43z" class="cls-19" transform="translate(-122.388 -406.363)"/>
                    <path id="Path_24659" d="M389.711 406.363a5.752 5.752 0 0 0 0 10.43 5.752 5.752 0 0 0 0-10.43z" class="cls-19" transform="translate(-344.204 -406.363)"/>
                </g>
                <path id="Path_24660" fill="#d8d8e4" d="M392.352 223.444v-14.223l-13.752-13.75a1.6 1.6 0 0 0-1.13-.468h-1.056l-.12.7v27.741a4.794 4.794 0 0 1-4.794 4.794h16.058a4.794 4.794 0 0 0 4.794-4.794z" transform="translate(-313.346 -168.159)"/>
                <path id="Path_24661" d="M415.059 209.222l-13.753-13.75a1.6 1.6 0 0 0-1.13-.468h-1.651v12.462a4.794 4.794 0 0 0 4.794 4.794h11.74z" class="cls-12" transform="translate(-336.054 -168.16)"/>
                <path id="Path_24662" fill="#ffd737" d="M132.119 178.333h15.158a3.816 3.816 0 0 1 3.592 4.007v27.885a3.817 3.817 0 0 1-3.592 4.007h-30.685a3.816 3.816 0 0 1-3.592-4.007V182.34a3.817 3.817 0 0 1 3.592-4.007h15.527z" transform="translate(-96.15 -154.153)"/>
                <path id="Path_24663" fill="#ffb954" d="M117.19 41a10.868 10.868 0 0 0 0 20.453 10.868 10.868 0 0 0 0-20.453z" transform="translate(-93.63 -38.761)"/>
                <path id="Path_24664" d="M81.8 82.285V68.062a1.6 1.6 0 0 0-.468-1.13l-13.748-13.75a3.175 3.175 0 0 0-2.26-.936h-7.806v-3.321a6.4 6.4 0 0 0-6.391-6.391H33.166a12.463 12.463 0 1 0-24.131.1A6.4 6.4 0 0 0 3.79 48.92v33.36a6.4 6.4 0 0 0 6.391 6.391h4.207a7.33 7.33 0 0 0 0 8.308H1.594c-.882 0 0-.49 0 .392s-.489 0 .393 0l26.724.385c.882 0 .864.882.864 0s1.618-.777.736-.777h-3.8a7.33 7.33 0 0 0 0-8.308h30.061a7.33 7.33 0 0 0 0 8.308h-14.66c-.882 0-.417-.105-.417.777h37.114c.882 0 1.145.5 1.145-.385s1.335-.392.453-.392H68.69a7.33 7.33 0 0 0 0-8.308h6.723a6.4 6.4 0 0 0 6.387-6.386zM78.609 69.5H72.88l3.254-3.254 2.476 2.476zm-8.491-9.268l-2.226 2.226a1.6 1.6 0 0 0 2.26 2.26l2.226-2.226 1.5 1.5-5.513 5.508a3.2 3.2 0 0 1-3.094-3.191V55.442h.053zm-8.042-4.793v10.868a6.4 6.4 0 0 0 6.391 6.393h10.142v9.587a3.2 3.2 0 0 1-3.2 3.2H56.658a6.35 6.35 0 0 0 .86-3.2V55.442zM21.087 30.2a9.267 9.267 0 1 1-9.267 9.267 9.278 9.278 0 0 1 9.267-9.267zM24.6 92.831a4.154 4.154 0 1 1-4.173-4.154h.037a4.159 4.159 0 0 1 4.136 4.154zm-14.42-7.35a3.2 3.2 0 0 1-3.2-3.2V69.5h6.07l-1.7 1.7a1.6 1.6 0 1 0 2.26 2.26l4.423-4.423a1.6 1.6 0 0 0 0-2.26l-4.423-4.423a1.6 1.6 0 0 0-2.26 2.26l1.7 1.7H6.986V48.925a3.2 3.2 0 0 1 3.2-3.2h.139a12.451 12.451 0 0 0 21.532 0h19.269a3.2 3.2 0 0 1 3.2 3.2v1.243H41.22a1.6 1.6 0 0 0 0 3.2h13.1v28.917a3.2 3.2 0 0 1-3.2 3.2zm56.6 7.35a4.159 4.159 0 0 1-4.148 4.154h-.012a4.154 4.154 0 0 1-.012-8.308h.037a4.159 4.159 0 0 1 4.14 4.154z" transform="translate(-1.202 -27)"/>
                <path id="Path_24666" d="M140.481 254.556a1.6 1.6 0 0 0-1.6-1.6h-.889c1.292-1.485 2.487-3.38 2.487-5.311a3.857 3.857 0 0 0-4.074-4.074 4.079 4.079 0 0 0-4.074 4.074 1.6 1.6 0 0 0 3.2 0 .88.88 0 0 1 .879-.879c.739 0 .879.309.879.879 0 1.848-2.9 4.586-4.3 5.622a1.6 1.6 0 0 0 .947 2.885h4.953a1.6 1.6 0 0 0 1.592-1.596z" transform="translate(-112.393 -208.968)"/>
                <path id="Path_24667" d="M201.992 248.311v-3.141a1.6 1.6 0 1 0-3.2 0v3.1h-1.84v-3.1a1.6 1.6 0 1 0-3.2 0v4.7a1.6 1.6 0 0 0 1.6 1.6h3.448v3.109a1.6 1.6 0 1 0 3.2 0v-3.151a1.6 1.6 0 0 0 0-3.112z" transform="translate(-164.006 -208.967)"/>
                <path id="Path_24668" d="M269.729 248.3a3.929 3.929 0 0 0-.733.07v-3.2a1.6 1.6 0 0 0-3.2 0v9.385a1.6 1.6 0 0 0 3.2 0v-2.331a.733.733 0 0 1 1.466 0v2.331a1.6 1.6 0 1 0 3.2 0v-2.331a3.933 3.933 0 0 0-3.933-3.924z" transform="translate(-224.535 -208.968)"/>
                <path id="Path_24669" d="M122.264 70.972h3.675a1.6 1.6 0 1 0 0-3.2h-2.077v-3.828a1.6 1.6 0 0 0-3.2 0v5.431a1.6 1.6 0 0 0 1.602 1.597z" transform="translate(-102.591 -56.698)"/>
                <path id="Path_24670" d="M209.6 175.2a1.6 1.6 0 1 0-1.13-.468 1.609 1.609 0 0 0 1.13.468z" transform="translate(-175.971 -148.831)"/>
            </g>
        </g>
        <g id="pharmacy_1_" transform="translate(-19979.051 -4702.958)">
            <path id="Rectangle_4141" d="M0 0H78.141V54.148H0z" class="cls-12" transform="translate(5.582 33.409)"/>
            <path id="Path_24688" d="M211.882 167.157a6.714 6.714 0 0 0 4.215-6.231v-6.094h-8.43v6.094a6.714 6.714 0 0 0 4.215 6.231z" class="cls-15" transform="translate(-171.445 -127.827)"/>
            <path id="Path_24689" d="M295.1 167.111a6.716 6.716 0 0 0 4.1-6.185v-6.094H291v6.094a6.716 6.716 0 0 0 4.1 6.185z" class="cls-18" transform="translate(-240.243 -127.827)"/>
            <path id="Path_24690" d="M375.577 167.168a6.714 6.714 0 0 0 4.244-6.243v-6.094h-8.489v6.094a6.714 6.714 0 0 0 4.245 6.243z" class="cls-15" transform="translate(-306.564 -127.827)"/>
            <path id="Path_24691" d="M458.186 167.146a6.715 6.715 0 0 0 4.186-6.22v-6.094H454v6.094a6.715 6.715 0 0 0 4.186 6.22z" class="cls-18" transform="translate(-374.812 -127.827)"/>
            <path id="Path_24692" d="M52.141 166.98a6.714 6.714 0 0 0 3.808-6.054v-6.094h-7.616v6.094a6.714 6.714 0 0 0 3.808 6.054z" class="cls-15" transform="translate(-39.903 -127.827)"/>
            <path id="Path_24693" d="M133.533 167.006a6.713 6.713 0 0 0 3.866-6.08v-6.094h-7.733v6.094a6.713 6.713 0 0 0 3.867 6.08z" class="cls-18" transform="translate(-107.05 -127.827)"/>
            <path id="Path_24694" d="M87 101.989v-8.556a2.728 2.728 0 0 1 2.943-2.443h66.5a2.728 2.728 0 0 1 2.943 2.443v8.557z" class="cls-13" transform="translate(-71.825 -75.121)"/>
            <g id="Group_5960" transform="translate(25.872 49.882)">
                <path id="Rectangle_4142" d="M0 0H16.338V37.675H0z" class="cls-16"/>
                <path id="Path_24695" d="M387.26 311.107h-19.593V285.99h19.593" class="cls-16" transform="translate(-329.41 -285.99)"/>
            </g>
            <path id="Path_24696" d="M220.633 11.5a5.149 5.149 0 0 0-7.282 0l-7.842 7.842a5.149 5.149 0 0 0 0 7.282 5.149 5.149 0 0 0 7.282 0l7.842-7.842a5.149 5.149 0 0 0 0-7.282z" class="cls-12" transform="translate(-168.419 -8.249)"/>
            <path id="Path_24697" d="M261.691 27.512a5.148 5.148 0 0 0-5.46 1.176l-3.921 3.921 4.285 4.285 3.921-3.921a5.149 5.149 0 0 0 1.175-5.461z" class="cls-17" transform="translate(-208.301 -22.441)"/>
            <path id="Path_24698" d="M89.3 59.223a5.239 5.239 0 0 0-5.233-5.233H69.508a1.744 1.744 0 1 0 0 3.488h14.564a1.746 1.746 0 0 1 1.744 1.744V69.7H3.488V59.223a1.746 1.746 0 0 1 1.744-1.744h21.73a1.744 1.744 0 0 0 0-3.488H5.233A5.239 5.239 0 0 0 0 59.223v18.45a8.456 8.456 0 0 0 3.875 7.1 1.746 1.746 0 0 0-.038.36v45.252H1.744a1.744 1.744 0 1 0 0 3.488H87.56a1.744 1.744 0 1 0 0-3.488h-2.093v-45.25a1.759 1.759 0 0 0-.037-.36 8.456 8.456 0 0 0 3.875-7.1v-6.096-.068-.068zM17.791 73.187h10.814v4.485a4.975 4.975 0 0 1-4.969 4.969h-.876a4.975 4.975 0 0 1-4.969-4.969v-4.485zm14.3 0h10.817v4.485a4.975 4.975 0 0 1-4.969 4.969h-.875a4.975 4.975 0 0 1-4.969-4.969v-4.485zm14.3 0h10.82v4.485a4.975 4.975 0 0 1-4.969 4.969h-.875a4.975 4.975 0 0 1-4.967-4.968v-4.486zm14.3 0h10.822v4.485a4.975 4.975 0 0 1-4.969 4.969h-.875a4.975 4.975 0 0 1-4.969-4.968v-4.486zm-57.211 0H14.3v4.485a4.975 4.975 0 0 1-4.969 4.969h-.873a4.975 4.975 0 0 1-4.969-4.969zm13.256 57.2V96.2h23.73v34.187zm65.234-12.558H54.42V96.2h27.559zm0-25.117h-29.3a1.744 1.744 0 0 0-1.744 1.744v25.117a1.744 1.744 0 0 0 1.744 1.744h29.3v9.07H43.955V94.456a1.744 1.744 0 0 0-1.744-1.744H15a1.744 1.744 0 0 0-1.744 1.744v35.931h-5.93V86.053a8.478 8.478 0 0 0 1.132.078h.875a8.448 8.448 0 0 0 6.714-3.322 8.447 8.447 0 0 0 6.714 3.322h.875a8.448 8.448 0 0 0 6.714-3.322 8.447 8.447 0 0 0 6.714 3.322h.875a8.448 8.448 0 0 0 6.714-3.322 8.447 8.447 0 0 0 6.714 3.322h.875a8.448 8.448 0 0 0 6.714-3.322 8.447 8.447 0 0 0 6.714 3.322h.875a8.448 8.448 0 0 0 6.714-3.322 8.447 8.447 0 0 0 6.714 3.322h.875a8.477 8.477 0 0 0 1.132-.078v6.659zm-1.132-10.07h-.875A4.975 4.975 0 0 1 75 77.673v-4.486h10.816v4.485a4.975 4.975 0 0 1-4.969 4.97z" transform="translate(0 -44.574)"/>
            <path id="Path_24699" d="M191.744 383.99a1.745 1.745 0 1 0 1.233.511 1.757 1.757 0 0 0-1.233-.511z" transform="translate(-156.86 -317.015)"/>
            <path id="Path_24700" d="M200.893 21.631a6.872 6.872 0 0 0 4.874-2.016l3.92-3.92 3.92-3.92a6.893 6.893 0 1 0-9.749-9.748l-7.842 7.842a6.89 6.89 0 0 0 4.874 11.764zm5.434-17.139a3.4 3.4 0 1 1 4.815 4.815l-2.687 2.688-4.815-4.816zm-7.842 7.842l2.688-2.688 4.815 4.815-2.688 2.687a3.4 3.4 0 1 1-4.815-4.815z" transform="translate(-160.162 -0.009)"/>
            <path id="Path_24701" d="M346.063 321.209h4.637v4.635a1.744 1.744 0 0 0 3.489 0v-4.635h4.635a1.744 1.744 0 0 0 0-3.489h-4.635v-4.635a1.744 1.744 0 1 0-3.489 0v4.635h-4.635a1.744 1.744 0 1 0 0 3.489z" transform="translate(-284.262 -257.037)"/>
            <path id="Path_24702" d="M125.744 323.323a1.744 1.744 0 0 0-1.744 1.744V339.6a1.744 1.744 0 1 0 3.488 0v-14.533a1.744 1.744 0 0 0-1.744-1.744z" transform="translate(-102.372 -266.93)"/>
            <path id="Path_24703" d="M125.744 444.66a1.742 1.742 0 1 0 1.233.509 1.756 1.756 0 0 0-1.233-.509z" transform="translate(-102.372 -367.103)"/>
        </g>
        <g id="Group_37049" transform="translate(-20196.012 -4885.803)">
            <g id="Group_37047" transform="translate(69.619 39.27)">
                <circle id="Ellipse_2117" cx="27.5" cy="27.5" r="27.5" class="cls-23"/>
                <g id="Group_5967" transform="translate(11.808 11.666)">
                    <path id="Path_24743" d="M2.5 1.858l2.58-.715h21.5l2.472 1.113 1 2.058.068 4.186-5.318.4v4.382l5.74.4v18.641L1.766 31.93V4.314z" class="cls-12" transform="translate(-1.209 -0.785)"/>
                    <g id="prescription_1_" transform="translate(0 0)">
                        <path id="Path_24704" d="M126.288 55.938a2.538 2.538 0 0 0-2.538 2.538v25.763h14.228a1.269 1.269 0 0 0 1.269-1.269V59.705l1.431-3.767z" class="cls-24" transform="translate(-115.898 -52.389)"/>
                        <path id="Path_24705" fill="#ffe128" d="M407.332 14.794A2.537 2.537 0 0 0 406 17.028v4.928l2.094.021h.571v-4.949a2.537 2.537 0 0 0-1.333-2.234z" opacity="0.6" transform="translate(-380.241 -13.855)"/>
                        <path id="Path_24706" d="M251.837 270.339v-9.161a2.72 2.72 0 0 1 1.205-2.259l1.206-.808V256h-5.837v2.11l-1.206.808a2.72 2.72 0 0 0-1.205 2.26v9.161a1.269 1.269 0 0 0 1.269 1.269h5.837a1.269 1.269 0 0 1-1.269-1.269z" class="cls-12" transform="translate(-230.392 -239.758)"/>
                        <path id="Path_24707" fill="#ef2b4a" d="M348.405 270.339v-9.161a2.72 2.72 0 0 0-1.205-2.259l-1.205-.808V256h-5.583v2.11l-1.206.808a2.72 2.72 0 0 0-1.206 2.26v9.161a1.269 1.269 0 0 0 1.269 1.269h7.867a1.269 1.269 0 0 0 1.269-1.269z" opacity="0.4" transform="translate(-316.555 -239.758)"/>
                        <g id="Group_5961" transform="translate(17.384 12.689)">
                            <path id="Path_24708" d="M286.055 203.553h-11.42a.634.634 0 0 1-.634-.634v-2.284a.634.634 0 0 1 .634-.634h11.42a.634.634 0 0 1 .634.634v2.284a.634.634 0 0 1-.634.634z" class="cls-12" transform="translate(-274 -200)"/>
                            <circle id="Ellipse_1975" cx="4.568" cy="4.568" r="4.568" class="cls-12" transform="translate(1.777 7.102)"/>
                        </g>
                        <path id="Path_24709" fill="#a5f8ec" d="M71.614 66.538h-2.538V64h-2.538v2.538H64v2.538h2.538v2.538h2.538v-2.538h2.538z" transform="translate(-59.939 -59.939)"/>
                        <path id="Path_24710" d="M135.009 246h-4.379a.634.634 0 1 0 0 1.269h4.378a.634.634 0 1 0 0-1.269z" transform="translate(-121.748 -230.392)"/>
                        <path id="Path_24711" d="M56.617 246h-1.865a.634.634 0 1 0 0 1.269h1.864a.634.634 0 1 0 0-1.269z" transform="translate(-50.684 -230.392)"/>
                        <path id="Path_24712" d="M135.009 312h-4.379a.634.634 0 1 0 0 1.269h4.378a.634.634 0 1 0 0-1.269z" transform="translate(-121.748 -292.205)"/>
                        <path id="Path_24713" d="M56.617 312h-1.865a.634.634 0 0 0 0 1.269h1.864a.634.634 0 0 0 0-1.269z" transform="translate(-50.684 -292.205)"/>
                        <path id="Path_24714" d="M135.009 379.269a.634.634 0 1 0 0-1.269h-4.379a.634.634 0 1 0 0 1.269z" transform="translate(-121.748 -354.017)"/>
                        <path id="Path_24715" d="M56.617 378h-1.865a.634.634 0 1 0 0 1.269h1.864a.634.634 0 1 0 0-1.269z" transform="translate(-50.684 -354.017)"/>
                        <path id="Path_24716" d="M31 18.634l-.924-.619v-1.31a1.269 1.269 0 0 0 .634-1.1v-2.281a1.27 1.27 0 0 0-1.269-1.269H18.019a1.27 1.27 0 0 0-1.269 1.269v2.284a1.269 1.269 0 0 0 .634 1.1v1.309l-.924.619a3.348 3.348 0 0 0-1.487 2.786v9.161a1.894 1.894 0 0 0 .109.634H1.9a.635.635 0 0 1-.634-.634V3.172a1.906 1.906 0 0 1 1.9-1.9H23.35a3.156 3.156 0 0 0-.636 1.9v6.509a.634.634 0 0 0 1.269 0V3.172a1.9 1.9 0 1 1 3.807 0v4.315h-2.348a.634.634 0 0 0 0 1.269h2.982a.634.634 0 0 0 .634-.634v-4.95A3.176 3.176 0 0 0 25.886 0H3.172A3.176 3.176 0 0 0 0 3.172v27.409a1.906 1.906 0 0 0 1.9 1.9h28.681a1.906 1.906 0 0 0 1.9-1.9V21.42A3.348 3.348 0 0 0 31 18.634zm-12.979-5.31h11.42v2.284h-1.13v-.926a.634.634 0 1 0-1.269 0v.926h-1.363v-.926a.634.634 0 1 0-1.269 0v.926h-1.362v-.926a.634.634 0 1 0-1.269 0v.926h-1.363v-.926a.634.634 0 1 0-1.269 0v.926h-1.128zm13.2 17.258a.635.635 0 0 1-.634.634h-13.7a.635.635 0 0 1-.634-.634V21.42a2.082 2.082 0 0 1 .924-1.732l1.205-.808a.634.634 0 0 0 .281-.527v-1.476H28.8v1.476a.634.634 0 0 0 .281.527l1.205.808a2.082 2.082 0 0 1 .924 1.732z"/>
                        <path id="Path_24717" d="M333.2 340.222h-1.65v-1.65a.634.634 0 1 0-1.269 0v1.65h-1.65a.634.634 0 1 0 0 1.269h1.65v1.65a.634.634 0 1 0 1.269 0v-1.65h1.65a.634.634 0 1 0 0-1.269z" transform="translate(-307.189 -316.497)"/>
                        <path id="Path_24718" d="M297.2 301.938a5.2 5.2 0 1 0 5.2 5.2 5.209 5.209 0 0 0-5.2-5.2zm0 9.136a3.934 3.934 0 1 1 3.934-3.934 3.938 3.938 0 0 1-3.934 3.934z" transform="translate(-273.473 -282.781)"/>
                        <path id="Path_24719" d="M59.71 54h-2.538a.634.634 0 0 0-.634.634v1.9h-1.9a.635.635 0 0 0-.634.634v2.542a.634.634 0 0 0 .634.634h1.9v1.9a.634.634 0 0 0 .634.634h2.538a.634.634 0 0 0 .634-.634v-1.9h1.9a.634.634 0 0 0 .634-.634v-2.538a.635.635 0 0 0-.634-.634h-1.9v-1.9A.634.634 0 0 0 59.71 54zm1.9 3.807v1.269h-1.9a.635.635 0 0 0-.634.634v1.9h-1.269v-1.9a.634.634 0 0 0-.634-.634h-1.9v-1.269h1.9a.634.634 0 0 0 .634-.634v-1.9h1.269v1.9a.634.634 0 0 0 .634.634z" transform="translate(-50.574 -50.574)"/>
                        <path id="Path_24720" d="M266.4 114a.634.634 0 0 0 0 1.269h3.046a.634.634 0 0 0 0-1.269z" transform="translate(-248.907 -106.767)"/>
                        <path id="Path_24721" d="M225.186 114.186a.634.634 0 1 0 .449-.186.639.639 0 0 0-.449.186z" transform="translate(-210.724 -106.767)"/>
                        <path id="Path_24722" d="M49.6 426.93a.635.635 0 0 0 .9 0l.5-.5.779.78a1.263 1.263 0 0 0 1.785 0l1.259-1.259a.634.634 0 0 0-.9-.9l-1.254 1.249-.779-.78a1.264 1.264 0 0 0-1.785 0l-.507.507a.635.635 0 0 0 .002.903z" transform="translate(-46.277 -397.909)"/>
                    </g>
                </g>
            </g>
            <g id="Group_37048" transform="translate(167.661 39.27)">
                <circle id="Ellipse_2118" cx="27.5" cy="27.5" r="27.5" class="cls-23"/>
                <g id="Group_5964" transform="translate(9.332 10.663)">
                    <path id="Path_24741" d="M.809 1.215L1.94.563H12.9l3.611 3.7 17.011.565v14.66l1.978 3.674v4.485l-4.779 4.338-5.882 1.25L11.4 33.6l3-.955V28.6l-3-.589H3.079L2.343 17.06.809 15.883 0 2.993z" class="cls-12" transform="translate(0 -0.392)"/>
                    <g id="drug" transform="translate(0 0)">
                        <g id="Group_5958" transform="translate(8.657 7.52)">
                            <path id="Rectangle_4140" d="M0 0H3.855V4.825H0z" class="cls-24" transform="translate(9.06 20.434)"/>
                            <path id="Path_24671" d="M145.856 126h-22.669a1.19 1.19 0 0 0-1.19 1.19v18.053a1.19 1.19 0 0 0 1.19 1.19h22.669a1.19 1.19 0 0 0 1.19-1.19v-18.05a1.19 1.19 0 0 0-1.19-1.193z" class="cls-24" transform="translate(-121.997 -126.003)"/>
                        </g>
                        <path id="Path_24672" d="M146.129 353.118V350h-25.12v3.12a1.419 1.419 0 0 0 1.419 1.419h22.281a1.419 1.419 0 0 0 1.42-1.421z" class="cls-13" transform="translate(-112.422 -326.584)"/>
                        <path id="Path_24673" fill="#ffe128" d="M95.106 44.512V33.874l-3.838-3.838h-5.351a1.419 1.419 0 0 0-1.417 1.419v13.057a1.419 1.419 0 0 0 1.419 1.419h7.77a1.419 1.419 0 0 0 1.417-1.419z" opacity="0.5" transform="translate(-78.502 -29.326)"/>
                        <path id="Path_24674" fill="#fff9e0" d="M183.74 33.874l-3.84-3.838v2.419a1.419 1.419 0 0 0 1.419 1.419z" transform="translate(-167.136 -29.326)"/>
                        <path id="Path_24675" fill="#c8beff" d="M72.525 86.873h-2.838v-2.838h-2.839v2.838H64.01v2.838h2.838v2.839h2.838v-2.838h2.838z" transform="translate(-59.468 -79.494)"/>
                        <g id="Group_5959" transform="translate(20.668 17.337)">
                            <ellipse id="Ellipse_1974" cx="8" cy="7" class="cls-12" rx="8" ry="7"/>
                            <path id="Path_24676" d="M346.619 317.38a2.1 2.1 0 0 0 2.97 0l3.251-3.251a2.1 2.1 0 0 0 0-2.969 2.1 2.1 0 0 0-2.97 0l-3.251 3.251a2.1 2.1 0 0 0 0 2.969z" class="cls-12" transform="translate(-342.119 -307.267)"/>
                        </g>
                        <path id="Path_24677" fill="#ef2b4a" d="M367.092 364.559l1.6-1.6-1.633-1.633-1.6 1.6a1.293 1.293 0 1 0 1.633 1.633z" opacity="0.5" transform="translate(-338.954 -337.109)"/>
                        <path id="Path_24678" d="M264.794 75.455h12.838a.71.71 0 0 1 .71.71v9.578a.71.71 0 1 0 1.419 0v-9.578a2.131 2.131 0 0 0-2.129-2.129h-12.838a.71.71 0 1 0 0 1.419z" transform="translate(-245.344 -70.204)"/>
                        <path id="Path_24679" d="M15.185 37.35a2.131 2.131 0 0 0 2.129-2.129V24.584a.71.71 0 0 0-.208-.5l-3.838-3.838a.71.71 0 0 0-.5-.208H2.129A2.131 2.131 0 0 0 0 22.165v13.056a2.131 2.131 0 0 0 2.129 2.129zm-1.71-14.891l1.416 1.416h-.706a.71.71 0 0 1-.71-.71zM1.419 35.221V22.165a.71.71 0 0 1 .71-.71h9.928v1.71a2.131 2.131 0 0 0 2.129 2.129h1.71v9.928a.71.71 0 0 1-.71.71H2.129a.71.71 0 0 1-.71-.711z" transform="translate(0 -20.036)"/>
                        <path id="Path_24680" d="M340.016 302.87l-3.19 3.19a2.8 2.8 0 0 0 3.966 3.966l1.595-1.595 1.595-1.595a2.8 2.8 0 1 0-3.966-3.966zm-.228 6.153a1.385 1.385 0 0 1-1.959-1.959l1.093-1.093 1.959 1.959zm3.19-3.19l-1.093 1.093-1.959-1.959 1.093-1.093a1.387 1.387 0 0 1 1.959 0 1.385 1.385 0 0 1 0 1.959z" transform="translate(-312.161 -282.038)"/>
                        <path id="Path_24681" d="M53.337 250.031a8.089 8.089 0 0 0-7.577 10.923H29.14a.71.71 0 0 1-.71-.71v-2.413h14.83a.71.71 0 0 0 0-1.419H28.43v-3.827a.71.71 0 0 0-1.419 0v7.659a2.131 2.131 0 0 0 2.129 2.129h10.005v3.406h-2.51a.71.71 0 0 0 0 1.419h13.252a.71.71 0 0 0 0-1.419h-2.51v-2.2a8.088 8.088 0 1 0 5.961-13.552zM40.564 265.78v-3.406h5.393v3.4zm12.773-.989a6.67 6.67 0 1 1 6.67-6.67 6.678 6.678 0 0 1-6.67 6.67z" transform="translate(-25.094 -233.71)"/>
                        <path id="Path_24682" d="M246.716 371.887a.71.71 0 1 0 .5.208.715.715 0 0 0-.5-.208z" transform="translate(-228.549 -346.919)"/>
                        <path id="Path_24683" d="M54.72 81.131h2.129v2.129a.71.71 0 0 0 .71.71H60.4a.71.71 0 0 0 .71-.71v-2.129h2.129a.71.71 0 0 0 .71-.71v-2.838a.71.71 0 0 0-.71-.71h-2.133v-2.128a.71.71 0 0 0-.71-.71h-2.838a.71.71 0 0 0-.71.71v2.129H54.72a.71.71 0 0 0-.71.71v2.838a.71.71 0 0 0 .71.709zm.71-2.838h2.129a.71.71 0 0 0 .71-.71v-2.129h1.419v2.129a.71.71 0 0 0 .71.71h2.129v1.419H60.4a.71.71 0 0 0-.71.71v2.128h-1.422v-2.129a.71.71 0 0 0-.71-.71h-2.129z" transform="translate(-50.177 -70.203)"/>
                        <path id="Path_24684" d="M325.675 138.034h-6.961a.71.71 0 1 0 0 1.419h6.961a.71.71 0 0 0 0-1.419z" transform="translate(-295.438 -129.661)"/>
                        <path id="Path_24685" d="M281.317 139.243a.71.71 0 1 0-.5.208.714.714 0 0 0 .5-.208z" transform="translate(-260.229 -129.659)"/>
                        <path id="Path_24686" d="M392.244 194.032h-1.877a.71.71 0 1 0 0 1.419h1.877a.71.71 0 1 0 0-1.419z" transform="translate(-362.008 -181.685)"/>
                        <path id="Path_24687" d="M280.819 195.451h4.566a.71.71 0 1 0 0-1.419h-4.566a.71.71 0 0 0 0 1.419z" transform="translate(-260.232 -181.685)"/>
                    </g>
                </g>
            </g>
            <g id="Mask_Group_37" clip-path="url(#clip-path)" transform="matrix(0.978, -0.208, 0.208, 0.978, 0, 89.366)">
                <path id="Oval_2" d="M45.62 179.932a114.726 114.726 0 0 1-25.484-20.28A95.6 95.6 0 0 1 2.8 134.012l42.82 45.919zm157.536-10.5l30.038-99.264a82.475 82.475 0 0 1 2.887 49.159 86.165 86.165 0 0 1-7.036 18.59 95.314 95.314 0 0 1-11.136 16.833 107.567 107.567 0 0 1-14.751 14.681zM0 71.656a89.193 89.193 0 0 1 8.326-17.222 99.351 99.351 0 0 1 11.936-15.475A111.566 111.566 0 0 1 35.38 25.582a123.754 123.754 0 0 1 17.872-10.931zm193.534-49.448L116.869 0a145.982 145.982 0 0 1 41.386 5.9 130.572 130.572 0 0 1 35.28 16.31z" class="cls-33" transform="translate(14.503 5.103)"/>
                <g id="Atoms_icons_System_Dropdown_Copy" transform="translate(68.877 25.038) rotate(-120)">
                    <g id="Group_36">
                        <path id="Mask-7" d="M1.313 0a1.311 1.311 0 0 0-.927 2.237l3.389 3.389a1.311 1.311 0 0 0 1.853 0l3.389-3.389A1.311 1.311 0 0 0 8.091 0z" class="cls-2" transform="translate(0)"/>
                        <g id="Mask_Group_36" class="cls-34">
                            <g id="_" transform="translate(-11.024 -13.105)">
                                <path id="Atoms_Colors_Black" d="M0 0h31.453v31.453H0z" class="cls-2"/>
                            </g>
                        </g>
                    </g>
                </g>
                <g id="Atoms_icons_System_Dropdown_Copy-2" transform="translate(11.491 72.137) rotate(34)">
                    <g id="Group_36-2">
                        <path id="Mask-8" d="M1.313 0a1.311 1.311 0 0 0-.927 2.237l3.389 3.389a1.311 1.311 0 0 0 1.853 0l3.389-3.389A1.311 1.311 0 0 0 8.091 0z" class="cls-2" transform="translate(0)"/>
                        <g id="Mask_Group_36-2" class="cls-34">
                            <g id="_2" transform="translate(-11.024 -13.105)">
                                <path id="Atoms_Colors_Black-2" d="M0 0h31.453v31.453H0z" class="cls-2"/>
                            </g>
                        </g>
                    </g>
                </g>
            </g>
            <g id="Mask_Group_40" clip-path="url(#clip-path-4)" transform="matrix(-0.978, -0.208, 0.208, -0.978, 269.886, 183.546)">
                <path id="Oval_2-2" fill="none" stroke="#674cf3" stroke-miterlimit="10" d="M45.621 0a114.729 114.729 0 0 0-25.484 20.28A95.6 95.6 0 0 0 2.8 45.92L45.622 0zM203.16 10.5l30.04 99.266a82.474 82.474 0 0 0 2.887-49.159 86.162 86.162 0 0 0-7.036-18.59 95.311 95.311 0 0 0-11.136-16.833A107.569 107.569 0 0 0 203.162 10.5zM0 108.276A89.192 89.192 0 0 0 8.327 125.5a99.35 99.35 0 0 0 11.936 15.475A111.566 111.566 0 0 0 35.38 154.35a123.756 123.756 0 0 0 17.873 10.931zm193.537 49.447l-76.667 22.208a145.988 145.988 0 0 0 41.387-5.9 130.576 130.576 0 0 0 35.281-16.31z" opacity="0.7" transform="translate(14.503 -86.7)"/>
                <g id="Atoms_icons_System_Dropdown_Copy-3" transform="matrix(-0.839, 0.545, -0.545, -0.839, 19.875, 22.214)">
                    <g id="Group_36-3">
                        <path id="Mask-9" d="M1.313 0a1.311 1.311 0 0 0-.927 2.237l3.389 3.389a1.311 1.311 0 0 0 1.853 0l3.389-3.389A1.311 1.311 0 0 0 8.091 0z" class="cls-2" transform="translate(0)"/>
                        <g id="Mask_Group_36-3" class="cls-34">
                            <g id="_3" transform="translate(-11.024 -13.105)">
                                <path id="Atoms_Colors_Black-3" d="M0 0h31.453v31.453H0z" class="cls-2"/>
                            </g>
                        </g>
                    </g>
                </g>
                <g id="Atoms_icons_System_Dropdown_Copy-4" transform="matrix(0.574, -0.819, 0.819, 0.574, 63.059, 81.095)">
                    <g id="Group_36-4">
                        <path id="Mask-10" d="M1.313 0a1.311 1.311 0 0 0-.927 2.237l3.389 3.389a1.311 1.311 0 0 0 1.853 0l3.389-3.389A1.311 1.311 0 0 0 8.091 0z" class="cls-2" transform="translate(0)"/>
                        <g id="Mask_Group_36-4" class="cls-34">
                            <g id="_4" transform="translate(-11.024 -13.105)">
                                <path id="Atoms_Colors_Black-4" d="M0 0h31.453v31.453H0z" class="cls-2"/>
                            </g>
                        </g>
                    </g>
                </g>
            </g>
            <g id="Mask_Group_39" clip-path="url(#clip-path-7)" transform="matrix(0.695, 0.719, -0.719, 0.695, 148.261, 0)">
                <path id="Oval_2-3" d="M29.075 114.676a73.118 73.118 0 0 1-16.242-12.926A60.927 60.927 0 0 1 1.784 85.409l27.291 29.266zm100.4-6.693l19.144-63.264a52.563 52.563 0 0 1 1.84 31.33 54.914 54.914 0 0 1-4.483 11.851 60.748 60.748 0 0 1-7.1 10.728 68.557 68.557 0 0 1-9.4 9.357zM0 45.668a56.845 56.845 0 0 1 5.307-10.976 63.319 63.319 0 0 1 7.607-9.862 71.1 71.1 0 0 1 9.634-8.53 78.872 78.872 0 0 1 11.391-6.963zm123.344-31.514L74.484 0a93.038 93.038 0 0 1 26.376 3.758 83.217 83.217 0 0 1 22.485 10.395z" class="cls-33" transform="translate(9.113 3.252)"/>
                <g id="Atoms_icons_System_Dropdown_Copy-5" transform="translate(43.885 16.972) rotate(-120)">
                    <g id="Group_36-5">
                        <path id="Mask-11" d="M1.313 0a1.311 1.311 0 0 0-.927 2.237l3.389 3.389a1.311 1.311 0 0 0 1.853 0l3.389-3.389A1.311 1.311 0 0 0 8.091 0z" class="cls-2" transform="translate(0)"/>
                        <g id="Mask_Group_36-5" class="cls-34">
                            <g id="_5" transform="translate(-11.024 -13.105)">
                                <path id="Atoms_Colors_Black-5" d="M0 0h31.453v31.453H0z" class="cls-2"/>
                            </g>
                        </g>
                    </g>
                </g>
                <g id="Atoms_icons_System_Dropdown_Copy-6" transform="translate(5.79 43.171) rotate(25)">
                    <g id="Group_36-6" transform="translate(0)">
                        <path id="Mask-12" d="M1.313 0a1.311 1.311 0 0 0-.927 2.237l3.389 3.389a1.311 1.311 0 0 0 1.853 0l3.389-3.389A1.311 1.311 0 0 0 8.091 0z" class="cls-2" transform="translate(0)"/>
                        <g id="Mask_Group_36-6" class="cls-34">
                            <g id="_6" transform="translate(-11.024 -13.105)">
                                <path id="Atoms_Colors_Black-6" d="M0 0h31.453v31.453H0z" class="cls-2"/>
                            </g>
                        </g>
                    </g>
                </g>
            </g>
        </g>
    </g>
</svg>
