<svg xmlns="http://www.w3.org/2000/svg" width="449.916" height="371.731" viewBox="0 0 449.916 371.731">
    <defs>
        <style>
            .prefix__cls-1,.prefix__cls-15,.prefix__cls-17,.prefix__cls-25,.prefix__cls-28,.prefix__cls-29,.prefix__cls-31,.prefix__cls-42,.prefix__cls-44,.prefix__cls-7{fill:none}.prefix__cls-1{stroke:#ebf2ff}.prefix__cls-1,.prefix__cls-15,.prefix__cls-25,.prefix__cls-28,.prefix__cls-29,.prefix__cls-31,.prefix__cls-42,.prefix__cls-44{stroke-miterlimit:10}.prefix__cls-1{stroke-width:4px}.prefix__cls-4{fill:#fefefe}.prefix__cls-5{fill:#c4dbfe}.prefix__cls-6{fill:#a4c2e6;opacity:.34}.prefix__cls-25,.prefix__cls-7{stroke:#a4c2e6}.prefix__cls-17,.prefix__cls-7{stroke-linecap:round;stroke-linejoin:round}.prefix__cls-31,.prefix__cls-7{stroke-width:.75px}.prefix__cls-8{fill:#585166}.prefix__cls-16,.prefix__cls-37{mix-blend-mode:multiply;isolation:isolate}.prefix__cls-11{fill:#4f4b5b}.prefix__cls-12{fill:#5b3927}.prefix__cls-13{fill:#fcd6b1}.prefix__cls-15{stroke:#68411d;stroke-width:.841px}.prefix__cls-16{fill:#523d6b;opacity:.428}.prefix__cls-17{stroke:#e59e6e;stroke-width:.561px}.prefix__cls-20{fill:#fcc2a2}.prefix__cls-21{fill:#f9b485}.prefix__cls-25{opacity:.429}.prefix__cls-26{fill:#97b714}.prefix__cls-27{fill:#2b50a0}.prefix__cls-28{stroke:#332b27;stroke-width:.5px}.prefix__cls-29,.prefix__cls-31{stroke:#5b3927}.prefix__cls-37{fill:#00d5bc;opacity:.273}.prefix__cls-42{stroke:#00b09f}.prefix__cls-44{stroke:#009684}
        </style>
    </defs>
    <g id="prefix__Illus" transform="translate(-574.308 -284.6)">
        <path id="prefix__Path_4231" d="M323.655 332.662c-5.05 23.549-18.015 44.516-30.759 64.952" class="prefix__cls-1" data-name="Path 4231" transform="translate(306.356 207.006)"/>
        <path id="prefix__Path_4232" d="M282.443 403.592a57.316 57.316 0 01-8.054 10.768" class="prefix__cls-1" data-name="Path 4232" transform="translate(304.074 215.752)"/>
        <path id="prefix__Path_4233" d="M416.505 141.564a267.811 267.811 0 0140.858-25.7" data-name="Path 4233" transform="translate(321.596 180.276)" style="stroke-width:7px;stroke-miterlimit:10;stroke:#ebf2ff;fill:none"/>
        <g id="prefix__Group_2293" data-name="Group 2293">
            <path id="prefix__Path_4235" d="M720.2 179.257v298.065H270.69c2.214-4.639 5.865-9 9.256-12.858a265.559 265.559 0 0050.645-85.594c11.916-33.642 14.059-69.639 23.927-103.927 5.051-17.569 13.058-33.312 21.831-49.409 21.136-38.8 51.81-75.526 94.648-97.345 87.066-44.358 191.735-21.372 249.203 51.068z" data-name="Path 4235" transform="translate(303.618 179.01)" style="fill:#ebf2ff"/>
            <g id="prefix__Group_2052" data-name="Group 2052" transform="translate(867.278 422.969)">
                <path id="prefix__Path_4236" d="M547.773 237.211v-3.823h1.914a.77.77 0 00.771-.769v-3.078a.77.77 0 00-.771-.769h-13.758a.77.77 0 00-.771.769v3.078a.77.77 0 00.771.769h1.914v3.823a7.868 7.868 0 00-6.34 7.717v21a2.461 2.461 0 002.46 2.461h17.69a2.46 2.46 0 002.46-2.461v-21a7.868 7.868 0 00-6.34-7.717z" class="prefix__cls-4" data-name="Path 4236" transform="translate(-531.503 -228.772)"/>
                <path id="prefix__Path_4237" d="M551.016 242.241v19.377a2.327 2.327 0 01-2.175 2.462h-12.678a2.327 2.327 0 01-2.175-2.462v-19.377z" class="prefix__cls-5" data-name="Path 4237" transform="translate(-531.197 -227.111)"/>
            </g>
            <g id="prefix__Group_2053" data-name="Group 2053" transform="translate(894.143 422.969)">
                <path id="prefix__Path_4238" d="M571.689 237.211v-3.823h1.911a.77.77 0 00.77-.769v-3.078a.77.77 0 00-.77-.769h-13.755a.77.77 0 00-.769.769v3.078a.77.77 0 00.769.769h1.915v3.823a7.868 7.868 0 00-6.341 7.717v21a2.461 2.461 0 002.461 2.461h17.689a2.461 2.461 0 002.461-2.461v-21a7.869 7.869 0 00-6.341-7.717z" class="prefix__cls-4" data-name="Path 4238" transform="translate(-555.419 -228.772)"/>
                <path id="prefix__Path_4239" d="M574.932 242.241v19.377a2.327 2.327 0 01-2.175 2.462H560.08a2.327 2.327 0 01-2.176-2.462v-19.377z" class="prefix__cls-5" data-name="Path 4239" transform="translate(-555.113 -227.111)"/>
            </g>
            <g id="prefix__Group_2054" data-name="Group 2054" transform="translate(921.271 408.311)">
                <path id="prefix__Path_4240" d="M601.86 227.285v-5.237h2.623a1.055 1.055 0 001.055-1.055v-4.216a1.054 1.054 0 00-1.055-1.055h-18.849a1.054 1.054 0 00-1.055 1.055v4.216a1.055 1.055 0 001.055 1.055h2.623v5.237a10.78 10.78 0 00-8.686 10.572v28.766a3.371 3.371 0 003.37 3.377h24.234a3.372 3.372 0 003.371-3.372v-28.77a10.78 10.78 0 00-8.686-10.573z" class="prefix__cls-5" data-name="Path 4240" transform="translate(-579.57 -215.723)"/>
                <path id="prefix__Path_4241" d="M606.3 234.176v26.547a3.188 3.188 0 01-2.979 3.373h-17.37a3.188 3.188 0 01-2.979-3.373v-26.547z" class="prefix__cls-6" data-name="Path 4241" transform="translate(-579.15 -213.448)"/>
            </g>
            <g id="prefix__Group_2056" data-name="Group 2056" transform="translate(673.95 327.019)">
                <g id="prefix__Group_2055" data-name="Group 2055" transform="translate(46.684)">
                    <path id="prefix__Rectangle_2606" d="M0 0H49.036V21.781H0z" class="prefix__cls-5" data-name="Rectangle 2606" transform="translate(0 30.722)"/>
                    <path id="prefix__Rectangle_2607" d="M0 0H55.119V12.838H0z" class="prefix__cls-4" data-name="Rectangle 2607" transform="translate(167.259 39.666)"/>
                    <path id="prefix__Rectangle_2608" d="M0 0H57.283V12.838H0z" class="prefix__cls-4" data-name="Rectangle 2608" transform="translate(128.908 118.885)"/>
                    <path id="prefix__Rectangle_2609" d="M0 0H55.12V45.54H0z" class="prefix__cls-4" data-name="Rectangle 2609" transform="translate(30.531 87.179)"/>
                    <path id="prefix__Rectangle_2610" d="M0 0H38.958V11.672H0z" class="prefix__cls-5" data-name="Rectangle 2610" transform="translate(38.612 96.641)"/>
                    <path id="prefix__Rectangle_2611" d="M0 0H38.958V11.672H0z" class="prefix__cls-5" data-name="Rectangle 2611" transform="translate(38.612 112.014)"/>
                    <path id="prefix__Rectangle_2612" d="M0 0H29.846V21.781H0z" class="prefix__cls-5" data-name="Rectangle 2612" transform="translate(132.756 30.722)"/>
                    <path id="prefix__Rectangle_2613" d="M0 0H29.846V9.557H0z" class="prefix__cls-5" data-name="Rectangle 2613" transform="translate(92.435 123.162)"/>
                    <path id="prefix__Rectangle_2614" d="M0 0H29.846V9.557H0z" class="prefix__cls-5" data-name="Rectangle 2614" transform="translate(92.435 111.006)"/>
                    <path id="prefix__Rectangle_2615" d="M0 0H29.846V9.557H0z" class="prefix__cls-5" data-name="Rectangle 2615" transform="translate(92.435 98.851)"/>
                    <path id="prefix__Rectangle_2616" d="M0 0H12.039V52.504H0z" class="prefix__cls-4" data-name="Rectangle 2616" transform="translate(52.727)"/>
                    <path id="prefix__Rectangle_2617" d="M0 0H4.45V25.667H0z" class="prefix__cls-6" data-name="Rectangle 2617" transform="translate(56.522 13.418)"/>
                    <path id="prefix__Rectangle_2618" d="M0 0H12.04V39.958H0z" class="prefix__cls-4" data-name="Rectangle 2618" transform="translate(68.137 12.545)"/>
                    <path id="prefix__Rectangle_2619" d="M0 0H12.039V28.934H0z" class="prefix__cls-4" data-name="Rectangle 2619" transform="translate(84.765 23.57)"/>
                </g>
                <path id="prefix__Path_4242" d="M654.922 190.094H360.914a1.519 1.519 0 00-1.519 1.519 1.52 1.52 0 001.519 1.519h294.008a1.519 1.519 0 001.519-1.519 1.518 1.518 0 00-1.519-1.519z" class="prefix__cls-5" data-name="Path 4242" transform="translate(-359.395 -137.59)"/>
                <path id="prefix__Path_4243" d="M654.922 261.267H360.914a1.519 1.519 0 00-1.519 1.519 1.519 1.519 0 001.519 1.519h294.008a1.518 1.518 0 001.519-1.519 1.518 1.518 0 00-1.519-1.519z" class="prefix__cls-5" data-name="Path 4243" transform="translate(-359.395 -128.815)"/>
            </g>
            <g id="prefix__Group_2060" data-name="Group 2060" transform="translate(922.993 298.505)">
                <circle id="prefix__Ellipse_1376" cx="29.254" cy="29.254" r="29.254" class="prefix__cls-5" data-name="Ellipse 1376"/>
                <circle id="prefix__Ellipse_1377" cx="25.974" cy="25.974" r="25.974" class="prefix__cls-4" data-name="Ellipse 1377" transform="translate(3.28 3.28)"/>
                <path id="prefix__Rectangle_2620" d="M0 0H7.669V18.783H0z" class="prefix__cls-5" data-name="Rectangle 2620" transform="translate(25.325 20.267)"/>
                <path id="prefix__Rectangle_2621" d="M0 0H7.132V17.469H0z" class="prefix__cls-5" data-name="Rectangle 2621" transform="rotate(90 5.948 32.04)"/>
                <g id="prefix__Group_2057" data-name="Group 2057" transform="translate(29.254 18.325)">
                    <path id="prefix__Line_163" d="M0 12.535L0 0" class="prefix__cls-7" data-name="Line 163"/>
                    <path id="prefix__Line_164" d="M0 8.546L18.97 0" class="prefix__cls-7" data-name="Line 164" transform="translate(0 3.989)"/>
                </g>
                <g id="prefix__Group_2058" data-name="Group 2058" transform="translate(5.938 29.659)">
                    <path id="prefix__Line_165" d="M0 0L2.828 0" class="prefix__cls-7" data-name="Line 165" transform="translate(43.617)"/>
                    <path id="prefix__Line_166" d="M0 0L2.828 0" class="prefix__cls-7" data-name="Line 166"/>
                </g>
                <g id="prefix__Group_2059" data-name="Group 2059" transform="translate(29.16 4.286)">
                    <path id="prefix__Line_167" d="M0 3.04L0 0" class="prefix__cls-7" data-name="Line 167"/>
                    <path id="prefix__Line_168" d="M0 3.04L0 0" class="prefix__cls-7" data-name="Line 168" transform="translate(0 46.897)"/>
                </g>
            </g>
            <g id="prefix__Group_2061" data-name="Group 2061" transform="translate(829.81 444.701)">
                <path id="prefix__Rectangle_2622" d="M0 0H109.327V21.784H0z" class="prefix__cls-5" data-name="Rectangle 2622" transform="translate(73.706 104.249)"/>
                <rect id="prefix__Rectangle_2623" width="135.668" height="89.883" class="prefix__cls-8" data-name="Rectangle 2623" rx="2.085"/>
                <path id="prefix__Path_4244" d="M627.676 256.3v72.11a2.461 2.461 0 01-2.461 2.461H505.532a1.435 1.435 0 01-.236-.012h-.012a2.473 2.473 0 01-2.213-2.449V256.3a2.467 2.467 0 012.461-2.461h119.683a2.46 2.46 0 012.461 2.461z" data-name="Path 4244" transform="translate(-497.54 -247.413)" style="opacity:.356;fill:#6d687a"/>
                <path id="prefix__Path_4245" d="M627.432 256.3v72.11a2.461 2.461 0 01-2.461 2.461H505.288a1.435 1.435 0 01-.236-.012c119.918.012 118.482-74.383 119.824-77.021h.094a2.46 2.46 0 012.462 2.462z" data-name="Path 4245" transform="translate(-497.296 -247.413)" style="mix-blend-mode:multiply;isolation:isolate;opacity:.069;fill:#6d687a"/>
                <rect id="prefix__Rectangle_2624" width="16.626" height="85.882" class="prefix__cls-11" data-name="Rectangle 2624" rx="1.104" transform="translate(59.521 40.512)"/>
                <path id="prefix__Rectangle_2625" d="M0 0H57.001V7.99H0z" class="prefix__cls-11" data-name="Rectangle 2625" transform="translate(39.333 117.645)"/>
            </g>
            <g id="prefix__Group_2072" data-name="Group 2072" transform="translate(656.724 331.411)">
                <g id="prefix__Group_2070" data-name="Group 2070">
                    <g id="prefix__Group_2069" data-name="Group 2069" transform="translate(2.145)">
                        <g id="prefix__Group_2068" data-name="Group 2068">
                            <path id="prefix__Path_4246" d="M443.383 295.041a16.837 16.837 0 01-2.881 9.1 12.653 12.653 0 01-2.972 3.063l-.182-2.5a19.245 19.245 0 01-2.472.121c-3.367-.03-4.913.744-8.174 1.654-6.1 1.713-12.617 1.44-18.623 3.609-5.9 2.139-10.738 6.476-15.1 10.98-2.593 2.653-5.126 5.445-8.235 7.461a22.779 22.779 0 01-4.974 2.412l.045.607a7.759 7.759 0 01-2.7.2c-3.2-.288-6.263-2.4-8.478-4.868a31.869 31.869 0 01-7.34-16.53 63.187 63.187 0 01.273-18.289c1.4-10.1 2.426-20.488 7.932-29.088 1.46-2.28 3.016-4.462 4.345-6.825 1.22-2.171 2.489-4.433 4.564-5.907.717-.509 1.507-.906 2.232-1.4a19.569 19.569 0 002.71-2.4.294.294 0 00.118-.234.285.285 0 00-.121-.163c-4.039-3.31-8.955-5.262-13.24-8.2-8.813-6.042-17.665-15.7-19.8-26.533-5.224-26.557 9.761-54.637 36.006-62.589a34.612 34.612 0 0111.542-1.243h.061a52.229 52.229 0 015.868.622c4.2.667 3.9 3.108 6.142 6.142 4.444 6.021 8.584 12.3 12.876 18.425 2.244 3.2 4.671 5.9 6.854 8.8.243.288.516.561.789.833 1.092 1.062 2.942 2.078 3.776 3.337.621.94.621 2.471.88 3.563.288 1.229.637 2.457 1.031 3.671a14.991 14.991 0 00-.03 2.2 39.982 39.982 0 01.955 5.323 14.21 14.21 0 001.593 3.518c1.623 2.517 3.17 5.005 3.094 8.2-.106 4.338-2.714 8.174-3.2 12.452a13.256 13.256 0 002.624 9.387.887.887 0 01-.924 1.4 15.882 15.882 0 01-8.326-5.141l-.228-3.276c-.318.576-.651 1.122-.986 1.652a44.738 44.738 0 01-7.755 9.3 49.039 49.039 0 01-9.923 7.462 3.707 3.707 0 002.012 2.849 19.656 19.656 0 003.395 1.293c4.361 1.542 7.893 4.9 10.471 8.738a65.2 65.2 0 016.015 12.473c1.512 3.806 3.374 7.232 5.2 10.89 1.943 4.214 3.413 8.793 3.261 13.449z" class="prefix__cls-12" data-name="Path 4246" transform="translate(-345.562 -147.244)"/>
                            <g id="prefix__Group_2064" data-name="Group 2064" transform="translate(22.313 25.57)">
                                <g id="prefix__Group_2062" data-name="Group 2062" transform="translate(17.511 36.23)">
                                    <path id="prefix__Path_4247" d="M399.415 276.478c-9.437-1.939-14.064-20.937-15-28.911-.459-3.878-.969-7.754-1.428-11.647-.647-5.458-1.208-10.933-1.531-16.426-.374-6.461 2.194-18.907 11.409-17.02 9.113 1.871 13.058 14.742 13.518 22.683.272 4.88.748 9.725 1.309 14.572.528 4.489 1.105 8.994 1.633 13.5.783 6.512-.966 25.086-9.91 23.249z" class="prefix__cls-13" data-name="Path 4247" transform="translate(-381.422 -202.281)"/>
                                </g>
                                <g id="prefix__Group_2063" data-name="Group 2063">
                                    <path id="prefix__Path_4248" d="M407.67 239.669c-1.429.884-2.891 1.734-4.336 2.568a12 12 0 01-4.438 1.8c-2.211.255-4.37-.782-6.325-1.853a65.565 65.565 0 01-9.606-6.325c-.646-5.458-1.208-10.933-1.531-16.425-.374-6.461 2.194-18.908 11.409-17.02 9.114 1.87 13.058 14.741 13.518 22.683.271 4.88.747 9.726 1.309 14.572z" data-name="Path 4248" transform="translate(-363.914 -166.057)" style="fill:#fcd6b1;mix-blend-mode:multiply;isolation:isolate"/>
                                    <path id="prefix__Path_4249" d="M365.833 198.708c0 9.72 2.378 19.894 8.318 27.772 4.812 6.384 11.341 11.317 18.351 15.159 1.961 1.075 4.112 2.1 6.334 1.849a11.776 11.776 0 004.43-1.8c5.64-3.255 11.434-6.644 15.388-11.819 3.741-4.894 5.526-11.007 6.557-17.081 1.788-10.535 3.317-23.868-3.871-32.628-5.646-6.881-15.407-10.129-24.09-10.129-14.879-.003-31.417 9.242-31.417 28.677z" class="prefix__cls-13" data-name="Path 4249" transform="translate(-365.833 -170.027)"/>
                                </g>
                            </g>
                            <path id="prefix__Path_4250" d="M381.777 194.533a9.289 9.289 0 019.688.493" class="prefix__cls-15" data-name="Path 4250" transform="translate(-341.554 -141.575)"/>
                            <path id="prefix__Path_4251" d="M375.37 204.962c.72 4.808-1.8 9.169-5.618 9.742s-7.5-2.86-8.226-7.666 1.8-9.169 5.618-9.742 7.505 2.86 8.226 7.666z" class="prefix__cls-13" data-name="Path 4251" transform="translate(-344.066 -141.102)"/>
                            <path id="prefix__Path_4252" d="M405.056 190.379a47.73 47.73 0 01-5.162 4.987 40.113 40.113 0 01-13.639 7.751c-5.029 1.551-12.21 2.425-17.181.694-3.719-1.3-2.714-4.966-3.457-8.4-.331-1.534-.607-3.081-.817-4.638a40.91 40.91 0 01-.307-9.382 20.988 20.988 0 01.883-4.473c3.513-10.776 13.683-24.419 26.6-23.136 4.572.455 9.4 3.717 13.532 5.587 2.8 1.265 5.782 2.7 7.259 5.388a11.189 11.189 0 011.072 5.831c-.282 7.382-3.823 14.203-8.783 19.791z" class="prefix__cls-16" data-name="Path 4252" transform="translate(-343.703 -146.47)"/>
                            <path id="prefix__Path_4253" d="M402.677 190.213a47.623 47.623 0 01-5.162 4.987 40.094 40.094 0 01-13.639 7.751c-5.029 1.551-12.21 2.426-17.181.694-3.719-1.3-2.714-4.965-3.458-8.4q-.5-2.3-.817-4.638a40.85 40.85 0 01-.307-9.382 21 21 0 01.883-4.474c3.513-10.776 13.683-24.419 26.6-23.135 4.572.454 9.4 3.717 13.532 5.586 2.8 1.265 5.782 2.7 7.259 5.388a11.2 11.2 0 011.072 5.831c-.28 7.379-3.823 14.204-8.782 19.792z" class="prefix__cls-12" data-name="Path 4253" transform="translate(-343.997 -146.49)"/>
                            <path id="prefix__Path_4254" d="M404.1 182.5c5.853 4.1 12.337 7.659 16.091 13.684a20.587 20.587 0 013.023 12.443c-.341 4.217-1.987 8.3-1.867 12.527.192 6.725 5.53 12.845 12.024 14.334a.892.892 0 00.931-1.4 13.271 13.271 0 01-2.627-9.386c.482-4.283 3.086-8.116 3.2-12.458.081-3.191-1.465-5.689-3.1-8.2a18.869 18.869 0 01-2.314-12.329c.623-2.907 1.614-5.74 1.977-8.691.8-6.523-1.568-13.13-5.3-18.54a39.57 39.57 0 00-18.62-14.5c-3.86-1.437-10.129-3.463-14.284-2.451-3.659.89-4.125 8.892-4.117 12.362a21.638 21.638 0 003.641 12.261c2.652 3.817 6.066 6.478 9.754 9.2q.788.585 1.588 1.144z" class="prefix__cls-16" data-name="Path 4254" transform="translate(-340.649 -147.263)"/>
                            <path id="prefix__Path_4255" d="M436.889 233.945a.887.887 0 01-.924 1.4 15.882 15.882 0 01-8.326-5.141 15.608 15.608 0 01-1.214-1.623 14.424 14.424 0 01-2.487-7.568c-.121-4.23 1.532-8.31 1.866-12.526a20.593 20.593 0 00-3.018-12.436c-3.761-6.037-10.237-9.6-16.09-13.7l-1.593-1.137a60.886 60.886 0 01-18.653-22.642c-.985-2.062-2.851-4.717-2.381-7.143.622-3.124 3.823-3.215 6.4-3.609 1.031-.152 2.078-.273 3.109-.349h.061a39.232 39.232 0 0135.093 16.88c3.73 5.4 6.1 12.011 5.292 18.532-.348 2.958-1.349 5.778-1.971 8.69-.075.41-.152.835-.2 1.274v.016a14.991 14.991 0 00-.03 2.2 20.657 20.657 0 00.955 5.323 14.208 14.208 0 001.593 3.518c1.623 2.517 3.17 5.005 3.094 8.2-.106 4.338-2.714 8.174-3.2 12.452a13.257 13.257 0 002.624 9.389z" class="prefix__cls-12" data-name="Path 4255" transform="translate(-341.281 -147.249)"/>
                            <path id="prefix__Path_4256" d="M399.717 198.3a57 57 0 00.162 7.445 14.138 14.138 0 00.445 3.693c.309.763 1.441 1.072 2.2 1.3a7.5 7.5 0 011.172.39 1.57 1.57 0 01.839.863 1.467 1.467 0 01-.25 1.273 3.557 3.557 0 01-1 .883 13.5 13.5 0 01-2.549 1.3" class="prefix__cls-17" data-name="Path 4256" transform="translate(-339.349 -140.971)"/>
                            <g id="prefix__Group_2065" data-name="Group 2065" transform="translate(46.096 76.901)">
                                <path id="prefix__Path_4257" d="M407.26 218.573a8.9 8.9 0 01-1.99 4.757c-.118.153-.247.294-.377.435a9.6 9.6 0 01-11.574 2.285 11.478 11.478 0 01-2.19-1.507 3.207 3.207 0 01-.376-.318 10.687 10.687 0 01-3.745-6.759 31.9 31.9 0 006.383 1.308 26.112 26.112 0 006.7.153 14.02 14.02 0 007.053-3.2 10.885 10.885 0 01.116 2.846z" data-name="Path 4257" transform="translate(-387.006 -215.723)" style="fill:#332b27"/>
                                <path id="prefix__Path_4258" d="M404.44 223.118a9.6 9.6 0 01-11.574 2.285 11.478 11.478 0 01-2.19-1.507 10.068 10.068 0 017.324-2.932 10.241 10.241 0 016.44 2.154z" data-name="Path 4258" transform="translate(-386.554 -215.077)" style="fill:#f85c55"/>
                            </g>
                            <path id="prefix__Path_4259" d="M419.474 207.112c0 1.561-3.174 2.827-7.091 2.827s-7.091-1.266-7.091-2.827 3.174-2.826 7.091-2.826 7.091 1.266 7.091 2.826z" class="prefix__cls-20" data-name="Path 4259" transform="translate(-338.655 -140.233)"/>
                            <g id="prefix__Group_2067" data-name="Group 2067" transform="translate(0 104.689)">
                                <path id="prefix__Path_4260" d="M430.51 295.388a32.85 32.85 0 01-1.951-5.592 11.261 11.261 0 01-.2-5.505c1.155-4.346 8.371-6.735 12.211-7.814 1.789-.5 4.238-.391 5.851-1.222a151.825 151.825 0 007.6 20.887q2.3 5.067 5.02 9.923c1.78 3.163 3.978 5.729 6.017 8.7a42.663 42.663 0 016.861 19.375 49.737 49.737 0 01.18 9.982c-.273 3.085-1.061 4.881-3.736 2.234-1.056-1.045-2.363-1.734-3.422-2.775-3.466-3.407-6.176-7.545-9.727-10.922-2.7-2.57-5.665-4.91-7.936-7.869a45.073 45.073 0 01-3.247-5.133l-9.378-16.418a88.544 88.544 0 01-4.143-7.851z" class="prefix__cls-21" data-name="Path 4260" transform="translate(-335.844 -236.171)"/>
                                <path id="prefix__Path_4261" d="M454.246 382.472c-.119.084-.255.17-.374.237a8.992 8.992 0 01-3.86.9 363.139 363.139 0 01-44.089.935c-7.924-.322-15.829-.884-23.736-1.53-3.69-.307-8.57-.255-11.97-1.939-3.316-1.666-.714-6.171.017-9.318a152.5 152.5 0 004.2-24.416c1.19-17.225-4.778-31.559-12.838-46.4-3.5-6.461-7.192-12.889-9.521-19.86-2.3-6.835-1.483-9.892-.293-16.983 1.072-6.257 8.333-8.5 13.468-10.18 5.764-1.9 11.364-5.282 16.846-7.868 1.5-.707 5.588-5.318 5.588-5.318s2.219 2.923 3.07 3.8a16.6 16.6 0 008.8 4.827c1.555 3.786 6.143 18.346 6.143 18.346s.177-13.349 1.288-19.933c4.3-2.154 4.646-3.3 4.858-7.307 0 .458 6.512 4.761 7.124 5.271 3.214 2.653 6.411 5.288 9.624 7.941a24.665 24.665 0 018.858 11.715l2.651 5.808c.783 1.718 1.565 3.435 2.363 5.153 0 .034.018.051.018.069.237.492.458.985.68 1.478.307.664.612 1.327.919 2.006.17.392.339.766.51 1.157 3.672 8.365 6.1 16.663 3.095 25.811-1.105 3.35-2.806 6.478-4.03 9.776a45.9 45.9 0 00-1.547 24.383 62.281 62.281 0 002.465 8.127q3.367 9.259 6.716 18.516c1.138 3.115 6.511 12.212 2.957 14.796z" data-name="Path 4261" transform="translate(-345.397 -240.461)" style="fill:#4768ae"/>
                                <g id="prefix__Group_2066" data-name="Group 2066" transform="translate(0 1.311)">
                                    <path id="prefix__Path_4262" d="M388.6 385.848l9.36.857a115.409 115.409 0 0016.913.719 1.458 1.458 0 00.865-.238 1.484 1.484 0 00.353-1.2q-.286-34.177-1.059-68.347c-.07-3.078.391-6.035-1.385-8.639-1.946-2.854-4.054-5.583-5.928-8.492a141.523 141.523 0 01-17.037-37.615q-1.425-4.979-2.483-10.056c-.236-1.136-2.764-10.608-2-11.208-6.078 4.8-14.476 6.694-21.585 9.878-7.067 3.164-15.044 6.5-17.669 13.782-2.115 5.871-.417 12.375 1.575 18.289 6.187 18.383 12.182 36.945 21.192 54.171a18.225 18.225 0 011.833 4.348 16.249 16.249 0 01.247 4.08c-.317 10.479-2.154 20.844-3.654 31.221a10.517 10.517 0 00.124 5.145c1.277 3.445 4.9 2.4 7.755 2.452 4.206.082 8.399.469 12.583.853z" class="prefix__cls-4" data-name="Path 4262" transform="translate(-345.969 -241.628)"/>
                                </g>
                                <path id="prefix__Path_4263" d="M415.145 245.779c4.575 1.425 9.159 2.846 13.8 4.164a22.275 22.275 0 014.874 1.805c3.99 2.239 6.179 6.629 8.136 10.762l5.718 12.073A34.49 34.49 0 01451 284.608c-3.762 1.634-7.62 2.877-11.274 4.822-3.728 1.985-6.995 5.085-10.708 6.942 2.315-1.789-14.225-32.306-15.674-35.158-2.849-5.6-6.919-5.53-8.6-11.962-1.1-4.209 1.8-1.534.985-6.536.052.322 0 0 .274.116a22.369 22.369 0 002.145.778q3.501 1.073 6.997 2.169z" data-name="Path 4263" transform="translate(-338.754 -240.183)" style="fill:#4163ce"/>
                                <path id="prefix__Path_4264" d="M407.707 242.618a220.1 220.1 0 012.611 45.425c-.34 7.381-.511 15.406-2.231 22.619-1.589 6.67-.284 14.409-.139 21.307q.575 27.421-.494 54.844a287.528 287.528 0 0035.714.814c2.2-.087 4.577-.268 6.233-1.716 2.979-2.6 1.869-7.4.517-11.116l-10.985-30.2c-1.321-3.632-4.34-7.595-4.338-11.459 0-6.85 2.539-12.6 4.811-19.061 1.674-4.761 2.968-9.168 2.582-14.2a72.477 72.477 0 00-10.37-32.332 47.571 47.571 0 00-11.678-14.032l-12.251-11.023" class="prefix__cls-4" data-name="Path 4264" transform="translate(-338.407 -240.211)"/>
                                <path id="prefix__Path_4265" d="M445.849 305.017c-1.105 3.35-2.553 9.51-3.778 12.808-2.737 7.465-3.466 13.581-1.8 21.352-11.919 3.536-24.723 4.506-37.22 5.169-4.846.238-9.9.425-14.334-1.514-5.678-2.482-9.4-8.008-12.258-13.518A94.89 94.89 0 01366 290.139c-.1-2.211.085-4.489-.067-6.682-.153-2.04-.867-4.029-.085-6.087.6-1.565 2.347-2.823 3.945-2.278a4.845 4.845 0 011.9 1.53c7.583 9.012 10.678 22.292 21.084 28.8 10.866 6.785 24.994 5.663 37.1 1.5 2.857-.969 5.747-2.176 7.788-4.386 3.2-3.452 3.6-8.621 3.486-13.331-.171-6.154-.936-14.3-2.992-20.013l.1.153a21.916 21.916 0 012.363 5.153c0 .034.018.051.018.069a17.5 17.5 0 001.054 2.771c.188.238.357.476.545.714.17.391.339.765.51 1.156 3.678 8.363 6.11 16.661 3.1 25.809z" data-name="Path 4265" transform="translate(-343.563 -236.919)" style="fill:#e9f5ff"/>
                                <path id="prefix__Path_4266" d="M475.783 343.233a1.112 1.112 0 01-.136.153c-.681.731-1.888.664-2.789.953-1.19.374-2.414.714-3.655.986a28.009 28.009 0 01-7.328.731c-6.122-.221-11.869-2.737-17.548-5-2.516-1-5.049-1.955-7.617-2.873q-8.263-2.959-16.731-5.27c-2.8-.765-5.645-1.463-8.484-2.125-4.081-.936-10.922-1.95-14.73-3.7s-4.62-4.357-6.338-8.183a6.9 6.9 0 01-.629-4.267c.34-1.429-1.794-2.586-.331-2.688.833-.069-.008-.289.774 0 15.745 6.087 36.217 5.986 53.781 7.329 2.959.221 5.968.51 9.063.884.374.034.765.085 1.139.136 4.115.544 8.417-1.5 12.327-.119 4.285 1.513 7.311 5.543 8.74 9.846a21.309 21.309 0 01.8 6.8c0 1.191-.034 2.381.034 3.571.049.897.236 2.054-.342 2.836z" class="prefix__cls-21" data-name="Path 4266" transform="translate(-340.67 -231.665)"/>
                                <path id="prefix__Path_4267" d="M408.1 242.094a86.133 86.133 0 0125.152 7.245 16.14 16.14 0 018.589 7.728 81.4 81.4 0 018.444 18.2c1.359 4.236 2.37 8.577 3.707 12.821 3.517 11.166 9.249 21.512 15.628 31.329 2.621 4.033 5.4 8.078 6.718 12.7a34.614 34.614 0 01.32 16.219c-.552 2.647-1.962 5.322-4.425 6.438-2.312 1.048-4.984.516-7.515.336-8.8-.628-17.541-.7-26.34-2.013l-7.7-1.148a5.458 5.458 0 01-2.116-.618c-1.832-1.137-1.687-3.794-1.4-5.932a87.48 87.48 0 00.635-17.109 1.725 1.725 0 01.21-1.184 1.753 1.753 0 011.224-.489 38.072 38.072 0 008.3-2.021c1.7-.623 6.526-1.782 5.52-4.057-1.265-2.859-2.787-5.337-3.162-8.44 1.447-4.457 1.616-9.932 1.31-14.794-.28-4.422-2.468-9.122-4.08-13.205-3.522-8.92-8.291-17.5-15.134-24.306a30.618 30.618 0 01-3.461-3.724c-.869-1.212-1.506-2.585-2.436-3.752a42.167 42.167 0 00-3.853-3.663c-1.692-1.647-3.718-3.794-4.579-5.993" class="prefix__cls-4" data-name="Path 4267" transform="translate(-338.363 -240.26)"/>
                                <path id="prefix__Path_4268" d="M350.2 284.531c6.875 14.517 12.187 29.731 19.472 44.062a112.439 112.439 0 0012.718 20.228c1.968 2.416 4.027 5.839 6.7 7.374 3.55 2.042 8.849 1.023 12.555.072 8.8-2.257 17.042-6.193 24.978-10.542 2.89-1.584 6.07-2.593 8.883-4.228 3.228-1.876 6.451-3.761 9.7-5.605q5.119-2.907 10.286-5.731c2.632-1.438 6.006-4.384 9.025-4.666a2.368 2.368 0 001.286-.328c1.311-1.04-.366-3.106-1.258-3.726l-2.011-1.4a14.405 14.405 0 00-3.126-1.805c-3.77-1.4-6.708.51-10.267 1.566-7.984 2.37-16.531 3.418-24.716 5.027a154.879 154.879 0 01-26.026 2.861 4.135 4.135 0 01-2.564-.5 4.246 4.246 0 01-1.306-2.467c-1.559-5.756-19.886-46.376-26.369-53.073a92.423 92.423 0 00-16.487 13.05" class="prefix__cls-13" data-name="Path 4268" transform="translate(-345.448 -236.616)"/>
                                <path id="prefix__Path_4269" d="M382.267 295.8c-3.4-7.542-6.944-15.006-10.7-22.473a87.217 87.217 0 00-8.111-13.911c-1.605-2.105-3.744-4.546-6.562-4.816-2.509-.238-4.319 1.868-5.928 3.562-3.9 4.11-5.206 10.29-4.593 15.791.778 6.988 4.109 13.386 7.046 19.774 9.03 19.634 15.036 41.1 28.551 57.964a25.847 25.847 0 007.807 7.067c3.131 1.643 7.718 3.144 10.847 1.5 1.506-.794 4.247-.336 5.731-1.17 2.659-1.494 13.22-7.308 15.041-7.906 1.908-.628-4.666-21.949-5.7-22.715-1.576-.12-12.929.929-18.406 1.352-4.38-2.451-4.7-9.8-6.6-14.441-2.726-6.62-5.518-13.128-8.423-19.578z" class="prefix__cls-4" data-name="Path 4269" transform="translate(-345.938 -238.72)"/>
                            </g>
                            <path id="prefix__Path_4270" d="M367 202.657a3.674 3.674 0 00-1.3 4.518 4.289 4.289 0 001.668 1.78" class="prefix__cls-17" data-name="Path 4270" transform="translate(-343.576 -140.433)"/>
                            <path id="prefix__Path_4271" d="M403.17 205.812a11.713 11.713 0 011.018-4.967 4.483 4.483 0 012.384-2.586 3.521 3.521 0 013.519 1.019 7.3 7.3 0 011.7 3.42 16.265 16.265 0 01.471 3.265" class="prefix__cls-15" data-name="Path 4271" transform="translate(-338.917 -140.994)"/>
                            <path id="prefix__Path_4272" d="M381.912 206.75a11.747 11.747 0 011.018-4.967 4.481 4.481 0 012.385-2.586 3.521 3.521 0 013.519 1.019 7.305 7.305 0 011.7 3.42A16.26 16.26 0 01391 206.9" class="prefix__cls-15" data-name="Path 4272" transform="translate(-341.538 -140.878)"/>
                            <path id="prefix__Path_4273" d="M390.057 209.115c0 1.561-3.176 2.826-7.092 2.826s-7.091-1.265-7.091-2.826 3.176-2.826 7.091-2.826 7.092 1.266 7.092 2.826z" class="prefix__cls-20" data-name="Path 4273" transform="translate(-342.282 -139.986)"/>
                            <path id="prefix__Path_4274" d="M403.5 194.167a9.288 9.288 0 019.657.927" class="prefix__cls-15" data-name="Path 4274" transform="translate(-338.876 -141.596)"/>
                            <path id="prefix__Path_4275" d="M379.523 301.794a1.511 1.511 0 00-.732-.324 1.034 1.034 0 00-.954 1.086 2.747 2.747 0 00.607 1.475 21.521 21.521 0 003.829 4.249 23.086 23.086 0 01-7.693-.953 3.73 3.73 0 00-1.545-.252 1.152 1.152 0 00-1.051 1 1.51 1.51 0 00.51 1 7.417 7.417 0 002.47 1.725 3.7 3.7 0 00-1.546-.237 1.26 1.26 0 00-1.119.953c-.1.666.518 1.2 1.084 1.567a21.734 21.734 0 006.617 2.829 4.59 4.59 0 00-1.841-.131 1.563 1.563 0 00-1.285 1.181c-.12.816.637 1.487 1.374 1.858 1.968.993 4.253 1.072 6.4 1.574 3.144.736 5.987 2.383 9 3.536a1.187 1.187 0 001.128.026 1.016 1.016 0 00.317-.547 3.458 3.458 0 00-.61-3.06 9.062 9.062 0 01-.9-1.081c-.5-.869-.258-1.955-.386-2.946-.961-7.495-8.316-10.631-13.674-14.528z" class="prefix__cls-21" data-name="Path 4275" transform="translate(-342.762 -128.251)"/>
                            <path id="prefix__Path_4276" d="M428.541 268.447q3.719 6.43 6.87 13.165" class="prefix__cls-25" data-name="Path 4276" transform="translate(-335.789 -132.322)"/>
                            <rect id="prefix__Rectangle_2626" width="17.894" height="6.976" class="prefix__cls-26" data-name="Rectangle 2626" rx="1.024" transform="rotate(-7.13 1234.711 -592)"/>
                        </g>
                        <path id="prefix__Path_4277" d="M370.671 331.03c7.316 16.779 17.554 21.3 22.943 21.012 5.611-.3 21.462-9.05 24.764-10.292" class="prefix__cls-25" data-name="Path 4277" transform="translate(-342.924 -124.606)"/>
                        <path id="prefix__Path_4278" d="M366.147 197.507c-1.02 3.943-.5 8.427 2.05 11.6 1.542 1.921 3.108 4.082 2.6 6.7a28.6 28.6 0 01-1.491 3.941 9.878 9.878 0 001.2 8.791c1 1.424 2.33 2.558 3.418 3.9a11.08 11.08 0 012.143 4.785.63.63 0 00.136.324c.3.306.737-.215.848-.63a21.5 21.5 0 00.868-4.5 7.206 7.206 0 00-1.065-4.389 17.642 17.642 0 01-2.013-2.724c-.648-1.528-.085-3.262.268-4.884 1.075-4.926-.334-9.554-1.585-14.26a20.206 20.206 0 01.009-10.232" class="prefix__cls-16" data-name="Path 4278" transform="translate(-343.542 -141.263)"/>
                        <path id="prefix__Path_4279" d="M367.164 196.935c-1.021 3.944-.5 8.427 2.049 11.6 1.543 1.92 3.109 4.082 2.6 6.7a28.688 28.688 0 01-1.492 3.941 9.88 9.88 0 001.2 8.792c1 1.423 2.329 2.558 3.418 3.9a11.094 11.094 0 012.143 4.785.634.634 0 00.136.324c.3.3.737-.215.848-.631a21.489 21.489 0 00.868-4.5 7.214 7.214 0 00-1.065-4.389 17.622 17.622 0 01-2.013-2.724c-.648-1.529-.085-3.262.268-4.884 1.074-4.926-.335-9.555-1.585-14.26a20.219 20.219 0 01.008-10.232" class="prefix__cls-12" data-name="Path 4279" transform="translate(-343.417 -141.334)"/>
                        <path id="prefix__Path_4280" d="M436.189 283.529c1.585 6.764 2.7 15.783.811 22.467-1.11 3.916-2.907 6.014-3.334 10.061" class="prefix__cls-25" data-name="Path 4280" transform="translate(-335.157 -130.462)"/>
                        <path id="prefix__Path_4281" d="M419.573 338.1c3.354-.062 6.6 1.037 9.888 1.728a41.217 41.217 0 008.761.878" class="prefix__cls-25" data-name="Path 4281" transform="translate(-336.894 -123.735)"/>
                    </g>
                    <path id="prefix__Path_4282" d="M395.868 248.722c.067.526.393.938.136.792a47.142 47.142 0 01-.656 8.674 26.984 26.984 0 01-13.245-8.767 53.689 53.689 0 01-3.69-5.345 26.134 26.134 0 015.951-3.768 8.206 8.206 0 002.841 3.715 24.462 24.462 0 004.084 2.4l4.579 2.3" class="prefix__cls-27" data-name="Path 4282" transform="translate(-339.824 -135.791)"/>
                    <path id="prefix__Path_4283" d="M405.453 237.112c.064 2.832-.164 5.122-1.666 7.523a15.229 15.229 0 01-2.112 2.473c-.238.213-.8.461-.716.812.064.266.707.729.9.949a16.237 16.237 0 012.8 4.55c.2.483.368.974.557 1.46.052.131.151.29.289.259a.3.3 0 00.14-.1 13.554 13.554 0 002.789-5.7 24.128 24.128 0 001.128-7.108 1.642 1.642 0 00-.086-.619 2.322 2.322 0 00-.285-.447c-.34-.475-.563-1.028-.9-1.509a7.846 7.846 0 00-2.916-2.214" class="prefix__cls-27" data-name="Path 4283" transform="translate(-337.045 -136.185)"/>
                    <path id="prefix__Path_4284" d="M365.769 253.585a24.645 24.645 0 0017.538 13.215l-5.528 7.4a.79.79 0 00-.013 1.193 169.6 169.6 0 0031.452 32.236" class="prefix__cls-25" data-name="Path 4284" transform="translate(-341.383 -134.154)"/>
                    <path id="prefix__Path_4285" d="M397.68 211.737c-2.4 3.6-14.766 2.891-17.481 1.151a8.237 8.237 0 01-3.235-5.709 3.689 3.689 0 012.036-3.722 4.971 4.971 0 01.669-.276c1.753-.591 16.262-1.287 18.093.557a4.836 4.836 0 011.451 3.589 8.508 8.508 0 01-1.533 4.41z" class="prefix__cls-28" data-name="Path 4285" transform="translate(-340.004 -140.447)"/>
                    <path id="prefix__Path_4286" d="M422.914 211.737c-2.4 3.6-14.767 2.891-17.481 1.151a8.237 8.237 0 01-3.235-5.709 3.689 3.689 0 012.034-3.723 4.968 4.968 0 01.669-.276c1.753-.591 16.262-1.287 18.093.557 2.444 2.463 1.374 5.822-.08 8z" class="prefix__cls-28" data-name="Path 4286" transform="translate(-336.893 -140.447)"/>
                    <path id="prefix__Line_169" d="M6.276 0L0 0" class="prefix__cls-28" data-name="Line 169" transform="translate(59.246 67.236)"/>
                    <path id="prefix__Path_4287" d="M378.238 207c-2.577-1.847-11.724-9.706-11.724-9.706" class="prefix__cls-28" data-name="Path 4287" transform="translate(-341.291 -141.095)"/>
                    <path id="prefix__Path_4288" d="M355.848 162.5a55.453 55.453 0 00-10.817 44.4" class="prefix__cls-29" data-name="Path 4288" transform="translate(-344.06 -145.384)"/>
                    <path id="prefix__Path_4289" d="M345.934 206.357a31.481 31.481 0 002.952 7.651" class="prefix__cls-29" data-name="Path 4289" transform="translate(-343.828 -139.977)"/>
                    <path id="prefix__Path_4290" d="M378.192 236.434c.013.063.119-.017.079-.066s-.118-.035-.179-.015a20.892 20.892 0 00-7.679 4.376 15.358 15.358 0 00-4.567 7.5" class="prefix__cls-29" data-name="Path 4290" transform="translate(-341.373 -136.281)"/>
                </g>
                <g id="prefix__Group_2071" data-name="Group 2071" transform="translate(29.74 37.221)" style="opacity:.42;mix-blend-mode:multiply;isolation:isolate">
                    <path id="prefix__Path_4291" d="M370.535 196.435a26.854 26.854 0 0016.824-2.521 42.9 42.9 0 0013.411-10.767" class="prefix__cls-31" data-name="Path 4291" transform="translate(-370.535 -180.06)"/>
                    <path id="prefix__Path_4292" d="M371.254 196.731A43.79 43.79 0 00395.2 180.4" class="prefix__cls-31" data-name="Path 4292" transform="translate(-370.446 -180.399)"/>
                    <path id="prefix__Path_4293" d="M370.851 196.362c1.757-.732 2.934-2.378 4-3.955q3.478-5.144 6.725-10.439" class="prefix__cls-31" data-name="Path 4293" transform="translate(-370.496 -180.206)"/>
                </g>
                <path id="prefix__Path_4294" d="M421.062 247.654a31.529 31.529 0 01-5.751 15.676c-.362.507-.756 1.149-.476 1.705a1.721 1.721 0 00.72.635 26.161 26.161 0 014.174 3.117 2.141 2.141 0 01.64.831 2.223 2.223 0 01-.026 1.163 198.538 198.538 0 01-11.706 37.77" data-name="Path 4294" transform="translate(-336.098 -134.886)" style="stroke:#cae7fc;stroke-miterlimit:10;fill:none"/>
            </g>
            <path id="prefix__Path_4295" d="M713.005 364.308v81.6h-384v-81.6a3.82 3.82 0 013.686-3.945H709.32a3.562 3.562 0 012.626 1.177 4.083 4.083 0 011.059 2.768z" data-name="Path 4295" transform="translate(310.808 210.422)" style="fill:#4b6cb0"/>
            <path id="prefix__Path_4296" d="M705.537 368.866v70.7H335v-70.7a3.489 3.489 0 013.557-3.417h363.424a3.617 3.617 0 012.534 1.02 3.344 3.344 0 011.022 2.397z" data-name="Path 4296" transform="translate(311.547 211.049)" style="opacity:.2;stroke:#4b40d1;mix-blend-mode:multiply;isolation:isolate;stroke-miterlimit:10;fill:none"/>
            <path id="prefix__Path_4297" d="M521.7 395.439h-14.46V380.98h-10.312v14.458H482.47v10.312h14.458v14.458h10.312V405.75h14.46z" data-name="Path 4297" transform="translate(329.729 212.964)" style="fill:#4b40d1;opacity:.2;mix-blend-mode:multiply;isolation:isolate"/>
            <path id="prefix__Path_4298" d="M697.3 363.655v81.6H459.745c41.73-4.1 216.084 5.085 236.492-84.369a4.084 4.084 0 011.063 2.769z" data-name="Path 4298" transform="translate(326.927 210.486)" style="opacity:.114;fill:#4b40d1;mix-blend-mode:multiply;isolation:isolate"/>
            <path id="prefix__Path_4299" d="M486.089 345.26h-4.1a1.082 1.082 0 01-1.079-1l-1.548-19.178a1.082 1.082 0 011.078-1.17h7.2a1.083 1.083 0 011.078 1.17l-1.548 19.178a1.083 1.083 0 01-1.081 1z" class="prefix__cls-8" data-name="Path 4299" transform="translate(329.345 205.928)"/>
            <rect id="prefix__Rectangle_2627" width="24.852" height="7.902" class="prefix__cls-8" data-name="Rectangle 2627" rx="3.231" transform="translate(800.958 526.62)"/>
            <rect id="prefix__Rectangle_2628" width="3.892" height="25.904" class="prefix__cls-11" data-name="Rectangle 2628" rx="1.653" transform="translate(811.437 542.181)"/>
            <path id="prefix__Path_4300" d="M496.9 360.487h-24.1c.424-2.661 5.651-4.757 12.046-4.757s11.63 2.096 12.054 4.757z" class="prefix__cls-11" data-name="Path 4300" transform="translate(328.537 209.85)"/>
            <g id="prefix__Group_2074" data-name="Group 2074" transform="translate(972.861 497.825)">
                <path id="prefix__Path_4301" d="M641.4 351.359a149.164 149.164 0 01-.6-24.165c.408-7.192 1.463-14.69 5.641-20.557 1.124-1.578 2.7-3.121 4.635-3.13a4.771 4.771 0 014.137 3.14 11.946 11.946 0 01.534 5.436c-1.093 14.742-8.212 28.268-15.185 41.3" class="prefix__cls-26" data-name="Path 4301" transform="translate(-623.64 -294.413)"/>
                <path id="prefix__Path_4302" d="M655.749 312.077c-1.1 14.743-8.219 28.272-15.19 41.308l.837-2.025c-.165-1.589-.307-3.191-.425-4.793 5.5-10.715 10.328-21.855 11.21-33.771a11.92 11.92 0 00-.53-5.44 5.269 5.269 0 00-3.05-2.979 4.31 4.31 0 012.472-.872 4.766 4.766 0 014.134 3.144 11.9 11.9 0 01.542 5.428z" class="prefix__cls-37" data-name="Path 4302" transform="translate(-623.64 -294.413)"/>
                <path id="prefix__Path_4303" d="M643.63 355.988l-.236-2.179q-.883-1.27-1.731-2.543-1.784-2.684-3.451-5.464c-2.531-4.18-4.85-8.49-6.959-12.893-3.1-6.5-5.769-13.588-4.933-20.736a10.9 10.9 0 01.4-1.92 4.856 4.856 0 012.167-3.05 4.76 4.76 0 015.135.765 12.062 12.062 0 013.085 4.51 68.04 68.04 0 015.264 19.359v.035a196.25 196.25 0 011.259 24.116z" class="prefix__cls-26" data-name="Path 4303" transform="translate(-625.415 -294.014)"/>
                <path id="prefix__Path_4304" d="M642.309 331.837v.035c.094 6.383-.507 12.905-.707 19.394-.058 1.637-.082 3.286-.071 4.922l-.236-2.178q-1.537-2.209-2.99-4.475c-.036-1.248-.094-2.5-.154-3.733-.518-10.339-1.931-20.594-6.193-29.944a11.916 11.916 0 00-3.086-4.51 5.578 5.578 0 00-2.214-1.1 4.856 4.856 0 012.167-3.05 4.76 4.76 0 015.135.765 12.061 12.061 0 013.085 4.51 68.04 68.04 0 015.264 19.364z" data-name="Path 4304" transform="translate(-625.354 -294.014)" style="opacity:.273;fill:#97b714;mix-blend-mode:multiply;isolation:isolate"/>
                <path id="prefix__Path_4305" d="M640.556 344.311a149.1 149.1 0 01-5.7-23.491c-1.124-7.115-1.68-14.666 1.161-21.285.765-1.78 1.975-3.62 3.866-4.04a4.773 4.773 0 014.709 2.194 11.947 11.947 0 011.671 5.2c2.053 14.639-2.042 29.365-6.1 43.579" data-name="Path 4305" transform="translate(-624.456 -295.411)" style="fill:#b8d03a"/>
                <path id="prefix__Path_4306" d="M639.887 346.469l.389-2.154c-.377-1.13-.73-2.261-1.072-3.391 3.061-11.516 5.346-23.279 3.709-34.984a11.905 11.905 0 00-1.673-5.193 4.794 4.794 0 00-4.71-2.2c-.118.024-.236.058-.353.093a5.534 5.534 0 013.423-3.14 4.765 4.765 0 014.71 2.189 11.8 11.8 0 011.673 5.205c2.064 14.632-2.034 29.363-6.096 43.575z" class="prefix__cls-37" data-name="Path 4306" transform="translate(-624.18 -295.411)"/>
                <path id="prefix__Path_4307" d="M660.821 337.474l-4.157 24.492a1.84 1.84 0 01-1.895 1.39h-23.21a1.819 1.819 0 01-1.884-1.39l-4.156-24.492a1.728 1.728 0 011.884-1.861h31.522a1.744 1.744 0 011.896 1.861z" data-name="Path 4307" transform="translate(-625.497 -290.454)" style="fill:#9e6826"/>
                <path id="prefix__Path_4308" d="M660.114 337.474l-4.157 24.492a1.84 1.84 0 01-1.895 1.39H631.23c1.39-.813 2.79-1.614 4.145-2.474 8.961-5.7 15.955-14.106 21.254-23.3.365-.647.73-1.308 1.072-1.967h.518a1.744 1.744 0 011.895 1.859z" data-name="Path 4308" transform="translate(-624.79 -290.454)" style="fill:#7f5119;opacity:.169;mix-blend-mode:multiply;isolation:isolate"/>
                <g id="prefix__Group_2073" data-name="Group 2073" transform="translate(2.596 3.901)">
                    <path id="prefix__Path_4309" d="M639.089 303.038v2.807" class="prefix__cls-42" data-name="Path 4309" transform="translate(-626.417 -298.372)"/>
                    <path id="prefix__Path_4310" d="M642.5 298.884l-.063 2.807" class="prefix__cls-42" data-name="Path 4310" transform="translate(-626.005 -298.884)"/>
                    <path id="prefix__Path_4311" d="M635.854 299.412l.347 2.786" class="prefix__cls-42" data-name="Path 4311" transform="translate(-626.816 -298.819)"/>
                    <path id="prefix__Path_4312" d="M642.719 306.26q-.13 1.314-.258 2.629" data-name="Path 4312" transform="translate(-626.001 -297.975)" style="stroke:#3b8c34;stroke-miterlimit:10;fill:none"/>
                    <path id="prefix__Path_4313" d="M635.441 307.152a11.44 11.44 0 00.637 2.722" class="prefix__cls-42" data-name="Path 4313" transform="translate(-626.867 -297.865)"/>
                    <path id="prefix__Path_4314" d="M640.089 312.066a21.922 21.922 0 01.045 2.81" class="prefix__cls-42" data-name="Path 4314" transform="translate(-626.294 -297.259)"/>
                    <path id="prefix__Path_4315" d="M644.248 314.649a12.649 12.649 0 01-.6 2.817" class="prefix__cls-42" data-name="Path 4315" transform="translate(-625.856 -296.94)"/>
                    <path id="prefix__Path_4316" d="M636.931 314.965a23.923 23.923 0 01.821 2.99" class="prefix__cls-42" data-name="Path 4316" transform="translate(-626.683 -296.901)"/>
                    <path id="prefix__Path_4317" d="M639.9 321.261v3.261" class="prefix__cls-42" data-name="Path 4317" transform="translate(-626.318 -296.125)"/>
                    <path id="prefix__Path_4318" d="M642.3 325.693a15.229 15.229 0 01-.766 3.542" class="prefix__cls-42" data-name="Path 4318" transform="translate(-626.115 -295.579)"/>
                    <path id="prefix__Path_4319" d="M637.5 323.518a19.057 19.057 0 00.911 3.167" class="prefix__cls-42" data-name="Path 4319" transform="translate(-626.613 -295.847)"/>
                    <path id="prefix__Path_4320" d="M639.9 329.971a17.023 17.023 0 01.3 2.443" class="prefix__cls-42" data-name="Path 4320" transform="translate(-626.317 -295.051)"/>
                    <path id="prefix__Path_4321" d="M631.485 311.6q.172 1.528.386 3.051" class="prefix__cls-42" data-name="Path 4321" transform="translate(-627.355 -297.316)"/>
                    <path id="prefix__Path_4322" d="M627.808 314.376q.426 1.282.941 2.534" class="prefix__cls-44" data-name="Path 4322" transform="translate(-627.808 -296.974)"/>
                    <path id="prefix__Path_4323" d="M631.076 318.706a13.819 13.819 0 00.743 3.383" class="prefix__cls-44" data-name="Path 4323" transform="translate(-627.405 -296.44)"/>
                    <path id="prefix__Path_4324" d="M634.066 322.939l.346 2.772" class="prefix__cls-44" data-name="Path 4324" transform="translate(-627.036 -295.918)"/>
                    <path id="prefix__Path_4325" d="M629.593 324.1q.809 1.535 1.537 3.11" class="prefix__cls-44" data-name="Path 4325" transform="translate(-627.588 -295.776)"/>
                    <path id="prefix__Path_4326" d="M633.189 328.741q.354 1.39.819 2.75" class="prefix__cls-44" data-name="Path 4326" transform="translate(-627.145 -295.203)"/>
                    <path id="prefix__Path_4327" d="M647.868 307.415q.1 1.725.194 3.452" class="prefix__cls-44" data-name="Path 4327" transform="translate(-625.335 -297.832)"/>
                    <path id="prefix__Path_4328" d="M651.838 311.4a16.622 16.622 0 01-.842 3.69" class="prefix__cls-44" data-name="Path 4328" transform="translate(-624.949 -297.341)"/>
                    <path id="prefix__Path_4329" d="M646.613 314.975l.265 3.054" class="prefix__cls-44" data-name="Path 4329" transform="translate(-625.49 -296.9)"/>
                    <path id="prefix__Path_4330" d="M649.038 318.251a14.331 14.331 0 01-.641 3.454" class="prefix__cls-44" data-name="Path 4330" transform="translate(-625.27 -296.496)"/>
                    <path id="prefix__Path_4331" d="M649.721 324.958a13.779 13.779 0 01-1.433 2.711" class="prefix__cls-44" data-name="Path 4331" transform="translate(-625.283 -295.669)"/>
                    <path id="prefix__Path_4332" d="M646.168 323.895q-.273 1.717-.4 3.453" class="prefix__cls-44" data-name="Path 4332" transform="translate(-625.594 -295.8)"/>
                    <path id="prefix__Path_4333" d="M646.166 329.89l-.91 2.433" class="prefix__cls-44" data-name="Path 4333" transform="translate(-625.657 -295.061)"/>
                </g>
            </g>
            <path id="prefix__Path_4334" d="M485.932 339.021a2.674 2.674 0 013.222 4.1.794.794 0 01-.554.346c-.374.007-.6-.429-.612-.8a2.1 2.1 0 012.722-1.812 3.044 3.044 0 011.88 3.031 5.708 5.708 0 01-1.567 3.414c-.383-.613.357-1.375 1.074-1.478a3.059 3.059 0 013.171 2.652 5.457 5.457 0 01-1.44 4.206 1.442 1.442 0 012.057-.49 2.439 2.439 0 01.96 2.1 5.113 5.113 0 01-1.924 3.665 15.135 15.135 0 01-3.683 2.125" data-name="Path 4334" transform="translate(330.156 207.761)" style="stroke:#585166;stroke-linecap:round;stroke-linejoin:round;fill:none"/>
        </g>
    </g>
</svg>
