<svg xmlns="http://www.w3.org/2000/svg" width="16.5" height="16.5" viewBox="0 0 16.5 16.5">
    <path id="music-and-multimedia" fill="#ff7300" stroke="#ff7300" stroke-width="0.5px" d="M9.669 12.687a.406.406 0 0 1-.406.406H6.737a.406.406 0 0 1 0-.812h.856l-.02-6.658h-.836a.406.406 0 0 1 0-.812h1.242a.406.406 0 0 1 .406.405l.021 7.065h.857a.406.406 0 0 1 .406.406zM7.986 3.719h.029a.406.406 0 0 0 0-.813h-.029a.406.406 0 0 0 0 .813zM16 2.766v10.468A2.769 2.769 0 0 1 13.234 16H2.766A2.769 2.769 0 0 1 0 13.234V2.766A2.769 2.769 0 0 1 2.766 0h10.468A2.769 2.769 0 0 1 16 2.766zm-.812 0A1.955 1.955 0 0 0 13.234.813H2.766A1.955 1.955 0 0 0 .813 2.766v10.468a1.955 1.955 0 0 0 1.953 1.953h10.468a1.955 1.955 0 0 0 1.953-1.953z" transform="translate(.25 .25)"/>
</svg>
