<svg xmlns="http://www.w3.org/2000/svg" width="15" height="16" viewBox="0 0 15 16">
    <defs>
        <clipPath id="clip-path">
            <path id="Rectangle_2885" fill="#002f4f" stroke="#dbdbdb" d="M0 0H15V16H0z"/>
        </clipPath>
        <style>
            .cls-3{fill:none;stroke:#002f4f;stroke-linecap:round;stroke-linejoin:round}
        </style>
    </defs>
    <g id="invoice" clip-path="url(#clip-path)">
        <g id="file-text" transform="translate(1.695 .695)">
            <path id="Path_5286" d="M11.106 2H5.421A1.421 1.421 0 0 0 4 3.421v11.37a1.421 1.421 0 0 0 1.421 1.421h8.528a1.421 1.421 0 0 0 1.421-1.421V6.264z" class="cls-3" transform="translate(-4 -2)"/>
            <path id="Path_5287" d="M14 2v4.264h4.264" class="cls-3" transform="translate(-6.894 -2)"/>
            <path id="Line_238" d="M7 0L0 0" class="cls-3" transform="translate(2 8)"/>
            <path id="Line_239" d="M7 0L0 0" class="cls-3" transform="translate(2 10)"/>
            <path id="Path_5288" d="M10.27 9H8" class="cls-3" transform="translate(-6 -4.026)"/>
        </g>
    </g>
</svg>
