<svg xmlns="http://www.w3.org/2000/svg" xmlns:xlink="http://www.w3.org/1999/xlink" width="512" height="121.771" viewBox="0 0 512 121.771">
    <defs>
        <linearGradient id="linear-gradient" x1=".185" x2=".606" y1=".117" y2=".782" gradientUnits="objectBoundingBox">
            <stop offset="0" stop-color="#c7bff3"/>
            <stop offset="1" stop-color="#674cf3"/>
        </linearGradient>
        <linearGradient id="linear-gradient-2" x1=".194" x2=".875" y1=".204" y2=".814" gradientUnits="objectBoundingBox">
            <stop offset="0" stop-color="#cec5ff"/>
            <stop offset="1" stop-color="#674cf3"/>
        </linearGradient>
        <linearGradient id="linear-gradient-3" x1=".862" x2=".5" y1=".04" y2=".968" gradientUnits="objectBoundingBox">
            <stop offset="0" stop-color="#00705f"/>
            <stop offset="1" stop-color="#2aeccf"/>
        </linearGradient>
        <linearGradient id="linear-gradient-4" x1=".123" x2=".93" y1=".064" y2=".978" gradientUnits="objectBoundingBox">
            <stop offset="0" stop-color="#007160"/>
            <stop offset="1" stop-color="#43f6db"/>
        </linearGradient>
        <linearGradient id="linear-gradient-5" x1=".5" x2=".406" y2=".985" gradientUnits="objectBoundingBox">
            <stop offset="0" stop-color="#8039db"/>
            <stop offset="1" stop-color="#401d6e"/>
        </linearGradient>
        <linearGradient id="linear-gradient-6" x1="1.895" x2="-.927" y1=".5" y2=".5" xlink:href="#linear-gradient-5"/>
        <clipPath id="clip-path">
            <path id="Path_7248" d="M0 1.367l.655-.156.388-.085c.241-.057.486-.11.719-.159L2.086.9h.205l.4-.078h.039l.626-.113h.029L3.59.674h.122c.3-.053.6-.1.9-.145h.094l.251-.035h.022l.568-.081.482-.063h.187l.219-.028.939-.1L7.529.2h.126l.719-.064.41-.036h.029l.273-.013h.144c.284-.021.572-.039.856-.052h.421L11.378 0h1.914a55.149 55.149 0 0 1 41.931 19.6 53.581 53.581 0 0 1 11.721 44.288l-.025.121-.047.245-.032.156-.021.117v.128c-.022.092-.039.185-.057.273-.029.138-.057.273-.09.412v.05l-.025.121v.245l-.061.266v.043l-.025.114-.032.131v.154l-.072.291-.039.16-.054.22v.071l-.036.135-.022.085v.089c-.025.1-.054.206-.082.309v.025l-.025.1-.039.146v.105c-.032.106-.061.213-.093.319-.036.131-.075.259-.111.387v.039l-.061.2v.146c-.029.1-.061.206-.093.309v.032l-.036.117-.043.135v.074c-.029.1-.061.192-.093.287v.021l-.047.142-.061.188V70.7l-.018.057v.117l-.029.089v.075l-.093.263v.075l-.09.259v.095l-.09.259v.021l-.05.146v.039l-.057.149v.043l-.09.238v.039l-.021.064v.025c-.036.1-.075.2-.111.291v.025l-.029.082v.039l-.039.1V73.39c-.036.1-.075.188-.111.28v.03l-.057.135-.079.192v.071l-.072.17-.025.057v.064l-.122.287v.05l-.025.064v.039l-.05.11v.082l-.1.227v.039l-.065.146v.021l-.054.128v.036l-.086.192v.035l-.022.053v.053l-.111.245v.046l-.136.287c-.043.1-.09.192-.136.287v.021l-.072.149v.021l-.065.135v.028l-.086.174v.036l-.032.064v.032c-.047.092-.1.188-.144.284v.04l-.054.1-.068.131-.147.28-.072.135-.075.138v.05l-.09.17v.036l-.029.053-.165.3v.021l-.057.106-.057.1-.122.216-.075.135v.029l-.047.082v.018l-.162.284v.025l-.176.294-.054.089v.714l-.075.124c-.047.082-.1.163-.147.245l-.083.131-.086.145-.1.156v.018l-.072.114c-.054.082-.1.163-.158.241v.057c.219-.3-.079.156-.719 1.064l-.187.27-.043.064-.09.128-.147.209-.1.138-1.73.442c-.438.624-.956 1.352-1.523 2.129l-.223.312q.474-.692.877-1.267l.065-.092-.133.181-.1.128-.075.1c-.057.078-.115.153-.176.227v.018c-.065.085-.133.167-.2.252l-.083.106-.033.054-.072.089-.137.167-.108.135-.061.071c-.068.082-.133.163-.2.241l-.025.028-.212.245-.068.078-.1.124-.183.213-.119.135-.043.05c-.079.089-.158.181-.241.27.2-.181.4-.355.589-.56A14.659 14.659 0 0 1 53.356 90l-.047.035-.022.018h-.022l-.025.018h-.1l-.04.025h-.15l-.032.018h-.108l-.047.028h-.374l-.036.021h-.022l-.05.025h-2.389c-8.868 3.691-18.788 5.773-27.332 9.957a42.189 42.189 0 0 0-7.02 6.331c-.525.355-.583.184-.619.113s-.086-.156-.123-.231-.076-.153-.108-.227-.065-.149-.094-.224-.058-.146-.083-.217-.047-.142-.065-.213-.04-.139-.058-.206l-.043-.2a1.891 1.891 0 0 0-.029-.2 1.749 1.749 0 0 1-.022-.192v-.554l.021-.174.032-.174.043-.167a.568.568 0 0 1 .05-.163c.018-.053.039-.106.061-.16s.043-.1.065-.156l.075-.153.086-.149.09-.145a1.646 1.646 0 0 1 .1-.142l.1-.138.108-.135.115-.135.122-.128.126-.128.133-.124.133-.121.137-.128c.047-.039.093-.078.144-.113l.144-.117c1.575-1.2 3.65-2.02 4.275-2.992l-3.561.636a1.173 1.173 0 0 1-.594 0 .726.726 0 0 1-.212-.11.8.8 0 0 1-.23-.249l-.036-.064a2.621 2.621 0 0 1-.137-.284 2.779 2.779 0 0 1-.162-.5c-.018-.089-.033-.178-.043-.263-.283-2.915 5.843-3.424 7.756-4.083a2.58 2.58 0 0 1 .65-1.285c1.326-1.358 7.553-2.041 9.905-2.888 2.582-.931 5.394-2.753 9.246-7.173-3.631 2.9-6.705 4.676-8.63 4.746-3.529.227-3.838-2.865-1.993-3.907 7.658-5.045 13.168-13.944 20.392-17.785a14.78 14.78 0 0 1 3.564-1.346A49 49 0 0 0 45.559 17.4 50.54 50.54 0 0 0 .191 1.417z" class="cls-1" data-name="Path 7248"/>
        </clipPath>
        <clipPath id="clip-path-2">
            <path id="Path_7249" d="M8.18 1A50.26 50.26 0 0 1 56.4 64.881 47.5 47.5 0 0 0 43.919 9.494 54.523 54.523 0 0 0 13.318 0a55.411 55.411 0 0 0-7.251.455A54.093 54.093 0 0 0 0 1.6l.18.051a50.471 50.471 0 0 1 8-.651z" class="cls-1" data-name="Path 7249"/>
        </clipPath>
        <clipPath id="clip-path-3">
            <path id="Path_7246" d="M67.934 102.135l-.655.155-.385.085-.72.159-.324.063h-.21l-.4.078h-.04l-.627.113h-.013l-.205.035h-.126l-.9.144h-.1l-.245.035h-.025l-.565.081h-.018l-.483.063h-.187l-.22.028-.94.1h-.281l-.72.067-.411.031h-.444c-.285.021-.573.038-.857.052h-.043l-.36.017h-.022l-.872.035h-1.9a55.275 55.275 0 0 1-42-19.559A53.38 53.38 0 0 1 .9 39.693l.025-.12.047-.245.032-.156.021-.117v-.128l.057-.269c.029-.138.057-.273.09-.411V38.2l.025-.12v-.245l.061-.266v-.049l.025-.11.029-.131V37.156c.025-.1.047-.195.072-.291l.039-.159.054-.22v-.092l.036-.135.022-.085v-.089c.029-.1.057-.205.083-.308v-.025l.029-.1.039-.149v-.089c.032-.11.061-.216.09-.322.036-.131.075-.259.111-.386v-.039l.061-.2v-.021l.018-.057v-.074l.1-.308v-.032l.034-.115.039-.135v-.095c.029-.1.061-.191.09-.287v-.028l.047-.142.061-.188v-.064l.018-.057V32.765l.029-.089V32.6c.029-.089.061-.174.09-.262v-.089c.029-.089.061-.174.09-.262V31.9l.093-.259.054-.145v-.039l.054-.149v-.043l.09-.237v-.039l.025-.067v-.085c.036-.1.072-.191.111-.287v-.025l.032-.081V30.4l.04-.1v-.1c.036-.1.075-.188.111-.283v-.021l.054-.138.079-.191v-.071c.022-.057.047-.113.072-.17l.025-.057V29.2l.122-.287v-.05l.025-.064v-.039l.047-.11v-.08l.1-.227v-.018l.065-.145v-.021l.054-.128v-.057l.09-.191v-.138l.025-.053v-.053l.111-.244v-.046c.043-.1.09-.191.137-.287l.14-.29v-.022l.072-.145v-.028l.065-.135v-.113l.086-.174v-.043l.029-.06v-.032l.144-.283V25.6l.054-.1.068-.135.144-.28.072-.135.072-.138v-.057l.093-.17v-.028l.025-.053.165-.3.058-.106.061-.1.122-.216.079-.135V23.6l.047-.081v-.035l.165-.283v-.025l.176-.294v-.021l.05-.089.076-.124.151-.244.083-.131.09-.145.1-.156.076-.113.155-.241V21.6l.018-.028v-.025c-.219.294.079-.156.719-1.063l.183-.269.043-.064.09-.128.147-.213.1-.138-.028.028c.439-.623.957-1.349 1.525-2.125l.223-.312-.878 1.264-.068.092.137-.181.1-.128.076-.1c.058-.078.115-.152.176-.227v-.018l.2-.251.083-.1.036-.042.072-.089.137-.17.112-.131.061-.071.2-.241.022-.028c.068-.081.14-.163.209-.248l.068-.078.1-.12.187-.212.119-.135.043-.05c.083-.089.162-.181.241-.269-.2.181-.4.354-.59.559a14.453 14.453 0 0 1 2.026-1.713l.047-.035.025-.018h.169l.036-.028h.158l.029-.021h.115l.047-.028h.367l.036-.021h.022l.047-.025h4.134c8.878-3.685 18.81-5.763 27.363-9.94A42.606 42.606 0 0 0 52.384.216c.522-.354.583-.184.619-.113l.123.23c.04.078.076.152.108.227s.065.149.094.223.058.145.079.216.051.142.069.213.04.138.058.206l.043.2a1.882 1.882 0 0 0 .029.2.843.843 0 0 0 .022.191.548.548 0 0 1 0 .188v.184a1.519 1.519 0 0 1 0 .181l-.021.174a.708.708 0 0 1-.036.174l-.039.167c-.014.057-.032.11-.05.163-.018.053-.04.106-.061.159s-.043.1-.068.156a1.49 1.49 0 0 1-.075.152c-.025.05-.054.1-.083.149L53.1 4l-.1.142-.1.138-.108.135-.119.131-.119.131-.126.127-.128.126-.133.12-.14.117-.144.113-.144.113c-1.576 1.2-3.654 2.02-4.28 2.991l3.565-.635a1.152 1.152 0 0 1 .6 0 .726.726 0 0 1 .213.11.8.8 0 0 1 .231.248l.036.064a2.023 2.023 0 0 1 .134.28 3.083 3.083 0 0 1 .163.5 2.381 2.381 0 0 1 .04.259c.28 2.91-5.853 3.418-7.769 4.076a2.6 2.6 0 0 1-.647 1.282c-1.328 1.353-7.58 2.038-9.916 2.879-2.585.933-5.4 2.752-9.257 7.165 3.635-2.9 6.713-4.668 8.639-4.738 3.533-.231 3.846 2.86 2 3.9C27.819 28.813 22.3 37.7 15.071 41.531a14.936 14.936 0 0 1-3.571 1.344A48.787 48.787 0 0 0 21.258 84a50.525 50.525 0 0 0 38.49 18.7 51.4 51.4 0 0 0 8.012-.62z" class="cls-1" data-name="Path 7246"/>
        </clipPath>
        <clipPath id="clip-path-4">
            <path id="Path_7247" d="M52.39 63.883A50.26 50.26 0 0 1 4.117 0a47.463 47.463 0 0 0 12.5 55.39 54.588 54.588 0 0 0 30.635 9.5 56.169 56.169 0 0 0 7.26-.454 54.815 54.815 0 0 0 6.07-1.122l-.182-.054a50.593 50.593 0 0 1-8.013.623z" class="cls-1" data-name="Path 7247"/>
        </clipPath>
        <style>
            .cls-1{fill:none}.cls-2{fill:#002f4f}
        </style>
    </defs>
    <g id="main_logo" data-name="main logo" transform="translate(-141.719 -110.95)">
        <path id="Path_4020" d="M395.956 395.926a3.4 3.4 0 0 1-2.459-1.015 3.25 3.25 0 0 1-1.036-2.4v-68.388a3.255 3.255 0 0 1 1.036-2.4 3.487 3.487 0 0 1 4.918 0 3.256 3.256 0 0 1 1.038 2.4v64.963h45.46a3.4 3.4 0 0 1 2.459 1.015 3.3 3.3 0 0 1 0 4.809 3.4 3.4 0 0 1-2.459 1.015z" class="cls-2" data-name="Path 4020" transform="translate(-250.741 -187.326)"/>
        <path id="Path_4021" d="M430.175 333.365a3.245 3.245 0 0 1-1.038-2.4v-6.837a3.25 3.25 0 0 1 1.038-2.4 3.487 3.487 0 0 1 4.919 0 3.257 3.257 0 0 1 1.038 2.4v6.837a3.251 3.251 0 0 1-1.038 2.4 3.487 3.487 0 0 1-4.919 0zm0 61.545a3.245 3.245 0 0 1-1.038-2.4v-47.873a3.256 3.256 0 0 1 1.038-2.4 3.491 3.491 0 0 1 4.919 0 3.262 3.262 0 0 1 1.038 2.4v47.869a3.252 3.252 0 0 1-1.038 2.4 3.487 3.487 0 0 1-4.919 0z" class="cls-2" data-name="Path 4021" transform="translate(-223.854 -187.326)"/>
        <path id="Path_4022" d="M460.091 388.173a3.085 3.085 0 0 1-1.2-1.475L437.91 337.74a3.259 3.259 0 0 1-.109-2.731 3.318 3.318 0 0 1 1.858-1.858 3.272 3.272 0 0 1 2.731-.111 3.336 3.336 0 0 1 1.858 1.86l17.813 41.526 17.81-41.526a3.326 3.326 0 0 1 1.858-1.86 3.273 3.273 0 0 1 2.731.111 3.334 3.334 0 0 1 1.858 1.858 3.272 3.272 0 0 1-.109 2.731l-20.983 48.96a3.092 3.092 0 0 1-1.2 1.475 3.517 3.517 0 0 1-3.934 0z" class="cls-2" data-name="Path 4022" transform="translate(-217.848 -178.75)"/>
        <path id="Path_4023" d="M481.022 387.122a18.062 18.062 0 0 1-8.633-5.246 17.726 17.726 0 0 1-4.262-8.9 67.4 67.4 0 0 1-.983-12.185 42.336 42.336 0 0 1 1.638-12.622 19.465 19.465 0 0 1 13.718-13.72 42.313 42.313 0 0 1 12.622-1.638 43.531 43.531 0 0 1 11.856 1.421 22.4 22.4 0 0 1 8.36 4.262 19.9 19.9 0 0 1 5.353 7.648 35.754 35.754 0 0 1 2.3 10.929 4.446 4.446 0 0 1-.218 1.419 3.081 3.081 0 0 1-.766 1.2 2.68 2.68 0 0 1-1.092.82 3.638 3.638 0 0 1-1.421.274h-45.356a53.391 53.391 0 0 0 .82 10.544 12.726 12.726 0 0 0 2.678 5.957 12.444 12.444 0 0 0 6.282 3.388 46.174 46.174 0 0 0 11.2 1.092q9.613 0 13.222-1.749a12.757 12.757 0 0 0 4.918-3.6 3.352 3.352 0 0 1 2.239-1.367 3.045 3.045 0 0 1 2.568.6 3.206 3.206 0 0 1 1.475 2.187 3.247 3.247 0 0 1-.6 2.622 17.161 17.161 0 0 1-8.688 6.338q-5.631 1.966-15.135 1.967a50.175 50.175 0 0 1-14.095-1.641zm4.1-46.171a13.727 13.727 0 0 0-6.284 3.551 11.837 11.837 0 0 0-2.678 3.827 22.6 22.6 0 0 0-1.584 5.463h40.98a22.311 22.311 0 0 0-1.693-5.847 11.7 11.7 0 0 0-3.116-4.1 14.275 14.275 0 0 0-6.173-3.061 39.066 39.066 0 0 0-9.452-.983 36.829 36.829 0 0 0-10.002 1.15z" class="cls-2" data-name="Path 4023" transform="translate(-196.261 -178.767)"/>
        <path id="Path_4024" d="M653.436 387.122a18.061 18.061 0 0 1-8.634-5.246 17.742 17.742 0 0 1-4.262-8.9 67.407 67.407 0 0 1-.983-12.185 42.272 42.272 0 0 1 1.64-12.622 19.458 19.458 0 0 1 13.714-13.715 42.321 42.321 0 0 1 12.622-1.638 43.553 43.553 0 0 1 11.858 1.421 22.374 22.374 0 0 1 8.359 4.262 19.906 19.906 0 0 1 5.355 7.648 35.745 35.745 0 0 1 2.295 10.929 4.453 4.453 0 0 1-.218 1.419 3.082 3.082 0 0 1-.766 1.2 2.68 2.68 0 0 1-1.092.82 3.632 3.632 0 0 1-1.421.274h-45.35a53.414 53.414 0 0 0 .818 10.544 12.745 12.745 0 0 0 2.678 5.957 12.441 12.441 0 0 0 6.284 3.388 46.149 46.149 0 0 0 11.2 1.092q9.616 0 13.223-1.749a12.738 12.738 0 0 0 4.917-3.6 3.355 3.355 0 0 1 2.241-1.367 3.048 3.048 0 0 1 2.568.6 3.212 3.212 0 0 1 1.475 2.187 3.248 3.248 0 0 1-.6 2.622 17.145 17.145 0 0 1-8.688 6.338q-5.631 1.966-15.135 1.967a50.176 50.176 0 0 1-14.098-1.646zm4.1-46.171a13.73 13.73 0 0 0-6.283 3.551 11.785 11.785 0 0 0-2.677 3.827 22.49 22.49 0 0 0-1.584 5.463h40.979a22.232 22.232 0 0 0-1.693-5.847 11.693 11.693 0 0 0-3.114-4.1 14.291 14.291 0 0 0-6.175-3.061 39.059 39.059 0 0 0-9.452-.983 36.837 36.837 0 0 0-10.003 1.15z" class="cls-2" data-name="Path 4024" transform="translate(-78.627 -178.767)"/>
        <path id="Path_4025" d="M599.41 332.81s2.381.017 2.376 0a3.567 3.567 0 0 1 2.475.912 2.942 2.942 0 0 1 1.13 2.7 2.993 2.993 0 0 1-1.13 2.508 6.637 6.637 0 0 1-3.286.885l-1.565-.109s3.285.109 0 .109a26.321 26.321 0 0 0-8.211 1.1 11.518 11.518 0 0 0-5.254 3.394 15.221 15.221 0 0 0-3.066 6.459 43.486 43.486 0 0 0-.985 10.072v24.523a3.5 3.5 0 0 1-7.008 0v-49.05a3.5 3.5 0 0 1 7.008 0v2.08a18.24 18.24 0 0 1 7.334-4.216 34.293 34.293 0 0 1 10.182-1.366z" class="cls-2" data-name="Path 4025" transform="translate(-107.259 -178.769)"/>
        <path id="Path_4026" d="M599.41 332.81s2.381.017 2.376 0a3.567 3.567 0 0 1 2.475.912 2.942 2.942 0 0 1 1.13 2.7 2.993 2.993 0 0 1-1.13 2.508 6.637 6.637 0 0 1-3.286.885l-1.565-.109s3.285.109 0 .109a26.321 26.321 0 0 0-8.211 1.1 11.518 11.518 0 0 0-5.254 3.394 15.221 15.221 0 0 0-3.066 6.459 43.486 43.486 0 0 0-.985 10.072v24.523a3.5 3.5 0 0 1-7.008 0v-49.05a3.5 3.5 0 0 1 7.008 0v2.08a18.24 18.24 0 0 1 7.334-4.216 34.293 34.293 0 0 1 10.182-1.366z" class="cls-2" data-name="Path 4026" transform="translate(48.328 -178.769)"/>
        <g id="Group_1895" data-name="Group 1895" transform="translate(500.275 132.517)">
            <path id="Path_82" d="M715.358 395.372a3.56 3.56 0 0 1-7.09 0c-.018-.851 0-2.724 0-2.724v-68.399a3.545 3.545 0 0 1 7.09 0v68.4s.026 2.079 0 2.723z" class="cls-2" data-name="Path 82" transform="translate(-662.4 -320.704)"/>
            <path id="Path_95" d="M690.7 386.141a19.109 19.109 0 0 1-13.466-13.466 48.518 48.518 0 0 1 0-24.788 19.108 19.108 0 0 1 13.466-13.468 41.551 41.551 0 0 1 12.394-1.608 43.246 43.246 0 0 1 11.266 1.289c3.147.859 10.184 3.791 12.024 10.981a3.9 3.9 0 0 1 .2 2.374c-.3.8-.167.6-.963 1.4a2.272 2.272 0 0 1-1.98.452 3.427 3.427 0 0 1-2.146-.961l-.065-.188c-2.461-6.112-6.914-6.955-9.379-7.564a38.094 38.094 0 0 0-8.96-.912 36.161 36.161 0 0 0-9.819 1.127 13.237 13.237 0 0 0-9.656 9.657 43.347 43.347 0 0 0 0 19.637 13.238 13.238 0 0 0 9.656 9.658 36.171 36.171 0 0 0 9.819 1.127 38.008 38.008 0 0 0 8.96-.91c2.468-.609 9.663-4.225 9.443-6.559.473-1.683 1.382-1.858 2.313-1.75a12.848 12.848 0 0 1 1.4.234c.669.268.736.268 1.07.836s1.35 2.07.635 2.642c-.779 7.074-9.412 10.229-12.559 11.087a43.186 43.186 0 0 1-11.267 1.288 41.494 41.494 0 0 1-12.386-1.615z" class="cls-2" data-name="Path 95" transform="translate(-675.623 -310.067)"/>
        </g>
        <g id="Group_4428" data-name="Group 4428" transform="translate(340.017 110.123)">
            <g id="Group_4382" data-name="Group 4382" transform="matrix(-.998 .07 -.07 -.998 120.457 114.736)">
                <g id="Group_4378" data-name="Group 4378" transform="translate(44.864)">
                    <g id="Mask_Group_9" clip-path="url(#clip-path)" data-name="Mask Group 9">
                        <path id="Path_7632" fill="url(#linear-gradient)" d="M0 0l126.925.122.128 132.092-126.925-.122z" data-name="Path 7632" transform="translate(-19.341 -15.8)"/>
                    </g>
                    <g id="Mask_Group_10" clip-path="url(#clip-path-2)" data-name="Mask Group 10" transform="translate(0 .149)">
                        <path id="Path_7633" fill="url(#linear-gradient-2)" d="M0 0l89.352.087.085 89.226-89.352-.087z" data-name="Path 7633" transform="translate(-19.352 -19.41)"/>
                    </g>
                </g>
                <g id="Group_4379" data-name="Group 4379" transform="translate(0 8.207)">
                    <g id="Mask_Group_11" clip-path="url(#clip-path-3)" data-name="Mask Group 11">
                        <path id="Path_7634" fill="url(#linear-gradient-3)" d="M0 0l118.895.114.124 126.991-118.895-.114z" data-name="Path 7634" transform="translate(-10.594 -14.361)"/>
                    </g>
                    <g id="Mask_Group_12" clip-path="url(#clip-path-4)" data-name="Mask Group 12" transform="matrix(.998 -.07 .07 .998 7.328 42.079)">
                        <path id="Path_7635" fill="url(#linear-gradient-4)" d="M0 0l91.157.087.086 91.191-91.157-.087z" data-name="Path 7635" transform="translate(-21.275 -9.385)"/>
                    </g>
                </g>
            </g>
            <g id="Group_4383" data-name="Group 4383" transform="translate(41.512 45.31)">
                <path id="Rectangle_3684" fill="url(#linear-gradient-5)" d="M0 0H13.239V37.462H0z" data-name="Rectangle 3684" transform="rotate(90 13.006 24.456)"/>
                <path id="Rectangle_3683" fill="url(#linear-gradient-6)" d="M0 0H12.12V37.707H0z" data-name="Rectangle 3683" transform="translate(12.614)"/>
            </g>
        </g>
    </g>
</svg>
