<svg xmlns="http://www.w3.org/2000/svg" xmlns:xlink="http://www.w3.org/1999/xlink" width="700" height="700" viewBox="0 0 700 700"><defs><style>.a,.c{fill:#fff;}.a{stroke:#707070;}.b{clip-path:url(#a);}.d{clip-path:url(#d);}.e{fill:#00d3b4;}.f{fill:#b8bfff;}.g{fill:#4184f9;}.h{fill:#e7e9f9;}.i{fill:#b7aafb;}.j{fill:#9aa8fe;}.k{fill:#3d4c82;}.l,.q{fill:none;stroke:#3d4c82;stroke-miterlimit:10;}.l{stroke-width:7.654px;}.m{fill:#8039db;}.n{fill:#81b7fb;}.o{fill:#70a8e9;}.p{fill:#674cf3;}.q{stroke-width:6.133px;}.r{fill:#21385d;}.s{fill:#043049;}.t{fill:#05355f;}.u{fill:#1c1c1c;}.v{fill:#394adb;}.w{fill:#f6b59b;}.x{fill:#e6c0ac;}.y{fill:#513eb5;}.z{fill:#eda68d;}.aa{fill:#9ac9fb;}.ab{fill:#7ab6ee;}.ac{fill:#e9f1f4;}.ad{filter:url(#b);}</style><clipPath id="a"><rect class="a" width="700" height="700" transform="translate(197 190)"/></clipPath><filter id="b" x="24.98" y="128.182" width="615.198" height="499.862" filterUnits="userSpaceOnUse"><feOffset dy="3" input="SourceAlpha"/><feGaussianBlur stdDeviation="3" result="c"/><feFlood flood-opacity="0.161"/><feComposite operator="in" in2="c"/><feComposite in="SourceGraphic"/></filter><clipPath id="d"><path d="M451.387,318.047C345.607,254.14,295.658,57.743,132.419,175.071-30.891,292.4,36.842,533.5,193.279,591.812s357.793,25.364,414.4-82.966C704.534,323.785,522.308,360.911,451.387,318.047Z"/></clipPath></defs><g class="b" transform="translate(-197 -190)"><g transform="translate(192.749 185.748)"><g class="ad" transform="matrix(1, 0, 0, 1, 4.25, 4.25)"><path class="c" d="M451.387,318.047C345.607,254.14,295.658,57.743,132.419,175.071-30.891,292.4,36.842,533.5,193.279,591.812s357.793,25.364,414.4-82.966C704.534,323.785,522.308,360.911,451.387,318.047Z" transform="translate(-4.25 -4.25)"/></g><g class="d"><path class="e" d="M22.318,545.192s90.192-90.4,240.82-47.54c150.628,42.935,239.332,6.093,220.628-221.265,0,0,211.7,29.545,184.565,179.96C635.455,638.927,210.213,708.644,22.318,545.192Z"/></g><path class="f" d="M219.848,173.583v88.208A13.758,13.758,0,0,1,206.1,275.536H18A13.758,13.758,0,0,1,4.251,261.791V173.583A13.758,13.758,0,0,1,18,159.838H206.032A13.773,13.773,0,0,1,219.848,173.583Z"/><path class="g" d="M219.848,173.583v7.652H4.251v-7.652A13.758,13.758,0,0,1,18,159.838H206.032A13.773,13.773,0,0,1,219.848,173.583Z"/><circle class="c" cx="2.905" cy="2.905" r="2.905" transform="translate(13.532 168.623)"/><path class="c" d="M30.82,171.528a2.9,2.9,0,1,1-2.9-2.9A2.918,2.918,0,0,1,30.82,171.528Z"/><path class="c" d="M42.439,171.528a2.9,2.9,0,1,1-2.9-2.9A2.965,2.965,0,0,1,42.439,171.528Z"/><path class="c" d="M76.872,234.16H33.583a2.54,2.54,0,0,1-2.551-2.551V196.538a2.54,2.54,0,0,1,2.551-2.551H76.872a2.54,2.54,0,0,1,2.551,2.551v35.071A2.54,2.54,0,0,1,76.872,234.16Z"/><path class="c" d="M190.02,252.935H31.032a3.024,3.024,0,0,1-3.047-3.047h0a3.024,3.024,0,0,1,3.047-3.047H190.091a3.024,3.024,0,0,1,3.047,3.047h0A3.131,3.131,0,0,1,190.02,252.935Z"/><path class="c" d="M190.02,229.98H93.593a3.024,3.024,0,0,1-3.047-3.047h0a3.024,3.024,0,0,1,3.047-3.047h96.5a3.024,3.024,0,0,1,3.047,3.047h0A3.131,3.131,0,0,1,190.02,229.98Z"/><path class="c" d="M153.32,208.37H93.593a3.024,3.024,0,0,1-3.047-3.047h0a3.024,3.024,0,0,1,3.047-3.047H153.32a3.024,3.024,0,0,1,3.047,3.047h0A3.024,3.024,0,0,1,153.32,208.37Z"/><path class="h" d="M450.253,162.247a153.767,153.767,0,0,1,11.123-11.619c7.652-6.589,16.366-18.138,44.352-9.636,2.2.638,4.251,1.559,6.376,2.409,2.48,1.063,10.132,1.063,17.925-5.172,12.4-9.848,17.287-17.287,34.292-17.571,19.838-.283,22.956,24.443,38.33,30.749,9.777,4.038,35.638,8.006,41.022,9.777Z"/><path class="i" d="M297.429,236l-1.417-4.109L294.6,236a14.088,14.088,0,0,1-7.935,8.077h0a14.088,14.088,0,0,1,7.935,8.077l1.417,4.109,1.417-4.109a14.088,14.088,0,0,1,7.935-8.077h0A14.3,14.3,0,0,1,297.429,236Z"/><path class="i" d="M168.34,470.02l-1.417-4.109-1.417,4.109a14.087,14.087,0,0,1-7.935,8.077h0a14.088,14.088,0,0,1,7.935,8.077l1.417,4.109,1.417-4.109a14.088,14.088,0,0,1,7.935-8.077h0A14.5,14.5,0,0,1,168.34,470.02Z"/><path class="i" d="M555.395,445.364l-.921-2.692-.921,2.692a9.4,9.4,0,0,1-5.243,5.314h0a9.4,9.4,0,0,1,5.243,5.314l.921,2.692.921-2.692a9.4,9.4,0,0,1,5.243-5.314h0A9.4,9.4,0,0,1,555.395,445.364Z"/><path class="i" d="M105.921,309.545,105,306.852l-.921,2.692a9.4,9.4,0,0,1-5.243,5.314h0a9.4,9.4,0,0,1,5.243,5.314l.921,2.692.921-2.692a9.4,9.4,0,0,1,5.243-5.314h0A9.4,9.4,0,0,1,105.921,309.545Z"/><path class="g" d="M411.781,88.208H322.3a8.86,8.86,0,0,0-8.856,8.856v48.391a8.86,8.86,0,0,0,8.856,8.856h4.818v22.105l22.105-22.105h62.561a8.859,8.859,0,0,0,8.856-8.856V97.065A8.86,8.86,0,0,0,411.781,88.208Z"/><path class="c" d="M334.838,135.607h21.113a2.994,2.994,0,0,1,2.976,2.976h0a2.994,2.994,0,0,1-2.976,2.976H334.838a2.994,2.994,0,0,1-2.976-2.976h0A2.993,2.993,0,0,1,334.838,135.607Z"/><path class="c" d="M334.838,120.8h38.9a2.994,2.994,0,0,1,2.976,2.976h0a2.994,2.994,0,0,1-2.976,2.976h-38.9a2.994,2.994,0,0,1-2.976-2.976h0A3.041,3.041,0,0,1,334.838,120.8Z"/><path class="c" d="M334.838,106.417h66.883a2.994,2.994,0,0,1,2.976,2.976h0a2.994,2.994,0,0,1-2.976,2.976H334.838a2.994,2.994,0,0,1-2.976-2.976h0A3.041,3.041,0,0,1,334.838,106.417Z"/><path class="j" d="M356.306,503.107H459.96a40.75,40.75,0,0,0,40.526-36.346l14.949-155.587H411.852l-2.126,90.192Z"/><path class="k" d="M356.306,501.478c13.32-.567,26.64-.921,39.96-1.275s26.64-.567,39.96-.709l19.98-.213h3.755l1.134-.071,2.267-.142c.779-.071,1.488-.213,2.267-.283l1.134-.142a5.9,5.9,0,0,0,1.063-.283l2.2-.5c.708-.213,1.417-.5,2.125-.708l1.063-.354,1.063-.425,2.055-.921c.638-.354,1.275-.708,1.984-1.063l.992-.567c.283-.213.638-.425.921-.638l1.842-1.275,1.7-1.417c.283-.213.567-.5.85-.708l.779-.779c.5-.5,1.063-1.063,1.63-1.559l1.488-1.7c.5-.567.921-1.2,1.346-1.771.425-.638.921-1.2,1.275-1.842a35.238,35.238,0,0,0,2.126-3.968,39.956,39.956,0,0,0,2.834-8.5l.354-2.2a5.508,5.508,0,0,0,.142-1.134l.142-1.275.5-4.96.992-9.919,1.984-19.838c1.275-13.249,2.692-26.5,4.109-39.747,2.834-26.5,5.739-52.925,8.927-79.352a2.351,2.351,0,0,1,4.676.5q-2.869,39.853-6.306,79.636-1.7,19.873-3.543,39.818L506.225,451.1l-.921,9.919-.5,4.96-.142,1.275a8.863,8.863,0,0,1-.213,1.346l-.425,2.692a45.935,45.935,0,0,1-3.4,10.415,39.458,39.458,0,0,1-2.621,4.818c-.5.779-1.063,1.488-1.559,2.267a25.179,25.179,0,0,1-1.63,2.2l-1.771,2.055-1.913,1.913-.992.921-1.063.85-2.126,1.7-2.267,1.559c-.354.283-.779.5-1.134.779l-1.2.638c-.779.425-1.63.921-2.409,1.275l-2.48,1.134c-.425.142-.85.354-1.275.5l-1.275.425c-.85.283-1.7.567-2.621.85l-2.692.638c-.425.071-.921.213-1.346.283l-1.346.213c-.921.142-1.842.283-2.692.354l-2.763.142-1.346.071h-3.755l-19.98-.213c-13.32-.213-26.64-.425-39.96-.708s-26.64-.708-39.96-1.275a1.775,1.775,0,0,1-1.63-1.771A1.568,1.568,0,0,1,356.306,501.478Z"/><line class="l" y2="109.889" transform="translate(415.607 506.083)"/><rect class="k" width="334.13" height="5.172" transform="translate(435.152 408.339) rotate(180)"/><path class="m" d="M540.658,274.97h154.1a9.494,9.494,0,0,0,9.494-9.494V221.761a9.494,9.494,0,0,0-9.494-9.494h-154.1a9.494,9.494,0,0,0-9.494,9.494v43.715A9.494,9.494,0,0,0,540.658,274.97Z"/><path class="c" d="M650.547,261.65h31.883a2.994,2.994,0,0,0,2.976-2.976V228.7a2.994,2.994,0,0,0-2.976-2.976H650.547a2.994,2.994,0,0,0-2.976,2.976v29.97A2.994,2.994,0,0,0,650.547,261.65Z"/><path class="c" d="M552.632,233.239h82.328a2.54,2.54,0,0,0,2.551-2.551h0a2.54,2.54,0,0,0-2.551-2.551H552.632a2.54,2.54,0,0,0-2.551,2.551h0A2.5,2.5,0,0,0,552.632,233.239Z"/><path class="c" d="M606.194,246.275h28.765a2.54,2.54,0,0,0,2.551-2.551h0a2.54,2.54,0,0,0-2.551-2.551H606.194a2.54,2.54,0,0,0-2.551,2.551h0A2.586,2.586,0,0,0,606.194,246.275Z"/><path class="c" d="M552.632,246.275h34.362a2.54,2.54,0,0,0,2.551-2.551h0a2.54,2.54,0,0,0-2.551-2.551H552.632a2.54,2.54,0,0,0-2.551,2.551h0A2.539,2.539,0,0,0,552.632,246.275Z"/><path class="c" d="M573.249,259.312h61.711a2.54,2.54,0,0,0,2.551-2.551h0a2.54,2.54,0,0,0-2.551-2.551H573.249a2.54,2.54,0,0,0-2.551,2.551h0A2.539,2.539,0,0,0,573.249,259.312Z"/><path class="n" d="M157,378.128s25.435.071,20.121-26.073C177.126,352.055,150.486,354.676,157,378.128Z"/><path class="n" d="M153.816,376.711s-25.719.071-20.4-26.356C133.411,350.354,160.4,352.976,153.816,376.711Z"/><path class="o" d="M155.02,376.781s-18.7-18.846,3.33-35.5C158.35,341.285,176.063,363.249,155.02,376.781Z"/><path class="p" d="M175.567,374.585H134.4l6.589,28.553h27.49Z"/><line class="q" y2="201.285" transform="translate(257.186 408.31)"/><path class="r" d="M462.085,453.3s10.273-10.486,3.684-46.478h-84.1a387.752,387.752,0,0,0,.708,46.478Z"/><path class="s" d="M410.435,419.717c-42.156,2.621-120.658,12.682-134.97,38.968-4.322,7.864-6.731,18.492-.142,24.8,25.577,24.443,32.945,34.575,77.794,78.289.283.283-.425.142,0,0l17.642-10.486c.708-.213.425.638,0,0-36.913-58.451-45.132-66.6-58.947-74.818,13.32-6.447,51.862-16.3,94.018-20.334a16.837,16.837,0,0,0,15.091-18.35C419.929,428.573,419.646,419.15,410.435,419.717Z"/><path class="t" d="M460.81,423.826c-1.275-8.573-14.1-10.061-22.743-9.565-95.152,6.022-108.613,19.484-113.077,24.727-3.613,4.322-3.755,9.636-4.393,15.02-3.259,29.332-7.723,80.7-14.6,122.854,7.014,1.2,20.334,3.188,29.828,4.818,0,0,14.524-69.079,18.775-110.951,17.358-3.684,64.686-8.006,102.662-15.445C470.3,452.733,462.581,436.083,460.81,423.826Z"/><path class="u" d="M325.982,616.964l4.534-34.221-22.46.425-3.188,13.178-27.348,6.589a10.646,10.646,0,0,0-8.006,9.636v4.322h56.468Z"/><rect class="v" width="14.312" height="39.748" transform="translate(299.181 583.264) rotate(-80.567)"/><path class="u" d="M390.951,574.1,373.168,552.49,355.1,563.684l9.777,10.557-20.547,17.925a10.559,10.559,0,0,0-4.605,10.7,5.727,5.727,0,0,0,.779,1.913l3.047,4.747s46.265-28.694,46.478-29.261C390.1,580.263,392.935,576.721,390.951,574.1Z"/><rect class="v" width="35" height="14.312" transform="translate(342.014 559.119) rotate(-34.187)"/><path class="p" d="M368.988,395.769a4.679,4.679,0,0,1-.992.071l-75.6,3.684-1.2-24.727,67.733-3.259c9.14-22.46,23.806-49.666,23.806-49.666-.071.354.779,0,.779,0l23.593-2.2c2.2,5.668-2.9,6.731-28.2,68.583A12.535,12.535,0,0,1,368.988,395.769Z"/><path class="p" d="M432.611,308.34l2.409.567a27,27,0,0,1,20.4,21.751l14.1,87.571c-61.994,15.8-91.255,1.417-91.255,1.417l2.551-87.358a23.835,23.835,0,0,1,14.737-23.31h0Z"/><path class="w" d="M423.826,316.417,403.492,313.3l-.779-43.785,20.334,3.117Z"/><path class="w" d="M398.745,308.907l31.458-.567s-1.488,18.279-20.334,16.721C392.652,323.644,398.745,308.907,398.745,308.907Z"/><path class="x" d="M356.164,397.186a2.907,2.907,0,0,0,.071-.779,6.064,6.064,0,0,0-6.093-5.951l-9.565-.071a12.328,12.328,0,0,0-10.769-6.164,12.092,12.092,0,0,0-12.47,11.832,5.361,5.361,0,0,0,.071,1.063h38.755Z"/><path class="p" d="M349.858,409.939,348.37,386.2l68.087-4.038,12.753-58.1a12.469,12.469,0,0,1,15.941-6.872h0a11.8,11.8,0,0,1,7.156,15.374l-15.587,65.253a12.25,12.25,0,0,1-10.769,7.652Z"/><path class="y" d="M370.759,408.664l52.287-3.047a16.857,16.857,0,0,0,13.6-10.2l14.383-56.326-11.974,63.694a10.236,10.236,0,0,1-9.636,7.085l-52.358,3.33Z"/><path class="w" d="M400.091,301.538l-2.763-.142a22.753,22.753,0,0,1-21.609-23.877l1.842-36.7,48.178,2.409-1.842,36.7A22.737,22.737,0,0,1,400.091,301.538Z"/><path d="M422.055,269.727a36.474,36.474,0,0,1-11.336-23.947s-40.172,10.132-41.447-6.66c-1.134-15.445,15.8-20.121,28.624-14.879,6.731,2.763,19.271,9.423,27.844,11.549a14.014,14.014,0,0,1,8.5,5.881c3.259,5.03,5.526,13.32-5.314,21.751Z"/><path class="u" d="M383.37,266.184a2.615,2.615,0,0,1-2.621,2.621,2.574,2.574,0,0,1-2.692-2.551,2.658,2.658,0,0,1,5.314-.071Z"/><path class="u" d="M401.3,265.759a2.615,2.615,0,0,1-2.621,2.621,2.574,2.574,0,0,1-2.692-2.551,2.615,2.615,0,0,1,2.621-2.621A2.712,2.712,0,0,1,401.3,265.759Z"/><path d="M405.051,259.312a2.768,2.768,0,0,0,2.48-2.763,2.648,2.648,0,0,0-2.763-2.621l-10.415.283a2.693,2.693,0,1,0,.142,5.385l10.415-.213C404.909,259.312,404.98,259.312,405.051,259.312Z"/><path d="M383.3,259.808a2.768,2.768,0,0,0,2.48-2.763,2.648,2.648,0,0,0-2.763-2.621l-6.731.142a2.691,2.691,0,0,0-2.621,2.763,2.648,2.648,0,0,0,2.763,2.621l6.731-.142Z"/><path class="z" d="M388.543,267.743l-6.093,5.881a1.215,1.215,0,0,0,.709,2.055l7.014.921-1.63-8.856Z"/><path d="M417.024,262.075s-.354,22.46-14.383,18.492c-25.648-7.227-26.711,1.2-26.711,1.2s1.488,21.255,21.538,21.255c0,0,15.729,2.126,22.46-9.423,0,0,8.006-10.273,4.109-32.237Z"/><path class="w" d="M437.5,270.719A8.334,8.334,0,1,1,429.565,262,8.324,8.324,0,0,1,437.5,270.719Z"/><path class="n" d="M276.245,312.662l30.749,82.54H207.166l-28.411-77.793a3.573,3.573,0,0,1,3.33-4.818h94.16Z"/><path class="aa" d="M276.245,312.662h4.747a6.12,6.12,0,0,1,5.739,4.038l28.978,78.573h-8.785Z"/><path class="o" d="M214.605,403.138h92.389V395.2H207.449v.779A7.181,7.181,0,0,0,214.605,403.138Z"/><path class="ab" d="M306.994,403.138h61.64a3.961,3.961,0,0,0,3.968-3.968h0a3.961,3.961,0,0,0-3.968-3.968h-61.64Z"/><path class="ac" d="M251.235,353.684c1.913,5.739-.425,11.619-5.1,13.178s-10.061-1.842-11.9-7.51c-1.913-5.739.425-11.619,5.1-13.178S249.393,347.945,251.235,353.684Z"/></g></g></svg>