<svg xmlns="http://www.w3.org/2000/svg" width="20.201" height="20.2" viewBox="0 0 20.201 20.2">
    <defs>
        <style>
            .cls-1{fill:#2e3e6a;stroke:#2e3e6a;stroke-width:.2px}
        </style>
    </defs>
    <g id="logout_1_" transform="translate(.1 .092)">
        <path id="Path_5000" d="M285.9 209.261h-7.937a.627.627 0 0 1 0-1.253h7.937a.627.627 0 0 1 0 1.253zm0 0" class="cls-1" transform="translate(-266.523 -199.876)"/>
        <path id="Path_5001" d="M400.63 135.491a.627.627 0 0 1-.443-1.07l2.69-2.69-2.69-2.69a.627.627 0 0 1 .887-.886l3.133 3.133a.627.627 0 0 1 0 .886l-3.133 3.133a.623.623 0 0 1-.444.184zm0 0" class="cls-1" transform="translate(-384.39 -122.971)"/>
        <path id="Path_5002" d="M6.684 20.008a1.726 1.726 0 0 1-.518-.078l-5.028-1.67A1.682 1.682 0 0 1 0 16.675v-15A1.671 1.671 0 0 1 1.671.008a1.727 1.727 0 0 1 .518.078l5.028 1.67a1.682 1.682 0 0 1 1.138 1.585v15a1.67 1.67 0 0 1-1.671 1.667zM1.671 1.258a.418.418 0 0 0-.418.417v15a.433.433 0 0 0 .29.4l5 1.663a.455.455 0 0 0 .136.018.418.418 0 0 0 .418-.417v-15a.433.433 0 0 0-.29-.4l-5-1.663a.455.455 0 0 0-.136-.018zm0 0" class="cls-1"/>
        <path id="Path_5003" d="M38.365 6.692a.627.627 0 0 1-.627-.627V2.306a1.046 1.046 0 0 0-1.044-1.044h-9.4a.627.627 0 1 1 0-1.253h9.4a2.3 2.3 0 0 1 2.3 2.3v3.76a.627.627 0 0 1-.629.623zm0 0" class="cls-1" transform="translate(-25.624)"/>
        <path id="Path_5004" d="M185.3 284.024h-3.342a.627.627 0 1 1 0-1.253h3.342a1.046 1.046 0 0 0 1.044-1.044v-3.76a.627.627 0 1 1 1.253 0v3.76a2.3 2.3 0 0 1-2.297 2.297zm0 0" class="cls-1" transform="translate(-174.257 -266.523)"/>
    </g>
</svg>
