<svg xmlns="http://www.w3.org/2000/svg" width="87.618" height="64.391" viewBox="0 0 87.618 64.391">
    <defs>
        <style>
            .cls-1{fill:#8039db}.cls-2{fill:#674cf3}
        </style>
    </defs>
    <g id="loop" transform="translate(0 -67.863)">
        <path id="Path_10682" d="M16.669 94.739A33.942 33.942 0 0 0 .647 90.4.663.663 0 0 1 0 89.733v-5.725a.66.66 0 0 1 .667-.661 40.956 40.956 0 0 1 22.055 6.832 40.423 40.423 0 0 0-6.053 4.56z" class="cls-1" data-name="Path 10682" transform="translate(0 -12.834)"/>
        <path id="Path_10683" d="M385.275 94.739A33.942 33.942 0 0 1 401.3 90.4a.664.664 0 0 0 .647-.666v-5.726a.66.66 0 0 0-.667-.661 40.957 40.957 0 0 0-22.055 6.832 40.423 40.423 0 0 1 6.05 4.56z" class="cls-1" data-name="Path 10683" transform="translate(-314.326 -12.834)"/>
        <g id="Group_4746" data-name="Group 4746" transform="translate(0 67.863)">
            <path id="Path_10684" d="M278.5 157.6a13.53 13.53 0 0 0 13.53 13.53l3.526 3.526-3.526 3.526a20.582 20.582 0 0 1-20.578-20.582 41.125 41.125 0 0 1 18.442-34.327 40.427 40.427 0 0 1 6.053 4.56A34.1 34.1 0 0 0 278.5 157.6z" class="cls-2" data-name="Path 10684" transform="translate(-224.999 -113.787)"/>
            <path id="Path_10685" d="M81.115 100.461c-4.155-18.764-20.256-32.6-37.306-32.6A43.809 43.809 0 0 0 0 111.672a20.582 20.582 0 0 0 41.165 0 41.081 41.081 0 0 0-15.346-32.058 36.763 36.763 0 0 1 54.747 32.058c0-3.872 1.341-7.632.549-11.211zm-61.35-16.592a34.065 34.065 0 0 1 14.348 27.8 13.53 13.53 0 0 1-27.061 0 36.672 36.672 0 0 1 12.713-27.8z" class="cls-2" data-name="Path 10685" transform="translate(0 -67.863)"/>
        </g>
        <path id="Path_10686" d="M279.226 132.255V125.2a13.53 13.53 0 0 0 13.53-13.53c0-24.195-16.457-43.809-36.757-43.809a43.809 43.809 0 0 1 43.809 43.809 20.582 20.582 0 0 1-20.582 20.585z" class="cls-1" data-name="Path 10686" transform="translate(-212.19 -.001)"/>
    </g>
</svg>
