<svg xmlns="http://www.w3.org/2000/svg" xmlns:xlink="http://www.w3.org/1999/xlink" width="1081.061" height="845.371" viewBox="0 0 1081.061 845.371"><defs><style>.a{fill:#fff;}.b{fill:url(#c);}.c{fill:url(#d);}.d{fill:url(#e);}.e{fill:#c1e0f6;}.f{fill:#9ebfd3;}.g{fill:url(#f);}.h{fill:url(#g);}.i{fill:url(#h);}.j{fill:#001333;}.k{fill:#001b48;}.l{fill:#00285d;}.m{fill:#9c57e5;}.n{fill:#00214a;}.o{fill:#ff9662;}.p{fill:#1e120d;}.q{fill:#0076f8;}.r,.t{fill:#674cf3;}.s{fill:none;}.t{font-size:20px;font-family:Quicksand-Medium, Quicksand;font-weight:500;}.u,.v{fill:#414141;font-size:16px;font-family:Quicksand-Regular, Quicksand;}.v{letter-spacing:0.008em;}.w{fill:#d8d1ff;}.x{filter:url(#a);}</style><filter id="a" x="247" y="37.298" width="597.475" height="473.333" filterUnits="userSpaceOnUse"><feOffset dx="3" dy="3" input="SourceAlpha"/><feGaussianBlur stdDeviation="3" result="b"/><feFlood flood-opacity="0.161"/><feComposite operator="in" in2="b"/><feComposite in="SourceGraphic"/></filter><linearGradient id="c" x1="0.001" y1="0.5" x2="1" y2="0.5" gradientUnits="objectBoundingBox"><stop offset="0" stop-color="#fff"/><stop offset="0.045" stop-color="#f5f8ff"/><stop offset="0.257" stop-color="#cbdaff"/><stop offset="0.464" stop-color="#aac2ff"/><stop offset="0.661" stop-color="#92b2ff"/><stop offset="0.844" stop-color="#84a7ff"/><stop offset="1" stop-color="#7fa4ff"/></linearGradient><linearGradient id="d" x1="0" y1="0.5" x2="1" y2="0.5" xlink:href="#c"/><linearGradient id="e" x1="0" y1="0.5" x2="1" y2="0.5" xlink:href="#c"/><linearGradient id="f" x1="0.477" y1="0.071" x2="0.502" y2="0.986" gradientUnits="objectBoundingBox"><stop offset="0" stop-color="#00c99e"/><stop offset="1" stop-color="#00a780"/></linearGradient><linearGradient id="g" x1="0.5" y1="0.091" x2="0.5" y2="1.096" xlink:href="#f"/><linearGradient id="h" x1="0.455" y1="0.197" x2="0.521" y2="0.96" xlink:href="#f"/></defs><g transform="translate(-556 -3464)"><g class="x" transform="matrix(1, 0, 0, 1, 556, 3464)"><path class="a" d="M824.087,116.4H439.505A97.421,97.421,0,0,0,342.1,213.805V413.821a97.421,97.421,0,0,0,97.405,97.405H737.174c1.9,7.436-1.322,19.332-22.141,37.508-41.143,35.608,14.706,20.654,25.611,15.2,10.41-5.2,55.353-24.785,68.737-52.627H824.17A97.421,97.421,0,0,0,921.575,413.9v-200.1A97.544,97.544,0,0,0,824.087,116.4Z" transform="translate(-89.1 -73.1)"/></g><path class="b" d="M156,101.016H311.4s20.737-4.131,0-19.745-6.2-22.885-24.95-35.277c-18.671-12.475-33.212-4.131-44.613,7.27s-30.073-10.41-46.761,1.074-7.27,15.615-21.811,21.811c-11.318,4.874-25.776,5.948-26.768,15.036C146.081,96.472,150.625,101.016,156,101.016Z" transform="translate(501.018 3424.216)"/><path class="c" d="M1142.908,332.31h154.081a11.111,11.111,0,0,0,2.891-.413c4.461-1.487,15.7-6.692-1.57-19.25C1281.7,300.5,1289.3,292.9,1272.038,284.97c-20.406-9.418-28.5,8.262-44.282,11.732-19.415,4.3-30.486-31.477-47.092-20.076s-5.865,24.537-20.406,30.816c-11.319,4.874-25.776,5.948-26.768,14.954C1132.911,327.766,1137.455,332.31,1142.908,332.31Z" transform="translate(329.452 3383.438)"/><path class="d" d="M46.942,655.636H228.368a11.589,11.589,0,0,0,3.387-.5c5.287-1.735,18.424-7.849-1.9-22.72-19.58-14.293-10.575-23.215-30.981-32.634-24.042-11.071-33.625,9.749-52.131,13.88-22.8,5.04-35.856-37.1-55.436-23.628s-6.94,28.916-24.042,36.269c-13.3,5.7-30.32,6.94-31.477,17.6C35.127,650.266,40.5,655.636,46.942,655.636Z" transform="translate(520.267 3329.029)"/><path class="e" d="M574.832,882.3H264.192s-91.209-8.1-92.7,22.885c-1.57,30.981,95.836,10.906,121.282,32.551,25.529,21.646-10.658,60.31,42.217,78.816s193.489,15.615,229.923,12.888c41.474-3.14,20.737-39.161,59.4-40.648,38.665-1.57,167.63-.661,181.592-1.57,62.624-3.883,10.079-36.352,45.6-37.839,28.007-1.239,140.118-7.766,182.914-9.088,15.2-.5,34.038-7.683,35.773-22.8,1.4-12.227-3.387-18.093-21.646-22.224C1005.514,885.438,574.832,882.3,574.832,882.3Z" transform="translate(496.67 3277.927)"/><g transform="translate(758.467 4065.895)"><ellipse class="f" cx="86.583" cy="10.492" rx="86.583" ry="10.492" transform="translate(0 117.217)"/><path class="g" d="M441.2,894.955H309.839s-17.763-22.224,0-39.986-8.51-50.975,0-67.25c8.51-16.193,47.174-34.038,71.051,0,23.959,34.038-4.627,51.8,6.94,66.424C399.478,868.848,445,847.616,441.2,894.955Z" transform="translate(-284.475 -768.32)"/></g><g transform="translate(1211.621 4129.284)"><ellipse class="f" cx="99.306" cy="11.979" rx="99.306" ry="11.979" transform="translate(0 54.075)"/><path class="h" d="M857.9,910.358c2.313,1.735,149.867,0,149.867,0s8.51-56.51-17.763-63.284-35.525,4.048-48.661,23.38-51.8-16.193-67.993,2.313S857.9,910.358,857.9,910.358Z" transform="translate(-834.27 -845.047)"/></g><g transform="translate(1418.741 3995.92)"><ellipse class="f" cx="47.092" cy="5.701" rx="47.092" ry="5.701" transform="translate(0 190.91)"/><path class="i" d="M1102.329,880.232s-10.079-15.532-6.2-34.121c3.883-18.506,15.449-20.076,12.392-32.469s-23.381-26.768-13.219-48.5c10.162-21.811,17.349-20.406,13.8-35.03-3.635-14.623-13.054-43.952.909-46.265s27.925,13.136,30.981,33.212-.744,20.9,3.883,29.329c4.627,8.51,16.193,36.351,7.766,63.367-8.51,27.016,17.019,38.83,8.509,70.39h-58.823Z" transform="translate(-1082.17 -683.622)"/></g><g transform="translate(970.545 3948.231)"><ellipse class="f" cx="99.306" cy="11.979" rx="99.306" ry="11.979" transform="translate(0 237.854)"/><g transform="translate(17.802)"><path class="j" d="M657.058,879.475l-12.558-6.94,12.393-7.436,12.31,7.436Z" transform="translate(-573.901 -667.48)"/><path class="k" d="M572.178,855.873s-15.2,13.88,0,33.047,88.152,28.172,109.55,25.942c0,0,3.057-4.544,1.818-17.432,0,0-12.558-3.387-20.406-7.849C655.208,884.954,588.784,839.763,572.178,855.873Z" transform="translate(-560.155 -665.276)"/><path class="l" d="M722.405,855.873s15.2,13.88,0,33.047-88.152,28.172-109.55,25.942c0,0-3.057-4.544-1.818-17.432,0,0,12.558-3.387,20.406-7.849C639.293,884.954,705.8,839.763,722.405,855.873Z" transform="translate(-568.033 -665.276)"/><path class="m" d="M628.953,727.883s-35.195,6.362-55.353,38.5c0,0,1.239,18.589,15.78,25.529,0,0,2.231-10.41,15.78-16.689,0,0-7.931,19.58-2.065,55.519,0,0,32.055,19.828,83.691,0,0,0,6.609-23.959,0-57.088a39.378,39.378,0,0,1,12.888,16.358s12.475-2.809,16.689-27.1c0,0-20.572-33.129-55.932-35.112H628.953Z" transform="translate(-561.577 -643.613)"/><path class="n" d="M639.926,632.674s-1.157-5.618,3.387-6.775c0,0-.744,5.618,1.487,6.775a42.768,42.768,0,0,1,27.842,5.7,38.555,38.555,0,0,1,19.084,34.864c-.33,7.6-2.809,16.028-10.492,22.637H620.263s-18.589-11.071-6.609-41.143C613.653,654.816,619.684,640.193,639.926,632.674Z" transform="translate(-567.84 -625.9)"/><path class="o" d="M617.2,687.493s-1.157,24.372,25.2,33.377c24.372,5.618,38.334-10.905,40.152-16.689,1.9-5.783,2.231-13.3,0-19,0,0-27.016,18.424-54.032-11.979C628.517,673.2,628.1,681.048,617.2,687.493Z" transform="translate(-569.154 -634.122)"/><path class="o" d="M616.712,696.386s-2.231-6.444-5.866-3.635c-3.635,2.892,1.322,14.706,9.749,14.706C620.595,707.457,617.207,701.921,616.712,696.386Z" transform="translate(-567.841 -637.397)"/><path class="o" d="M697.787,696.386s2.231-6.444,5.866-3.635c3.635,2.892,1.074,14.706-7.353,14.706A41.1,41.1,0,0,0,697.787,696.386Z" transform="translate(-582.906 -637.397)"/><path class="o" d="M647.7,730.8s-.909,12.227,11.484,12.227c0,0,11.071,1.157,9.336-12.723C668.434,730.3,660.833,733.6,647.7,730.8Z" transform="translate(-574.455 -644.048)"/><path class="p" d="M646.5,861.755V830.113a2.309,2.309,0,0,1,2.313-2.313H665.75a2.309,2.309,0,0,1,2.313,2.313v31.973a2.279,2.279,0,0,1-2.4,2.313l-16.936-.331A2.293,2.293,0,0,1,646.5,861.755Z" transform="translate(-574.249 -660.996)"/><path class="o" d="M571.483,777.9s-20.9,20.819-8.51,52.214a39.654,39.654,0,0,0,16.358,19.415,59.806,59.806,0,0,0,30.486,8.427s16.358,6.94,30.733-4.131-15.615-15.78-20.324-16.358a50.58,50.58,0,0,1,8.179-4.131c5.37-2.231,1.239-7.6-5.37-6.031s-13.632,8.179-15.945,12.641c0,0-31.973-6.94-20.241-39.408C586.85,800.62,574.953,795.25,571.483,777.9Z" transform="translate(-559.047 -652.322)"/><path class="o" d="M729.754,775.8s20.9,20.82,8.509,52.214a39.653,39.653,0,0,1-16.358,19.415,59.8,59.8,0,0,1-30.486,8.427s-16.358,6.94-30.734-4.131,15.615-15.78,20.324-16.358a50.576,50.576,0,0,0-8.179-4.131c-5.37-2.231-1.239-7.6,5.37-6.031s13.632,8.179,15.945,12.64c0,0,31.973-6.94,20.241-39.408C714.3,798.519,726.2,793.067,729.754,775.8Z" transform="translate(-576.043 -651.957)"/><path class="q" d="M603.529,910.2s-10.41,3.635-14.871,3.387c-4.544-.248-18.341-.578-19.167,5.949-.826,6.444,10.41,7.683,18.589,5.7a68.719,68.719,0,0,1,16.937-1.735C602.62,918.131,603.529,910.2,603.529,910.2Z" transform="translate(-560.855 -675.32)"/><path class="q" d="M707.987,910.2s10.41,3.635,14.871,3.387c4.544-.248,18.341-.578,19.167,5.949.826,6.444-10.41,7.683-18.589,5.7A68.718,68.718,0,0,0,706.5,923.5C708.979,918.131,707.987,910.2,707.987,910.2Z" transform="translate(-584.679 -675.32)"/></g></g><g transform="translate(862.891 3553.381)"><path class="r" d="M426.57,173.8h6.361l-4.792,17.019h5.618V209.49H419.3v-17.35Zm21.563,0h6.2L449.7,190.819h5.37V209.49H440.78v-17.35Z" transform="translate(-419.3 -173.8)"/></g><g transform="translate(1309.446 3731.188)"><path class="r" d="M952.085,522.073h-6.362l4.792-17.019H944.9V486.3h14.458v17.349Zm-21.646,0h-6.2l4.626-17.019H923.5V486.3h14.293v17.349Z" transform="translate(-923.5 -486.3)"/></g><rect class="s" width="334.351" height="135.905" transform="translate(935.763 3639.161)"/><text class="t" transform="translate(1054 3789.908)"><tspan x="0" y="0">Jhon Doe</tspan></text><text class="u" transform="translate(1078 3817.858)"><tspan x="0" y="0">Client</tspan></text><text class="v" transform="translate(933 3587.327)"><tspan x="15.507" y="16">Lorem ipsum dolor sit amet, consectetur </tspan><tspan x="22.515" y="41">adipiscing elit, sed do eiusmod tempor </tspan><tspan x="2.755" y="66">incididunt ut labore et dolore magna aliqua. </tspan><tspan x="20.155" y="91">Ut enim ad minim veniam, quis nostrud </tspan><tspan x="1.795" y="116">exercitation ullamco laboris nisi ut aliquip ex </tspan><tspan x="73.315" y="141">ea commodo consequat.</tspan></text><g transform="translate(1063 3856.567)"><circle class="r" cx="10.716" cy="10.716" r="10.716"/><path class="a" d="M6.7,0A6.7,6.7,0,1,1,0,6.7,6.7,6.7,0,0,1,6.7,0Z" transform="translate(4.019 4.019)"/><circle class="w" cx="6.698" cy="6.698" r="6.698" transform="translate(32.148 4.019)"/><circle class="w" cx="6.698" cy="6.698" r="6.698" transform="translate(58.938 4.019)"/></g></g></svg>