<svg xmlns="http://www.w3.org/2000/svg" xmlns:xlink="http://www.w3.org/1999/xlink" width="663.859" height="1236.528" viewBox="0 0 663.859 1236.528"><defs><style>.a,.b{fill:#fff;}.b,.i{fill-rule:evenodd;}.c{fill:#00d3b4;}.d{opacity:0.054;}.e{fill:url(#c);}.f{fill:#f0f0f0;}.g{fill:#035a81;opacity:0.15;}.h{fill:#002f4f;}.i{fill:#674cf3;}.j{fill:#9309fc;}.k{filter:url(#p);}.l{filter:url(#m);}.m{filter:url(#j);}.n{filter:url(#g);}.o{filter:url(#d);}.p{filter:url(#a);}</style><filter id="a" x="0" y="0" width="201.975" height="387.021" filterUnits="userSpaceOnUse"><feOffset dx="2" dy="2" input="SourceAlpha"/><feGaussianBlur stdDeviation="3" result="b"/><feFlood flood-opacity="0.161"/><feComposite operator="in" in2="b"/><feComposite in="SourceGraphic"/></filter><linearGradient id="c" x1="0.5" x2="0.5" y2="1" gradientUnits="objectBoundingBox"><stop offset="0" stop-opacity="0.161"/><stop offset="1" stop-color="#fff" stop-opacity="0"/></linearGradient><filter id="d" x="230.941" y="186.227" width="201.975" height="387.021" filterUnits="userSpaceOnUse"><feOffset dx="2" dy="2" input="SourceAlpha"/><feGaussianBlur stdDeviation="3" result="e"/><feFlood flood-opacity="0.161"/><feComposite operator="in" in2="e"/><feComposite in="SourceGraphic"/></filter><filter id="g" x="461.885" y="377.019" width="201.975" height="387.021" filterUnits="userSpaceOnUse"><feOffset dx="2" dy="2" input="SourceAlpha"/><feGaussianBlur stdDeviation="3" result="h"/><feFlood flood-opacity="0.161"/><feComposite operator="in" in2="h"/><feComposite in="SourceGraphic"/></filter><filter id="j" x="0" y="472.488" width="201.975" height="387.021" filterUnits="userSpaceOnUse"><feOffset dx="2" dy="2" input="SourceAlpha"/><feGaussianBlur stdDeviation="3" result="k"/><feFlood flood-opacity="0.161"/><feComposite operator="in" in2="k"/><feComposite in="SourceGraphic"/></filter><filter id="m" x="230.941" y="658.831" width="201.975" height="387.021" filterUnits="userSpaceOnUse"><feOffset dx="2" dy="2" input="SourceAlpha"/><feGaussianBlur stdDeviation="3" result="n"/><feFlood flood-opacity="0.161"/><feComposite operator="in" in2="n"/><feComposite in="SourceGraphic"/></filter><filter id="p" x="461.885" y="849.508" width="201.975" height="387.021" filterUnits="userSpaceOnUse"><feOffset dx="2" dy="2" input="SourceAlpha"/><feGaussianBlur stdDeviation="3" result="q"/><feFlood flood-opacity="0.161"/><feComposite operator="in" in2="q"/><feComposite in="SourceGraphic"/></filter></defs><g transform="translate(-187.992 -953.169)"><g transform="translate(192.277 960.168)"><rect class="a" width="166.628" height="347.887" transform="translate(11.119 10.567)"/><g transform="translate(2.715 0)"><g transform="translate(0 0)"><g class="p" transform="matrix(1, 0, 0, 1, -7, -7)"><path class="b" d="M175.392,184.009q0-75.923,0-151.846c0-.911.012-1.823-.022-2.732a19.086,19.086,0,0,0-18.918-18.446c-5.242-.051-10.485-.019-15.727-.007-2.166,0-3.122.888-3.328,3.024-.11,1.133-.153,2.273-.3,3.4a6.521,6.521,0,0,1-3.742,5.167,7.761,7.761,0,0,1-3.645.713q-36.413-.02-72.826-.01c-.285,0-.57.006-.855,0a6.744,6.744,0,0,1-6.6-5.789c-.178-1.179-.212-2.379-.327-3.568-.206-2.145-1.03-2.927-3.179-2.934-5.242-.015-10.487-.1-15.727.02a18.673,18.673,0,0,0-16.064,9.115,20.142,20.142,0,0,0-2.9,11.239q.02,152.443.011,304.886a10.693,10.693,0,0,0,.016,1.536,38.62,38.62,0,0,0,.895,5.368,18.978,18.978,0,0,0,18.3,13.54q26.412.039,52.824.008c24.275,0,48.551.053,72.826-.03,8.258-.028,14.149-4.061,17.7-11.473a19.958,19.958,0,0,0,1.6-8.822q-.025-76.179-.012-152.358Zm8.19-98.745c1.978.486,2.049.559,2.049,2.441q.006,18.192,0,36.385c0,1.959-.054,2.016-2.05,2.594v2.338q0,105.481.012,210.962a28.661,28.661,0,0,1-25.111,28.763,30.229,30.229,0,0,1-3.742.261q-62.061.02-124.122.007A28.575,28.575,0,0,1,2.481,346.787a32.675,32.675,0,0,1-.761-7.1c-.077-11.33-.035-22.662-.035-33.993,0-55.687,0-256.646,0-257.437,0-6.548-.069-13.1.018-19.644a28.05,28.05,0,0,1,8.871-20.6A27.551,27.551,0,0,1,30.174.038Q92.662-.037,155.15.027a28.593,28.593,0,0,1,28.092,24.341,33.378,33.378,0,0,1,.325,4.759q.033,26.989.014,53.979Z" transform="translate(5.34 7)"/></g></g></g><path class="c" d="M0,0H0A3.071,3.071,0,0,1,3.071,3.071V31.3A3.071,3.071,0,0,1,0,34.374H0a0,0,0,0,1,0,0V0A0,0,0,0,1,0,0Z" transform="translate(3.071 161.289) rotate(180)"/><path class="c" d="M0,0H0A3.071,3.071,0,0,1,3.071,3.071V31.3A3.071,3.071,0,0,1,0,34.374H0a0,0,0,0,1,0,0V0A0,0,0,0,1,0,0Z" transform="translate(3.071 118.17) rotate(180)"/><path class="c" d="M0,0H0A3.071,3.071,0,0,1,3.071,3.071V15.438A3.071,3.071,0,0,1,0,18.509H0a0,0,0,0,1,0,0V0A0,0,0,0,1,0,0Z" transform="translate(3.071 63.936) rotate(180)"/><path class="c" d="M0,0H0A3.071,3.071,0,0,1,3.071,3.071V45.509A3.071,3.071,0,0,1,0,48.58H0a0,0,0,0,1,0,0V0A0,0,0,0,1,0,0Z" transform="translate(184.884 81.357)"/><g transform="translate(70.166 8.288)"><rect class="d" width="23.81" height="3.478" rx="1.739" transform="translate(11.211 1.739)"/><g transform="translate(0 0)"><ellipse class="e" cx="3.478" cy="3.478" rx="3.478" ry="3.478" transform="translate(40.534)"/><ellipse class="f" cx="2.305" cy="2.305" rx="2.305" ry="2.305" transform="translate(0 1.173)"/><ellipse class="g" cx="1.49" cy="1.49" rx="1.49" ry="1.49" transform="translate(42.521 1.987)"/></g></g><g transform="translate(46.883 156.874)"><g transform="translate(0 0)"><path class="h" d="M393.042,333.523a.59.59,0,0,1-.582-.583V321.287a.583.583,0,0,1,1.165,0v11.071H401.2a.583.583,0,0,1,0,1.165Z" transform="translate(-392.46 -317.902)"/><path class="h" d="M429.31,322.862a.559.559,0,0,1-.173-.41v-1.165a.583.583,0,0,1,1.165,0v1.165a.58.58,0,0,1-.992.41Zm0,10.488a.559.559,0,0,1-.173-.41v-8.158a.583.583,0,0,1,1.165,0v8.158a.58.58,0,0,1-.992.41Z" transform="translate(-418.546 -317.902)"/><path class="h" d="M441.305,342.021a.514.514,0,0,1-.2-.246l-3.5-8.157a.543.543,0,0,1-.018-.455.553.553,0,0,1,.31-.31.545.545,0,0,1,.455-.018.556.556,0,0,1,.31.31l2.968,6.919,2.968-6.919a.554.554,0,0,1,.31-.31.546.546,0,0,1,.455.018.556.556,0,0,1,.31.31.545.545,0,0,1-.018.455l-3.5,8.157a.514.514,0,0,1-.2.246.586.586,0,0,1-.655,0Z" transform="translate(-424.529 -326.5)"/><path class="h" d="M469.457,341.86a3.009,3.009,0,0,1-1.438-.874,2.953,2.953,0,0,1-.71-1.484,11.232,11.232,0,0,1-.164-2.03,7.053,7.053,0,0,1,.273-2.1,3.243,3.243,0,0,1,2.285-2.285,7.052,7.052,0,0,1,2.1-.273,7.252,7.252,0,0,1,1.976.237,3.73,3.73,0,0,1,1.393.71,3.317,3.317,0,0,1,.892,1.274,5.957,5.957,0,0,1,.383,1.821.74.74,0,0,1-.036.237.514.514,0,0,1-.128.2.446.446,0,0,1-.182.137.6.6,0,0,1-.237.046H468.31a8.9,8.9,0,0,0,.137,1.757,2.12,2.12,0,0,0,.446.992,2.074,2.074,0,0,0,1.047.565,7.7,7.7,0,0,0,1.866.182,5.658,5.658,0,0,0,2.2-.291,2.126,2.126,0,0,0,.819-.6.558.558,0,0,1,.373-.228.507.507,0,0,1,.428.1.534.534,0,0,1,.246.365.541.541,0,0,1-.1.437,2.86,2.86,0,0,1-1.448,1.056,7.871,7.871,0,0,1-2.522.328A8.359,8.359,0,0,1,469.457,341.86Zm.683-7.693a2.287,2.287,0,0,0-1.047.592,1.971,1.971,0,0,0-.446.638,3.765,3.765,0,0,0-.264.91h6.828a3.713,3.713,0,0,0-.282-.974,1.948,1.948,0,0,0-.519-.683,2.379,2.379,0,0,0-1.029-.51,6.511,6.511,0,0,0-1.575-.164A6.138,6.138,0,0,0,470.14,334.167Z" transform="translate(-445.578 -326.513)"/><path class="h" d="M582.1,333.958a3.721,3.721,0,0,1,.711,1.429,7.992,7.992,0,0,1,.237,2.085v4.078a.583.583,0,0,1-1.165,0v-4.078a7.227,7.227,0,0,0-.164-1.675,2.536,2.536,0,0,0-.51-1.074,1.916,1.916,0,0,0-.874-.564,5.208,5.208,0,0,0-2.731,0,1.915,1.915,0,0,0-.874.564,2.531,2.531,0,0,0-.51,1.074,7.228,7.228,0,0,0-.164,1.675v4.078a.583.583,0,0,1-1.165,0v-8.157a.583.583,0,0,1,1.165,0v.346a3.033,3.033,0,0,1,1.22-.7,5.7,5.7,0,0,1,1.693-.227,5.4,5.4,0,0,1,1.848.282A3.068,3.068,0,0,1,582.1,333.958Z" transform="translate(-522.207 -326.513)"/><path class="h" d="M614.739,333.958a3.719,3.719,0,0,1,.71,1.429,7.984,7.984,0,0,1,.237,2.085v4.078a.583.583,0,0,1-1.165,0v-4.078a7.249,7.249,0,0,0-.164-1.675,2.536,2.536,0,0,0-.51-1.074,1.916,1.916,0,0,0-.874-.564,5.209,5.209,0,0,0-2.732,0,1.917,1.917,0,0,0-.874.564,2.537,2.537,0,0,0-.51,1.074,7.235,7.235,0,0,0-.164,1.675v4.078a.583.583,0,0,1-1.165,0v-8.157a.583.583,0,0,1,1.165,0v.346a3.036,3.036,0,0,1,1.22-.7,5.7,5.7,0,0,1,1.693-.227,5.4,5.4,0,0,1,1.848.282A3.07,3.07,0,0,1,614.739,333.958Z" transform="translate(-545.423 -326.513)"/><path class="h" d="M641.87,341.86a3.009,3.009,0,0,1-1.439-.874,2.955,2.955,0,0,1-.71-1.484,11.226,11.226,0,0,1-.164-2.03,7.041,7.041,0,0,1,.273-2.1,3.243,3.243,0,0,1,2.285-2.285,7.053,7.053,0,0,1,2.1-.273,7.255,7.255,0,0,1,1.976.237,3.725,3.725,0,0,1,1.393.71,3.315,3.315,0,0,1,.892,1.274,5.954,5.954,0,0,1,.382,1.821.744.744,0,0,1-.036.237.514.514,0,0,1-.128.2.446.446,0,0,1-.182.137.6.6,0,0,1-.237.046h-7.556a8.91,8.91,0,0,0,.136,1.757,2.124,2.124,0,0,0,.446.992,2.072,2.072,0,0,0,1.047.565,7.691,7.691,0,0,0,1.866.182,5.658,5.658,0,0,0,2.2-.291,2.121,2.121,0,0,0,.819-.6.559.559,0,0,1,.373-.228.508.508,0,0,1,.428.1.535.535,0,0,1,.246.365.541.541,0,0,1-.1.437,2.856,2.856,0,0,1-1.448,1.056,7.87,7.87,0,0,1-2.522.328A8.358,8.358,0,0,1,641.87,341.86Zm.683-7.693a2.288,2.288,0,0,0-1.047.592,1.962,1.962,0,0,0-.446.638,3.748,3.748,0,0,0-.264.91h6.828a3.708,3.708,0,0,0-.282-.974,1.948,1.948,0,0,0-.519-.683,2.382,2.382,0,0,0-1.029-.51,6.511,6.511,0,0,0-1.575-.164A6.139,6.139,0,0,0,642.553,334.167Z" transform="translate(-568.204 -326.513)"/><path class="h" d="M678.181,341.86a3.242,3.242,0,0,1-2.285-2.285,8.235,8.235,0,0,1,0-4.206,3.242,3.242,0,0,1,2.285-2.285,7.052,7.052,0,0,1,2.1-.273,7.338,7.338,0,0,1,1.912.218,3.866,3.866,0,0,1,1.366.655.6.6,0,0,1,.091.82.533.533,0,0,1-.382.228.566.566,0,0,1-.437-.137,2.73,2.73,0,0,0-1.029-.464,6.462,6.462,0,0,0-1.52-.155,6.138,6.138,0,0,0-1.666.191,2.246,2.246,0,0,0-1.638,1.639,7.357,7.357,0,0,0,0,3.332,2.246,2.246,0,0,0,1.638,1.639,6.136,6.136,0,0,0,1.666.191,6.45,6.45,0,0,0,1.52-.154,2.728,2.728,0,0,0,1.029-.465.565.565,0,0,1,.437-.136.533.533,0,0,1,.382.228.6.6,0,0,1-.091.819,3.865,3.865,0,0,1-1.366.656,7.33,7.33,0,0,1-1.912.219A7.039,7.039,0,0,1,678.181,341.86Z" transform="translate(-593.854 -326.513)"/><path class="h" d="M712.344,332.357a.583.583,0,0,1,0,1.165,10.35,10.35,0,0,1-1.93-.155,2.35,2.35,0,0,1-1.994-1.994,10.319,10.319,0,0,1-.155-1.93v-8.157a.583.583,0,0,1,1.165,0V324.2h2.913a.583.583,0,0,1,0,1.165H709.43v4.079a8.966,8.966,0,0,0,.109,1.6,1.323,1.323,0,0,0,1.2,1.2A8.967,8.967,0,0,0,712.344,332.357Z" transform="translate(-617.07 -317.902)"/><path class="c" d="M534.7,336.014a6.195,6.195,0,1,1,0-12.389v-1.593a7.788,7.788,0,1,0,0,15.575Z" transform="translate(-488.085 -318.846)"/><ellipse class="c" cx="4.425" cy="4.425" rx="4.425" ry="4.425" transform="translate(42.188 6.549)"/><path class="c" d="M530.195,330.739a9.38,9.38,0,1,1,0-17.533.8.8,0,0,0,1.084-.74h0a.8.8,0,0,0-.511-.744,10.973,10.973,0,1,0,0,20.5.8.8,0,0,0,.511-.745h0A.8.8,0,0,0,530.195,330.739Z" transform="translate(-480.238 -311)"/><path class="c" d="M536.363,335.787a6.195,6.195,0,1,1-.019-11.941.788.788,0,0,0,1.008-.751v-.026a.789.789,0,0,0-.584-.759,7.788,7.788,0,1,0,.025,15.01.776.776,0,0,0,.559-.751v-.028A.781.781,0,0,0,536.363,335.787Z" transform="translate(-488.085 -318.846)"/></g></g></g><g transform="translate(423.219 1146.395)"><rect class="a" width="166.628" height="347.887" transform="translate(11.119 10.567)"/><g transform="translate(2.715 0)"><g transform="translate(0 0)"><g class="o" transform="matrix(1, 0, 0, 1, -237.94, -193.23)"><path class="i" d="M175.392,184.009q0-75.923,0-151.846c0-.911.012-1.823-.022-2.732a19.086,19.086,0,0,0-18.918-18.446c-5.242-.051-10.485-.019-15.727-.007-2.166,0-3.122.888-3.328,3.024-.11,1.133-.153,2.273-.3,3.4a6.521,6.521,0,0,1-3.742,5.167,7.761,7.761,0,0,1-3.645.713q-36.413-.02-72.826-.01c-.285,0-.57.006-.855,0a6.744,6.744,0,0,1-6.6-5.789c-.178-1.179-.212-2.379-.327-3.568-.206-2.145-1.03-2.927-3.179-2.934-5.242-.015-10.487-.1-15.727.02a18.673,18.673,0,0,0-16.064,9.115,20.142,20.142,0,0,0-2.9,11.239q.02,152.443.011,304.886a10.693,10.693,0,0,0,.016,1.536,38.62,38.62,0,0,0,.895,5.368,18.978,18.978,0,0,0,18.3,13.54q26.412.039,52.824.008c24.275,0,48.551.053,72.826-.03,8.258-.028,14.149-4.061,17.7-11.473a19.958,19.958,0,0,0,1.6-8.822q-.025-76.179-.012-152.358Zm8.19-98.745c1.978.486,2.049.559,2.049,2.441q.006,18.192,0,36.385c0,1.959-.054,2.016-2.05,2.594v2.338q0,105.481.012,210.962a28.661,28.661,0,0,1-25.111,28.763,30.229,30.229,0,0,1-3.742.261q-62.061.02-124.122.007A28.575,28.575,0,0,1,2.481,346.787a32.675,32.675,0,0,1-.761-7.1c-.077-11.33-.035-22.662-.035-33.993,0-55.687,0-256.646,0-257.437,0-6.548-.069-13.1.018-19.644a28.05,28.05,0,0,1,8.871-20.6A27.551,27.551,0,0,1,30.174.038Q92.662-.037,155.15.027a28.593,28.593,0,0,1,28.092,24.341,33.378,33.378,0,0,1,.325,4.759q.033,26.989.014,53.979Z" transform="translate(236.28 193.23)"/></g></g></g><path class="j" d="M0,0H0A3.071,3.071,0,0,1,3.071,3.071V31.3A3.071,3.071,0,0,1,0,34.374H0a0,0,0,0,1,0,0V0A0,0,0,0,1,0,0Z" transform="translate(3.071 161.289) rotate(180)"/><path class="j" d="M0,0H0A3.071,3.071,0,0,1,3.071,3.071V31.3A3.071,3.071,0,0,1,0,34.374H0a0,0,0,0,1,0,0V0A0,0,0,0,1,0,0Z" transform="translate(3.071 118.17) rotate(180)"/><path class="j" d="M0,0H0A3.071,3.071,0,0,1,3.071,3.071V15.438A3.071,3.071,0,0,1,0,18.509H0a0,0,0,0,1,0,0V0A0,0,0,0,1,0,0Z" transform="translate(3.071 63.936) rotate(180)"/><path class="j" d="M0,0H0A3.071,3.071,0,0,1,3.071,3.071V45.509A3.071,3.071,0,0,1,0,48.58H0a0,0,0,0,1,0,0V0A0,0,0,0,1,0,0Z" transform="translate(184.884 81.357)"/><g transform="translate(70.166 8.288)"><rect class="d" width="23.81" height="3.478" rx="1.739" transform="translate(11.211 1.739)"/><g transform="translate(0 0)"><ellipse class="e" cx="3.478" cy="3.478" rx="3.478" ry="3.478" transform="translate(40.534)"/><ellipse class="f" cx="2.305" cy="2.305" rx="2.305" ry="2.305" transform="translate(0 1.173)"/><ellipse class="g" cx="1.49" cy="1.49" rx="1.49" ry="1.49" transform="translate(42.521 1.987)"/></g></g><g transform="translate(46.883 156.874)"><g transform="translate(0 0)"><path class="h" d="M393.042,333.523a.59.59,0,0,1-.582-.583V321.287a.583.583,0,0,1,1.165,0v11.071H401.2a.583.583,0,0,1,0,1.165Z" transform="translate(-392.46 -317.902)"/><path class="h" d="M429.31,322.862a.559.559,0,0,1-.173-.41v-1.165a.583.583,0,0,1,1.165,0v1.165a.58.58,0,0,1-.992.41Zm0,10.488a.559.559,0,0,1-.173-.41v-8.158a.583.583,0,0,1,1.165,0v8.158a.58.58,0,0,1-.992.41Z" transform="translate(-418.546 -317.902)"/><path class="h" d="M441.305,342.021a.514.514,0,0,1-.2-.246l-3.5-8.157a.543.543,0,0,1-.018-.455.553.553,0,0,1,.31-.31.545.545,0,0,1,.455-.018.556.556,0,0,1,.31.31l2.968,6.919,2.968-6.919a.554.554,0,0,1,.31-.31.546.546,0,0,1,.455.018.556.556,0,0,1,.31.31.545.545,0,0,1-.018.455l-3.5,8.157a.514.514,0,0,1-.2.246.586.586,0,0,1-.655,0Z" transform="translate(-424.529 -326.5)"/><path class="h" d="M469.457,341.86a3.009,3.009,0,0,1-1.438-.874,2.953,2.953,0,0,1-.71-1.484,11.232,11.232,0,0,1-.164-2.03,7.053,7.053,0,0,1,.273-2.1,3.243,3.243,0,0,1,2.285-2.285,7.052,7.052,0,0,1,2.1-.273,7.252,7.252,0,0,1,1.976.237,3.73,3.73,0,0,1,1.393.71,3.317,3.317,0,0,1,.892,1.274,5.957,5.957,0,0,1,.383,1.821.74.74,0,0,1-.036.237.514.514,0,0,1-.128.2.446.446,0,0,1-.182.137.6.6,0,0,1-.237.046H468.31a8.9,8.9,0,0,0,.137,1.757,2.12,2.12,0,0,0,.446.992,2.074,2.074,0,0,0,1.047.565,7.7,7.7,0,0,0,1.866.182,5.658,5.658,0,0,0,2.2-.291,2.126,2.126,0,0,0,.819-.6.558.558,0,0,1,.373-.228.507.507,0,0,1,.428.1.534.534,0,0,1,.246.365.541.541,0,0,1-.1.437,2.86,2.86,0,0,1-1.448,1.056,7.871,7.871,0,0,1-2.522.328A8.359,8.359,0,0,1,469.457,341.86Zm.683-7.693a2.287,2.287,0,0,0-1.047.592,1.971,1.971,0,0,0-.446.638,3.765,3.765,0,0,0-.264.91h6.828a3.713,3.713,0,0,0-.282-.974,1.948,1.948,0,0,0-.519-.683,2.379,2.379,0,0,0-1.029-.51,6.511,6.511,0,0,0-1.575-.164A6.138,6.138,0,0,0,470.14,334.167Z" transform="translate(-445.578 -326.513)"/><path class="h" d="M582.1,333.958a3.721,3.721,0,0,1,.711,1.429,7.992,7.992,0,0,1,.237,2.085v4.078a.583.583,0,0,1-1.165,0v-4.078a7.227,7.227,0,0,0-.164-1.675,2.536,2.536,0,0,0-.51-1.074,1.916,1.916,0,0,0-.874-.564,5.208,5.208,0,0,0-2.731,0,1.915,1.915,0,0,0-.874.564,2.531,2.531,0,0,0-.51,1.074,7.228,7.228,0,0,0-.164,1.675v4.078a.583.583,0,0,1-1.165,0v-8.157a.583.583,0,0,1,1.165,0v.346a3.033,3.033,0,0,1,1.22-.7,5.7,5.7,0,0,1,1.693-.227,5.4,5.4,0,0,1,1.848.282A3.068,3.068,0,0,1,582.1,333.958Z" transform="translate(-522.207 -326.513)"/><path class="h" d="M614.739,333.958a3.719,3.719,0,0,1,.71,1.429,7.984,7.984,0,0,1,.237,2.085v4.078a.583.583,0,0,1-1.165,0v-4.078a7.249,7.249,0,0,0-.164-1.675,2.536,2.536,0,0,0-.51-1.074,1.916,1.916,0,0,0-.874-.564,5.209,5.209,0,0,0-2.732,0,1.917,1.917,0,0,0-.874.564,2.537,2.537,0,0,0-.51,1.074,7.235,7.235,0,0,0-.164,1.675v4.078a.583.583,0,0,1-1.165,0v-8.157a.583.583,0,0,1,1.165,0v.346a3.036,3.036,0,0,1,1.22-.7,5.7,5.7,0,0,1,1.693-.227,5.4,5.4,0,0,1,1.848.282A3.07,3.07,0,0,1,614.739,333.958Z" transform="translate(-545.423 -326.513)"/><path class="h" d="M641.87,341.86a3.009,3.009,0,0,1-1.439-.874,2.955,2.955,0,0,1-.71-1.484,11.226,11.226,0,0,1-.164-2.03,7.041,7.041,0,0,1,.273-2.1,3.243,3.243,0,0,1,2.285-2.285,7.053,7.053,0,0,1,2.1-.273,7.255,7.255,0,0,1,1.976.237,3.725,3.725,0,0,1,1.393.71,3.315,3.315,0,0,1,.892,1.274,5.954,5.954,0,0,1,.382,1.821.744.744,0,0,1-.036.237.514.514,0,0,1-.128.2.446.446,0,0,1-.182.137.6.6,0,0,1-.237.046h-7.556a8.91,8.91,0,0,0,.136,1.757,2.124,2.124,0,0,0,.446.992,2.072,2.072,0,0,0,1.047.565,7.691,7.691,0,0,0,1.866.182,5.658,5.658,0,0,0,2.2-.291,2.121,2.121,0,0,0,.819-.6.559.559,0,0,1,.373-.228.508.508,0,0,1,.428.1.535.535,0,0,1,.246.365.541.541,0,0,1-.1.437,2.856,2.856,0,0,1-1.448,1.056,7.87,7.87,0,0,1-2.522.328A8.358,8.358,0,0,1,641.87,341.86Zm.683-7.693a2.288,2.288,0,0,0-1.047.592,1.962,1.962,0,0,0-.446.638,3.748,3.748,0,0,0-.264.91h6.828a3.708,3.708,0,0,0-.282-.974,1.948,1.948,0,0,0-.519-.683,2.382,2.382,0,0,0-1.029-.51,6.511,6.511,0,0,0-1.575-.164A6.139,6.139,0,0,0,642.553,334.167Z" transform="translate(-568.204 -326.513)"/><path class="h" d="M678.181,341.86a3.242,3.242,0,0,1-2.285-2.285,8.235,8.235,0,0,1,0-4.206,3.242,3.242,0,0,1,2.285-2.285,7.052,7.052,0,0,1,2.1-.273,7.338,7.338,0,0,1,1.912.218,3.866,3.866,0,0,1,1.366.655.6.6,0,0,1,.091.82.533.533,0,0,1-.382.228.566.566,0,0,1-.437-.137,2.73,2.73,0,0,0-1.029-.464,6.462,6.462,0,0,0-1.52-.155,6.138,6.138,0,0,0-1.666.191,2.246,2.246,0,0,0-1.638,1.639,7.357,7.357,0,0,0,0,3.332,2.246,2.246,0,0,0,1.638,1.639,6.136,6.136,0,0,0,1.666.191,6.45,6.45,0,0,0,1.52-.154,2.728,2.728,0,0,0,1.029-.465.565.565,0,0,1,.437-.136.533.533,0,0,1,.382.228.6.6,0,0,1-.091.819,3.865,3.865,0,0,1-1.366.656,7.33,7.33,0,0,1-1.912.219A7.039,7.039,0,0,1,678.181,341.86Z" transform="translate(-593.854 -326.513)"/><path class="h" d="M712.344,332.357a.583.583,0,0,1,0,1.165,10.35,10.35,0,0,1-1.93-.155,2.35,2.35,0,0,1-1.994-1.994,10.319,10.319,0,0,1-.155-1.93v-8.157a.583.583,0,0,1,1.165,0V324.2h2.913a.583.583,0,0,1,0,1.165H709.43v4.079a8.966,8.966,0,0,0,.109,1.6,1.323,1.323,0,0,0,1.2,1.2A8.967,8.967,0,0,0,712.344,332.357Z" transform="translate(-617.07 -317.902)"/><path class="c" d="M534.7,336.014a6.195,6.195,0,1,1,0-12.389v-1.593a7.788,7.788,0,1,0,0,15.575Z" transform="translate(-488.085 -318.846)"/><ellipse class="c" cx="4.425" cy="4.425" rx="4.425" ry="4.425" transform="translate(42.188 6.549)"/><path class="c" d="M530.195,330.739a9.38,9.38,0,1,1,0-17.533.8.8,0,0,0,1.084-.74h0a.8.8,0,0,0-.511-.744,10.973,10.973,0,1,0,0,20.5.8.8,0,0,0,.511-.745h0A.8.8,0,0,0,530.195,330.739Z" transform="translate(-480.238 -311)"/><path class="c" d="M536.363,335.787a6.195,6.195,0,1,1-.019-11.941.788.788,0,0,0,1.008-.751v-.026a.789.789,0,0,0-.584-.759,7.788,7.788,0,1,0,.025,15.01.776.776,0,0,0,.559-.751v-.028A.781.781,0,0,0,536.363,335.787Z" transform="translate(-488.085 -318.846)"/></g></g></g><g transform="translate(654.161 1337.187)"><rect class="a" width="166.628" height="347.887" transform="translate(11.119 10.567)"/><g transform="translate(2.715 0)"><g transform="translate(0 0)"><g class="n" transform="matrix(1, 0, 0, 1, -468.88, -384.02)"><path class="b" d="M175.392,184.009q0-75.923,0-151.846c0-.911.012-1.823-.022-2.732a19.086,19.086,0,0,0-18.918-18.446c-5.242-.051-10.485-.019-15.727-.007-2.166,0-3.122.888-3.328,3.024-.11,1.133-.153,2.273-.3,3.4a6.521,6.521,0,0,1-3.742,5.167,7.761,7.761,0,0,1-3.645.713q-36.413-.02-72.826-.01c-.285,0-.57.006-.855,0a6.744,6.744,0,0,1-6.6-5.789c-.178-1.179-.212-2.379-.327-3.568-.206-2.145-1.03-2.927-3.179-2.934-5.242-.015-10.487-.1-15.727.02a18.673,18.673,0,0,0-16.064,9.115,20.142,20.142,0,0,0-2.9,11.239q.02,152.443.011,304.886a10.693,10.693,0,0,0,.016,1.536,38.62,38.62,0,0,0,.895,5.368,18.978,18.978,0,0,0,18.3,13.54q26.412.039,52.824.008c24.275,0,48.551.053,72.826-.03,8.258-.028,14.149-4.061,17.7-11.473a19.958,19.958,0,0,0,1.6-8.822q-.025-76.179-.012-152.358Zm8.19-98.745c1.978.486,2.049.559,2.049,2.441q.006,18.192,0,36.385c0,1.959-.054,2.016-2.05,2.594v2.338q0,105.481.012,210.962a28.661,28.661,0,0,1-25.111,28.763,30.229,30.229,0,0,1-3.742.261q-62.061.02-124.122.007A28.575,28.575,0,0,1,2.481,346.787a32.675,32.675,0,0,1-.761-7.1c-.077-11.33-.035-22.662-.035-33.993,0-55.687,0-256.646,0-257.437,0-6.548-.069-13.1.018-19.644a28.05,28.05,0,0,1,8.871-20.6A27.551,27.551,0,0,1,30.174.038Q92.662-.037,155.15.027a28.593,28.593,0,0,1,28.092,24.341,33.378,33.378,0,0,1,.325,4.759q.033,26.989.014,53.979Z" transform="translate(467.22 384.02)"/></g></g></g><path class="c" d="M0,0H0A3.071,3.071,0,0,1,3.071,3.071V31.3A3.071,3.071,0,0,1,0,34.374H0a0,0,0,0,1,0,0V0A0,0,0,0,1,0,0Z" transform="translate(3.071 161.289) rotate(180)"/><path class="c" d="M0,0H0A3.071,3.071,0,0,1,3.071,3.071V31.3A3.071,3.071,0,0,1,0,34.374H0a0,0,0,0,1,0,0V0A0,0,0,0,1,0,0Z" transform="translate(3.071 118.17) rotate(180)"/><path class="c" d="M0,0H0A3.071,3.071,0,0,1,3.071,3.071V15.438A3.071,3.071,0,0,1,0,18.509H0a0,0,0,0,1,0,0V0A0,0,0,0,1,0,0Z" transform="translate(3.071 63.936) rotate(180)"/><path class="c" d="M0,0H0A3.071,3.071,0,0,1,3.071,3.071V45.509A3.071,3.071,0,0,1,0,48.58H0a0,0,0,0,1,0,0V0A0,0,0,0,1,0,0Z" transform="translate(184.884 81.357)"/><g transform="translate(70.166 8.288)"><rect class="d" width="23.81" height="3.478" rx="1.739" transform="translate(11.211 1.739)"/><g transform="translate(0 0)"><ellipse class="e" cx="3.478" cy="3.478" rx="3.478" ry="3.478" transform="translate(40.534)"/><ellipse class="f" cx="2.305" cy="2.305" rx="2.305" ry="2.305" transform="translate(0 1.173)"/><ellipse class="g" cx="1.49" cy="1.49" rx="1.49" ry="1.49" transform="translate(42.521 1.987)"/></g></g><g transform="translate(46.883 156.874)"><g transform="translate(0 0)"><path class="h" d="M393.042,333.523a.59.59,0,0,1-.582-.583V321.287a.583.583,0,0,1,1.165,0v11.071H401.2a.583.583,0,0,1,0,1.165Z" transform="translate(-392.46 -317.902)"/><path class="h" d="M429.31,322.862a.559.559,0,0,1-.173-.41v-1.165a.583.583,0,0,1,1.165,0v1.165a.58.58,0,0,1-.992.41Zm0,10.488a.559.559,0,0,1-.173-.41v-8.158a.583.583,0,0,1,1.165,0v8.158a.58.58,0,0,1-.992.41Z" transform="translate(-418.546 -317.902)"/><path class="h" d="M441.305,342.021a.514.514,0,0,1-.2-.246l-3.5-8.157a.543.543,0,0,1-.018-.455.553.553,0,0,1,.31-.31.545.545,0,0,1,.455-.018.556.556,0,0,1,.31.31l2.968,6.919,2.968-6.919a.554.554,0,0,1,.31-.31.546.546,0,0,1,.455.018.556.556,0,0,1,.31.31.545.545,0,0,1-.018.455l-3.5,8.157a.514.514,0,0,1-.2.246.586.586,0,0,1-.655,0Z" transform="translate(-424.529 -326.5)"/><path class="h" d="M469.457,341.86a3.009,3.009,0,0,1-1.438-.874,2.953,2.953,0,0,1-.71-1.484,11.232,11.232,0,0,1-.164-2.03,7.053,7.053,0,0,1,.273-2.1,3.243,3.243,0,0,1,2.285-2.285,7.052,7.052,0,0,1,2.1-.273,7.252,7.252,0,0,1,1.976.237,3.73,3.73,0,0,1,1.393.71,3.317,3.317,0,0,1,.892,1.274,5.957,5.957,0,0,1,.383,1.821.74.74,0,0,1-.036.237.514.514,0,0,1-.128.2.446.446,0,0,1-.182.137.6.6,0,0,1-.237.046H468.31a8.9,8.9,0,0,0,.137,1.757,2.12,2.12,0,0,0,.446.992,2.074,2.074,0,0,0,1.047.565,7.7,7.7,0,0,0,1.866.182,5.658,5.658,0,0,0,2.2-.291,2.126,2.126,0,0,0,.819-.6.558.558,0,0,1,.373-.228.507.507,0,0,1,.428.1.534.534,0,0,1,.246.365.541.541,0,0,1-.1.437,2.86,2.86,0,0,1-1.448,1.056,7.871,7.871,0,0,1-2.522.328A8.359,8.359,0,0,1,469.457,341.86Zm.683-7.693a2.287,2.287,0,0,0-1.047.592,1.971,1.971,0,0,0-.446.638,3.765,3.765,0,0,0-.264.91h6.828a3.713,3.713,0,0,0-.282-.974,1.948,1.948,0,0,0-.519-.683,2.379,2.379,0,0,0-1.029-.51,6.511,6.511,0,0,0-1.575-.164A6.138,6.138,0,0,0,470.14,334.167Z" transform="translate(-445.578 -326.513)"/><path class="h" d="M582.1,333.958a3.721,3.721,0,0,1,.711,1.429,7.992,7.992,0,0,1,.237,2.085v4.078a.583.583,0,0,1-1.165,0v-4.078a7.227,7.227,0,0,0-.164-1.675,2.536,2.536,0,0,0-.51-1.074,1.916,1.916,0,0,0-.874-.564,5.208,5.208,0,0,0-2.731,0,1.915,1.915,0,0,0-.874.564,2.531,2.531,0,0,0-.51,1.074,7.228,7.228,0,0,0-.164,1.675v4.078a.583.583,0,0,1-1.165,0v-8.157a.583.583,0,0,1,1.165,0v.346a3.033,3.033,0,0,1,1.22-.7,5.7,5.7,0,0,1,1.693-.227,5.4,5.4,0,0,1,1.848.282A3.068,3.068,0,0,1,582.1,333.958Z" transform="translate(-522.207 -326.513)"/><path class="h" d="M614.739,333.958a3.719,3.719,0,0,1,.71,1.429,7.984,7.984,0,0,1,.237,2.085v4.078a.583.583,0,0,1-1.165,0v-4.078a7.249,7.249,0,0,0-.164-1.675,2.536,2.536,0,0,0-.51-1.074,1.916,1.916,0,0,0-.874-.564,5.209,5.209,0,0,0-2.732,0,1.917,1.917,0,0,0-.874.564,2.537,2.537,0,0,0-.51,1.074,7.235,7.235,0,0,0-.164,1.675v4.078a.583.583,0,0,1-1.165,0v-8.157a.583.583,0,0,1,1.165,0v.346a3.036,3.036,0,0,1,1.22-.7,5.7,5.7,0,0,1,1.693-.227,5.4,5.4,0,0,1,1.848.282A3.07,3.07,0,0,1,614.739,333.958Z" transform="translate(-545.423 -326.513)"/><path class="h" d="M641.87,341.86a3.009,3.009,0,0,1-1.439-.874,2.955,2.955,0,0,1-.71-1.484,11.226,11.226,0,0,1-.164-2.03,7.041,7.041,0,0,1,.273-2.1,3.243,3.243,0,0,1,2.285-2.285,7.053,7.053,0,0,1,2.1-.273,7.255,7.255,0,0,1,1.976.237,3.725,3.725,0,0,1,1.393.71,3.315,3.315,0,0,1,.892,1.274,5.954,5.954,0,0,1,.382,1.821.744.744,0,0,1-.036.237.514.514,0,0,1-.128.2.446.446,0,0,1-.182.137.6.6,0,0,1-.237.046h-7.556a8.91,8.91,0,0,0,.136,1.757,2.124,2.124,0,0,0,.446.992,2.072,2.072,0,0,0,1.047.565,7.691,7.691,0,0,0,1.866.182,5.658,5.658,0,0,0,2.2-.291,2.121,2.121,0,0,0,.819-.6.559.559,0,0,1,.373-.228.508.508,0,0,1,.428.1.535.535,0,0,1,.246.365.541.541,0,0,1-.1.437,2.856,2.856,0,0,1-1.448,1.056,7.87,7.87,0,0,1-2.522.328A8.358,8.358,0,0,1,641.87,341.86Zm.683-7.693a2.288,2.288,0,0,0-1.047.592,1.962,1.962,0,0,0-.446.638,3.748,3.748,0,0,0-.264.91h6.828a3.708,3.708,0,0,0-.282-.974,1.948,1.948,0,0,0-.519-.683,2.382,2.382,0,0,0-1.029-.51,6.511,6.511,0,0,0-1.575-.164A6.139,6.139,0,0,0,642.553,334.167Z" transform="translate(-568.204 -326.513)"/><path class="h" d="M678.181,341.86a3.242,3.242,0,0,1-2.285-2.285,8.235,8.235,0,0,1,0-4.206,3.242,3.242,0,0,1,2.285-2.285,7.052,7.052,0,0,1,2.1-.273,7.338,7.338,0,0,1,1.912.218,3.866,3.866,0,0,1,1.366.655.6.6,0,0,1,.091.82.533.533,0,0,1-.382.228.566.566,0,0,1-.437-.137,2.73,2.73,0,0,0-1.029-.464,6.462,6.462,0,0,0-1.52-.155,6.138,6.138,0,0,0-1.666.191,2.246,2.246,0,0,0-1.638,1.639,7.357,7.357,0,0,0,0,3.332,2.246,2.246,0,0,0,1.638,1.639,6.136,6.136,0,0,0,1.666.191,6.45,6.45,0,0,0,1.52-.154,2.728,2.728,0,0,0,1.029-.465.565.565,0,0,1,.437-.136.533.533,0,0,1,.382.228.6.6,0,0,1-.091.819,3.865,3.865,0,0,1-1.366.656,7.33,7.33,0,0,1-1.912.219A7.039,7.039,0,0,1,678.181,341.86Z" transform="translate(-593.854 -326.513)"/><path class="h" d="M712.344,332.357a.583.583,0,0,1,0,1.165,10.35,10.35,0,0,1-1.93-.155,2.35,2.35,0,0,1-1.994-1.994,10.319,10.319,0,0,1-.155-1.93v-8.157a.583.583,0,0,1,1.165,0V324.2h2.913a.583.583,0,0,1,0,1.165H709.43v4.079a8.966,8.966,0,0,0,.109,1.6,1.323,1.323,0,0,0,1.2,1.2A8.967,8.967,0,0,0,712.344,332.357Z" transform="translate(-617.07 -317.902)"/><path class="c" d="M534.7,336.014a6.195,6.195,0,1,1,0-12.389v-1.593a7.788,7.788,0,1,0,0,15.575Z" transform="translate(-488.085 -318.846)"/><ellipse class="c" cx="4.425" cy="4.425" rx="4.425" ry="4.425" transform="translate(42.188 6.549)"/><path class="c" d="M530.195,330.739a9.38,9.38,0,1,1,0-17.533.8.8,0,0,0,1.084-.74h0a.8.8,0,0,0-.511-.744,10.973,10.973,0,1,0,0,20.5.8.8,0,0,0,.511-.745h0A.8.8,0,0,0,530.195,330.739Z" transform="translate(-480.238 -311)"/><path class="c" d="M536.363,335.787a6.195,6.195,0,1,1-.019-11.941.788.788,0,0,0,1.008-.751v-.026a.789.789,0,0,0-.584-.759,7.788,7.788,0,1,0,.025,15.01.776.776,0,0,0,.559-.751v-.028A.781.781,0,0,0,536.363,335.787Z" transform="translate(-488.085 -318.846)"/></g></g></g><g transform="translate(192.277 1432.657)"><rect class="a" width="166.628" height="347.887" transform="translate(11.119 10.567)"/><g transform="translate(2.715 0)"><g transform="translate(0 0)"><g class="m" transform="matrix(1, 0, 0, 1, -7, -479.49)"><path class="b" d="M175.392,184.009q0-75.923,0-151.846c0-.911.012-1.823-.022-2.732a19.086,19.086,0,0,0-18.918-18.446c-5.242-.051-10.485-.019-15.727-.007-2.166,0-3.122.888-3.328,3.024-.11,1.133-.153,2.273-.3,3.4a6.521,6.521,0,0,1-3.742,5.167,7.761,7.761,0,0,1-3.645.713q-36.413-.02-72.826-.01c-.285,0-.57.006-.855,0a6.744,6.744,0,0,1-6.6-5.789c-.178-1.179-.212-2.379-.327-3.568-.206-2.145-1.03-2.927-3.179-2.934-5.242-.015-10.487-.1-15.727.02a18.673,18.673,0,0,0-16.064,9.115,20.142,20.142,0,0,0-2.9,11.239q.02,152.443.011,304.886a10.693,10.693,0,0,0,.016,1.536,38.62,38.62,0,0,0,.895,5.368,18.978,18.978,0,0,0,18.3,13.54q26.412.039,52.824.008c24.275,0,48.551.053,72.826-.03,8.258-.028,14.149-4.061,17.7-11.473a19.958,19.958,0,0,0,1.6-8.822q-.025-76.179-.012-152.358Zm8.19-98.745c1.978.486,2.049.559,2.049,2.441q.006,18.192,0,36.385c0,1.959-.054,2.016-2.05,2.594v2.338q0,105.481.012,210.962a28.661,28.661,0,0,1-25.111,28.763,30.229,30.229,0,0,1-3.742.261q-62.061.02-124.122.007A28.575,28.575,0,0,1,2.481,346.787a32.675,32.675,0,0,1-.761-7.1c-.077-11.33-.035-22.662-.035-33.993,0-55.687,0-256.646,0-257.437,0-6.548-.069-13.1.018-19.644a28.05,28.05,0,0,1,8.871-20.6A27.551,27.551,0,0,1,30.174.038Q92.662-.037,155.15.027a28.593,28.593,0,0,1,28.092,24.341,33.378,33.378,0,0,1,.325,4.759q.033,26.989.014,53.979Z" transform="translate(5.34 479.49)"/></g></g></g><path class="c" d="M0,0H0A3.071,3.071,0,0,1,3.071,3.071V31.3A3.071,3.071,0,0,1,0,34.374H0a0,0,0,0,1,0,0V0A0,0,0,0,1,0,0Z" transform="translate(3.071 161.289) rotate(180)"/><path class="c" d="M0,0H0A3.071,3.071,0,0,1,3.071,3.071V31.3A3.071,3.071,0,0,1,0,34.374H0a0,0,0,0,1,0,0V0A0,0,0,0,1,0,0Z" transform="translate(3.071 118.17) rotate(180)"/><path class="c" d="M0,0H0A3.071,3.071,0,0,1,3.071,3.071V15.438A3.071,3.071,0,0,1,0,18.509H0a0,0,0,0,1,0,0V0A0,0,0,0,1,0,0Z" transform="translate(3.071 63.936) rotate(180)"/><path class="c" d="M0,0H0A3.071,3.071,0,0,1,3.071,3.071V45.509A3.071,3.071,0,0,1,0,48.58H0a0,0,0,0,1,0,0V0A0,0,0,0,1,0,0Z" transform="translate(184.884 81.357)"/><g transform="translate(70.166 8.288)"><rect class="d" width="23.81" height="3.478" rx="1.739" transform="translate(11.211 1.739)"/><g transform="translate(0 0)"><ellipse class="e" cx="3.478" cy="3.478" rx="3.478" ry="3.478" transform="translate(40.534)"/><ellipse class="f" cx="2.305" cy="2.305" rx="2.305" ry="2.305" transform="translate(0 1.173)"/><ellipse class="g" cx="1.49" cy="1.49" rx="1.49" ry="1.49" transform="translate(42.521 1.987)"/></g></g><g transform="translate(46.883 156.874)"><g transform="translate(0 0)"><path class="h" d="M393.042,333.523a.59.59,0,0,1-.582-.583V321.287a.583.583,0,0,1,1.165,0v11.071H401.2a.583.583,0,0,1,0,1.165Z" transform="translate(-392.46 -317.902)"/><path class="h" d="M429.31,322.862a.559.559,0,0,1-.173-.41v-1.165a.583.583,0,0,1,1.165,0v1.165a.58.58,0,0,1-.992.41Zm0,10.488a.559.559,0,0,1-.173-.41v-8.158a.583.583,0,0,1,1.165,0v8.158a.58.58,0,0,1-.992.41Z" transform="translate(-418.546 -317.902)"/><path class="h" d="M441.305,342.021a.514.514,0,0,1-.2-.246l-3.5-8.157a.543.543,0,0,1-.018-.455.553.553,0,0,1,.31-.31.545.545,0,0,1,.455-.018.556.556,0,0,1,.31.31l2.968,6.919,2.968-6.919a.554.554,0,0,1,.31-.31.546.546,0,0,1,.455.018.556.556,0,0,1,.31.31.545.545,0,0,1-.018.455l-3.5,8.157a.514.514,0,0,1-.2.246.586.586,0,0,1-.655,0Z" transform="translate(-424.529 -326.5)"/><path class="h" d="M469.457,341.86a3.009,3.009,0,0,1-1.438-.874,2.953,2.953,0,0,1-.71-1.484,11.232,11.232,0,0,1-.164-2.03,7.053,7.053,0,0,1,.273-2.1,3.243,3.243,0,0,1,2.285-2.285,7.052,7.052,0,0,1,2.1-.273,7.252,7.252,0,0,1,1.976.237,3.73,3.73,0,0,1,1.393.71,3.317,3.317,0,0,1,.892,1.274,5.957,5.957,0,0,1,.383,1.821.74.74,0,0,1-.036.237.514.514,0,0,1-.128.2.446.446,0,0,1-.182.137.6.6,0,0,1-.237.046H468.31a8.9,8.9,0,0,0,.137,1.757,2.12,2.12,0,0,0,.446.992,2.074,2.074,0,0,0,1.047.565,7.7,7.7,0,0,0,1.866.182,5.658,5.658,0,0,0,2.2-.291,2.126,2.126,0,0,0,.819-.6.558.558,0,0,1,.373-.228.507.507,0,0,1,.428.1.534.534,0,0,1,.246.365.541.541,0,0,1-.1.437,2.86,2.86,0,0,1-1.448,1.056,7.871,7.871,0,0,1-2.522.328A8.359,8.359,0,0,1,469.457,341.86Zm.683-7.693a2.287,2.287,0,0,0-1.047.592,1.971,1.971,0,0,0-.446.638,3.765,3.765,0,0,0-.264.91h6.828a3.713,3.713,0,0,0-.282-.974,1.948,1.948,0,0,0-.519-.683,2.379,2.379,0,0,0-1.029-.51,6.511,6.511,0,0,0-1.575-.164A6.138,6.138,0,0,0,470.14,334.167Z" transform="translate(-445.578 -326.513)"/><path class="h" d="M582.1,333.958a3.721,3.721,0,0,1,.711,1.429,7.992,7.992,0,0,1,.237,2.085v4.078a.583.583,0,0,1-1.165,0v-4.078a7.227,7.227,0,0,0-.164-1.675,2.536,2.536,0,0,0-.51-1.074,1.916,1.916,0,0,0-.874-.564,5.208,5.208,0,0,0-2.731,0,1.915,1.915,0,0,0-.874.564,2.531,2.531,0,0,0-.51,1.074,7.228,7.228,0,0,0-.164,1.675v4.078a.583.583,0,0,1-1.165,0v-8.157a.583.583,0,0,1,1.165,0v.346a3.033,3.033,0,0,1,1.22-.7,5.7,5.7,0,0,1,1.693-.227,5.4,5.4,0,0,1,1.848.282A3.068,3.068,0,0,1,582.1,333.958Z" transform="translate(-522.207 -326.513)"/><path class="h" d="M614.739,333.958a3.719,3.719,0,0,1,.71,1.429,7.984,7.984,0,0,1,.237,2.085v4.078a.583.583,0,0,1-1.165,0v-4.078a7.249,7.249,0,0,0-.164-1.675,2.536,2.536,0,0,0-.51-1.074,1.916,1.916,0,0,0-.874-.564,5.209,5.209,0,0,0-2.732,0,1.917,1.917,0,0,0-.874.564,2.537,2.537,0,0,0-.51,1.074,7.235,7.235,0,0,0-.164,1.675v4.078a.583.583,0,0,1-1.165,0v-8.157a.583.583,0,0,1,1.165,0v.346a3.036,3.036,0,0,1,1.22-.7,5.7,5.7,0,0,1,1.693-.227,5.4,5.4,0,0,1,1.848.282A3.07,3.07,0,0,1,614.739,333.958Z" transform="translate(-545.423 -326.513)"/><path class="h" d="M641.87,341.86a3.009,3.009,0,0,1-1.439-.874,2.955,2.955,0,0,1-.71-1.484,11.226,11.226,0,0,1-.164-2.03,7.041,7.041,0,0,1,.273-2.1,3.243,3.243,0,0,1,2.285-2.285,7.053,7.053,0,0,1,2.1-.273,7.255,7.255,0,0,1,1.976.237,3.725,3.725,0,0,1,1.393.71,3.315,3.315,0,0,1,.892,1.274,5.954,5.954,0,0,1,.382,1.821.744.744,0,0,1-.036.237.514.514,0,0,1-.128.2.446.446,0,0,1-.182.137.6.6,0,0,1-.237.046h-7.556a8.91,8.91,0,0,0,.136,1.757,2.124,2.124,0,0,0,.446.992,2.072,2.072,0,0,0,1.047.565,7.691,7.691,0,0,0,1.866.182,5.658,5.658,0,0,0,2.2-.291,2.121,2.121,0,0,0,.819-.6.559.559,0,0,1,.373-.228.508.508,0,0,1,.428.1.535.535,0,0,1,.246.365.541.541,0,0,1-.1.437,2.856,2.856,0,0,1-1.448,1.056,7.87,7.87,0,0,1-2.522.328A8.358,8.358,0,0,1,641.87,341.86Zm.683-7.693a2.288,2.288,0,0,0-1.047.592,1.962,1.962,0,0,0-.446.638,3.748,3.748,0,0,0-.264.91h6.828a3.708,3.708,0,0,0-.282-.974,1.948,1.948,0,0,0-.519-.683,2.382,2.382,0,0,0-1.029-.51,6.511,6.511,0,0,0-1.575-.164A6.139,6.139,0,0,0,642.553,334.167Z" transform="translate(-568.204 -326.513)"/><path class="h" d="M678.181,341.86a3.242,3.242,0,0,1-2.285-2.285,8.235,8.235,0,0,1,0-4.206,3.242,3.242,0,0,1,2.285-2.285,7.052,7.052,0,0,1,2.1-.273,7.338,7.338,0,0,1,1.912.218,3.866,3.866,0,0,1,1.366.655.6.6,0,0,1,.091.82.533.533,0,0,1-.382.228.566.566,0,0,1-.437-.137,2.73,2.73,0,0,0-1.029-.464,6.462,6.462,0,0,0-1.52-.155,6.138,6.138,0,0,0-1.666.191,2.246,2.246,0,0,0-1.638,1.639,7.357,7.357,0,0,0,0,3.332,2.246,2.246,0,0,0,1.638,1.639,6.136,6.136,0,0,0,1.666.191,6.45,6.45,0,0,0,1.52-.154,2.728,2.728,0,0,0,1.029-.465.565.565,0,0,1,.437-.136.533.533,0,0,1,.382.228.6.6,0,0,1-.091.819,3.865,3.865,0,0,1-1.366.656,7.33,7.33,0,0,1-1.912.219A7.039,7.039,0,0,1,678.181,341.86Z" transform="translate(-593.854 -326.513)"/><path class="h" d="M712.344,332.357a.583.583,0,0,1,0,1.165,10.35,10.35,0,0,1-1.93-.155,2.35,2.35,0,0,1-1.994-1.994,10.319,10.319,0,0,1-.155-1.93v-8.157a.583.583,0,0,1,1.165,0V324.2h2.913a.583.583,0,0,1,0,1.165H709.43v4.079a8.966,8.966,0,0,0,.109,1.6,1.323,1.323,0,0,0,1.2,1.2A8.967,8.967,0,0,0,712.344,332.357Z" transform="translate(-617.07 -317.902)"/><path class="c" d="M534.7,336.014a6.195,6.195,0,1,1,0-12.389v-1.593a7.788,7.788,0,1,0,0,15.575Z" transform="translate(-488.085 -318.846)"/><ellipse class="c" cx="4.425" cy="4.425" rx="4.425" ry="4.425" transform="translate(42.188 6.549)"/><path class="c" d="M530.195,330.739a9.38,9.38,0,1,1,0-17.533.8.8,0,0,0,1.084-.74h0a.8.8,0,0,0-.511-.744,10.973,10.973,0,1,0,0,20.5.8.8,0,0,0,.511-.745h0A.8.8,0,0,0,530.195,330.739Z" transform="translate(-480.238 -311)"/><path class="c" d="M536.363,335.787a6.195,6.195,0,1,1-.019-11.941.788.788,0,0,0,1.008-.751v-.026a.789.789,0,0,0-.584-.759,7.788,7.788,0,1,0,.025,15.01.776.776,0,0,0,.559-.751v-.028A.781.781,0,0,0,536.363,335.787Z" transform="translate(-488.085 -318.846)"/></g></g></g><g transform="translate(423.219 1619)"><rect class="a" width="166.628" height="347.887" transform="translate(11.119 10.567)"/><g transform="translate(2.715 0)"><g transform="translate(0 0)"><g class="l" transform="matrix(1, 0, 0, 1, -237.94, -665.83)"><path class="i" d="M175.392,184.009q0-75.923,0-151.846c0-.911.012-1.823-.022-2.732a19.086,19.086,0,0,0-18.918-18.446c-5.242-.051-10.485-.019-15.727-.007-2.166,0-3.122.888-3.328,3.024-.11,1.133-.153,2.273-.3,3.4a6.521,6.521,0,0,1-3.742,5.167,7.761,7.761,0,0,1-3.645.713q-36.413-.02-72.826-.01c-.285,0-.57.006-.855,0a6.744,6.744,0,0,1-6.6-5.789c-.178-1.179-.212-2.379-.327-3.568-.206-2.145-1.03-2.927-3.179-2.934-5.242-.015-10.487-.1-15.727.02a18.673,18.673,0,0,0-16.064,9.115,20.142,20.142,0,0,0-2.9,11.239q.02,152.443.011,304.886a10.693,10.693,0,0,0,.016,1.536,38.62,38.62,0,0,0,.895,5.368,18.978,18.978,0,0,0,18.3,13.54q26.412.039,52.824.008c24.275,0,48.551.053,72.826-.03,8.258-.028,14.149-4.061,17.7-11.473a19.958,19.958,0,0,0,1.6-8.822q-.025-76.179-.012-152.358Zm8.19-98.745c1.978.486,2.049.559,2.049,2.441q.006,18.192,0,36.385c0,1.959-.054,2.016-2.05,2.594v2.338q0,105.481.012,210.962a28.661,28.661,0,0,1-25.111,28.763,30.229,30.229,0,0,1-3.742.261q-62.061.02-124.122.007A28.575,28.575,0,0,1,2.481,346.787a32.675,32.675,0,0,1-.761-7.1c-.077-11.33-.035-22.662-.035-33.993,0-55.687,0-256.646,0-257.437,0-6.548-.069-13.1.018-19.644a28.05,28.05,0,0,1,8.871-20.6A27.551,27.551,0,0,1,30.174.038Q92.662-.037,155.15.027a28.593,28.593,0,0,1,28.092,24.341,33.378,33.378,0,0,1,.325,4.759q.033,26.989.014,53.979Z" transform="translate(236.28 665.83)"/></g></g></g><path class="c" d="M0,0H0A3.071,3.071,0,0,1,3.071,3.071V31.3A3.071,3.071,0,0,1,0,34.374H0a0,0,0,0,1,0,0V0A0,0,0,0,1,0,0Z" transform="translate(3.071 161.289) rotate(180)"/><path class="c" d="M0,0H0A3.071,3.071,0,0,1,3.071,3.071V31.3A3.071,3.071,0,0,1,0,34.374H0a0,0,0,0,1,0,0V0A0,0,0,0,1,0,0Z" transform="translate(3.071 118.17) rotate(180)"/><path class="c" d="M0,0H0A3.071,3.071,0,0,1,3.071,3.071V15.438A3.071,3.071,0,0,1,0,18.509H0a0,0,0,0,1,0,0V0A0,0,0,0,1,0,0Z" transform="translate(3.071 63.936) rotate(180)"/><path class="c" d="M0,0H0A3.071,3.071,0,0,1,3.071,3.071V45.509A3.071,3.071,0,0,1,0,48.58H0a0,0,0,0,1,0,0V0A0,0,0,0,1,0,0Z" transform="translate(184.884 81.357)"/><g transform="translate(70.166 8.288)"><rect class="d" width="23.81" height="3.478" rx="1.739" transform="translate(11.211 1.739)"/><g transform="translate(0 0)"><ellipse class="e" cx="3.478" cy="3.478" rx="3.478" ry="3.478" transform="translate(40.534)"/><ellipse class="f" cx="2.305" cy="2.305" rx="2.305" ry="2.305" transform="translate(0 1.173)"/><ellipse class="g" cx="1.49" cy="1.49" rx="1.49" ry="1.49" transform="translate(42.521 1.987)"/></g></g><g transform="translate(46.883 156.874)"><g transform="translate(0 0)"><path class="h" d="M393.042,333.523a.59.59,0,0,1-.582-.583V321.287a.583.583,0,0,1,1.165,0v11.071H401.2a.583.583,0,0,1,0,1.165Z" transform="translate(-392.46 -317.902)"/><path class="h" d="M429.31,322.862a.559.559,0,0,1-.173-.41v-1.165a.583.583,0,0,1,1.165,0v1.165a.58.58,0,0,1-.992.41Zm0,10.488a.559.559,0,0,1-.173-.41v-8.158a.583.583,0,0,1,1.165,0v8.158a.58.58,0,0,1-.992.41Z" transform="translate(-418.546 -317.902)"/><path class="h" d="M441.305,342.021a.514.514,0,0,1-.2-.246l-3.5-8.157a.543.543,0,0,1-.018-.455.553.553,0,0,1,.31-.31.545.545,0,0,1,.455-.018.556.556,0,0,1,.31.31l2.968,6.919,2.968-6.919a.554.554,0,0,1,.31-.31.546.546,0,0,1,.455.018.556.556,0,0,1,.31.31.545.545,0,0,1-.018.455l-3.5,8.157a.514.514,0,0,1-.2.246.586.586,0,0,1-.655,0Z" transform="translate(-424.529 -326.5)"/><path class="h" d="M469.457,341.86a3.009,3.009,0,0,1-1.438-.874,2.953,2.953,0,0,1-.71-1.484,11.232,11.232,0,0,1-.164-2.03,7.053,7.053,0,0,1,.273-2.1,3.243,3.243,0,0,1,2.285-2.285,7.052,7.052,0,0,1,2.1-.273,7.252,7.252,0,0,1,1.976.237,3.73,3.73,0,0,1,1.393.71,3.317,3.317,0,0,1,.892,1.274,5.957,5.957,0,0,1,.383,1.821.74.74,0,0,1-.036.237.514.514,0,0,1-.128.2.446.446,0,0,1-.182.137.6.6,0,0,1-.237.046H468.31a8.9,8.9,0,0,0,.137,1.757,2.12,2.12,0,0,0,.446.992,2.074,2.074,0,0,0,1.047.565,7.7,7.7,0,0,0,1.866.182,5.658,5.658,0,0,0,2.2-.291,2.126,2.126,0,0,0,.819-.6.558.558,0,0,1,.373-.228.507.507,0,0,1,.428.1.534.534,0,0,1,.246.365.541.541,0,0,1-.1.437,2.86,2.86,0,0,1-1.448,1.056,7.871,7.871,0,0,1-2.522.328A8.359,8.359,0,0,1,469.457,341.86Zm.683-7.693a2.287,2.287,0,0,0-1.047.592,1.971,1.971,0,0,0-.446.638,3.765,3.765,0,0,0-.264.91h6.828a3.713,3.713,0,0,0-.282-.974,1.948,1.948,0,0,0-.519-.683,2.379,2.379,0,0,0-1.029-.51,6.511,6.511,0,0,0-1.575-.164A6.138,6.138,0,0,0,470.14,334.167Z" transform="translate(-445.578 -326.513)"/><path class="h" d="M582.1,333.958a3.721,3.721,0,0,1,.711,1.429,7.992,7.992,0,0,1,.237,2.085v4.078a.583.583,0,0,1-1.165,0v-4.078a7.227,7.227,0,0,0-.164-1.675,2.536,2.536,0,0,0-.51-1.074,1.916,1.916,0,0,0-.874-.564,5.208,5.208,0,0,0-2.731,0,1.915,1.915,0,0,0-.874.564,2.531,2.531,0,0,0-.51,1.074,7.228,7.228,0,0,0-.164,1.675v4.078a.583.583,0,0,1-1.165,0v-8.157a.583.583,0,0,1,1.165,0v.346a3.033,3.033,0,0,1,1.22-.7,5.7,5.7,0,0,1,1.693-.227,5.4,5.4,0,0,1,1.848.282A3.068,3.068,0,0,1,582.1,333.958Z" transform="translate(-522.207 -326.513)"/><path class="h" d="M614.739,333.958a3.719,3.719,0,0,1,.71,1.429,7.984,7.984,0,0,1,.237,2.085v4.078a.583.583,0,0,1-1.165,0v-4.078a7.249,7.249,0,0,0-.164-1.675,2.536,2.536,0,0,0-.51-1.074,1.916,1.916,0,0,0-.874-.564,5.209,5.209,0,0,0-2.732,0,1.917,1.917,0,0,0-.874.564,2.537,2.537,0,0,0-.51,1.074,7.235,7.235,0,0,0-.164,1.675v4.078a.583.583,0,0,1-1.165,0v-8.157a.583.583,0,0,1,1.165,0v.346a3.036,3.036,0,0,1,1.22-.7,5.7,5.7,0,0,1,1.693-.227,5.4,5.4,0,0,1,1.848.282A3.07,3.07,0,0,1,614.739,333.958Z" transform="translate(-545.423 -326.513)"/><path class="h" d="M641.87,341.86a3.009,3.009,0,0,1-1.439-.874,2.955,2.955,0,0,1-.71-1.484,11.226,11.226,0,0,1-.164-2.03,7.041,7.041,0,0,1,.273-2.1,3.243,3.243,0,0,1,2.285-2.285,7.053,7.053,0,0,1,2.1-.273,7.255,7.255,0,0,1,1.976.237,3.725,3.725,0,0,1,1.393.71,3.315,3.315,0,0,1,.892,1.274,5.954,5.954,0,0,1,.382,1.821.744.744,0,0,1-.036.237.514.514,0,0,1-.128.2.446.446,0,0,1-.182.137.6.6,0,0,1-.237.046h-7.556a8.91,8.91,0,0,0,.136,1.757,2.124,2.124,0,0,0,.446.992,2.072,2.072,0,0,0,1.047.565,7.691,7.691,0,0,0,1.866.182,5.658,5.658,0,0,0,2.2-.291,2.121,2.121,0,0,0,.819-.6.559.559,0,0,1,.373-.228.508.508,0,0,1,.428.1.535.535,0,0,1,.246.365.541.541,0,0,1-.1.437,2.856,2.856,0,0,1-1.448,1.056,7.87,7.87,0,0,1-2.522.328A8.358,8.358,0,0,1,641.87,341.86Zm.683-7.693a2.288,2.288,0,0,0-1.047.592,1.962,1.962,0,0,0-.446.638,3.748,3.748,0,0,0-.264.91h6.828a3.708,3.708,0,0,0-.282-.974,1.948,1.948,0,0,0-.519-.683,2.382,2.382,0,0,0-1.029-.51,6.511,6.511,0,0,0-1.575-.164A6.139,6.139,0,0,0,642.553,334.167Z" transform="translate(-568.204 -326.513)"/><path class="h" d="M678.181,341.86a3.242,3.242,0,0,1-2.285-2.285,8.235,8.235,0,0,1,0-4.206,3.242,3.242,0,0,1,2.285-2.285,7.052,7.052,0,0,1,2.1-.273,7.338,7.338,0,0,1,1.912.218,3.866,3.866,0,0,1,1.366.655.6.6,0,0,1,.091.82.533.533,0,0,1-.382.228.566.566,0,0,1-.437-.137,2.73,2.73,0,0,0-1.029-.464,6.462,6.462,0,0,0-1.52-.155,6.138,6.138,0,0,0-1.666.191,2.246,2.246,0,0,0-1.638,1.639,7.357,7.357,0,0,0,0,3.332,2.246,2.246,0,0,0,1.638,1.639,6.136,6.136,0,0,0,1.666.191,6.45,6.45,0,0,0,1.52-.154,2.728,2.728,0,0,0,1.029-.465.565.565,0,0,1,.437-.136.533.533,0,0,1,.382.228.6.6,0,0,1-.091.819,3.865,3.865,0,0,1-1.366.656,7.33,7.33,0,0,1-1.912.219A7.039,7.039,0,0,1,678.181,341.86Z" transform="translate(-593.854 -326.513)"/><path class="h" d="M712.344,332.357a.583.583,0,0,1,0,1.165,10.35,10.35,0,0,1-1.93-.155,2.35,2.35,0,0,1-1.994-1.994,10.319,10.319,0,0,1-.155-1.93v-8.157a.583.583,0,0,1,1.165,0V324.2h2.913a.583.583,0,0,1,0,1.165H709.43v4.079a8.966,8.966,0,0,0,.109,1.6,1.323,1.323,0,0,0,1.2,1.2A8.967,8.967,0,0,0,712.344,332.357Z" transform="translate(-617.07 -317.902)"/><path class="c" d="M534.7,336.014a6.195,6.195,0,1,1,0-12.389v-1.593a7.788,7.788,0,1,0,0,15.575Z" transform="translate(-488.085 -318.846)"/><ellipse class="c" cx="4.425" cy="4.425" rx="4.425" ry="4.425" transform="translate(42.188 6.549)"/><path class="c" d="M530.195,330.739a9.38,9.38,0,1,1,0-17.533.8.8,0,0,0,1.084-.74h0a.8.8,0,0,0-.511-.744,10.973,10.973,0,1,0,0,20.5.8.8,0,0,0,.511-.745h0A.8.8,0,0,0,530.195,330.739Z" transform="translate(-480.238 -311)"/><path class="c" d="M536.363,335.787a6.195,6.195,0,1,1-.019-11.941.788.788,0,0,0,1.008-.751v-.026a.789.789,0,0,0-.584-.759,7.788,7.788,0,1,0,.025,15.01.776.776,0,0,0,.559-.751v-.028A.781.781,0,0,0,536.363,335.787Z" transform="translate(-488.085 -318.846)"/></g></g></g><g transform="translate(654.161 1809.676)"><rect class="a" width="166.628" height="347.887" transform="translate(11.119 10.567)"/><g transform="translate(2.715 0)"><g transform="translate(0 0)"><g class="k" transform="matrix(1, 0, 0, 1, -468.88, -856.51)"><path class="b" d="M175.392,184.009q0-75.923,0-151.846c0-.911.012-1.823-.022-2.732a19.086,19.086,0,0,0-18.918-18.446c-5.242-.051-10.485-.019-15.727-.007-2.166,0-3.122.888-3.328,3.024-.11,1.133-.153,2.273-.3,3.4a6.521,6.521,0,0,1-3.742,5.167,7.761,7.761,0,0,1-3.645.713q-36.413-.02-72.826-.01c-.285,0-.57.006-.855,0a6.744,6.744,0,0,1-6.6-5.789c-.178-1.179-.212-2.379-.327-3.568-.206-2.145-1.03-2.927-3.179-2.934-5.242-.015-10.487-.1-15.727.02a18.673,18.673,0,0,0-16.064,9.115,20.142,20.142,0,0,0-2.9,11.239q.02,152.443.011,304.886a10.693,10.693,0,0,0,.016,1.536,38.62,38.62,0,0,0,.895,5.368,18.978,18.978,0,0,0,18.3,13.54q26.412.039,52.824.008c24.275,0,48.551.053,72.826-.03,8.258-.028,14.149-4.061,17.7-11.473a19.958,19.958,0,0,0,1.6-8.822q-.025-76.179-.012-152.358Zm8.19-98.745c1.978.486,2.049.559,2.049,2.441q.006,18.192,0,36.385c0,1.959-.054,2.016-2.05,2.594v2.338q0,105.481.012,210.962a28.661,28.661,0,0,1-25.111,28.763,30.229,30.229,0,0,1-3.742.261q-62.061.02-124.122.007A28.575,28.575,0,0,1,2.481,346.787a32.675,32.675,0,0,1-.761-7.1c-.077-11.33-.035-22.662-.035-33.993,0-55.687,0-256.646,0-257.437,0-6.548-.069-13.1.018-19.644a28.05,28.05,0,0,1,8.871-20.6A27.551,27.551,0,0,1,30.174.038Q92.662-.037,155.15.027a28.593,28.593,0,0,1,28.092,24.341,33.378,33.378,0,0,1,.325,4.759q.033,26.989.014,53.979Z" transform="translate(467.22 856.51)"/></g></g></g><path class="c" d="M0,0H0A3.071,3.071,0,0,1,3.071,3.071V31.3A3.071,3.071,0,0,1,0,34.374H0a0,0,0,0,1,0,0V0A0,0,0,0,1,0,0Z" transform="translate(3.071 161.289) rotate(180)"/><path class="c" d="M0,0H0A3.071,3.071,0,0,1,3.071,3.071V31.3A3.071,3.071,0,0,1,0,34.374H0a0,0,0,0,1,0,0V0A0,0,0,0,1,0,0Z" transform="translate(3.071 118.17) rotate(180)"/><path class="c" d="M0,0H0A3.071,3.071,0,0,1,3.071,3.071V15.438A3.071,3.071,0,0,1,0,18.509H0a0,0,0,0,1,0,0V0A0,0,0,0,1,0,0Z" transform="translate(3.071 63.936) rotate(180)"/><path class="c" d="M0,0H0A3.071,3.071,0,0,1,3.071,3.071V45.509A3.071,3.071,0,0,1,0,48.58H0a0,0,0,0,1,0,0V0A0,0,0,0,1,0,0Z" transform="translate(184.884 81.357)"/><g transform="translate(70.166 8.288)"><rect class="d" width="23.81" height="3.478" rx="1.739" transform="translate(11.211 1.739)"/><g transform="translate(0 0)"><ellipse class="e" cx="3.478" cy="3.478" rx="3.478" ry="3.478" transform="translate(40.534)"/><ellipse class="f" cx="2.305" cy="2.305" rx="2.305" ry="2.305" transform="translate(0 1.173)"/><ellipse class="g" cx="1.49" cy="1.49" rx="1.49" ry="1.49" transform="translate(42.521 1.987)"/></g></g><g transform="translate(46.883 156.874)"><g transform="translate(0 0)"><path class="h" d="M393.042,333.523a.59.59,0,0,1-.582-.583V321.287a.583.583,0,0,1,1.165,0v11.071H401.2a.583.583,0,0,1,0,1.165Z" transform="translate(-392.46 -317.902)"/><path class="h" d="M429.31,322.862a.559.559,0,0,1-.173-.41v-1.165a.583.583,0,0,1,1.165,0v1.165a.58.58,0,0,1-.992.41Zm0,10.488a.559.559,0,0,1-.173-.41v-8.158a.583.583,0,0,1,1.165,0v8.158a.58.58,0,0,1-.992.41Z" transform="translate(-418.546 -317.902)"/><path class="h" d="M441.305,342.021a.514.514,0,0,1-.2-.246l-3.5-8.157a.543.543,0,0,1-.018-.455.553.553,0,0,1,.31-.31.545.545,0,0,1,.455-.018.556.556,0,0,1,.31.31l2.968,6.919,2.968-6.919a.554.554,0,0,1,.31-.31.546.546,0,0,1,.455.018.556.556,0,0,1,.31.31.545.545,0,0,1-.018.455l-3.5,8.157a.514.514,0,0,1-.2.246.586.586,0,0,1-.655,0Z" transform="translate(-424.529 -326.5)"/><path class="h" d="M469.457,341.86a3.009,3.009,0,0,1-1.438-.874,2.953,2.953,0,0,1-.71-1.484,11.232,11.232,0,0,1-.164-2.03,7.053,7.053,0,0,1,.273-2.1,3.243,3.243,0,0,1,2.285-2.285,7.052,7.052,0,0,1,2.1-.273,7.252,7.252,0,0,1,1.976.237,3.73,3.73,0,0,1,1.393.71,3.317,3.317,0,0,1,.892,1.274,5.957,5.957,0,0,1,.383,1.821.74.74,0,0,1-.036.237.514.514,0,0,1-.128.2.446.446,0,0,1-.182.137.6.6,0,0,1-.237.046H468.31a8.9,8.9,0,0,0,.137,1.757,2.12,2.12,0,0,0,.446.992,2.074,2.074,0,0,0,1.047.565,7.7,7.7,0,0,0,1.866.182,5.658,5.658,0,0,0,2.2-.291,2.126,2.126,0,0,0,.819-.6.558.558,0,0,1,.373-.228.507.507,0,0,1,.428.1.534.534,0,0,1,.246.365.541.541,0,0,1-.1.437,2.86,2.86,0,0,1-1.448,1.056,7.871,7.871,0,0,1-2.522.328A8.359,8.359,0,0,1,469.457,341.86Zm.683-7.693a2.287,2.287,0,0,0-1.047.592,1.971,1.971,0,0,0-.446.638,3.765,3.765,0,0,0-.264.91h6.828a3.713,3.713,0,0,0-.282-.974,1.948,1.948,0,0,0-.519-.683,2.379,2.379,0,0,0-1.029-.51,6.511,6.511,0,0,0-1.575-.164A6.138,6.138,0,0,0,470.14,334.167Z" transform="translate(-445.578 -326.513)"/><path class="h" d="M582.1,333.958a3.721,3.721,0,0,1,.711,1.429,7.992,7.992,0,0,1,.237,2.085v4.078a.583.583,0,0,1-1.165,0v-4.078a7.227,7.227,0,0,0-.164-1.675,2.536,2.536,0,0,0-.51-1.074,1.916,1.916,0,0,0-.874-.564,5.208,5.208,0,0,0-2.731,0,1.915,1.915,0,0,0-.874.564,2.531,2.531,0,0,0-.51,1.074,7.228,7.228,0,0,0-.164,1.675v4.078a.583.583,0,0,1-1.165,0v-8.157a.583.583,0,0,1,1.165,0v.346a3.033,3.033,0,0,1,1.22-.7,5.7,5.7,0,0,1,1.693-.227,5.4,5.4,0,0,1,1.848.282A3.068,3.068,0,0,1,582.1,333.958Z" transform="translate(-522.207 -326.513)"/><path class="h" d="M614.739,333.958a3.719,3.719,0,0,1,.71,1.429,7.984,7.984,0,0,1,.237,2.085v4.078a.583.583,0,0,1-1.165,0v-4.078a7.249,7.249,0,0,0-.164-1.675,2.536,2.536,0,0,0-.51-1.074,1.916,1.916,0,0,0-.874-.564,5.209,5.209,0,0,0-2.732,0,1.917,1.917,0,0,0-.874.564,2.537,2.537,0,0,0-.51,1.074,7.235,7.235,0,0,0-.164,1.675v4.078a.583.583,0,0,1-1.165,0v-8.157a.583.583,0,0,1,1.165,0v.346a3.036,3.036,0,0,1,1.22-.7,5.7,5.7,0,0,1,1.693-.227,5.4,5.4,0,0,1,1.848.282A3.07,3.07,0,0,1,614.739,333.958Z" transform="translate(-545.423 -326.513)"/><path class="h" d="M641.87,341.86a3.009,3.009,0,0,1-1.439-.874,2.955,2.955,0,0,1-.71-1.484,11.226,11.226,0,0,1-.164-2.03,7.041,7.041,0,0,1,.273-2.1,3.243,3.243,0,0,1,2.285-2.285,7.053,7.053,0,0,1,2.1-.273,7.255,7.255,0,0,1,1.976.237,3.725,3.725,0,0,1,1.393.71,3.315,3.315,0,0,1,.892,1.274,5.954,5.954,0,0,1,.382,1.821.744.744,0,0,1-.036.237.514.514,0,0,1-.128.2.446.446,0,0,1-.182.137.6.6,0,0,1-.237.046h-7.556a8.91,8.91,0,0,0,.136,1.757,2.124,2.124,0,0,0,.446.992,2.072,2.072,0,0,0,1.047.565,7.691,7.691,0,0,0,1.866.182,5.658,5.658,0,0,0,2.2-.291,2.121,2.121,0,0,0,.819-.6.559.559,0,0,1,.373-.228.508.508,0,0,1,.428.1.535.535,0,0,1,.246.365.541.541,0,0,1-.1.437,2.856,2.856,0,0,1-1.448,1.056,7.87,7.87,0,0,1-2.522.328A8.358,8.358,0,0,1,641.87,341.86Zm.683-7.693a2.288,2.288,0,0,0-1.047.592,1.962,1.962,0,0,0-.446.638,3.748,3.748,0,0,0-.264.91h6.828a3.708,3.708,0,0,0-.282-.974,1.948,1.948,0,0,0-.519-.683,2.382,2.382,0,0,0-1.029-.51,6.511,6.511,0,0,0-1.575-.164A6.139,6.139,0,0,0,642.553,334.167Z" transform="translate(-568.204 -326.513)"/><path class="h" d="M678.181,341.86a3.242,3.242,0,0,1-2.285-2.285,8.235,8.235,0,0,1,0-4.206,3.242,3.242,0,0,1,2.285-2.285,7.052,7.052,0,0,1,2.1-.273,7.338,7.338,0,0,1,1.912.218,3.866,3.866,0,0,1,1.366.655.6.6,0,0,1,.091.82.533.533,0,0,1-.382.228.566.566,0,0,1-.437-.137,2.73,2.73,0,0,0-1.029-.464,6.462,6.462,0,0,0-1.52-.155,6.138,6.138,0,0,0-1.666.191,2.246,2.246,0,0,0-1.638,1.639,7.357,7.357,0,0,0,0,3.332,2.246,2.246,0,0,0,1.638,1.639,6.136,6.136,0,0,0,1.666.191,6.45,6.45,0,0,0,1.52-.154,2.728,2.728,0,0,0,1.029-.465.565.565,0,0,1,.437-.136.533.533,0,0,1,.382.228.6.6,0,0,1-.091.819,3.865,3.865,0,0,1-1.366.656,7.33,7.33,0,0,1-1.912.219A7.039,7.039,0,0,1,678.181,341.86Z" transform="translate(-593.854 -326.513)"/><path class="h" d="M712.344,332.357a.583.583,0,0,1,0,1.165,10.35,10.35,0,0,1-1.93-.155,2.35,2.35,0,0,1-1.994-1.994,10.319,10.319,0,0,1-.155-1.93v-8.157a.583.583,0,0,1,1.165,0V324.2h2.913a.583.583,0,0,1,0,1.165H709.43v4.079a8.966,8.966,0,0,0,.109,1.6,1.323,1.323,0,0,0,1.2,1.2A8.967,8.967,0,0,0,712.344,332.357Z" transform="translate(-617.07 -317.902)"/><path class="c" d="M534.7,336.014a6.195,6.195,0,1,1,0-12.389v-1.593a7.788,7.788,0,1,0,0,15.575Z" transform="translate(-488.085 -318.846)"/><ellipse class="c" cx="4.425" cy="4.425" rx="4.425" ry="4.425" transform="translate(42.188 6.549)"/><path class="c" d="M530.195,330.739a9.38,9.38,0,1,1,0-17.533.8.8,0,0,0,1.084-.74h0a.8.8,0,0,0-.511-.744,10.973,10.973,0,1,0,0,20.5.8.8,0,0,0,.511-.745h0A.8.8,0,0,0,530.195,330.739Z" transform="translate(-480.238 -311)"/><path class="c" d="M536.363,335.787a6.195,6.195,0,1,1-.019-11.941.788.788,0,0,0,1.008-.751v-.026a.789.789,0,0,0-.584-.759,7.788,7.788,0,1,0,.025,15.01.776.776,0,0,0,.559-.751v-.028A.781.781,0,0,0,536.363,335.787Z" transform="translate(-488.085 -318.846)"/></g></g></g></g></svg>