<svg xmlns="http://www.w3.org/2000/svg" xmlns:xlink="http://www.w3.org/1999/xlink" width="700" height="700" viewBox="0 0 700 700"><defs><style>.a,.e{fill:#fff;}.a{stroke:#707070;}.b{clip-path:url(#a);}.c{fill:url(#b);}.d{fill:url(#c);}.f{fill:#00d3b4;}.g{fill:url(#d);}.h{fill:url(#e);}.i{fill:url(#f);}.j{fill:#674cf3;}.k{fill:#ffca55;}.l{fill:#ffc655;}.m{fill:#ffbc55;}.n{fill:#ffa655;}.o{fill:#ffd255;}.p{fill:#ef3a3a;}.q{fill:#b7ceff;}.r{fill:#eea886;}.s{fill:#e8e8e8;}.t{fill:#8039db;}.u{fill:#3a3f47;}.v{fill:#a77860;}.w{fill:#b0b0b0;}.x{fill:#7f17e2;}.y{fill:#faa146;}.z{fill:#5478b3;}.aa{fill:#e55353;}.ab{fill:#434343;}.ac{fill:#b57433;}.ad{fill:#525252;}.ae{fill:#414141;}.af{fill:#6e6e6e;}.ag{fill:#464240;}.ah{fill:#eb4747;}.ai{fill:#51578c;}.aj{fill:#02af92;}.ak{fill:#48484d;}.al{fill:#5c5049;}.am{fill:#fab46c;}.an{fill:#d4c3bd;}.ao{fill:#de9673;}.ap{fill:#e6d3cc;}.aq{fill:#ded1c5;}.ar{fill:#bc8551;}.as{fill:#807066;}.at{fill:#eea987;}.au{fill:#214361;}.av{fill:#db9c7c;}.aw{fill:#fccca2;}</style><clipPath id="a"><rect class="a" width="700" height="700" transform="translate(1104 2433)"/></clipPath><linearGradient id="b" y1="0.5" x2="1" y2="0.5" gradientUnits="objectBoundingBox"><stop offset="0" stop-color="#8039db"/><stop offset="1" stop-color="#674cf3"/></linearGradient><linearGradient id="c" x1="0.852" y1="0.317" x2="-0.42" y2="0.914" xlink:href="#b"/><linearGradient id="d" x1="0.785" y1="0.151" x2="0.462" y2="0.46" xlink:href="#b"/><linearGradient id="e" x1="-0.001" y1="0.5" x2="1" y2="0.5" gradientUnits="objectBoundingBox"><stop offset="0" stop-color="#ff9340"/><stop offset="1" stop-color="#ffce45"/></linearGradient><linearGradient id="f" x1="-0.002" y1="0.501" x2="1" y2="0.501" gradientUnits="objectBoundingBox"><stop offset="0" stop-color="#c97332"/><stop offset="1" stop-color="#ffce45"/></linearGradient></defs><g class="b" transform="translate(-1104 -2433)"><g transform="translate(1104 2605.415)"><path class="c" d="M26.813,340.2H663.306s50.124-2.45,24.222,23.452-125.661,19.672-187.476,56.775c-61.815,37.033-51.874-17.5-133.011-20.582S38.154,391.585,35.914,368.974C33.673,346.222-.139,340.691,26.813,340.2Z" transform="translate(5.04 -78.099)"/><g transform="translate(149.498 94.391)"><path class="d" d="M119.454,212.5c5.32-2.52,10.571,14.351,10.571,14.351,9.031,11.9,21.632-3.92,20.372,13.861-2.17,31.153,35.913,9.8,18.342,42.354s15.471,18.412,4.62,44.664c-10.921,26.252,3.22,57.545-13.161,44.664,0,0-14.421-31.713-29.332-41.513s8.961-21.422,4.27-34.723c-6.791-19.322-23.1-18.552-11.341-39.343S101.463,221.115,119.454,212.5Z" transform="translate(-114.099 -212.247)"/><g transform="translate(21.317 33.089)"><path class="e" d="M160.323,352.649c-7.141-4.97-15.471-39.833-15.961-60.625-.28-10.641-3.43-15.051-6.161-18.972-2.66-3.71-4.97-6.931-3.64-14.351,2.52-14.141-4.13-20.3-4.2-20.3l.77-.91c.28.28,7.281,6.581,4.62,21.422-1.26,6.931.84,9.8,3.43,13.511,2.73,3.85,6.16,8.611,6.371,19.6.56,22.262,9.031,55.165,15.4,59.715Z" transform="translate(-130.36 -237.49)"/></g><g transform="translate(45.156 80.994)"><path class="f" d="M157.33,343.879a16.585,16.585,0,0,1-3.01-.35,6.576,6.576,0,0,1-5.32-4.27c-1.89-5.46,2.52-14.421,6.161-18.692a27.294,27.294,0,0,0,5.46-17.642c-.14-1.68-.28-3.29-.42-4.69-.42-4.06-.77-7,.98-8.891,1.54-1.75,4.48-2.45,9.871-2.52,9.451-.07,13.231-3.99,16.241-7.141a17.925,17.925,0,0,1,3.92-3.43h0c4.69-2.59,9.731-2.94,11.9-.91,1.05.98,1.89,2.87.21,6.441a24.837,24.837,0,0,1-5.18,7c-2.17,2.24-3.64,3.71-2.87,6.651.21.7.35,1.4.56,2.1,1.47,4.97,3.08,10.641-5.46,14.491-1.82.84-3.43,1.47-4.9,2.03-5.951,2.31-9.591,3.78-13.651,12.321-.77,1.68-1.47,3.22-2.17,4.76C166.43,338.349,163.98,343.879,157.33,343.879ZM191.7,277.3a16.512,16.512,0,0,0-3.64,3.15c-3.15,3.29-7.071,7.421-17.081,7.491-4.97,0-7.771.7-9.031,2.1-1.4,1.54-1.12,4.27-.7,7.981.14,1.4.35,3.01.42,4.76a27.621,27.621,0,0,1-5.74,18.482c-3.57,4.27-7.631,12.741-5.95,17.571a5.312,5.312,0,0,0,4.48,3.5c8.051,1.61,10.291-3.43,13.931-11.761.7-1.54,1.4-3.08,2.17-4.76,4.27-9.031,8.261-10.571,14.281-12.951,1.47-.56,3.08-1.19,4.9-2.03,7.631-3.43,6.23-8.121,4.76-13.091-.21-.7-.42-1.4-.56-2.1-.91-3.57.91-5.39,3.15-7.771a22.84,22.84,0,0,0,4.97-6.651c.77-1.61,1.4-3.78.07-5.11-1.68-1.61-6.231-1.12-10.431,1.19Z" transform="translate(-148.546 -274.034)"/></g><g transform="translate(49.879 90.354)"><path class="f" d="M153.339,348.45l-1.19-.07c.07-1.12,1.54-27.092,11.971-34.723,11.481-8.331,15.051-17.361,16.8-23.382,2.03-7.071,12.321-9.031,12.811-9.1l.21,1.19c-.07,0-10.011,1.82-11.831,8.261-1.75,6.16-5.46,15.4-17.221,24.012C154.88,321.918,153.339,348.17,153.339,348.45Z" transform="translate(-152.149 -281.174)"/></g><path class="g" d="M180.79,232.539c-7.421-2.52-5.88,11.761-9.031,22.332s-34.933,4.62-21.562,31.153c13.3,26.532-16.871,8.891-7.841,31.993s.77,47.884,10.571,41.583,5.53-35.423,15.681-38.923c10.221-3.43,11.831-7.491,1.75-16.941-10.081-9.381,26.462-18.762,17.431-37.733C178.829,247.03,189.4,235.479,180.79,232.539Z" transform="translate(-105.848 -206.03)"/><g transform="translate(47.099 59.692)"><path class="e" d="M154.629,350.541c-.91-3.99-8.891-38.783-1.47-43.054,6.581-3.71,6.371-18.132,5.39-31.783-.91-12.041,14.631-17.711,15.261-17.922l.42,1.12c-.14.07-15.331,5.6-14.491,16.731,1.05,14,1.19,28.842-5.95,32.9-5.671,3.22-.42,31.223,2.03,41.723Z" transform="translate(-150.028 -257.783)"/></g><path class="h" d="M177.05,319.092l-10.641,40.253H142.747l-10.571-40.253Z" transform="translate(-108.479 -179.033)"/><path class="i" d="M177.033,319.092s-23.312,4.41-23.312,40.183H142.8l-10.571-40.183Z" transform="translate(-108.462 -179.033)"/></g><g transform="translate(304.876 115.09)"><path class="f" d="M261.962,228.037l-20.862.07a8.515,8.515,0,0,0-8.471,8.541l.07,18.972v3.08a1.1,1.1,0,0,0,1.89.77l1.05-1.05a9.311,9.311,0,0,1,6.721-2.8l19.672-.07a8.515,8.515,0,0,0,8.471-8.541l-.07-10.431A8.427,8.427,0,0,0,261.962,228.037Z" transform="translate(-232.63 -228.037)"/><path class="e" d="M249.494,238.739a1.89,1.89,0,1,1-1.89-1.89A1.882,1.882,0,0,1,249.494,238.739Z" transform="translate(-228.562 -225.298)"/><path class="e" d="M254.3,238.739a1.89,1.89,0,1,1-1.89-1.89A1.928,1.928,0,0,1,254.3,238.739Z" transform="translate(-227.068 -225.298)"/><path class="e" d="M244.848,238.793a1.89,1.89,0,1,1-1.89-1.89A1.926,1.926,0,0,1,244.848,238.793Z" transform="translate(-230.007 -225.282)"/></g><g transform="translate(340.929 10.011)"><path class="j" d="M271.054,147.877l28.772.14A10.771,10.771,0,0,1,310.537,158.8l-.14,25.692v4.27a1.428,1.428,0,0,1-2.45.98l-1.68-1.68a12.5,12.5,0,0,0-8.611-3.64l-26.812-.14A10.771,10.771,0,0,1,260.133,173.5l.07-14.911A10.831,10.831,0,0,1,271.054,147.877Z" transform="translate(-260.133 -147.877)"/></g><path class="e" d="M277.543,162.6a3.08,3.08,0,1,0,3.08-3.08A3.062,3.062,0,0,0,277.543,162.6Z" transform="translate(86.208 -134.247)"/><path class="e" d="M269.8,162.546a3.08,3.08,0,1,0,3.08-3.08A3.108,3.108,0,0,0,269.8,162.546Z" transform="translate(83.801 -134.264)"/><path class="e" d="M285.126,162.6a3.08,3.08,0,1,0,3.08-3.08A3.108,3.108,0,0,0,285.126,162.6Z" transform="translate(88.565 -134.247)"/><g transform="translate(506.913 0)"><path class="f" d="M445.28,140.24l-45.644.21A12.907,12.907,0,0,0,386.755,153.4l.21,38.923v5.53a2.208,2.208,0,0,0,3.78,1.54l2.03-2.03a17.1,17.1,0,0,1,12.251-5.11l40.463-.21a12.907,12.907,0,0,0,12.881-12.951l-.14-25.972A12.907,12.907,0,0,0,445.28,140.24Z" transform="translate(-386.755 -140.24)"/><path class="e" d="M417.948,161.417a3.466,3.466,0,0,1-3.5,3.5,3.5,3.5,0,1,1,0-7A3.605,3.605,0,0,1,417.948,161.417Z" transform="translate(-379.235 -134.745)"/><path class="e" d="M426.653,161.417a3.5,3.5,0,1,1-3.5-3.5A3.466,3.466,0,0,1,426.653,161.417Z" transform="translate(-376.529 -134.745)"/><path class="e" d="M409.4,161.471a3.466,3.466,0,0,1-3.5,3.5,3.5,3.5,0,1,1,3.5-3.5Z" transform="translate(-381.891 -134.728)"/></g><g transform="translate(630.963 38.293)"><path class="j" d="M530.6,169.452l-35.563.14a13.684,13.684,0,0,0-13.651,13.721l.14,31.923v6.021a1.481,1.481,0,0,0,2.52,1.05l1.96-1.96a17.446,17.446,0,0,1,12.321-5.18l32.343-.14a13.684,13.684,0,0,0,13.651-13.721l-.07-18.2A13.493,13.493,0,0,0,530.6,169.452Z" transform="translate(-481.388 -169.452)"/></g><path class="e" d="M511.2,187.528a3.745,3.745,0,1,1-3.78-3.71A3.706,3.706,0,0,1,511.2,187.528Z" transform="translate(156.515 -126.693)"/><path class="e" d="M520.6,187.475a3.745,3.745,0,1,1-3.78-3.71A3.75,3.75,0,0,1,520.6,187.475Z" transform="translate(159.437 -126.71)"/><path class="e" d="M502.016,187.582a3.745,3.745,0,1,1-3.78-3.71A3.663,3.663,0,0,1,502.016,187.582Z" transform="translate(153.659 -126.677)"/><g transform="translate(0 38.083)"><path class="j" d="M14.615,169.292l46.764.21A14.371,14.371,0,0,1,75.66,183.923l-.21,40.323V231.6a1.709,1.709,0,0,1-2.94,1.19l-5.46-5.53a10.721,10.721,0,0,0-7.491-3.15l-45.224-.21A14.163,14.163,0,0,1,.054,209.616l.14-25.972A14.341,14.341,0,0,1,14.615,169.292Z" transform="translate(-0.053 -169.292)"/></g><path class="e" d="M25.581,191.293a4.27,4.27,0,1,0,4.27-4.27A4.287,4.287,0,0,0,25.581,191.293Z" transform="translate(7.883 -125.697)"/><path class="e" d="M14.9,191.293a4.27,4.27,0,1,0,4.27-4.27A4.287,4.287,0,0,0,14.9,191.293Z" transform="translate(4.562 -125.697)"/><path class="e" d="M36.048,191.346a4.27,4.27,0,1,0,4.27-4.27A4.243,4.243,0,0,0,36.048,191.346Z" transform="translate(11.136 -125.681)"/><path class="k" d="M213.151,247.98a8.016,8.016,0,1,0-16.031.07,3.781,3.781,0,0,0,.07,1.19c.07.28.07.56.14.77.56,2.38,2.38,7.281,7.911,15.611,5.39-8.4,7.141-13.3,7.631-15.681a3.612,3.612,0,0,0,.14-.77A3.12,3.12,0,0,0,213.151,247.98Zm-7.981,5.04a5.006,5.006,0,1,1,4.97-5.04A5,5,0,0,1,205.171,253.021Z" transform="translate(61.202 -109.229)"/><g transform="translate(115.16 62.826)"><path class="l" d="M0,0H24.643V16.872H0Z" transform="translate(3.405 0) rotate(11.543)"/><path class="m" d="M87.9,202.411l13.931-6.791,10.221,11.691Z" transform="translate(-87.904 -185.851)"/><path class="n" d="M114.619,193.1l-14.141,7.841L90.467,188.2Z" transform="translate(-87.107 -188.158)"/></g><g transform="translate(452.397 21.231)"><path class="o" d="M363.14,186.17a5.964,5.964,0,0,1-3.5,0,4.006,4.006,0,0,1-2.59-2.38,26.661,26.661,0,0,0-3.85-5.46,11.144,11.144,0,1,1,12.6-4.69,22.889,22.889,0,0,0,.98,6.3c.91,2.31-.49,5.04-3.15,6.091A2.853,2.853,0,0,1,363.14,186.17Zm-10.011-28.282a10.282,10.282,0,0,0,.42,19.672h.14l.07.07a27.593,27.593,0,0,1,4.13,5.74h0a3.345,3.345,0,0,0,2.1,1.89,4.66,4.66,0,0,0,3.22-.14c2.17-.91,3.36-3.08,2.66-4.9h0a26.135,26.135,0,0,1-.98-6.651v-.14l.07-.14a10.079,10.079,0,0,0,1.19-8.821A10.384,10.384,0,0,0,353.129,157.887Z" transform="translate(-345.168 -156.436)"/><g transform="translate(8.592 13.282)"><path class="o" d="M357.742,180.29l-6.021-10.711,3.15.98.84-2.24,1.89.98,1.4-2.73,3.29,11.831-.91.28-2.66-9.591-.77,1.47-1.75-.91-.77,2.03-1.75-.56,4.83,8.751Z" transform="translate(-351.722 -166.568)"/></g><g transform="translate(14.214 27.11)"><path class="o" d="M.006.016h7.91v3.22H.006Z" transform="translate(0 2.935) rotate(-21.871)"/></g><g transform="translate(11.817 23.531)"><path class="o" d="M.01.021h10.5v5.11H.01Z" transform="translate(0 3.896) rotate(-21.871)"/></g></g><g transform="translate(525.604 98.135)"><g transform="translate(0.194 13.821)"><path class="p" d="M564.782,290.525c0,63.145-1.82,75.466-17.641,89.607-6.231,5.53-17.642,17.011-50.544,22.752a240.647,240.647,0,0,1-35.913,3.29,127.9,127.9,0,0,1-15.961-.56,83.583,83.583,0,0,1-11.271-1.96c-36.193-9.1-38.923-40.113-23.1-66.155a149.843,149.843,0,0,1,14-19.182c7.771-9.171,16.031-17.291,23.592-24.852,6.931-7,13.231-13.511,17.781-19.952a48.978,48.978,0,0,0,4.76-8.121c.28-.63.56-1.26.91-1.89.98-2.03,1.96-3.99,3.01-5.88,1.89-3.57,3.85-6.791,5.67-9.661,1.47-2.31,2.94-4.41,4.27-6.3a102.731,102.731,0,0,1,8.051-9.941s.42-.21,1.19-.56c.42-.21.98-.42,1.54-.63.28-.07.49-.21.77-.28s.56-.21.84-.28.56-.21.84-.28c.35-.14.7-.21,1.12-.35.21-.07.42-.14.7-.21.14-.07.28-.07.42-.14.07,0,.14,0,.14-.07a71.529,71.529,0,0,1,18.132-3.22C539.02,224.79,564.782,235.011,564.782,290.525Z" transform="translate(-401.162 -225.646)"/></g><g transform="translate(67.36 170.548)"><path class="q" d="M464.637,348.357a37.338,37.338,0,0,0,1.19,6.091c.7,1.89,4.41,6.16,2.87,10.291-1.68,4.48-9.171.14-12.251-1.19-3.01-1.4-2.38-3.85-2.66-6.861-.35-3.01-1.82-3.15-1.26-5.25.56-2.17,3.85-6.231,3.85-6.231Z" transform="translate(-452.4 -345.206)"/></g><g transform="translate(70.916 168.307)"><path class="r" d="M457,343.5s-1.89,2.66-1.89,2.73c.07.07,8.191,5.04,8.751,3.43a18.94,18.94,0,0,0,.63-3.15Z" transform="translate(-455.113 -343.497)"/></g><g transform="translate(32.126 176.568)"><path class="q" d="M438.619,349.939a31.331,31.331,0,0,0-4.69,5.53c-2.24,3.36-8.121,3.5-8.4,8.051s8.051,4.69,12.391,3.22,5.04-5.951,7.631-7.071c2.66-1.12,3.99-2.03,3.78-4.2a26.1,26.1,0,0,0-1.68-5.67,14.6,14.6,0,0,1-9.031.14Z" transform="translate(-425.521 -349.799)"/></g><g transform="translate(44.314 39.707)"><path class="s" d="M465.622,258.765s-1.68,9.941-3.01,16.451h0a44.322,44.322,0,0,1-1.33,5.39c-.42.84-3.5,4.2-7.351,8.121-6.721,6.931-15.611,15.611-15.611,15.611l-3.5-6.581s7.911-9.241,13.231-15.4c2.45-2.87,4.41-5.04,4.76-5.39,1.12-.98,2.45-10.851,4.27-18.972a32.729,32.729,0,0,1,5.46-12.6Z" transform="translate(-434.819 -245.393)"/></g><g transform="translate(44.314 76.81)"><path class="r" d="M453.931,280.068C447.21,287,438.319,295.68,438.319,295.68l-3.5-6.581s7.911-9.241,13.231-15.4A11.265,11.265,0,0,1,453.931,280.068Z" transform="translate(-434.819 -273.698)"/></g><g transform="translate(45.224 173.628)"><path class="r" d="M435.933,347.556l-.42,3.01a14.924,14.924,0,0,0,9.1-.14l.07-2.73Z" transform="translate(-435.513 -347.556)"/></g><g transform="translate(61.185 34.106)"><path class="s" d="M493.4,304.476c.28.91-45.714,0-45.714,0s12.741-9.241,13.511-11.761c.84-2.45-3.22-17.291-3.78-22.122-.42-3.85-1.47-21.142,1.05-23.8,2.66-2.73,12.251-5.67,12.251-5.67l14,.49a21.128,21.128,0,0,1,3.92,1.26c1.68.77,11.061,4.13,12.6,8.821s-9.381,19.882-9.381,19.882,0,.7-.07,1.82h0c-.07,1.47-.14,3.78-.14,6.231-.07,3.15-.14,6.651-.14,9.241A104.575,104.575,0,0,0,493.4,304.476Z" transform="translate(-447.69 -241.121)"/></g><g transform="translate(28.809 95.011)"><path class="t" d="M501.081,290.033s6.231,9.171,6.371,15.471c.07,6.3-11.131,27.3-12.811,30.243-5.11,9.031-19.042,28.492-19.042,28.492s-2.38-.07-9.941-3.01c0,0,9.311-25.762,10.431-28.422,4.97-11.341,7.771-19.392,6.091-21.282-1.68-1.96-6.231-3.92-7.561-5.04s-24.432,4.34-26.812,4.97c-6.231,1.61-3.43,12.531-2.03,17.431,2.31,8.191,4.34,37.663,4.34,37.663s-4.48,1.89-11.9.28c0,0-14.7-53.274-15.121-58.595-.49-5.32-.7-14,35.423-20.652Z" transform="translate(-422.991 -287.583)"/></g><g transform="translate(78.356 3.604)"><path class="r" d="M470.57,218.042s-12.111-2.73-9.381,12.531c2.8,15.261,5.67,16.451,13.021,13.3s6.651-12.951,7-17.711C481.561,221.332,474.42,218.182,470.57,218.042Z" transform="translate(-460.788 -217.852)"/></g><g transform="translate(84.917 18.844)"><path class="r" d="M465.794,248.731s5.39,5.671,13.861.49c0,0-1.89-12.321-.91-18.342s-11.061,9.311-11.061,9.311c.14.07.28.63.28,1.47a15.667,15.667,0,0,1-.14,2.45C467.614,246.071,466.984,248.241,465.794,248.731Z" transform="translate(-465.794 -229.478)"/></g><g transform="translate(77.679)"><path class="u" d="M480.811,234.858s-.28-4.83-2.1-4.97-2.03,1.82-2.03,1.82l-1.75.35s.56-4.2-1.19-4.97S462.4,229.4,461,228.137s-.77-9.8,1.82-10.991c2.52-1.19,9.591-3.78,14.7-.28,0,0,3.99-.49,4.62,2.8C482.7,222.887,481.861,232.408,480.811,234.858Z" transform="translate(-460.272 -215.103)"/></g><g transform="translate(86.947 25.425)"><path class="v" d="M467.342,242.55c8.751-2.73,9.451-7.981,9.451-8.051-2.87,4.97-9.311,5.6-9.311,5.6A15.664,15.664,0,0,1,467.342,242.55Z" transform="translate(-467.342 -234.499)"/></g><g transform="translate(80.462 33.344)"><path class="r" d="M484.282,243.192s-6.44,12.741-16.8,11.971c-10.361-.84-1.75-13.651-1.33-13.791C466.71,241.232,476.861,238.712,484.282,243.192Z" transform="translate(-462.395 -240.54)"/></g><g transform="translate(55.935 92.841)"><path class="s" d="M443.684,289.918s31.783,3.92,50.964.63l-36.753-4.62S457.685,286.908,443.684,289.918Z" transform="translate(-443.684 -285.927)"/></g><g transform="translate(77.286 91.441)"><path class="r" d="M462.353,284.859l-2.38,1.19s.56,3.78,1.82,4.9l2.66-.7C464.523,290.25,463.963,286.119,462.353,284.859Z" transform="translate(-459.973 -284.859)"/></g><g transform="translate(79.667 43.532)"><path class="s" d="M498.541,288.52c-.49.56-6.721,3.08-13.791,5.741h0c-9.661,3.71-20.512,7.211-20.512,7.211l-2.45-5.32s11.411-6.16,19.042-10.5c3.64-2.03,6.44-3.71,6.861-4.06,1.26-1.19,1.54-3.08.63-6.371s-3.01-18.412-3.22-20.162.56-6.511,4.97-6.721,6.651.98,6.651.98,1.12.49,1.96,11.2S499.662,287.19,498.541,288.52Z" transform="translate(-461.788 -248.312)"/></g><g transform="translate(102.678 53.498)"><path class="w" d="M482.024,268.8h0c-.07,1.47-.14,3.78-.14,6.231-4.34-10.571-1.82-18.972-1.75-19.112C479.643,258.714,481.953,268.655,482.024,268.8Z" transform="translate(-479.343 -255.914)"/></g><g transform="translate(70.084 58.748)"><path class="w" d="M456.5,270.77h0a44.313,44.313,0,0,1-1.33,5.39c-1.47-7.141-.14-16.241-.14-16.241A82.248,82.248,0,0,0,456.5,270.77Z" transform="translate(-454.478 -259.919)"/></g><g transform="translate(79.667 80.938)"><path class="r" d="M484.75,285.39h0c-9.661,3.71-20.862,7.351-20.862,7.351l-2.1-5.39s11.411-6.161,19.042-10.5C480.9,276.779,483.7,278.179,484.75,285.39Z" transform="translate(-461.788 -276.847)"/></g><g transform="translate(33.883 96.481)"><path class="t" d="M472.016,289.335l-45.154-.63,22.752,11.551Z" transform="translate(-426.862 -288.704)"/></g><g transform="translate(54.885 97.111)"><path class="x" d="M444.633,300.106l22.4-8.611v-2.31l-24.152,8.751Z" transform="translate(-442.883 -289.185)"/></g><g transform="translate(62.126 91.678)"><path class="r" d="M464.128,286.063s-2.8-.42-4.76-.91c-1.54-.35-5.25.14-6.231,1.12s-3.99,7.7-4.55,8.121.28,1.33,1.33.91c0,0,.91,2.94,3.22,1.82s3.85-3.5,5.04-3.92,8.191-2.59,8.191-2.59S465.878,285.363,464.128,286.063Z" transform="translate(-448.407 -285.04)"/></g><g transform="translate(62.27 92.491)"><path class="r" d="M453.8,285.66a16.682,16.682,0,0,0-2.31,1.26c-.49.42-2.38,1.82-2.87,2.17s.7,1.33,4.13-.21C456.183,287.411,453.8,285.66,453.8,285.66Z" transform="translate(-448.517 -285.66)"/></g><g transform="translate(0 71.419)"><path class="x" d="M457.649,306.2l-13.371-36.613-43.264.7,12.741,33.743Z" transform="translate(-401.014 -269.586)"/></g><g transform="translate(22.043 84.197)"><path class="t" d="M425.189,282.727c1.33,2.66.91,5.53-.91,6.44s-4.34-.49-5.67-3.15-.91-5.53.91-6.441C421.339,278.737,423.859,280.137,425.189,282.727Z" transform="translate(-417.83 -279.333)"/></g><g transform="translate(94.046 13.347)"><path class="r" d="M472.87,226.442c.14-1.33,2.8-1.82,3.01.21s-1.19,5.53-2.24,5.18C472.66,231.483,472.66,228.332,472.87,226.442Z" transform="translate(-472.758 -225.285)"/></g></g><g transform="translate(226.525 159.653)"><path class="y" d="M294.494,340.848c-.28,2.17-13.231,11.2-15.751,12.951-2.03,1.47-3.78,2.1-6.861,3.29h0c-7,1.82-50.894,14.911-50.894,14.911-.14-.42-.21-.84-.42-1.33-1.61.63-3.36,1.05-4.41,1.4-1.61.49-14.631.91-17.291,1.4s-7.981,1.33-10.081-.7c-2.17-2.03,1.33-6.441,4.27-7.561s13.791-1.4,15.751-1.61,4.48-.91,5.74-.49c.42.14,2.1-.35,4.27-1.12-.07-.77-.07-1.33-.07-1.33l11.551-3.29-2.1-20.442s5.04-18.9,25.062-4.48c0,0,4.48,1.33,6.021,1.75h.49c3.08-.21,16.171-4.2,20.932-4.2,5.11,0,6.721-.28,8.611.63C290.993,331.537,294.774,338.678,294.494,340.848Z" transform="translate(-168.118 -241.829)"/><path class="y" d="M278.653,372.705c-2.17,2.03-7.491,1.26-10.081.7-2.66-.49-15.611-.91-17.291-1.4a27.849,27.849,0,0,1-6.861-2.66,4.494,4.494,0,0,0-1.12-.49h0l-3.22,2.31-45.154-14.351a17.611,17.611,0,0,1-6.3-3.08c-2.38-2.03-15.4-10.851-15.751-12.951-.28-2.17,3.5-9.311,5.32-10.221s3.5-.63,8.611-.63,19.952,4.62,21.492,4.2a21.153,21.153,0,0,0,3.5-1.68c1.61-.91,3.15-1.82,3.15-1.82,21.912-9.8,24.362,6.231,24.362,6.231l-1.33,19.812s1.82.91,4.2,2.03l10.851,3.08-1.4,1.05a2.478,2.478,0,0,0,1.26.21c1.26-.42,3.78.28,5.74.49s12.741.49,15.751,1.61S280.823,370.605,278.653,372.705Z" transform="translate(-172.859 -241.694)"/><path class="z" d="M203.393,331.214c1.54.14,11.761,6.021,14.141,7.421-3.71-1.96-17.641-5.81-17.641-5.81A17.2,17.2,0,0,0,203.393,331.214Z" transform="translate(-164.455 -240.526)"/><path class="z" d="M247.617,332.944s-17.641,4.27-20.862,6.091c.14-.14,9.311-7.071,14.071-7.981,0,0,4.69,1.47,6.23,1.89Z" transform="translate(-156.105 -240.576)"/><path class="r" d="M261.931,364.316c-2.17,2.03-7.491,1.26-10.081.7-2.66-.49-15.611-.91-17.291-1.4-.49-.14-1.05-.28-1.68-.49h0a18.125,18.125,0,0,1-5.11-2.17,4.5,4.5,0,0,0-1.12-.49l8.191-5.88.21-.14a2.479,2.479,0,0,0,1.26.21c1.26-.42,3.78.28,5.74.49s12.741.49,15.751,1.61C260.671,357.876,264.1,362.216,261.931,364.316Z" transform="translate(-156.138 -233.305)"/><path class="e" d="M260.454,364.316c-2.17,2.03-7.491,1.26-10.081.7-2.66-.49-15.611-.91-17.291-1.4-.49-.14-1.05-.28-1.68-.49h0a8.6,8.6,0,0,0,1.89-8.541l.21-.14a2.479,2.479,0,0,0,1.26.21c1.26-.42,3.78.28,5.74.49s12.741.49,15.751,1.61C259.194,357.876,262.624,362.216,260.454,364.316Z" transform="translate(-154.66 -233.305)"/><path class="aa" d="M206.018,334.632v.14C205.808,334.912,205.808,334.842,206.018,334.632Z" transform="translate(-162.6 -239.464)"/><path class="j" d="M271.061,325c-.14-.35-9.451-14.981-11.971-21.632s-8.611-9.731-11.411-10.711c-1.05-.35-2.87-.91-4.76-1.54-3.43-1.12-7.211-2.31-7.211-2.31h-11.9s-4.13,1.4-8.541,2.94h0a96.932,96.932,0,0,0-9.731,3.71c-3.01,1.47-8.051,12.181-9.031,13.441-1.05,1.26-8.891,15.821-10.011,21.422-.91,4.34,24.922,17.081,25.622,18.692.84-.91,4.55-4.48,4.55-4.48s-1.19-.77-2.87-1.89c6.931.35,23.8-.28,26.252-.14h1.54c.77.56,5.6,4.83,5.6,4.83s11.9-4.97,17.431-10.5C272.251,328.785,271.971,326.754,271.061,325ZM203.3,334.735c-2.59-3.08-6.091-4.9-5.18-6.3.91-1.33,8.4-14.281,8.4-14.281s3.85,8.541,4.97,12.951.98,6.441.56,7.841a19.926,19.926,0,0,0-1.12,5.74C207.846,338.586,204.485,336.135,203.3,334.735Zm52.714-1.47c-.98,1.12-4.97,3.64-8.541,5.741-.28-2.45-.7-6.371-.7-7.771-.07-2.1.84-8.191,1.89-10.5,1.12-2.31,1.82-8.681,1.82-8.681s9.031,12.251,10.431,13.581C262.38,326.895,259.44,329.415,256.01,333.265Z" transform="translate(-168.628 -253.708)"/><g transform="translate(51.259 2.186)"><path class="r" d="M223.163,263.785s9.311,1.47,7.911,16.031-9.661,13.371-10.221,13.371-8.261.28-8.891-17.571C212.032,275.686,211.752,262.525,223.163,263.785Z" transform="translate(-211.962 -263.7)"/></g><g transform="translate(69.981 13.744)"><path class="r" d="M226.774,273.015s1.05-1.12,1.4,0-1.4,6.021-1.47,6.231c0,0-.21.42-.42.21S226.774,273.015,226.774,273.015Z" transform="translate(-226.245 -272.517)"/></g><g transform="translate(50.142 13.534)"><path class="r" d="M212.577,272.855s-.98-1.12-1.4,0,1.26,6.021,1.33,6.3c0,0,.21.42.42.21C213.207,279.085,212.577,272.855,212.577,272.855Z" transform="translate(-211.11 -272.357)"/></g><g transform="translate(50.212)"><path class="ab" d="M231.462,278.514l-1.33,1.75a27.33,27.33,0,0,0-.21-4.55c-.21-.63-.56-2.52-.7-2.94-.21-.42-7.981-2.66-14.911.63,0,0,.28,2.8-.35,3.08s-.35,4.55-.35,4.55l-1.12-1.26s-1.68-11.2-1.26-12.391,1.75-8.191,15.891-4.06c0,0,4.41-.91,5.32,2.1C233.422,268.643,231.462,278.514,231.462,278.514Z" transform="translate(-211.163 -262.033)"/></g><path class="ac" d="M216.867,348.911s-14.281-8.541-20.512-9.871c-5.88-1.26-8.051-3.5-8.051-3.5s9.381,0,15.611,4.41C208.116,342.961,216.867,348.911,216.867,348.911Z" transform="translate(-168.058 -239.182)"/><path class="ac" d="M219.759,354.878s24.852-13.021,34.933-15.891c5.811-1.61,8.051-3.5,8.051-3.5s-15.331,1.47-24.712,7.141C233.62,345.358,219.759,354.878,219.759,354.878Z" transform="translate(-158.279 -239.198)"/><path class="r" d="M220.514,362.378c-1.61.63-3.36,1.05-4.41,1.4-1.61.49-14.631.91-17.291,1.4s-7.981,1.33-10.081-.7c-2.17-2.03,1.33-6.441,4.27-7.561s13.791-1.4,15.751-1.61,4.48-.91,5.74-.49c.42.14,2.1-.35,4.27-1.12C218.834,354.958,220.514,362.378,220.514,362.378Z" transform="translate(-168.135 -233.537)"/><path class="y" d="M219.759,361.471l24.432-7.211-4.83-1.47C239.291,352.72,219.829,359.791,219.759,361.471Z" transform="translate(-158.279 -233.82)"/><path class="ac" d="M219.759,360.242l11.411-3.5-7.911,4.55Z" transform="translate(-158.279 -232.591)"/><path class="ad" d="M213.894,337.209a5.055,5.055,0,0,0-.49-.28A1.753,1.753,0,0,1,213.894,337.209Z" transform="translate(-160.255 -238.75)"/><path class="e" d="M216.1,363.544c-1.61.49-14.631.91-17.291,1.4s-7.981,1.33-10.081-.7c-2.17-2.03,1.33-6.441,4.27-7.561s13.791-1.4,15.751-1.61,4.48-.91,5.74-.49A6.682,6.682,0,0,0,216.1,363.544Z" transform="translate(-168.135 -233.303)"/><path class="ae" d="M204.207,340.886l-3.78-21.422,48.584-1.12-3.15,21.072s-15.541,5.67-20.792,8.961C225.139,348.446,211.838,342.986,204.207,340.886Z" transform="translate(-164.289 -244.527)"/><path class="af" d="M222.763,329.842a2.768,2.768,0,1,1-2.73-3.22A3,3,0,0,1,222.763,329.842Z" transform="translate(-159.043 -241.954)"/><path class="r" d="M228.584,291.01h0c-.56-1.33-.28-7.7-.28-7.7s-11.9-3.01-11.551-.7-1.05,8.611-1.05,8.611l-6.091,2.1s6.511,17.432,13.931,15.191c7.491-2.24,10.291-15.821,10.291-15.821Z" transform="translate(-161.434 -255.907)"/><path class="v" d="M215.22,284.5a7.014,7.014,0,0,0,5.18,2.38c2.17,0,3.64-.56,5.88-2.66,0,0-.84,3.92-5.81,4.34C220.4,288.559,216.9,289.049,215.22,284.5Z" transform="translate(-159.691 -255.136)"/></g><g transform="translate(456.065 57.454)"><g transform="translate(15.915)"><path class="ag" d="M374.667,184.09s6.931-.7,9.381,5.95c2.52,6.651,4.83,8.821,5.11,12.321,1.19,14.141,7.771,10.991,5.951,19.112-1.89,8.191-3.15,9.381-3.15,9.381l-15.821-3.08-16.031.07s6.3-3.15,4.9-9.8-4.9-17.571-2.94-24.992S370.537,184.72,374.667,184.09Z" transform="translate(-360.106 -184.069)"/></g><g transform="translate(21.728 207.748)"><path class="ah" d="M368.879,353.662s-4.97,6.791-4.27,7.911,6.09,1.26,9.381,0,3.36-9.381,4.83-12.881c.63-1.47-.7-5.74-2.59-6.09a8.581,8.581,0,0,0-4.06.7S374.2,348.272,368.879,353.662Z" transform="translate(-364.541 -342.551)"/></g><g transform="translate(24.521 207.486)"><path class="r" d="M371.576,343.364a47.571,47.571,0,0,1-1.05,5.46c-.63,2.24-3.99,7.421-3.85,8.051s4.41,1.19,6.09-.42c1.75-1.61,3.08-6.3,3.22-9.1a15.387,15.387,0,0,0-.42-4.69A3.659,3.659,0,0,0,371.576,343.364Z" transform="translate(-366.672 -342.351)"/></g><g transform="translate(35.166 213.889)"><path class="ah" d="M375.7,347.236v7.281h-.91v-5.6Z" transform="translate(-374.793 -347.236)"/></g><g transform="translate(34.749 207.748)"><path class="ah" d="M378.812,353.662s-4.97,6.791-4.27,7.911,6.091,1.26,9.381,0,3.36-9.381,4.83-12.881c.63-1.47-.7-5.74-2.59-6.09a8.581,8.581,0,0,0-4.06.7S384.062,348.272,378.812,353.662Z" transform="translate(-374.474 -342.551)"/></g><g transform="translate(37.472 207.486)"><path class="r" d="M381.456,343.364a47.566,47.566,0,0,1-1.05,5.46c-.63,2.24-3.99,7.421-3.85,8.051s4.41,1.19,6.09-.42c1.75-1.61,3.08-6.3,3.22-9.1a15.386,15.386,0,0,0-.42-4.69A3.659,3.659,0,0,0,381.456,343.364Z" transform="translate(-376.552 -342.351)"/></g><g transform="translate(48.117 213.889)"><path class="ah" d="M385.652,347.236v7.281h-.98v-5.6Z" transform="translate(-384.672 -347.236)"/></g><g transform="translate(8.068 75.17)"><path class="r" d="M363.017,261.892s-3.78,20.652-4.76,25.832-3.85,30.173-4.13,34.443,9.241,24.712,9.871,26.112c10.011,23.662,11.131,28.982,11.131,28.982s3.29,2.03,4.83-.42c.49-.77-6.16-27.862-7.211-35.353-.98-7-3.64-17.782-2.94-20.232s7.211-36.263,8.4-37.663,3.01.84,3.78,3.92c.7,3.15,2.24,30.313,3.15,33.743s.21,15.121.7,21,2.59,33.323,2.59,33.323,4.06.7,4.48.07,3.92-30.453,4.06-37.453c.07-7,.21-16.661.42-19.672,1.89-28.982,5.39-32.763-.77-53.625C381.359,213.868,363.017,261.892,363.017,261.892Z" transform="translate(-354.12 -241.413)"/></g><g transform="translate(8.068 75.15)"><path class="y" d="M363.017,261.9s-3.78,20.652-4.76,25.832-3.85,30.172-4.13,34.443,8.891,24.712,9.1,26.252S371,371.666,371,371.666s7.7-.14,9.731-2.1c.42-.42-7.071-20.512-8.121-28.072-.98-7-3.64-17.781-2.94-20.232s7.211-36.263,8.4-37.663,3.01.84,3.78,3.92c.7,3.15,2.24,30.312,3.15,33.743s.21,15.121.7,21-.56,26.742-.56,26.742,10.081.56,10.431-.14c.42-.63,1.12-23.732,1.26-30.733.07-7,.21-16.661.42-19.672,1.89-28.982,5.39-32.763-.77-53.624C381.359,213.873,363.017,261.9,363.017,261.9Z" transform="translate(-354.12 -241.398)"/></g><g transform="translate(0 35.573)"><path class="f" d="M399.933,278.213c.56-.21-4.13-15.751-5.04-20.372-.84-4.2-3.71-7.981-.91-15.121a25.762,25.762,0,0,0,1.47-8.891s4.27,9.451,4.69,11.831c.42,2.45-14.771-1.96-14.981-1.68-.42.63-.84,4.76-.84,6.161,0,1.19,21.982,6.371,24.642,1.75.77-1.33-4.06-26.322-7.141-29.682-5.04-5.46-18.342-10.151-18.342-10.151s-3.64-1.96-10.081.07S358,220.388,356.46,222s-7.771,26.042-8.331,29.192c-.49,3.01-.28,9.241,6.511,8.471l18.342-4.2-1.12-5.6-13.721,1.12c-2.8.49-1.47-1.96-1.12-3.36.35-1.33,3.78-13.791,3.78-13.791-.21,3.43,2.38,14.771,3.78,18.692,1.33,3.92-1.61,24.852-1.82,27.162C362.69,279.753,373.681,288.854,399.933,278.213Z" transform="translate(-347.966 -211.206)"/></g><g transform="translate(23.672 35.836)"><path class="r" d="M380.809,213.255s-4.55,9.311-8.331,12.041c0,0-6.791-10.221-6.441-12.531C366.107,212.765,373.6,209.4,380.809,213.255Z" transform="translate(-366.024 -211.407)"/></g><g transform="translate(31.385 66.612)"><path class="r" d="M379.189,237.459a8.424,8.424,0,0,1-2.66-1.61c-.56-.77-2.45-1.19-3.78-.84-1.4.42-.63,6.3-.63,6.3l7.281.91Z" transform="translate(-371.908 -234.884)"/></g><g transform="translate(25.505 68.369)"><path class="r" d="M367.423,241.523a30.872,30.872,0,0,0,.56-4.55c-.14-.7,1.26-1.4,1.47.35s.28,2.87.28,2.87Z" transform="translate(-367.423 -236.224)"/></g><g transform="translate(26.205 62.041)"><path class="ai" d="M370.267,245.684l5.25-.21a1.2,1.2,0,0,0,1.19-1.26l.14-11.551a1.232,1.232,0,0,0-1.33-1.26l-6.3.21a1.335,1.335,0,0,0-1.26,1.4l.91,11.551A1.43,1.43,0,0,0,370.267,245.684Z" transform="translate(-367.957 -231.397)"/></g><g transform="translate(19.485 69.48)"><path class="r" d="M368.71,241.54s-.07-1.05,1.96-2.1c2.8-1.33,6.441-2.66,7.071-2.31.91.49.42,1.19-1.33,1.75s-2.31.77-2.31.77,3.43-.35,4.2.07.84,1.33.28,1.54c-.56.14-1.89.28-1.89.28s1.47.07,1.61.63c.14.42.14,1.05-1.19,1.33a1.006,1.006,0,0,1-.49,1.68,26.459,26.459,0,0,1-5.18,1.47,62.161,62.161,0,0,1-8.611.14l2.45-4.13a6.229,6.229,0,0,0,2.31-.21C368.85,241.96,368.71,241.54,368.71,241.54Z" transform="translate(-362.83 -237.073)"/></g><g transform="translate(12.834 74.297)"><path class="f" d="M368.747,240.747l1.19,5.6-11.691,2.66-.49-7.351Z" transform="translate(-357.756 -240.747)"/></g><g transform="translate(36.343 68.417)"><path class="f" d="M376.544,236.261a14.58,14.58,0,0,0-.84,6.161,68.607,68.607,0,0,0,12.881,3.29v-7.141Z" transform="translate(-375.69 -236.261)"/></g><g transform="translate(16.825 79.898)"><path class="aj" d="M368.991,245.02l-8.191,4.55c.07-.98.07-1.89.14-2.73Z" transform="translate(-360.801 -245.02)"/></g><g transform="translate(36.356 74.507)"><path class="aj" d="M385.851,246.928c-6.581-2.59-9.171-4.97-9.941-5.74a1.209,1.209,0,0,1-.21-.28l9.311,2.73h0C385.291,244.828,385.571,245.878,385.851,246.928Z" transform="translate(-375.7 -240.908)"/></g><g transform="translate(20.464 3.869)"><path class="r" d="M374.5,187.093s9.171,1.33,7.771,14.841c-1.33,13.511-9.381,12.391-9.941,12.391s-8.121.28-8.751-16.171C363.578,198.154,363.3,185.973,374.5,187.093Z" transform="translate(-363.577 -187.02)"/></g><g transform="translate(25.08 28.169)"><path class="r" d="M377.464,206.183s-.56,7,.77,9.1-1.19,4.97-6.3,3.99c-5.18-.98-4.83-3.92-4.83-3.92a21.215,21.215,0,0,0,1.05-7.771C367.663,204.082,377.464,206.183,377.464,206.183Z" transform="translate(-367.098 -205.558)"/></g><g transform="translate(19.582 1.79)"><path class="ag" d="M373.658,192.487s4.27,4.48,6.231,6.791c1.96,2.24,2.24,6.651,2.24,6.651s3.36-4.06,1.96-8.821-4.69-14-13.091-11.131-8.681,15.331-7.7,21.562C363.3,207.468,367.007,193.747,373.658,192.487Z" transform="translate(-362.904 -185.434)"/></g><g transform="translate(26.696 29.634)"><path class="v" d="M368.331,207.585a8.038,8.038,0,0,0,7.7-.91,4.875,4.875,0,0,1-3.85,2.45A3.612,3.612,0,0,1,368.331,207.585Z" transform="translate(-368.331 -206.675)"/></g><g transform="translate(15.507 32.994)"><path class="ag" d="M369.654,209.239s-12.6,11.2-9.311,18.2c2.8,5.951,12.671,2.31,11.061-3.92A73.779,73.779,0,0,1,369.654,209.239Z" transform="translate(-359.795 -209.239)"/></g><g transform="translate(27.256 63.656)"><path class="ak" d="M370.3,233.4a.77.77,0,1,1-.77-.77A.777.777,0,0,1,370.3,233.4Z" transform="translate(-368.758 -232.63)"/></g></g><g transform="translate(54.535 97.948)"><g transform="translate(81.137 118.02)"><path class="al" d="M112.722,366.318l-9.171-61.045,1.75-.28,9.171,61.045Z" transform="translate(-103.551 -304.993)"/></g><g transform="translate(69.936 118.02)"><path class="al" d="M104.177,366.318l-9.171-61.045,1.75-.28,9.171,61.045Z" transform="translate(-95.007 -304.993)"/></g><g transform="translate(22.122 118.02)"><path class="al" d="M60.281,366.318l-1.75-.28L67.7,304.993l1.82.28Z" transform="translate(-58.531 -304.993)"/></g><path class="am" d="M111.518,323.927l7.211-75.606s-12.6-1.61-20.162-1.26L87.156,323.927Z" transform="translate(-27.511 -204.997)"/><rect class="am" width="24.362" height="3.85" transform="translate(59.575 115.08)"/><path class="am" d="M75.823,320.819l-3.78-72.036s31.783-3.43,51.384-.49Z" transform="translate(-32.209 -204.969)"/><path class="ae" d="M101.634,235.392s4.9-14.421-4.48-18.9-17.361,1.96-18.832,5.46-1.12,9.871.21,14.281c1.26,4.41,1.12,11.2-1.68,13.441s-6.231,6.021-6.091,13.651c.14,4.76,18.622-12.111,18.622-12.111Z" transform="translate(-32.609 -214.96)"/><path class="an" d="M85.633,352.7s-.28,10.151,1.19,10.781,6.931-2.94,9.381-6.441-3.01-11.621-3.92-16.171c-.35-1.89-4.62-5.25-6.721-4.27a10.391,10.391,0,0,0-3.64,3.43S87.243,343.667,85.633,352.7Z" transform="translate(-29.138 -177.203)"/><g transform="translate(52.784 159.394)"><path class="ao" d="M81.922,339.985a55.644,55.644,0,0,1,2.73,6.16c.91,2.73,1.12,10.151,1.68,10.711.56.49,5.18-1.82,5.81-4.62s-1.26-8.4-3.01-11.271a17.662,17.662,0,0,0-3.57-4.41S82.412,337.185,81.922,339.985Z" transform="translate(-81.922 -336.555)"/></g><path class="an" d="M89.826,339.813l4.97,7.281-.98.63-3.78-5.6Z" transform="translate(-26.681 -176.149)"/><path class="ao" d="M80.624,279.466s2.45,4.06,0,7.071S61.933,297.668,62,302.428c.14,4.76,3.08,12.111,4.2,14,1.05,1.89,5.04,9.661,7.071,14.211S87.2,357.033,89.515,361.933s.91-19.672.91-19.672L78.524,307.4l27.792-27.022S102.956,272.886,80.624,279.466Z" transform="translate(-35.33 -195.749)"/><path class="p" d="M89.17,243.72s-7.7,1.68-10.781,3.5-9.871,10.011-9.871,13.511S98.2,267.592,98.2,267.592l5.6,20.582s14.981-3.64,16.8-6.721c1.82-3.01-5.88-24.642-7-29.192-1.05-4.55-6.721-7.631-12.951-8.541A44.05,44.05,0,0,0,89.17,243.72Z" transform="translate(-33.305 -206.136)"/><path class="r" d="M106.094,279.359s-.56,3.5.91,4.97c1.4,1.47,7.981,10.151,4.55,18.692-3.22,7.841-9.381,7.7-9.381,7.7H92.583s2.8,14.071,1.89,23.382-5.11,30.523-5.25,31.573c-.07,1.05-4.06,4.41-5.25,2.73,0,0-.14-12.811-.7-17.571-.63-4.83-3.29-24.152-4.06-26.952-.77-2.87-5.53-11.551-5.53-12.391,0-.91-4.62-14.911,5.46-18.482C89.153,289.44,92.723,279.429,106.094,279.359Z" transform="translate(-32.028 -194.941)"/><path class="ap" d="M79.006,357.9s-6.651,7.7-5.881,9.1,7.281,2.1,11.341.91,4.97-10.991,7.071-15.051c.91-1.68-.28-7-2.52-7.561a10.082,10.082,0,0,0-4.97.42S85.866,351.881,79.006,357.9Z" transform="translate(-31.892 -174.496)"/><g transform="translate(45.011 170.229)"><path class="r" d="M83.136,345.816a53.425,53.425,0,0,1-1.75,6.511c-.98,2.66-5.53,8.611-5.39,9.381s5.18,1.89,7.421.07c2.24-1.75,4.27-7.281,4.76-10.711a17.509,17.509,0,0,0,0-5.67S85.306,343.856,83.136,345.816Z" transform="translate(-75.992 -344.821)"/></g><path class="ap" d="M87.588,351.028l-.7,8.751-1.12-.07.56-6.791Z" transform="translate(-27.943 -172.662)"/><path class="p" d="M114.85,303.865c-3.01,7.911-9.381,7.7-9.381,7.7H95.879s-3.99-6.371-13.861-7.421a30,30,0,0,0-7.421.21h-.07c-13.021,1.96-10.5,6.721-10.5,6.861-1.05-2.66-2.24-6.861-1.96-9.1,1.26-10.291,16.171-12.461,18.622-15.471s0-7.071,0-7.071c22.332-6.581,25.692.91,25.692.91.98-.14,3.5-1.61,4.55-1.61,0,0,1.12,2.45,1.89,4.62C113.52,285.384,118.07,295.255,114.85,303.865Z" transform="translate(-35.324 -195.716)"/><path class="aq" d="M105.53,254.1l3.29,30.733H65.346L62.056,254.1Z" transform="translate(-35.314 -202.794)"/><rect class="aq" width="7.281" height="2.8" transform="translate(69.726 79.237)"/><rect class="ar" width="119.85" height="4.2" transform="translate(0 82.037)"/><path class="r" d="M90.533,218.1s9.731,2.87,8.331,16.381-7.771,12.811-8.331,12.951c-.63.07-8.191.63-10.571-15.821C77.582,215.226,90.533,218.1,90.533,218.1Z" transform="translate(-29.838 -214.046)"/><path class="r" d="M94.091,239.289s-.49,4.48.35,7.281-11.341,2.87-11.341.56c0-2.59,1.26-4.76.07-9.241S94.091,239.289,94.091,239.289Z" transform="translate(-28.776 -208.356)"/><path class="ae" d="M88.177,224.316s5.32,8.4,10.851,10.361c0,0,3.01-14.141-9.521-17.081-12.6-2.94-10.571,14.281-9.661,18.9A36.71,36.71,0,0,1,88.177,224.316Z" transform="translate(-30.002 -214.245)"/><path class="v" d="M84.272,238.985a6.662,6.662,0,0,0,8.821.42s-.42,2.59-3.99,2.87C85.532,242.625,84.272,238.985,84.272,238.985Z" transform="translate(-28.408 -207.492)"/><path class="j" d="M80.587,223.209s2.8-5.39,7.491-5.67c4.69-.21,7.491,3.85,7.491,3.85a7.972,7.972,0,0,0-7.491-4.62C82.407,216.769,80.587,223.209,80.587,223.209Z" transform="translate(-29.553 -214.398)"/><path class="r" d="M95.946,243.706s-.14,9.381-7.631,9.661c-7.421.28-5.88-8.961-5.88-8.961S87.895,242.166,95.946,243.706Z" transform="translate(-29.02 -206.192)"/><rect class="as" width="3.08" height="96.118" transform="translate(116.84 86.238)"/><rect class="as" width="3.08" height="96.118" transform="translate(0 86.238)"/></g><g transform="translate(378.86 61.305)"><path class="r" d="M318.985,215.914s9.521,2.8,8.961,15.751C327.316,244.687,318.985,215.914,318.985,215.914Z" transform="translate(-279.769 -178.021)"/><g transform="translate(37.835 37.893)"><path class="r" d="M318.4,215.914s.77.98-.21,7.421c-.91,6.441.84,9.171,1.05,11.831s3.36,20.022,3.43,20.792.49,10.011,1.75,12.461,10.221,16.311,10.361,17.011,4.41-2.45,4.41-2.45-8.121-16.871-8.611-18.552c-.63-2.03-2.66-7.211-2.8-9.871-.28-6.511.28-21.7.07-25.062C327.433,223.4,322.533,216.894,318.4,215.914Z" transform="translate(-317.932 -215.914)"/></g><g transform="translate(45.726 93.268)"><path class="at" d="M328.712,258.157s1.4,3.15,2.24,3.29c.84.21,1.82,1.26,2.59,1.54.7.35,3.01.49,3.57,1.05.28.21,1.19,2.31,1.75,2.73s1.82,1.19,1.4,1.68c-.35.49-1.68.07-1.68.07a.936.936,0,0,1,.28.98c-.42.98-1.05,1.05-1.05,1.05s.21.77-.07,1.12a1.766,1.766,0,0,1-1.26.84,1.985,1.985,0,0,1-.56,1.05,1.606,1.606,0,0,1-1.47.28s-.7.91-1.26.77a5.379,5.379,0,0,1-1.4-.91,21.54,21.54,0,0,1-4.69-7.141,23.307,23.307,0,0,0-3.15-6.021Z" transform="translate(-323.952 -258.157)"/></g><path class="au" d="M0,0H26.883V44.8H0Z" transform="matrix(0.63, 0.777, -0.777, 0.63, 59.64, 68.181)"/><g transform="translate(51.561 100.337)"><path class="av" d="M337.059,266.492s-2.73-3.01-4.06-2.94-.42,1.19-.42,1.19-.91-1.12-1.82-.56c-.98.63.21,1.89.21,1.89a1.1,1.1,0,0,0-1.61.28c-.7.98.49,1.82.49,1.82s-1.75-.28-1.4,1.19a6.3,6.3,0,0,0,3.29,3.64s.77.21,1.33-.77a1.534,1.534,0,0,0,2.1-1.26s1.96-.42,1.33-2.03A1.4,1.4,0,0,0,337.059,266.492Z" transform="translate(-328.402 -263.55)"/></g><path class="aw" d="M315.567,187.027s-13.791-1.12-13.441,13.371,2.66,16.661,0,26.952c-2.66,10.221,13.441-5.81,13.441-5.81Z" transform="translate(-285.102 -187.007)"/><path class="at" d="M304.483,255.96s-5.11,6.441-6.861,10.781c-1.82,4.27-4.76,13.651-4.41,20.932.42,7.281,2.8,20.932,2.1,24.012s-1.4,9.451-2.17,11.621-3.71,8.541-4.06,15.121c-.28,6.581,4.2,35.423,3.99,38.153-.21,2.66,5.11,1.12,5.11,1.12s1.82-26.112,2.8-30.593,2.17-19.742,3.08-20.792c.91-1.12,3.36-12.461,2.94-14.211-.35-1.82,9.8-28.7,10.361-34.023S332.9,256.03,332.9,256.03A45.524,45.524,0,0,0,304.483,255.96Z" transform="translate(-289.069 -166.263)"/><path class="at" d="M324.073,256.359a34.495,34.495,0,0,0,.56,3.71c.28.98,7.141,26.392,7.841,36.123a195.042,195.042,0,0,0,2.8,20.092,42.651,42.651,0,0,1-.91,10.851c-.63,1.82,3.01,44.1,3.29,45.084s-2.38,1.26-4.27.98-11.481-31.083-10.851-36.263,1.19-16.241-.49-20.722-16.941-36.963-17.011-38.923C304.891,275.4,298.38,241.1,324.073,256.359Z" transform="translate(-284.367 -166.661)"/><path class="at" d="M297.61,346.147a19.6,19.6,0,0,0,1.05,4.34c.56.91,2.03,5.741,2.66,6.581.7.91,2.17,7.561,0,8.4-2.17.77-7.211,2.17-8.891-.56a11.531,11.531,0,0,1-1.68-7.421c.28-2.03,2.31-11.481,2.31-12.391C293.06,344.257,297.61,346.147,297.61,346.147Z" transform="translate(-288.567 -137.93)"/><path class="e" d="M300.522,352.79s.21,5.18-3.71,5.18-5.67-4.76-5.67-4.76-1.33,2.31,0,7.281,6.931,3.92,8.191,3.78S306.472,362.591,300.522,352.79Z" transform="translate(-288.608 -135.472)"/><path class="e" d="M331.129,342.269s2.8,4.97,4.41,5.951c2.03,1.26,6.021,5.25,7.421,5.46s6.371,1.05,5.46,3.92c-.77,2.31-12.741,1.96-14.071.84-1.33-1.19-5.39-5.32-7-5.25s-1.05,6.02-1.05,6.02h-1.75s-.63-5.741-.7-6.721c-.21-2.94,1.89-5.11,1.96-6.791s.21-2.94.21-2.94Z" transform="translate(-278.262 -138.742)"/><path class="at" d="M342.407,353.66s-3.92,1.33-7-.35c-3.01-1.75-8.821-4.41-10.921-4.41,0,0,1.12-3.43,1.12-3.78s.14-2.17.14-2.17l5.11-.84s3.29,4.83,4.76,5.95A75.26,75.26,0,0,1,342.407,353.66Z" transform="translate(-278.059 -138.792)"/><path class="x" d="M332.435,255.214s1.4,5.88,1.96,7.631c.49,1.75,3.85,28.352,4.69,45.014,0,0-20.092,7.631-47.744,6.371,0,0-.7-30.593,1.89-39.273,2.52-8.681,7.141-16.8,10.641-19.252C306.883,253.464,332.435,255.214,332.435,255.214Z" transform="translate(-288.389 -166.007)"/><path class="s" d="M334.14,232.947c-.21,3.5-1.68,5.74-1.96,7s0,4.2-.35,7.071c-.35,2.94-1.47,16.8-1.12,20.792s-27.162,2.17-29.262.98c0,0,4.62-8.261,4.76-11.761.07-1.19.77-4.83-1.19-7.561-1.05-1.4-2.94-5.95-4.83-9.241h0c-.77-1.26-1.54-2.59-2.03-3.5h0a14.905,14.905,0,0,1-1.12-2.73s-1.26-15.261,2.1-16.941a16.789,16.789,0,0,1,8.471-2.17,22.66,22.66,0,0,0,5.46-.84l7.7.84a17.2,17.2,0,0,0,4.69,1.4c1.96.14,4.34,4.34,5.46,7.421C331.9,226.3,334.35,229.446,334.14,232.947Z" transform="translate(-286.664 -178.602)"/><path class="r" d="M305.482,215.167s-6.09.49-8.4,6.09-2.1,11.271-2.59,13.371-1.19,14.071-1.75,15.821a104.117,104.117,0,0,0-2.73,16.591c-.42,6.651.56,20.582.56,20.582l3.36-1.61s3.01-20.722,4.27-25.132c1.12-3.78,1.12-10.151,1.75-12.461s4.48-16.171,5.04-17.572C306.112,228.748,310.733,215.1,305.482,215.167Z" transform="translate(-288.808 -178.253)"/><path class="r" d="M313.733,188.176c3.43-.56,11.271.28,13.441,9.241a30.588,30.588,0,0,1-.35,4.48c-.35,2.03,2.03,7.491,1.61,7.841a11.453,11.453,0,0,1-2.24.91s-1.26,6.441-3.5,6.651c-2.17.21-10.641-.56-15.4-7.841C302.462,202.177,299.942,190.486,313.733,188.176Z" transform="translate(-284.598 -186.686)"/><path class="r" d="M318.288,209.862s-.14.91-.35,2.24q-.1,1.05-.21,2.31c-.14,2.31-.07,4.97.7,6.721,0,0-4.27,2.59-8.891-3.78,0,0,.42-7.911-2.17-12.111C304.777,200.971,318.288,209.862,318.288,209.862Z" transform="translate(-283.483 -181.699)"/><path class="aw" d="M327.385,197.8s-5.18,4.41-10.571,5.81c-5.46,1.4-8.331,7.491-8.331,7.491s-9.661-9.591-3.85-18.972C310.443,182.892,327.385,187.023,327.385,197.8Z" transform="translate(-284.809 -187.002)"/><path class="v" d="M317.163,210.91q-.1,1.05-.21,2.31a22.881,22.881,0,0,1-7.421-5.53C312.332,209.72,317.163,210.91,317.163,210.91Z" transform="translate(-282.707 -180.578)"/><path class="aw" d="M315.788,200.229s-5.6,14.981-4.9,18.622c0,0-2.94-.49-8.191,1.12C302.7,219.9,305.217,193.158,315.788,200.229Z" transform="translate(-284.832 -183.267)"/><path class="r" d="M307.556,214.663s1.82,11.271,8.611,9.941c6.791-1.26,1.61-9.521,1.61-9.521S314.767,212.633,307.556,214.663Z" transform="translate(-283.322 -178.66)"/><path class="r" d="M294.034,268.785a35.337,35.337,0,0,0,1.4,3.57c.42.84,1.05,6.791,1.05,7.561,0,.63-.42.28-.7-.14-.14-.21-.7-2.24-1.12-3.29-.42-.91-.7-1.19-.84-.91a19.592,19.592,0,0,0,.35,5.74c.49,1.61.42,5.39-.49,4.9s-3.43-7.071-3.43-9.661.35-5.67.35-5.67Z" transform="translate(-288.701 -161.586)"/></g></g></g></svg>