<svg xmlns="http://www.w3.org/2000/svg" xmlns:xlink="http://www.w3.org/1999/xlink" width="400" height="400" viewBox="0 0 400 400"><defs><style>.a{fill:#ececec;}.b{clip-path:url(#a);}.c{fill:#ccc7ff;}.d{fill:url(#b);}.e{fill:url(#c);}.f{fill:url(#d);}.g{fill:url(#e);}.h{clip-path:url(#f);}.i{fill:url(#g);}.j{fill:url(#i);}.k{fill:#674cf3;}.l{fill:url(#l);}.ap,.m{fill:#7b00eb;}.n{fill:url(#m);}.o{fill:url(#n);}.p{fill:url(#o);}.q{fill:url(#p);}.r{fill:url(#q);}.s{opacity:0.26;fill:url(#r);}.t{fill:url(#s);}.u{fill:url(#t);}.v{opacity:0.64;fill:url(#u);}.w{fill:url(#v);}.x{fill:url(#w);}.y{opacity:0.4;fill:url(#x);}.z{fill:#21005c;}.aa{fill:url(#y);}.ab{fill:#ffc3ae;}.ac{fill:url(#z);}.ad{fill:url(#aa);}.ae,.ai,.ap{opacity:0.5;}.ae{fill:url(#ab);}.af{fill:url(#ac);}.ag{fill:url(#ad);}.ah{fill:url(#ae);}.ai{fill:url(#af);}.aj{fill:url(#ag);}.ak{fill:url(#ah);}.al{fill:url(#ai);}.am{fill:url(#aj);}.an{fill:url(#ak);}.ao{fill:url(#al);}.aq{opacity:0.58;}.ar{fill:url(#am);}.as{fill:url(#an);}.at{fill:url(#ao);}.au{fill:url(#ap);}.av{fill:url(#aq);}.aw{fill:#565656;}.ax{fill:#a0aaaf;}.ay{fill:#ffe0b5;}.az{fill:#ffe9cf;}.ba{fill:url(#ar);}.bb{fill:url(#as);}.bc{opacity:0.68;fill:url(#at);}.bd{opacity:0.54;fill:url(#au);}</style><clipPath id="a"><rect class="a" width="400" height="400" transform="translate(309 163)"/></clipPath><linearGradient id="b" x1="0.171" y1="0.123" x2="0.882" y2="1.015" gradientUnits="objectBoundingBox"><stop offset="0" stop-color="#8039db"/><stop offset="1" stop-color="#674cf3"/></linearGradient><linearGradient id="c" x1="0.89" y1="-0.065" x2="0.177" y2="1.016" xlink:href="#b"/><linearGradient id="d" x1="0" y1="0.5" x2="1" y2="0.5" xlink:href="#b"/><linearGradient id="e" x1="0.157" y1="0.064" x2="0.813" y2="0.907" xlink:href="#b"/><clipPath id="f"><path d="M271.619,119.212C232.033,96.349,161.747,88.028,134,133.108c-10.866,17.612,1.091,39.99-6.746,58.289-7.634,17.895-26.7,26.943-35.426,43.828C71.386,274.77,81.888,318.8,124.3,339.481c42.091,20.48,81.111-11.714,123.606-2.06,31.265,7.109,58.612,51.947,93.068,36.355,47.261-21.409,4.12-53.239,1.252-83.171-3.676-37.768,39.546-63.459,20.116-98.683-9.371-17.006-32.356-14.7-45.928-24.034C296.986,154.517,291.654,130.805,271.619,119.212Z" transform="translate(-81.733 -100.638)"/></clipPath><linearGradient id="g" x1="0.299" y1="0.145" x2="0.738" y2="0.984" xlink:href="#b"/><linearGradient id="i" x1="0.807" y1="0.274" x2="0.222" y2="0.672" xlink:href="#b"/><linearGradient id="l" x1="0" y1="0.5" x2="1" y2="0.5" xlink:href="#b"/><linearGradient id="m" x1="0.501" y1="2.742" x2="0.501" y2="0.579" gradientUnits="objectBoundingBox"><stop offset="0" stop-color="#42005c"/><stop offset="1" stop-color="#6400cf"/></linearGradient><linearGradient id="n" x1="0.5" y1="4.281" x2="0.5" y2="-0.1" xlink:href="#m"/><linearGradient id="o" x1="0.5" y1="4.121" x2="0.5" y2="-0.119" xlink:href="#m"/><linearGradient id="p" x1="0.5" y1="4.591" x2="0.5" y2="-0.244" xlink:href="#m"/><linearGradient id="q" x1="0.5" y1="0.098" x2="0.5" y2="1.414" gradientUnits="objectBoundingBox"><stop offset="0" stop-color="#ffe128"/><stop offset="1" stop-color="#ff7b20"/></linearGradient><linearGradient id="r" x1="0.5" y1="0.114" x2="0.5" y2="1.539" xlink:href="#q"/><linearGradient id="s" x1="0.5" y1="-0.752" x2="0.5" y2="0.941" gradientUnits="objectBoundingBox"><stop offset="0.001" stop-color="#c900f5"/><stop offset="1" stop-color="#7b00eb"/></linearGradient><linearGradient id="t" x1="0.5" y1="2.229" x2="0.5" y2="0.821" xlink:href="#m"/><linearGradient id="u" x1="-0.343" y1="0.027" x2="1.044" y2="0.824" gradientUnits="objectBoundingBox"><stop offset="0" stop-color="#fff5ff"/><stop offset="1" stop-color="#fff5ff" stop-opacity="0"/></linearGradient><linearGradient id="v" x1="1.001" y1="0.742" x2="0.063" y2="1.245" gradientUnits="objectBoundingBox"><stop offset="0" stop-color="#21005c"/><stop offset="1" stop-color="#4300cf"/></linearGradient><linearGradient id="w" x1="0.833" y1="0.546" x2="0.393" y2="1.166" xlink:href="#v"/><linearGradient id="x" x1="0.484" y1="1.337" x2="-0.352" y2="3.194" xlink:href="#v"/><linearGradient id="y" x1="0.838" y1="0.349" x2="0.184" y2="1.198" gradientUnits="objectBoundingBox"><stop offset="0" stop-color="#de3fff"/><stop offset="1" stop-color="#674cf3"/></linearGradient><linearGradient id="z" x1="1.235" y1="2.266" x2="0.15" y2="1.818" xlink:href="#v"/><linearGradient id="aa" x1="-0.019" y1="0.929" x2="0.965" y2="0.929" gradientUnits="objectBoundingBox"><stop offset="0" stop-color="#d500ff"/><stop offset="1" stop-color="#5f00d2"/></linearGradient><linearGradient id="ab" x1="-0.019" y1="0.931" x2="0.965" y2="0.931" xlink:href="#aa"/><linearGradient id="ac" x1="0.827" y1="2.872" x2="0.107" y2="2.123" xlink:href="#v"/><linearGradient id="ad" x1="0.817" y1="3.885" x2="0.126" y2="2.776" xlink:href="#v"/><linearGradient id="ae" x1="-0.002" y1="1.822" x2="0.944" y2="2.571" gradientUnits="objectBoundingBox"><stop offset="0" stop-color="#ffff68"/><stop offset="1" stop-color="#ff7b20"/></linearGradient><linearGradient id="af" x1="0.005" y1="1.879" x2="0.935" y2="2.642" xlink:href="#ae"/><linearGradient id="ag" x1="0.794" y1="0.928" x2="0.085" y2="1.559" xlink:href="#y"/><linearGradient id="ah" x1="3.418" y1="2.665" x2="1.664" y2="4.097" xlink:href="#ae"/><linearGradient id="ai" x1="61.574" y1="-16.432" x2="63.95" y2="-16.794" xlink:href="#v"/><linearGradient id="aj" x1="67.603" y1="20.995" x2="66.712" y2="22.213" gradientUnits="objectBoundingBox"><stop offset="0" stop-color="#fff5ff"/><stop offset="0.993" stop-color="#f1dfff" stop-opacity="0"/></linearGradient><linearGradient id="ak" x1="126.694" y1="42.712" x2="125.626" y2="44.036" gradientUnits="objectBoundingBox"><stop offset="0" stop-color="#fff5ff"/><stop offset="0.988" stop-color="#e9dfff" stop-opacity="0.102"/></linearGradient><linearGradient id="al" x1="128.334" y1="42.172" x2="127.579" y2="43.45" xlink:href="#ak"/><linearGradient id="am" x1="-0.154" y1="0.147" x2="0.606" y2="0.603" gradientUnits="objectBoundingBox"><stop offset="0" stop-color="#ff97ff"/><stop offset="1" stop-color="#ffc5ff"/></linearGradient><linearGradient id="an" x1="0.259" y1="0.517" x2="-0.339" y2="0.549" gradientUnits="objectBoundingBox"><stop offset="0" stop-color="#eb7be3"/><stop offset="1" stop-color="#ffa9e3"/></linearGradient><linearGradient id="ao" x1="0.536" y1="-0.203" x2="0.424" y2="1.39" gradientUnits="objectBoundingBox"><stop offset="0" stop-color="#cb0ff7"/><stop offset="1" stop-color="#5507ac"/></linearGradient><linearGradient id="ap" x1="0.001" y1="0.5" x2="1" y2="0.5" gradientUnits="objectBoundingBox"><stop offset="0" stop-color="#45005c"/><stop offset="1" stop-color="#6700cf"/></linearGradient><linearGradient id="aq" x1="0.733" y1="0.732" x2="0.3" y2="0.275" xlink:href="#am"/><linearGradient id="ar" x1="0.24" y1="0.776" x2="1.226" y2="0.776" gradientUnits="objectBoundingBox"><stop offset="0" stop-color="#f89542"/><stop offset="1" stop-color="#f8ba42"/></linearGradient><linearGradient id="as" x1="0.252" y1="0.798" x2="1.247" y2="0.798" gradientUnits="objectBoundingBox"><stop offset="0" stop-color="#ffb14c"/><stop offset="1" stop-color="#ffd64c"/></linearGradient><linearGradient id="at" x1="0.84" y1="0.815" x2="-0.085" y2="0.036" xlink:href="#an"/><linearGradient id="au" x1="5.736" y1="4.072" x2="4.819" y2="3.312" xlink:href="#an"/></defs><g class="b" transform="translate(-309 -163)"><g transform="translate(313.627 163)"><path class="c" d="M103.535,351.59c43.343,42.091,130.594,75.416,180.683,26.66,19.591-19.066,11.553-51.583,27.428-72.467,15.552-20.439,42.939-25.893,59.541-44.676,38.94-44.07,39.707-103.853-7.917-144-47.3-39.829-107.65-11.189-158.991-37.284C166.55,60.631,145.989-5.615,96.91,3.231,29.493,15.35,74.411,70.084,68.473,109.347,60.96,158.91-2.62,177.814,10.871,229.2c6.5,24.8,36.678,29.245,51.058,45.6C82.49,298.189,81.6,330.262,103.535,351.59Z" transform="translate(-8.999 -2.423)"/><g transform="translate(34.551 41.607)"><g transform="translate(26.061 40.24)"><path class="d" d="M271.619,119.212C232.033,96.349,161.747,88.028,134,133.108c-10.866,17.612,1.091,39.99-6.746,58.289-7.634,17.895-26.7,26.943-35.426,43.828C71.386,274.77,81.888,318.8,124.3,339.481c42.091,20.48,81.111-11.714,123.606-2.06,31.265,7.109,58.612,51.947,93.068,36.355,47.261-21.409,4.12-53.239,1.252-83.171-3.676-37.768,39.546-63.459,20.116-98.683-9.371-17.006-32.356-14.7-45.928-24.034C296.986,154.517,291.654,130.805,271.619,119.212Z" transform="translate(-81.733 -100.638)"/><path class="e" d="M268.01,408.317c-2.949,8.281-26.216,2.222-42.333,9.654-28.72,13.249-43.989-2.343-26.014-10.664C228.384,394.017,274.15,391.069,268.01,408.317Z" transform="translate(-100.099 -149.923)"/><path class="f" d="M346.158,116.9c-5.372,27.589,42.777,60.308,59.622,43.141C422.584,142.878,352.46,84.791,346.158,116.9Z" transform="translate(-125.735 -101.764)"/><path class="g" d="M125.919,412.794c4,15.431,36.678,20.359,41.04,7.433C171.362,407.3,121.233,394.818,125.919,412.794Z" transform="translate(-89.046 -151.169)"/><g class="h"><path class="i" d="M129.129,92.811c-1.818,88.019,164.363,163.111,207.1,101.066S131.27-9.709,129.129,92.811Z" transform="translate(-89.63 -93.303)"/></g><g class="h"><path class="j" d="M125.929,37.261c-1.818,88.019,164.363,163.111,207.1,101.066C375.726,76.281,128.03-65.259,125.929,37.261Z" transform="translate(-89.097 -84.044)"/></g><g class="h"><path class="k" d="M-111.8,442.491C-88.577,502.233-19.019,573,50.863,548.04c27.347-9.775,33.891-44.676,58.491-57.844,24.075-12.886,52.876-6.019,77.233-16.844,57.036-25.327,84.222-82.727,55.905-142.51-28.074-59.339-98.965-58.329-137.017-106.2C77.483,189.462,86.935,116.43,35.594,103.262c-70.447-18.056-51.22,54.613-74.325,89.877-29.164,44.555-98.885,34.7-108.539,90.281-4.645,26.822,22.5,44.433,29.164,66.569C-108.532,381.657-123.559,412.235-111.8,442.491Z" transform="translate(-43.478 -100.603)"/></g><g class="h"><path class="l" d="M566.222,313.433c29.77,34.375,51.1,101.429,12.32,137.017-15.188,13.936-39.263,6.463-55.663,17.531-16.036,10.826-21.288,31.144-36.153,42.858-34.779,27.387-79.778,25.408-107.933-12.159-27.912-37.284-3.8-81.434-21.207-121.142-12.8-29.2-61.722-47.5-53-84.06,12-50.169,51.22-14.057,80.99-16.844,37.607-3.514,54.532-50.533,92.583-38.172,18.379,5.978,20.439,28.841,32.113,40.354C526.959,295.336,551.155,296.063,566.222,313.433Z" transform="translate(-118.704 -123.265)"/></g></g><g transform="translate(43.97 10.704)"><path class="m" d="M162.529,314.548V307.8h44.393v6.746c0,7.069-11.108,11.27-22.217,11.27C173.638,325.818,162.529,320.971,162.529,314.548Z" transform="translate(-113.108 -105.63)"/><path class="n" d="M206.914,310.9v4.161c0,7.069-11.108,11.27-22.217,11.27s-22.217-4.847-22.217-11.27V310.9c0,6.423,11.108,11.27,22.217,11.27C195.806,322.215,206.914,318.014,206.914,310.9Z" transform="translate(-113.1 -106.147)"/><path class="m" d="M208.5,312.779H157.521a5.413,5.413,0,0,1-5.413-5.413v-1.616a5.413,5.413,0,0,1,5.413-5.413H208.5a5.413,5.413,0,0,1,5.413,5.413v1.616A5.413,5.413,0,0,1,208.5,312.779Z" transform="translate(-111.371 -104.386)"/><path class="m" d="M208.5,302.794H157.521a5.413,5.413,0,0,1-5.413-5.413v-1.616a5.413,5.413,0,0,1,5.413-5.413H208.5a5.413,5.413,0,0,1,5.413,5.413v1.616A5.387,5.387,0,0,1,208.5,302.794Z" transform="translate(-111.371 -102.722)"/><path class="m" d="M208.5,292.421H157.521a5.413,5.413,0,0,1-5.413-5.413v-1.616a5.413,5.413,0,0,1,5.413-5.413H208.5a5.413,5.413,0,0,1,5.413,5.413v1.616A5.413,5.413,0,0,1,208.5,292.421Z" transform="translate(-111.371 -100.993)"/><path class="o" d="M213.87,286.45V287.7a5.586,5.586,0,0,1-5.574,5.574H157.682a5.586,5.586,0,0,1-5.574-5.574V286.45a5.018,5.018,0,0,1,.162-1.333,5.581,5.581,0,0,0,5.413,4.282H208.3a5.547,5.547,0,0,0,5.413-4.282A5.018,5.018,0,0,1,213.87,286.45Z" transform="translate(-111.371 -101.85)"/><path class="p" d="M213.87,296.823v1.252a5.586,5.586,0,0,1-5.574,5.574H157.682a5.586,5.586,0,0,1-5.574-5.574v-1.252a5.018,5.018,0,0,1,.162-1.333,5.581,5.581,0,0,0,5.413,4.282H208.3a5.547,5.547,0,0,0,5.413-4.282A5.018,5.018,0,0,1,213.87,296.823Z" transform="translate(-111.371 -103.578)"/><path class="q" d="M213.87,307.148V308.4a5.586,5.586,0,0,1-5.574,5.574H157.682a5.586,5.586,0,0,1-5.574-5.574v-1.252a5.018,5.018,0,0,1,.162-1.333,5.581,5.581,0,0,0,5.413,4.282H208.3a5.547,5.547,0,0,0,5.413-4.282A5.018,5.018,0,0,1,213.87,307.148Z" transform="translate(-111.371 -105.299)"/><path class="r" d="M246.077,138.228c4.645-40.03-31.911-73.032-71.3-73.032s-74.971,32.881-71.3,73.032c4.322,47.342,44.474,47.907,44.474,93.633h53.764C201.966,184.076,240.987,182.137,246.077,138.228Z" transform="translate(-103.224 -65.196)"/><path class="s" d="M104.6,160.494c7.19,41.081,43.585,43.706,43.585,87.251h53.764a64.65,64.65,0,0,1,4.2-23.792C162.974,227.992,119.752,199.514,104.6,160.494Z" transform="translate(-103.454 -81.079)"/><path class="t" d="M209.475,281.2H155.226a6.947,6.947,0,0,1-6.948-6.948v-2.06a6.947,6.947,0,0,1,6.948-6.948h54.249a6.947,6.947,0,0,1,6.948,6.948v2.06A6.9,6.9,0,0,1,209.475,281.2Z" transform="translate(-110.733 -98.537)"/><path class="u" d="M216.464,273.387v1.575a7.18,7.18,0,0,1-7.19,7.19h-53.8a7.18,7.18,0,0,1-7.19-7.19v-1.575a7.7,7.7,0,0,1,.323-2.181,7.191,7.191,0,0,0,6.867,5.009h53.764a7.154,7.154,0,0,0,6.867-5.009A6.68,6.68,0,0,1,216.464,273.387Z" transform="translate(-110.733 -99.531)"/><path class="v" d="M211.675,83.909a52.124,52.124,0,0,1,16.319,10.22,58.672,58.672,0,0,1,11.028,13.734,64.365,64.365,0,0,1,8.564,31.265,72.637,72.637,0,0,1-6.342,30.376,90.779,90.779,0,0,1-7.473,13.451,108.966,108.966,0,0,1-9.533,12,2.84,2.84,0,0,1-3.757.323,2.326,2.326,0,0,1-.566-3.191l.04-.04a105.356,105.356,0,0,0,7.15-12.361,82.951,82.951,0,0,0,4.847-13.007,61.348,61.348,0,0,0,1.414-26.458,51.617,51.617,0,0,0-10.26-23.186,42.288,42.288,0,0,0-8.967-8.281,31.2,31.2,0,0,0-10.26-4.565c-6.221-1.495-9.977-7.392-8.321-13.168,1.616-5.776,8-9.21,14.219-7.715.566.121,1.091.323,1.616.485Z" transform="translate(-118.548 -68.156)"/></g><g transform="translate(156.406 71.294)"><g transform="translate(0 10.275)"><path class="w" d="M339.843,240.114l-5.736-16.562s-64.307-11.31-80.546,53.926a12.626,12.626,0,0,0,6.423,1.293C277.111,238.9,315.93,232.358,339.843,240.114Z" transform="translate(-240.716 -162.328)"/><path class="x" d="M362.638,249.138c-4.12,6.867-40.758,35.385,12.118,57.965l.889,5.574c-63.823-10.583-43.747-68.549-23.105-77.759C358.559,221.872,362.638,249.138,362.638,249.138Z" transform="translate(-253.857 -163.758)"/><path class="y" d="M353.4,233.486c-.525.242-1.05.525-1.575.808l-3.716-10.745a69.475,69.475,0,0,0-10.543-.767c1.293,5.978,5.9,10.3,10.341,14.542.283.283.565.566.889.848l.525.525a46.518,46.518,0,0,1,3.635,3.878,29.989,29.989,0,0,1,5.453,11.23,74.61,74.61,0,0,0,5.09-6.14C363.5,247.7,359.418,220.438,353.4,233.486Z" transform="translate(-254.717 -162.324)"/><path class="z" d="M381.287,327.048s2.706,11.633,4.241,11.351c1.495-.283,2.585-17.127,1.656-17.935s-5.251,1.171-5.251,1.171Z" transform="translate(-262.004 -178.572)"/><path class="z" d="M257.779,288.742,251.4,287.49s-13.249-.2-13.249,1.091c0,1.333,17.248,7.271,18.218,6.382C257.375,294.074,257.779,288.742,257.779,288.742Z" transform="translate(-238.147 -173.107)"/><path class="aa" d="M395.385,192.812l-3.191-4.039s.606-5.13-5.17-6.705a8.751,8.751,0,0,0-1.7-.283h0c-13.936-3.474-24.964,15.431-34.86,14.057-11.916-1.656-11.876-8.806-11.876-8.806l-7.473,4.039s4.443,10.583,18.581,12.2c6.059.687,13.088-2.383,19.106-6.1-6.019,7.352-14.542,14.784-30.255,15.834-1.05,9.291,15.915,15.794,20.965,33.931C384.6,232.883,397.809,208.2,395.385,192.812Z" transform="translate(-253.642 -155.42)"/><path class="ab" d="M397.727,162.941c-2.262,5.655-2.585,16.077,4.888,14.421a16.811,16.811,0,0,0,10.7-8S412.148,142.582,397.727,162.941Z" transform="translate(-264.507 -151.078)"/><path class="ac" d="M405.913,171.1c1.616-2.383,4.2,1.9-.525,2.3,1.131,4.322,17.329-6.059,9.735-11.108,2.424-5.292-2.1-11.108-9.493-11.916-6.423-.687-8.16,5.211-13.168.4-3.635-3.474-6.5,10.583,2.383,10.179,5.938-.242,4.443,4.888,8.362,5.534A3.158,3.158,0,0,1,405.913,171.1Z" transform="translate(-263.282 -150.233)"/><path class="ab" d="M403.539,177.532c-2.02,3.676-3.434,9.008-5.332,7.877-1.9-1.171.525-9.937.969-9.937C399.62,175.512,403.539,177.532,403.539,177.532Z" transform="translate(-264.704 -154.439)"/></g><g transform="translate(50.937 17.694)"><path class="ad" d="M322.709,186.543c-5.736-6.18.242-13.007,7.15-8.24,24.8,17.087,87.817,77.193,85.353,81.111C412.787,263.332,343.148,208.477,322.709,186.543Z" transform="translate(-302.794 -162.064)"/><path class="ae" d="M415.207,259.491c-2.424,3.918-72.063-50.937-92.5-72.871-3.716-3.959-2.545-8.2.566-9.452-.485,1.818.081,4.12,2.141,6.382,17.208,18.46,69.276,60.228,86.766,70.649C414.48,257.027,415.571,258.885,415.207,259.491Z" transform="translate(-302.791 -162.142)"/><path class="af" d="M335.149,181.862l-8,9.25a25.722,25.722,0,0,1-10.139-8.766l8-9.25A27.217,27.217,0,0,1,335.149,181.862Z" transform="translate(-302.228 -161.463)"/><path class="ag" d="M335.149,183.13l-8,9.25a25.765,25.765,0,0,1-10.139-8.806l2.464-2.868c.364.444.727.929,1.131,1.373a8.863,8.863,0,0,0,13.653-.162h0C334.584,182.323,334.867,182.726,335.149,183.13Z" transform="translate(-302.228 -162.731)"/><path class="ah" d="M322.054,170.77l-8,9.21c-12.643,1.939-14.784-20.843-14.784-20.843a7.279,7.279,0,0,0,4.807,2.06C309.733,161.318,319.226,161.318,322.054,170.77Z" transform="translate(-299.271 -159.136)"/><path class="ai" d="M322.078,170.939l-8,9.21c-11.189,1.7-14.138-15.875-14.663-20,1.737,6.5,6.1,15.35,13.734,12.8,4.807-1.616,6.463-6.705,6.463-6.705A12.584,12.584,0,0,1,322.078,170.939Z" transform="translate(-299.296 -159.306)"/></g><g transform="translate(125.85 79.985)"><path class="ab" d="M392.982,234.892a2.868,2.868,0,0,0-.646-.646,2.239,2.239,0,0,0-2.141-.162,2.333,2.333,0,0,0-.969,2.545,3.808,3.808,0,0,0,1.495,2.464c1.252.929,2.424.848,4.282.566" transform="translate(-389.167 -233.885)"/></g><path class="aj" d="M400.385,184.294c23.267,2.383,37.041,49-4.928,47.1-1.575-1.575-3.918-5.857-3.8-7.392,30.578-.283,19.43-24.4,10.422-29.649" transform="translate(-263.732 -145.635)"/><g transform="translate(78.279 47.308)"><path class="ab" d="M334.914,194.708c-1.616-.283-2.464,1.171-2.747,2.424a4.078,4.078,0,0,0,1.01,3.514,8.761,8.761,0,0,0,3.191,2.3c.525.242,1.252.444,1.616,0a1.027,1.027,0,0,0,.162-.687,10.513,10.513,0,0,0-.525-4.039C337.1,196.97,336.53,194.991,334.914,194.708Z" transform="translate(-332.082 -194.673)"/></g><path class="ak" d="M291.674,143.843c-.566-2.706.2-5.9,2.545-5.938,1.777-.04,4.6.525,2.949,6.342-1.373,4.766-.848,7.8.04,10.018C297.087,154.022,292.886,149.417,291.674,143.843Z" transform="translate(-247.039 -137.903)"/></g><g transform="translate(7.357 70.751)"><path class="al" d="M72.815,153.8l2.02,2.464L61.909,166.811a1.607,1.607,0,0,1-2.262-.242h0a1.607,1.607,0,0,1,.242-2.262Z" transform="translate(-59.289 -140.01)"/><path class="m" d="M82.188,155.65a9.211,9.211,0,1,0-8.564-8.442A9.215,9.215,0,0,0,82.188,155.65Zm-6.625-8a7.368,7.368,0,1,1,6.544,6.14A7.365,7.365,0,0,1,75.563,147.652Z" transform="translate(-61.673 -137.252)"/><path class="am" d="M90.48,145.638a7.368,7.368,0,1,1-6.544-6.14A7.365,7.365,0,0,1,90.48,145.638Z" transform="translate(-62.047 -137.621)"/><path class="an" d="M90.555,147.2a.759.759,0,0,1-.767-.727,5.253,5.253,0,0,0-5.453-5.09.748.748,0,1,1-.04-1.495,6.813,6.813,0,0,1,7.029,6.584A.859.859,0,0,1,90.555,147.2Z" transform="translate(-63.335 -137.691)"/><path class="ao" d="M77.548,147.648a.759.759,0,0,1,.767.727,5.253,5.253,0,0,0,5.453,5.09.748.748,0,1,1,.04,1.495,6.813,6.813,0,0,1-7.029-6.584A.789.789,0,0,1,77.548,147.648Z" transform="translate(-62.204 -138.984)"/><path class="ap" d="M82.6,154.512a7.814,7.814,0,1,0-7.231-6.988A7.811,7.811,0,0,0,82.6,154.512Zm-6.746-6.584a7.368,7.368,0,1,1,6.544,6.14A7.365,7.365,0,0,1,75.852,147.927Z" transform="translate(-61.962 -137.527)"/></g><g class="aq" transform="translate(173.21)"><path class="ar" d="M318.652,70.127c-10.422-4.241-17.127-4.807-23.227-1.858L281.046,85.6c5.292-3.312,17.773-1.373,24.438,1.9Z" transform="translate(-262.101 -54.696)"/><path class="as" d="M258.312,77.54,275.6,61.221c4.08.929,10.583,1.252,16.036,6.14L277.257,84.69C277.257,84.731,259.564,77.5,258.312,77.54Z" transform="translate(-258.312 -53.829)"/><path class="at" d="M258.312,80.8l1.252,7.19s13.37.525,14.3,5.534c.162,1.979,3.312,1.656,3.393.767,0,0,8.16-4.766,23.146,1.171l1.293-5.615s-14.461-7.917-24.438-1.9C275.479,83.827,265.623,80.394,258.312,80.8Z" transform="translate(-258.312 -57.086)"/><path class="au" d="M310.113,88.237l13.168-17.369-1.414,6.5L308.82,93.852Z" transform="translate(-266.73 -55.437)"/><path class="av" d="M259.814,71.821c3.918-.767,16.158,6.1,17.733,11.432l14.38-17.329s-3.918-11.8-14.744-13.572Z" transform="translate(-258.562 -52.351)"/></g><g transform="translate(23.543 161.495)"><path class="aw" d="M0,0H4.322V2.706H0Z" transform="translate(3.894 24.273) rotate(-132.151)"/><path class="ax" d="M0,0H2.141V2.706H0Z" transform="translate(3.162 23.464) rotate(-132.151)"/><path class="ay" d="M79.082,273.952l.929,1.05a1.465,1.465,0,0,0,2.06.121l.485-.444-2.908-3.232-.485.444A1.5,1.5,0,0,0,79.082,273.952Z" transform="translate(-78.712 -250.362)"/><path class="az" d="M79.592,274.566l.162.162a1,1,0,0,0,1.373.081l.848-.767-1.414-1.575-.848.767A.888.888,0,0,0,79.592,274.566Z" transform="translate(-78.818 -250.532)"/><path class="ay" d="M110.752,246.549l-1.252,3.716-2.908-3.232,3.837-.889A.393.393,0,0,1,110.752,246.549Z" transform="translate(-83.359 -246.145)"/><path class="m" d="M110.89,246.193l-1.535.364,1.333,1.495.485-1.454C111.253,246.395,111.051,246.152,110.89,246.193Z" transform="translate(-83.819 -246.152)"/><path class="ba" d="M102.488,247.26l2.908,3.232-20.52,18.541L81.968,265.8Z" transform="translate(-79.255 -246.331)"/><path class="bb" d="M103.368,248.229l1.414,1.575L84.3,268.386l-1.414-1.616Z" transform="translate(-79.408 -246.492)"/></g><path class="bc" d="M215.947,237.743c9.695-5.13,17.773-16.8,17.773-16.8s5.494,9.614,27.1,10.624c0,0-16,17.773-21.57,17.087C230.327,247.922,222.733,243.883,215.947,237.743Z" transform="translate(-78.041 -80.449)"/><path class="bd" d="M95.7,145.157c-10.462,3.272-20.52,13.29-20.52,13.29s-3.676-10.462-24.721-15.39c0,0,18.945-14.582,24.317-12.886C83.381,132.513,90.127,137.886,95.7,145.157Z" transform="translate(-50.46 -65.298)"/></g></g></g></svg>