<svg xmlns="http://www.w3.org/2000/svg" width="44" height="36.631" viewBox="0 0 44 36.631">
    <defs>
        <style>
            .cls-1{fill:#ffd4b8}.cls-2{fill:#00d3b4}.cls-3{fill:#fff}.cls-4{fill:#ffbe0b}.cls-5{fill:#0d1321}.cls-6{fill:#e38e7a}
        </style>
    </defs>
    <g id="men" transform="translate(-.499 -15.373)">
        <path id="Path_3533" d="M455.894 493.811a.912.912 0 0 1-.178-.018.983.983 0 0 1-.17-.052.959.959 0 0 1-.156-.083.88.88 0 0 1-.138-.113.873.873 0 0 1-.2-.294.851.851 0 0 1-.052-.17.9.9 0 0 1-.018-.177.914.914 0 0 1 .018-.178.857.857 0 0 1 .052-.169.855.855 0 0 1 .2-.294.907.907 0 0 1 .293-.2.986.986 0 0 1 .17-.052.907.907 0 0 1 .354 0 .937.937 0 0 1 .17.052.888.888 0 0 1 .157.084.92.92 0 0 1 .138.113.9.9 0 0 1 .112.137.959.959 0 0 1 .084.157.862.862 0 0 1 .052.169.914.914 0 0 1 .018.178.9.9 0 0 1-.018.177.918.918 0 0 1-.052.17.935.935 0 0 1-.084.157.878.878 0 0 1-.112.138.914.914 0 0 1-.64.268zm0 0" data-name="Path 3533" transform="translate(-413.225 -441.806)"/>
        <path id="Path_3534" d="M48.436 493.809H11.611a.906.906 0 1 1 0-1.813h36.825a.906.906 0 1 1 0 1.813zm0 0" data-name="Path 3534" transform="translate(-9.278 -441.804)"/>
        <path id="Path_3537" d="M297.769 183.179c-5.192 0-11.11-3.831-11.11-3.831s-1.629 3.83-4.607 3.831q-.029.337-.029.681a7.887 7.887 0 1 0 15.774 0q.003-.344-.028-.681zm0 0" class="cls-1" data-name="Path 3537" transform="translate(-255.937 -157.536)"/>
        <path id="Path_3538" d="M345.691 314.988v2.493h4.234v-2.493" class="cls-1" data-name="Path 3538" transform="translate(-313.849 -280.866)"/>
        <path id="Path_3539" d="M282.145 353.016h-19.239v-5.555a4.969 4.969 0 0 1 4.969-4.969h9.3a4.97 4.97 0 0 1 4.969 4.969zm0 0" class="cls-2" data-name="Path 3539" transform="translate(-238.552 -305.85)"/>
        <path id="Path_3540" d="M327.224 349.247l-4.169-6.754h8.337zm0 0" class="cls-3" data-name="Path 3540" transform="translate(-293.249 -305.868)"/>
        <path id="Path_3541" d="M282.328 131.546c2.978 0 4.608-3.831 4.608-3.831s5.919 3.831 11.111 3.831v-2.339c0-4.35-3.534-6.654-7.887-6.638s-7.832 2.38-7.832 6.724zm0 0" class="cls-4" data-name="Path 3541" transform="translate(-256.213 -105.919)"/>
        <path id="Path_3542" d="M268.082 132.539h-1.627v-1.112a8.825 8.825 0 0 0 5.77-8.273c0-.234-.009-.47-.028-.7v-2.321a7.046 7.046 0 0 0-2.02-5.115 9.385 9.385 0 0 0-6.73-2.443h-.047c-5.224.018-8.734 3.09-8.734 7.644v2.236a9.16 9.16 0 0 0-.028.7 8.824 8.824 0 0 0 5.77 8.273v1.112h-1.627a5.888 5.888 0 0 0-5.876 5.887v5.565a.907.907 0 0 0 .906.908h19.239a.907.907 0 0 0 .906-.908v-5.565a5.888 5.888 0 0 0-5.874-5.888zm-2.106 1.816l-2.544 4.13-2.544-4.13zm-9.5-14.141c0-4.284 3.732-5.817 6.929-5.828h.04a7.611 7.611 0 0 1 5.455 1.914 5.2 5.2 0 0 1 1.487 3.829v1.4c-4.633-.4-9.659-3.618-9.712-3.653a.907.907 0 0 0-.756-.106.909.909 0 0 0-.57.511c-.012.028-1.075 2.458-2.868 3.122v-1.184zm-.026 3.076a6.773 6.773 0 0 0 4.085-3.381c1.741 1.007 5.866 3.149 9.873 3.438a6.981 6.981 0 0 1-13.958-.057zm5.768 8.59a8.836 8.836 0 0 0 2.422 0v.658h-2.422zm9.924 11.2h-17.423v-4.657a4.072 4.072 0 0 1 4.039-4.071l3.9 6.336a.906.906 0 0 0 1.542 0l3.9-6.336a4.072 4.072 0 0 1 4.039 4.071zm0 0" class="cls-5" data-name="Path 3542" transform="translate(-229.458 -96.826)"/>
        <path id="Path_3543" d="M17.91 340.984h-2.44a4.969 4.969 0 0 0-4.969 4.969v5.692h19.465v-5.692A4.97 4.97 0 0 0 25 340.984h-2.44" class="cls-4" data-name="Path 3543" transform="translate(-9.094 -304.479)"/>
        <path id="Path_3544" d="M29.87 173.123c4.353-.011 2.751-4.541 2.751-4.541a40.83 40.83 0 0 1 9.48 1.807 4.232 4.232 0 0 0 3.686 3.4c0-.225.013-.27.014 0v.026a7.98 7.98 0 0 1-15.96 0q0-.348.029-.689zm0 0" class="cls-1" data-name="Path 3544" transform="translate(-26.681 -147.761)"/>
        <path id="Path_3545" d="M85.743 314.133v2.434h-.849v1.477a2.991 2.991 0 1 0 5.981 0v-1.477h-.849v-2.434" class="cls-1" data-name="Path 3545" transform="translate(-76.731 -280.083)"/>
        <path id="Path_3546" d="M45.928 128.217q0-.337-.03-.667v-2.366c0-4.4-3.576-6.732-7.98-6.717S30 120.88 30 125.275v2.28c1 0 1.958-1.185 2.647-2.333a3.772 3.772 0 0 1 3.807-1.785l.063.01c1.283.2 1.222 1.671 2.361 2.257.6.307 2.456-.4 3 0a13.544 13.544 0 0 1 1.542 1.318 4.214 4.214 0 0 0 2.511 1.2zm0 0" class="cls-6" data-name="Path 3546" transform="translate(-26.823 -102.193)"/>
        <path id="Path_3547" d="M15.9 128.676h-1.712v-1.143a8.917 8.917 0 0 0 5.838-8.363v-.029c0-.087-.042-3.032-.042-3.032a7.121 7.121 0 0 0-2.041-5.168 9.487 9.487 0 0 0-6.8-2.469h-.046c-5.28.018-8.827 3.122-8.827 7.723l-.014 2.974a8.917 8.917 0 0 0 5.838 8.363v1.143H6.376A5.888 5.888 0 0 0 .5 134.562v5.7a.907.907 0 0 0 .906.908h19.466a.907.907 0 0 0 .906-.908v-5.7a5.888 5.888 0 0 0-5.875-5.887zM4.08 116.2c0-4.342 3.782-5.9 7.021-5.908h.04a7.711 7.711 0 0 1 5.523 1.939 5.272 5.272 0 0 1 1.508 3.882v1.841a3.336 3.336 0 0 1-.939-.655 14.47 14.47 0 0 0-1.646-1.408 1.779 1.779 0 0 0-1.089-.3 8.105 8.105 0 0 0-1.147.117 5.6 5.6 0 0 1-.928.091 2.056 2.056 0 0 1-.639-.777 2.726 2.726 0 0 0-1.956-1.55l-.064-.01a4.657 4.657 0 0 0-4.721 2.219A7.609 7.609 0 0 1 4.08 117zm-.014 3.015a5.873 5.873 0 0 0 2.532-2.6 2.852 2.852 0 0 1 2.893-1.357l.062.009c.253.039.367.176.683.7a3.537 3.537 0 0 0 1.4 1.473 3.37 3.37 0 0 0 1.979.067 5.847 5.847 0 0 1 .971-.094 12.679 12.679 0 0 1 1.368 1.179 5.153 5.153 0 0 0 2.222 1.3 7.073 7.073 0 0 1-14.112-.673zm7.073 8.862a8.885 8.885 0 0 0 1.236-.086v1.6a.907.907 0 0 0 .849.906v.574a2.084 2.084 0 1 1-4.169 0v-.574a.907.907 0 0 0 .849-.906v-1.6a8.931 8.931 0 0 0 1.236.085zm8.827 11.284H2.313v-4.794a4.071 4.071 0 0 1 4.063-4.071h.867v.572a3.9 3.9 0 1 0 7.794 0v-.572h.863a4.072 4.072 0 0 1 4.063 4.071zm0 0" class="cls-5" data-name="Path 3547" transform="translate(0 -93.1)"/>
    </g>
</svg>
