<svg xmlns="http://www.w3.org/2000/svg" width="12" height="12" viewBox="0 0 12 12">
    <defs>
        <style>
            .cls-1{fill:#fff}
        </style>
    </defs>
    <g id="menu" transform="translate(-20)">
        <g id="Group_991" data-name="Group 991">
            <g id="Group_990" data-name="Group 990">
                <path id="Rectangle_1162" d="M0 0h3.167v3.167H0z" class="cls-1" data-name="Rectangle 1162" transform="translate(24.417 4.417)"/>
                <path id="Rectangle_1163" d="M0 0h3.167v3.167H0z" class="cls-1" data-name="Rectangle 1163" transform="translate(20)"/>
                <path id="Rectangle_1164" d="M0 0h3.167v3.167H0z" class="cls-1" data-name="Rectangle 1164" transform="translate(24.417 8.833)"/>
                <path id="Rectangle_1165" d="M0 0h3.167v3.167H0z" class="cls-1" data-name="Rectangle 1165" transform="translate(20 4.417)"/>
                <path id="Rectangle_1166" d="M0 0h3.167v3.167H0z" class="cls-1" data-name="Rectangle 1166" transform="translate(20 8.833)"/>
                <path id="Rectangle_1167" d="M0 0h3.167v3.167H0z" class="cls-1" data-name="Rectangle 1167" transform="translate(28.833)"/>
                <path id="Rectangle_1168" d="M0 0h3.167v3.167H0z" class="cls-1" data-name="Rectangle 1168" transform="translate(24.417)"/>
                <path id="Rectangle_1169" d="M0 0h3.167v3.167H0z" class="cls-1" data-name="Rectangle 1169" transform="translate(28.833 4.417)"/>
                <path id="Rectangle_1170" d="M0 0h3.167v3.167H0z" class="cls-1" data-name="Rectangle 1170" transform="translate(28.833 8.833)"/>
            </g>
        </g>
    </g>
</svg>
