<svg xmlns="http://www.w3.org/2000/svg" width="112" height="117.524" viewBox="0 0 112 117.524">
    <defs>
        <linearGradient id="linear-gradient" x2="1" y1=".5" y2=".5" gradientUnits="objectBoundingBox">
            <stop offset="0" stop-color="#fcefef"/>
            <stop offset="1" stop-color="#dcfdee"/>
        </linearGradient>
        <style>
            .cls-3{fill:#2626bc}.cls-4{fill:#fff}.cls-5{fill:#ffdbed}.cls-6{fill:#ffa8cf}.cls-7{fill:#ff7eb8}.cls-8{fill:#b7c5ff}.cls-9{fill:#6583fe}.cls-15{fill:#01eca5}.cls-18{fill:#8039db}
        </style>
    </defs>
    <g id="notification_1_" transform="translate(-12.034)">
        <g id="Group_5909" transform="translate(12.034)">
            <g id="Group_5883">
                <path id="Path_24611" fill="url(#linear-gradient)" d="M75.057 1.117C53.4 7.486 57.743 22.6 55.321 39.345c-3.023 20.9-16.09 10.184-31.1 21.471-25.95 19.511-7.1 62.581 25.127 56.04 17.113-3.473 20.61-16.09 27.589-29.57 9.029-17.439 24-12.684 37.43-24.069 27.233-23.088-8.587-71.135-39.31-62.1z" transform="translate(-12.034)"/>
            </g>
            <g id="Group_5908" transform="translate(7.966 5.664)">
                <g id="Group_5884" opacity="0.1" transform="translate(15.22 5.683)">
                    <path id="Path_24612" d="M173.144 64.472V56.3a6.887 6.887 0 0 0-6.889-6.886h-46.169A6.887 6.887 0 0 0 113.2 56.3v86.742a6.887 6.887 0 0 0 6.889 6.886h46.169a6.887 6.887 0 0 0 6.889-6.886v-37.816c2.664-.812 4.763-9.625 4.763-20.378s-2.1-19.564-4.763-20.376z" class="cls-3" transform="translate(-113.197 -49.415)"/>
                    <path id="Path_24613" d="M421.607 204.893l-4.524-.913a1.149 1.149 0 0 0-1.271.647l-.165.36-2.965-.679a1.148 1.148 0 1 0-.513 2.238l3.876.888a1.148 1.148 0 0 0 1.3-.641l.175-.382 3.633.733a1.148 1.148 0 1 0 .454-2.251z" class="cls-3" transform="translate(-342.83 -168.487)"/>
                    <path id="Path_24614" d="M412.426 165.523a1.143 1.143 0 0 0 .6-.172l3.374-2.088a1.148 1.148 0 0 0 .47-1.383l-.145-.382 3.08-2.019a1.148 1.148 0 1 0-1.259-1.92l-3.851 2.525a1.148 1.148 0 0 0-.444 1.367l.136.358-2.569 1.59a1.148 1.148 0 0 0 .606 2.125z" class="cls-3" transform="translate(-342.828 -132.593)"/>
                    <path id="Path_24615" d="M419.809 236.351l-3.08-2.019.145-.382a1.148 1.148 0 0 0-.47-1.383l-3.374-2.088a1.148 1.148 0 1 0-1.208 1.953l2.569 1.59-.136.358a1.148 1.148 0 0 0 .444 1.367l3.851 2.525a1.148 1.148 0 1 0 1.259-1.92z" class="cls-3" transform="translate(-342.83 -188.79)"/>
                </g>
                <g id="Group_5895" transform="translate(15.245)">
                    <g id="Group_5894">
                        <g id="Group_5893">
                            <path id="Path_24616" d="M173.144 32.3v86.742a6.887 6.887 0 0 1-6.889 6.886h-46.169a6.887 6.887 0 0 1-6.889-6.886V32.3a6.887 6.887 0 0 1 6.889-6.886h46.169a6.887 6.887 0 0 1 6.889 6.886z" class="cls-4" transform="translate(-113.197 -25.244)"/>
                            <path id="Path_24617" d="M171.175 114.344a9.949 9.949 0 1 0-9.944 10.207c.135 0 .269 0 .4-.01v6.559a6.889 6.889 0 0 0 5.131 6.661l35.315 9.322v-40.9z" class="cls-5" transform="translate(-142.535 -86.297)"/>
                            <g id="Group_5888" transform="translate(5.938 43.469)">
                                <g id="Group_5885">
                                    <path id="Path_24618" d="M164.355 219.137v3.929a1.15 1.15 0 0 1-1.148 1.148h-19.073a5.077 5.077 0 0 1 0-10.154h15.144a5.077 5.077 0 0 1 5.077 5.077z" class="cls-6" transform="translate(-139.057 -214.06)"/>
                                </g>
                                <path id="Path_24619" d="M208.505 219.137v3.929a1.144 1.144 0 0 1-.285.755l-6.721-1.775a6.887 6.887 0 0 1-5.132-6.659v-1.327h7.061a5.077 5.077 0 0 1 5.077 5.077z" class="cls-7" transform="translate(-183.207 -214.06)"/>
                                <g id="Group_5887" transform="translate(5.399 4.005)">
                                    <g id="Group_5886">
                                        <path id="Path_24620" d="M175.546 232.648a1.149 1.149 0 0 1-1.146 1.152h-10.685a1.148 1.148 0 1 1 0-2.3H174.4a1.149 1.149 0 0 1 1.146 1.148z" class="cls-4" transform="translate(-162.567 -231.5)"/>
                                    </g>
                                </g>
                                <path id="Path_24621" d="M203.41 232.648a1.149 1.149 0 0 1-1.148 1.148h-1.943a6.82 6.82 0 0 1-1.582-2.3h3.525a1.149 1.149 0 0 1 1.148 1.152z" class="cls-5" transform="translate(-185.033 -227.495)"/>
                            </g>
                            <path id="Path_24622" d="M113.2 376v13.166a6.888 6.888 0 0 0 6.889 6.889h46.169a6.888 6.888 0 0 0 6.889-6.889V376z" class="cls-8" transform="translate(-113.197 -295.369)"/>
                            <path id="Path_24623" d="M208.151 29.932l1.643-5.267h-28.818l1.643 5.267a2.3 2.3 0 0 0 2.192 1.612h21.147a2.3 2.3 0 0 0 2.192-1.612z" class="cls-9" transform="translate(-165.412 -24.665)"/>
                            <g id="Group_5892" transform="translate(6.972 3.238)">
                                <path id="Path_24624" d="M149.071 42.206h-4.363a1.148 1.148 0 0 1-1.148-1.148v-1.144a1.148 1.148 0 0 1 1.148-1.148h4.363a1.148 1.148 0 0 1 1.148 1.148v1.144a1.148 1.148 0 0 1-1.148 1.148z" class="cls-8" transform="translate(-143.56 -38.766)"/>
                                <g id="Group_5891" transform="translate(40.204 .17)">
                                    <g id="Group_5889">
                                        <path id="Path_24625" d="M319.791 42.605a1.148 1.148 0 0 1-1.148-1.148v-.8a1.148 1.148 0 1 1 2.3 0v.8a1.148 1.148 0 0 1-1.152 1.148z" class="cls-8" transform="translate(-318.643 -39.505)"/>
                                    </g>
                                    <g id="Group_5890" transform="translate(3.502)">
                                        <path id="Path_24626" d="M335.041 42.605a1.148 1.148 0 0 1-1.148-1.148v-.8a1.148 1.148 0 1 1 2.3 0v.8a1.148 1.148 0 0 1-1.152 1.148z" class="cls-8" transform="translate(-333.893 -39.505)"/>
                                    </g>
                                </g>
                            </g>
                        </g>
                    </g>
                </g>
                <g id="Group_5898" transform="translate(34.332 15.174)">
                    <path id="Path_24627" fill="#de3fff" d="M196.368 106.729v8.931a6.889 6.889 0 0 0 5.131 6.661l35.315 9.322v-40.9l-35.314 9.325a6.889 6.889 0 0 0-5.132 6.661z" opacity="0.9" transform="translate(-196.368 -90.746)"/>
                    <g id="Group_5896" transform="translate(0 7.503)">
                        <path id="Path_24628" d="M208.39 123.42v25.891l-6.891-1.819a6.892 6.892 0 0 1-5.132-6.662v-8.93a6.892 6.892 0 0 1 5.132-6.662l3.249-.857z" class="cls-8" transform="translate(-196.367 -123.42)"/>
                    </g>
                    <path id="Path_24629" fill="#9fb0fe" d="M205.915 132.288a9.949 9.949 0 0 1-9.548 9.943v-7.1a6.892 6.892 0 0 1 5.132-6.662l3.249-.857a9.908 9.908 0 0 1 1.167 4.676z" transform="translate(-196.367 -119.145)"/>
                    <ellipse id="Ellipse_1969" cx="5.165" cy="20.448" class="cls-9" rx="5.165" ry="20.448" transform="translate(35.281)"/>
                    <path id="Path_24630" d="M360.338 111.2c0 11.293-2.312 20.449-5.164 20.449-1.132 0-2.179-1.44-3.029-3.881-1.3-3.715-2.138-9.752-2.138-16.568s.843-12.852 2.138-16.565c.85-2.441 1.9-3.881 3.029-3.881 2.852 0 5.164 9.153 5.164 20.446z" class="cls-9" transform="translate(-314.727 -90.749)"/>
                    <path id="Path_24631" fill="#4369fd" d="M354.283 124.215c0 6.815-.843 12.852-2.138 16.568-1.3-3.715-2.138-9.752-2.138-16.568s.843-12.852 2.138-16.565c1.3 3.713 2.138 9.75 2.138 16.565z" transform="translate(-314.727 -103.768)"/>
                    <path id="Path_24632" fill="#ff5ba8" d="M355.112 162.85a5.073 5.073 0 0 1-4.94 5.051c-.1-1.615-.159-3.308-.159-5.051s.055-3.435.159-5.051a5.073 5.073 0 0 1 4.94 5.051z" transform="translate(-314.731 -142.402)"/>
                    <g id="Group_5897" transform="translate(35.28 15.398)">
                        <path id="Path_24633" fill="#fe2c8f" d="M354.283 162.85q0 1.44-.051 2.829a5.1 5.1 0 0 1-4.064 2.223c-.1-1.617-.158-3.309-.158-5.052s.055-3.435.158-5.05a5.1 5.1 0 0 1 4.064 2.223q.052 1.384.051 2.827z" transform="translate(-350.007 -157.8)"/>
                    </g>
                </g>
                <path id="Path_24634" d="M425.946 303.214a1.144 1.144 0 0 1-.812-.336l-2.526-2.526a1.148 1.148 0 0 1 0-1.624l2.526-2.526a1.148 1.148 0 0 1 1.623 0l2.526 2.526a1.148 1.148 0 0 1 0 1.624l-2.526 2.526a1.145 1.145 0 0 1-.811.336zm-.9-3.674l.9.9.9-.9-.9-.9z" class="cls-15" transform="translate(-336.079 -233.619)"/>
                <path id="Path_24635" d="M65.4 81.209a1.148 1.148 0 0 1-1.148-1.148 1.379 1.379 0 0 0-1.378-1.378 1.148 1.148 0 1 1 0-2.3 1.379 1.379 0 0 0 1.378-1.378 1.148 1.148 0 0 1 2.3 0 1.379 1.379 0 0 0 1.378 1.378 1.148 1.148 0 1 1 0 2.3 1.379 1.379 0 0 0-1.378 1.378 1.148 1.148 0 0 1-1.152 1.148z" class="cls-15" transform="translate(-58.282 -62.564)"/>
                <path id="Path_24636" d="M399.344 341.815a1.148 1.148 0 0 1-1.148-1.148 1.379 1.379 0 0 0-1.378-1.378 1.148 1.148 0 1 1 0-2.3 1.379 1.379 0 0 0 1.378-1.378 1.148 1.148 0 1 1 2.3 0 1.379 1.379 0 0 0 1.378 1.378 1.148 1.148 0 1 1 0 2.3 1.379 1.379 0 0 0-1.378 1.378 1.148 1.148 0 0 1-1.152 1.148z" class="cls-7" transform="translate(-315.586 -263.36)"/>
                <path id="Path_24637" d="M65.4 395.874a1.148 1.148 0 0 1-1.148-1.148 1.379 1.379 0 0 0-1.378-1.378 1.148 1.148 0 1 1 0-2.3 1.379 1.379 0 0 0 1.378-1.378 1.148 1.148 0 1 1 2.3 0 1.379 1.379 0 0 0 1.378 1.378 1.148 1.148 0 1 1 0 2.3 1.379 1.379 0 0 0-1.378 1.378 1.148 1.148 0 0 1-1.152 1.148z" class="cls-7" transform="translate(-58.282 -305.018)"/>
                <path id="Path_24638" d="M50.4 131.25a1.145 1.145 0 0 1-.812-.336l-2.526-2.526a1.148 1.148 0 0 1 0-1.624l2.526-2.526a1.148 1.148 0 0 1 1.624 0l2.526 2.526a1.148 1.148 0 0 1 0 1.624l-2.526 2.526a1.145 1.145 0 0 1-.812.336zm-.9-3.674l.9.9.9-.9-.9-.9z" class="cls-9" transform="translate(-46.726 -101.125)"/>
                <g id="Group_5904" transform="translate(27.86 59.688)">
                    <g id="Group_5899">
                        <path id="Path_24639" fill="#02ffb3" d="M169 299.086h34.528a7.144 7.144 0 0 0 0-14.289H175.3a7.145 7.145 0 0 0-7.144 7.144v6.3a.848.848 0 0 0 .844.845z" transform="translate(-168.152 -284.797)"/>
                    </g>
                    <g id="Group_5903" transform="translate(2.254 3.854)">
                        <g id="Group_5900" transform="translate(11.556)">
                            <path id="Path_24640" d="M229.44 303.878h21.015a1.148 1.148 0 1 0 0-2.3H229.44a1.148 1.148 0 1 0 0 2.3z" class="cls-4" transform="translate(-228.292 -301.582)"/>
                        </g>
                        <g id="Group_5901" transform="translate(4.667 4.284)">
                            <path id="Path_24641" d="M199.44 322.534h27.9a1.148 1.148 0 1 0 0-2.3h-27.9a1.148 1.148 0 1 0 0 2.3z" class="cls-4" transform="translate(-198.292 -320.238)"/>
                        </g>
                        <g id="Group_5902" transform="translate(0 28.284)">
                            <path id="Path_24642" d="M179.115 427.049h27.9a1.148 1.148 0 1 0 0-2.3h-27.9a1.148 1.148 0 1 0 0 2.3z" class="cls-4" transform="translate(-177.967 -424.753)"/>
                        </g>
                    </g>
                </g>
                <g id="Group_5905" transform="translate(23.995 13.638)">
                    <circle id="Ellipse_1970" cx="9.951" cy="9.951" r="9.951" class="cls-6"/>
                    <path id="Path_24643" d="M185.63 108.783a3.815 3.815 0 1 0-6.538 2.667 3.8 3.8 0 0 0-1.092 2.666 1.148 1.148 0 0 0 2.3 0 1.519 1.519 0 1 1 3.037 0 1.148 1.148 0 0 0 2.3 0 3.8 3.8 0 0 0-1.092-2.667 3.8 3.8 0 0 0 1.085-2.666zm-3.815-1.519a1.519 1.519 0 1 1-1.519 1.519 1.52 1.52 0 0 1 1.519-1.519z" class="cls-4" transform="translate(-171.864 -100.166)"/>
                </g>
                <g id="Group_5907" transform="translate(42.729 85.383)">
                    <g id="Group_5906">
                        <path id="Path_24644" d="M235.381 400.329a1.144 1.144 0 0 1-.812-.336l-1.34-1.339a1.148 1.148 0 1 1 1.623-1.624l.528.528.528-.528a1.148 1.148 0 1 1 1.623 1.624l-1.34 1.339a1.145 1.145 0 0 1-.81.336z" class="cls-4" transform="translate(-232.893 -396.693)"/>
                    </g>
                </g>
            </g>
        </g>
        <g id="Group_5910" transform="translate(34.072 4.516)">
            <path id="Path_24645" fill="#674cf3" d="M162.4 19.665h-46.17a8.044 8.044 0 0 0-8.037 8.033v86.743a8.044 8.044 0 0 0 8.037 8.033h46.17a8.044 8.044 0 0 0 8.037-8.033V77.49c1.13-.793 2.094-2.5 2.876-5.107a53.409 53.409 0 0 0 1.8-12.23 1.148 1.148 0 0 0-2.294-.105c-.5 10.8-2.832 15.368-3.839 15.649l-.346-.091c-.487-.339-1.422-1.587-2.288-5.014a60.621 60.621 0 0 1-1.478-14.172 60.6 60.6 0 0 1 1.478-14.171c.866-3.428 1.8-4.676 2.288-5.014l.345-.091c.986.278 3.287 4.742 3.823 15.29a1.148 1.148 0 0 0 2.293-.116c-.132-2.593-.932-14.371-4.659-16.972V27.7a8.044 8.044 0 0 0-8.037-8.033zm0 100.515h-46.17a5.746 5.746 0 0 1-5.741-5.738V27.7a5.746 5.746 0 0 1 5.741-5.738h46.17a5.746 5.746 0 0 1 5.741 5.738v7.25a2.638 2.638 0 0 0-.319.125l-28.819 7.6a11.1 11.1 0 1 0-11.711 12.779v5.426a8.04 8.04 0 0 0 5.986 7.767l34.5 9.1a2.664 2.664 0 0 0 .365.142v36.547a5.746 5.746 0 0 1-5.743 5.744zm.173-63.761a62.938 62.938 0 0 0 1.548 14.734 21.62 21.62 0 0 0 1.2 3.577l-31.454-8.3a5.743 5.743 0 0 1-4.275-5.548v-5.507a11.022 11.022 0 0 0 2.714-.741 1.148 1.148 0 1 0-.883-2.119 8.8 8.8 0 1 1 4.8-4.872 1.148 1.148 0 0 0 2.133.849 11.025 11.025 0 0 0 .767-3.47l26.212-6.916c-1.875 4.083-2.755 11.374-2.755 18.313z" transform="translate(-108.195 -19.665)"/>
            <path id="Path_24646" d="M412.17 182.546l3.876.888a1.148 1.148 0 0 0 1.3-.641l.175-.382 3.633.733a1.148 1.148 0 1 0 .454-2.251l-4.524-.913a1.149 1.149 0 0 0-1.271.647l-.165.36-2.965-.679a1.148 1.148 0 0 0-.513 2.239z" class="cls-18" transform="translate(-341.681 -143.166)"/>
            <path id="Path_24647" d="M411.449 140.979a1.148 1.148 0 0 0 1.581.372l3.374-2.088a1.148 1.148 0 0 0 .47-1.383l-.145-.382 3.08-2.019a1.148 1.148 0 1 0-1.259-1.92l-3.851 2.525a1.148 1.148 0 0 0-.444 1.367l.136.358-2.569 1.59a1.148 1.148 0 0 0-.373 1.58z" class="cls-18" transform="translate(-341.681 -107.273)"/>
            <path id="Path_24648" d="M414.7 211.747l3.851 2.525a1.148 1.148 0 1 0 1.259-1.92l-3.08-2.019.145-.382a1.148 1.148 0 0 0-.47-1.383l-3.374-2.088a1.148 1.148 0 1 0-1.208 1.953l2.569 1.59-.136.358a1.148 1.148 0 0 0 .444 1.367z" class="cls-18" transform="translate(-341.682 -163.469)"/>
        </g>
    </g>
</svg>
