<svg xmlns="http://www.w3.org/2000/svg" xmlns:xlink="http://www.w3.org/1999/xlink" width="256" height="256" viewBox="0 0 256 256">
    <defs>
        <style>
            .cls-1{fill:#ececec}.cls-2{clip-path:url(#clip-path)}.cls-3{fill:#edfcfa}.cls-4{fill:url(#linear-gradient)}.cls-5{fill:url(#linear-gradient-2)}.cls-6{fill:url(#linear-gradient-3)}.cls-7{fill:url(#linear-gradient-4)}.cls-8{clip-path:url(#clip-path-2)}.cls-9{fill:url(#linear-gradient-5)}.cls-10,.cls-81{fill:#00fbed}.cls-10{opacity:.43}.cls-11,.cls-18{fill:#c6d5ff}.cls-11{opacity:.28}.cls-12,.cls-17,.cls-68{fill:#fff}.cls-13{fill:#e6eaff}.cls-14{fill:#c6ddff}.cls-15{fill:#18106f}.cls-16{opacity:.99;fill:url(#linear-gradient-6)}.cls-17,.cls-28{opacity:.2}.cls-19{fill:url(#linear-gradient-7)}.cls-20{fill:#003b4d}.cls-21{clip-path:url(#clip-path-6)}.cls-22{fill:url(#linear-gradient-8)}.cls-23,.cls-24{opacity:.35}.cls-23{fill:url(#linear-gradient-9)}.cls-24{fill:url(#linear-gradient-10)}.cls-25{clip-path:url(#clip-path-7)}.cls-26{fill:url(#linear-gradient-11)}.cls-27{fill:none;stroke:#00edff;stroke-linecap:round;stroke-linejoin:round;stroke-miterlimit:10;stroke-width:.249px}.cls-28,.cls-29,.cls-31{fill:#00edff}.cls-29{opacity:.59}.cls-30,.cls-64{opacity:.36}.cls-31,.cls-32,.cls-33,.cls-65,.cls-66{opacity:.66}.cls-32{fill:#3efcff}.cls-33{fill:#8bfcff}.cls-34,.cls-36,.cls-37,.cls-38,.cls-51,.cls-52,.cls-53,.cls-69,.cls-70{opacity:.41}.cls-34{fill:url(#linear-gradient-12)}.cls-35{fill:#4ffcff}.cls-36{fill:url(#linear-gradient-13)}.cls-37{fill:url(#linear-gradient-14)}.cls-38{fill:url(#linear-gradient-15)}.cls-39{fill:#ffd5b6}.cls-40{fill:#f6fcff}.cls-41{fill:#181f47}.cls-42{fill:#ff8b99}.cls-43{fill:#3ff8ff}.cls-44{fill:#d7e9ff}.cls-45{fill:#001329}.cls-46{fill:#002d71}.cls-47{fill:#00134b}.cls-48{fill:#002e72}.cls-49{fill:#0059d2}.cls-50{fill:#08f}.cls-51{fill:url(#linear-gradient-16)}.cls-52{fill:url(#linear-gradient-17)}.cls-53{fill:url(#linear-gradient-18)}.cls-54{fill:#00227a}.cls-55{fill:#003373}.cls-56{fill:#ffa08e}.cls-57{fill:#00abff}.cls-58{fill:#009df8}.cls-59{fill:#ff9c23}.cls-60{fill:#b2fdff}.cls-61{fill:url(#radial-gradient)}.cls-62{fill:url(#radial-gradient-2)}.cls-63,.cls-64,.cls-65,.cls-67{fill:#00fcff}.cls-63{opacity:.24}.cls-66{fill:#c4fdff}.cls-67{opacity:.63}.cls-68{opacity:.72}.cls-69{fill:#0ed5d1}.cls-70{fill:#00fcf9}.cls-71{fill:#006bcd}.cls-72{fill:#43d9ff;opacity:.51}.cls-73{fill:#ffc2ab}.cls-74{fill:#ffc4a8}.cls-75{fill:#ffa28e}.cls-76{fill:url(#linear-gradient-19)}.cls-77{fill:url(#linear-gradient-20)}.cls-78{fill:#001d5e}.cls-79{fill:#001045}.cls-80{fill:#00fcfc;opacity:.69}
        </style>
        <clipPath id="clip-path">
            <path id="Rectangle_1" d="M0 0h256v256H0z" class="cls-1" data-name="Rectangle 1" transform="translate(347.213 213.213)"/>
        </clipPath>
        <linearGradient id="linear-gradient" x1=".201" x2=".873" y1=".093" y2=".927" gradientUnits="objectBoundingBox">
            <stop offset="0" stop-color="#8039db"/>
            <stop offset="1" stop-color="#00d3b4"/>
        </linearGradient>
        <linearGradient id="linear-gradient-2" x1="-3.377" x2="-5.866" y1="1.149" y2="1.523" gradientUnits="objectBoundingBox">
            <stop offset="0" stop-color="#8039db"/>
            <stop offset="1" stop-color="#674cf3"/>
        </linearGradient>
        <linearGradient id="linear-gradient-3" x1="3.004" x2="3.96" y1=".713" y2=".713" xlink:href="#linear-gradient-2"/>
        <linearGradient id="linear-gradient-4" x1="-6.18" x2="-5.217" y1=".196" y2=".713" xlink:href="#linear-gradient-2"/>
        <clipPath id="clip-path-2">
            <path id="Path_92" d="M60.1 94.549c-21.32 22.089-38.175 66.5-13.315 91.9 9.723 9.929 26.246 5.8 36.893 13.854 10.416 7.876 13.213 21.781 22.808 30.2 22.449 19.729 52.85 20.037 73.195-4.233 20.191-24.09 5.542-54.749 18.728-80.866 9.7-19.216 43.358-29.76 38.791-54.723-6.26-34.276-34.019-11.34-53.979-14.316C158 72.614 148.3 40.314 122.207 47.241c-12.6 3.335-14.829 18.677-23.116 26.015C87.188 83.774 70.9 83.363 60.1 94.549z" data-name="Path 92" transform="translate(-34.409 -46.27)"/>
        </clipPath>
        <linearGradient id="linear-gradient-5" x1=".846" x2="1.342" y1="-.248" y2=".464" xlink:href="#linear-gradient-2"/>
        <linearGradient id="linear-gradient-6" x1="-149.703" x2="-148.71" y1="2.182" y2="2.182" gradientUnits="objectBoundingBox">
            <stop offset="0" stop-color="#a728ac"/>
            <stop offset=".134" stop-color="#a32dad"/>
            <stop offset=".283" stop-color="#973ab2"/>
            <stop offset=".438" stop-color="#8350b9"/>
            <stop offset=".598" stop-color="#666fc3"/>
            <stop offset=".761" stop-color="#4297d0"/>
            <stop offset=".925" stop-color="#16c6df"/>
            <stop offset="1" stop-color="#00dfe7"/>
        </linearGradient>
        <linearGradient id="linear-gradient-7" x1="-19.777" x2="-18.469" y1=".388" y2=".388" gradientUnits="objectBoundingBox">
            <stop offset="0" stop-color="#a1cfff"/>
            <stop offset=".389" stop-color="#bce2fc"/>
            <stop offset=".734" stop-color="#cdedfa"/>
            <stop offset=".994" stop-color="#d3f1f9"/>
        </linearGradient>
        <clipPath id="clip-path-6">
            <path id="Path_116" d="M198.857 214.448l-42.691 24.475-74.5-45.9-15.47-57.289 114.038-12.956 39.817 53.492z" data-name="Path 116" transform="translate(-66.193 -122.782)"/>
        </clipPath>
        <linearGradient id="linear-gradient-8" x2="1" y1=".5" y2=".5" gradientUnits="objectBoundingBox">
            <stop offset="0" stop-color="#15c1ff"/>
            <stop offset="1" stop-color="#87ff55"/>
        </linearGradient>
        <linearGradient id="linear-gradient-9" x1="1" x2="0" y1=".488" y2=".512" gradientUnits="objectBoundingBox">
            <stop offset="0" stop-color="#0049d4"/>
            <stop offset="1" stop-color="#a215ff"/>
        </linearGradient>
        <linearGradient id="linear-gradient-10" x1=".994" x2=".042" y1=".488" y2=".511" xlink:href="#linear-gradient-9"/>
        <clipPath id="clip-path-7">
            <circle id="Ellipse_8" cx="40.484" cy="40.484" r="40.484" data-name="Ellipse 8"/>
        </clipPath>
        <linearGradient id="linear-gradient-11" x1=".129" x2=".886" y1=".178" y2=".776" xlink:href="#linear-gradient-8"/>
        <linearGradient id="linear-gradient-12" x2="1" y1=".499" y2=".499" xlink:href="#linear-gradient-8"/>
        <linearGradient id="linear-gradient-13" x2="1" y1=".501" y2=".501" xlink:href="#linear-gradient-8"/>
        <linearGradient id="linear-gradient-14" x2="1" y1=".501" y2=".501" xlink:href="#linear-gradient-8"/>
        <linearGradient id="linear-gradient-15" x1=".152" x2=".848" y1="-.108" y2="1.111" xlink:href="#linear-gradient-8"/>
        <linearGradient id="linear-gradient-16" x1=".001" x2="1" y1=".5" y2=".5" xlink:href="#linear-gradient-8"/>
        <linearGradient id="linear-gradient-17" x2="1" y1=".499" y2=".499" xlink:href="#linear-gradient-8"/>
        <linearGradient id="linear-gradient-18" x2="1" y1=".5" y2=".5" xlink:href="#linear-gradient-8"/>
        <radialGradient id="radial-gradient" cx="19.517" cy="1.131" r="29.774" gradientUnits="userSpaceOnUse">
            <stop offset="0" stop-color="#a728ac" stop-opacity=".2"/>
            <stop offset=".127" stop-color="#a32dad" stop-opacity=".302"/>
            <stop offset=".268" stop-color="#983aaf" stop-opacity=".416"/>
            <stop offset=".415" stop-color="#8650b3" stop-opacity=".533"/>
            <stop offset=".567" stop-color="#6c6fb8" stop-opacity=".655"/>
            <stop offset=".722" stop-color="#4c97bf" stop-opacity=".776"/>
            <stop offset=".877" stop-color="#24c7c7" stop-opacity=".902"/>
            <stop offset="1" stop-color="#00f2cf"/>
        </radialGradient>
        <radialGradient id="radial-gradient-2" cx="13.766" cy=".786" r="21.019" xlink:href="#radial-gradient"/>
        <linearGradient id="linear-gradient-19" x1=".087" x2="1.054" y1="-.053" y2="1.62" gradientUnits="objectBoundingBox">
            <stop offset="0" stop-color="#e6f4f8"/>
            <stop offset="1" stop-color="#dde9ff"/>
        </linearGradient>
        <linearGradient id="linear-gradient-20" x1="15.861" x2="16.828" y1="-.053" y2="1.62" xlink:href="#linear-gradient-19"/>
    </defs>
    <g id="Mask_Group_2" class="cls-2" data-name="Mask Group 2" transform="translate(-347.213 -213.213)">
        <g id="login2" transform="translate(347 215.962)">
            <path id="Path_86" d="M32.64 65.372C5.676 93.156-15.669 149.111 15.6 181.206c12.238 12.546 33.07 7.389 46.462 17.574 13.11 9.954 16.6 27.528 28.657 38.15 28.272 24.963 66.6 25.425 92.334-5.105 25.527-30.325 7.158-69.013 23.86-101.955 12.293-24.194 54.753-37.406 49.087-68.86-7.8-43.229-42.87-14.418-68.038-18.215-31.787-4.772-43.922-45.538-76.864-36.867-15.91 4.182-18.732 23.526-29.225 32.736C66.89 51.851 46.314 51.287 32.64 65.372z" class="cls-3" data-name="Path 86" transform="translate(-.089 -4.722)"/>
            <g id="Group_70" data-name="Group 70" transform="translate(22.002 19.577)">
                <g id="Group_29" data-name="Group 29">
                    <path id="Path_87" d="M60.1 94.549c-21.32 22.089-38.175 66.5-13.315 91.9 9.723 9.929 26.246 5.8 36.893 13.854 10.416 7.876 13.213 21.781 22.808 30.2 22.449 19.729 52.85 20.037 73.195-4.233 20.191-24.09 5.542-54.749 18.728-80.866 9.7-19.216 43.358-29.76 38.791-54.723-6.26-34.276-34.019-11.34-53.979-14.316C158 72.614 148.3 40.314 122.207 47.241c-12.6 3.335-14.829 18.677-23.116 26.015C87.188 83.774 70.9 83.363 60.1 94.549z" class="cls-4" data-name="Path 87" transform="translate(-34.409 -39.212)"/>
                    <path id="Path_88" d="M305.322 204.117c4.926 3.258-2.822 17.446-.59 29.145 3.977 20.858-8.672 28.3-11.16 15.214-4.002-20.858 1.488-51.157 11.75-44.359z" class="cls-5" data-name="Path 88" transform="translate(-126.96 -95.519)"/>
                    <path id="Path_89" d="M76.086 70.15c17.087 7.979 46.231-18.061 37.765-31.813s-57.674 22.5-37.765 31.813z" class="cls-6" data-name="Path 89" transform="translate(-47.68 -35.26)"/>
                    <path id="Path_90" d="M280.152 324.054c10.7-.1 19.216-20.576 11.494-25.527-7.697-4.952-23.963 25.655-11.494 25.527z" class="cls-7" data-name="Path 90" transform="translate(-120.98 -129.561)"/>
                    <g id="Group_28" data-name="Group 28" transform="translate(0 7.058)">
                        <g id="Group_24" class="cls-8" data-name="Group 24">
                            <path id="Path_91" d="M6.67 199.564c57.032 15.47 132.972-80.609 99.466-118.5-33.48-37.896-165.914 100.49-99.466 118.5z" class="cls-9" data-name="Path 91" transform="translate(-17.851 -56.411)"/>
                        </g>
                    </g>
                </g>
                <g id="Group_69" data-name="Group 69" transform="translate(15.527 16.264)">
                    <path id="Path_99" d="M227.794 162.2v-3.951a5.812 5.812 0 0 0-10.544-3.387v-2.206a6.747 6.747 0 0 0-13.495 0v.359a5.811 5.811 0 0 0-10.467 3.489v5.208a7.15 7.15 0 0 0-4.592 6.645 7.122 7.122 0 0 0 7.107 7.107h28.4a7.122 7.122 0 0 0 7.107-7.107 6.976 6.976 0 0 0-3.516-6.157z" class="cls-10" data-name="Path 99" transform="translate(-105.314 -91.241)"/>
                    <g id="Group_47" data-name="Group 47" transform="translate(4.849 39.843)">
                        <g id="Group_45" data-name="Group 45">
                            <g id="Group_37" data-name="Group 37" transform="translate(10.208 44.199)">
                                <g id="Group_36" data-name="Group 36">
                                    <g id="Group_35" data-name="Group 35">
                                        <g id="Group_34" data-name="Group 34">
                                            <g id="Group_33" data-name="Group 33">
                                                <path id="Path_100" d="M82.12 220.639l2.822-1.462 38.919-21.91a10.358 10.358 0 0 1 9.467.18l81.1 49.207 2.591 1.385-.026 1.9a3.391 3.391 0 0 1-1.975 2.668l-39.15 22.423a10.382 10.382 0 0 1-9.441-.077L84.044 225.18a3.279 3.279 0 0 1-1.924-2.848z" class="cls-11" data-name="Path 100" transform="translate(-82.117 -193.336)"/>
                                                <path id="Path_101" d="M82.12 219.038l2.822-1.462 38.919-21.91a10.358 10.358 0 0 1 9.467.18l81.1 49.207 2.591 1.385-.026 1.9a3.391 3.391 0 0 1-1.975 2.668l-39.15 22.423a10.382 10.382 0 0 1-9.441-.077l-82.38-49.772a3.279 3.279 0 0 1-1.924-2.848z" class="cls-12" data-name="Path 101" transform="translate(-82.117 -192.762)"/>
                                                <path id="Path_102" d="M123.9 192.785a10.358 10.358 0 0 1 9.467.18l81.79 49.618c2.54 1.565 2.489 4.028-.1 5.516L175.9 270.521a10.382 10.382 0 0 1-9.441-.077l-82.38-49.72c-2.617-1.565-2.566-4.054.077-5.542z" class="cls-13" data-name="Path 102" transform="translate(-82.127 -191.727)"/>
                                                <g id="Group_31" data-name="Group 31" transform="translate(22.811 11.55)">
                                                    <g id="Group_30" data-name="Group 30">
                                                        <path id="Path_103" d="M117.7 210.848c0 .616 1 1.154 2.258 1.154 1.257.026 2.283-.462 2.283-1.1 0-.616-1-1.154-2.258-1.154-1.258-.029-2.283.484-2.283 1.1z" class="cls-14" data-name="Path 103" transform="translate(-117.699 -209.744)"/>
                                                        <path id="Path_104" d="M118.019 210.909c0 .539.9.975 2.052.975 1.129.026 2.078-.385 2.078-.924 0-.513-.9-.975-2.052-.975s-2.078.415-2.078.924z" class="cls-13" data-name="Path 104" transform="translate(-117.814 -209.83)"/>
                                                        <path id="Path_105" d="M118.82 211.077c0 .385.667.718 1.514.744s1.539-.308 1.539-.693-.667-.718-1.514-.744c-.821-.025-1.514.283-1.539.693z" class="cls-14" data-name="Path 105" transform="translate(-118.101 -209.973)"/>
                                                        <path id="Path_106" d="M119.34 211.163c0 .308.539.564 1.206.59.667 0 1.206-.231 1.206-.539s-.539-.564-1.206-.59-1.206.232-1.206.539z" class="cls-15" data-name="Path 106" transform="translate(-118.288 -210.059)"/>
                                                        <path id="Path_107" d="M120.34 211.322c0 .154.257.257.564.282.308 0 .564-.1.59-.257 0-.154-.257-.257-.564-.282-.33.001-.59.103-.59.257z" class="cls-16" data-name="Path 107" transform="translate(-118.647 -210.218)"/>
                                                        <path id="Path_108" d="M118.98 210.7c0 .205.334.359.77.385.436 0 .77-.154.8-.359 0-.205-.334-.359-.77-.385-.467.004-.8.159-.8.359z" class="cls-17" data-name="Path 108" transform="translate(-118.159 -209.96)"/>
                                                        <path id="Path_109" d="M121.541 211.431c0 .077.128.128.308.154.154 0 .308-.051.308-.128s-.128-.128-.308-.154a.278.278 0 0 0-.308.128z" class="cls-17" data-name="Path 109" transform="translate(-119.078 -210.302)"/>
                                                    </g>
                                                </g>
                                                <g id="Group_32" data-name="Group 32" transform="translate(105.6 59.061)">
                                                    <path id="Path_110" d="M246.844 286.375c-.026 1.437 2.489 2.642 5.593 2.694s5.67-1.078 5.7-2.514-2.489-2.643-5.593-2.694c-3.135-.078-5.675 1.051-5.7 2.514z" class="cls-18" data-name="Path 110" transform="translate(-246.843 -283.857)"/>
                                                    <path id="Path_111" d="M248.765 286.626c-.026 1.1 1.95 2.027 4.413 2.052 2.437.026 4.438-.821 4.464-1.924s-1.95-2.027-4.413-2.052c-2.463-.052-4.464.821-4.464 1.924z" class="cls-19" data-name="Path 111" transform="translate(-247.533 -284.159)"/>
                                                    <path id="Path_112" d="M248.765 286.626c-.026 1.1 1.95 2.027 4.413 2.052 2.437.026 4.438-.821 4.464-1.924s-1.95-2.027-4.413-2.052c-2.463-.052-4.464.821-4.464 1.924z" class="cls-13" data-name="Path 112" transform="translate(-247.533 -284.159)"/>
                                                </g>
                                            </g>
                                            <path id="Path_113" d="M207.519 240.635l-42.69 24.475-74.5-45.9 41.536-23.475z" class="cls-20" data-name="Path 113" transform="translate(-85.063 -193.167)"/>
                                        </g>
                                    </g>
                                </g>
                            </g>
                            <g id="Group_44" data-name="Group 44">
                                <g id="Group_43" class="cls-21" data-name="Group 43">
                                    <g id="Group_41" data-name="Group 41" transform="translate(33.84 21.294)">
                                        <g id="Group_40" data-name="Group 40">
                                            <circle id="Ellipse_5" cx="44.769" cy="44.769" r="44.769" class="cls-22" data-name="Ellipse 5"/>
                                            <circle id="Ellipse_6" cx="43.383" cy="43.383" r="43.383" class="cls-23" data-name="Ellipse 6" transform="translate(1.385 1.385)"/>
                                            <circle id="Ellipse_7" cx="40.484" cy="40.484" r="40.484" class="cls-24" data-name="Ellipse 7" transform="translate(4.284 4.284)"/>
                                            <g id="Group_39" data-name="Group 39" transform="translate(4.284 4.284)">
                                                <g id="Group_38" class="cls-25" data-name="Group 38">
                                                    <path id="Path_114" d="M153.969 182.91l.154-.513v-1.129a2.621 2.621 0 0 1-.641 0c-.1-.051-.026-.359-.026-.359l.513-.462-1.052.231-.385.59-1.154.718.513.308.334.231.513.077v-.334s.59-.154.718.077l-.077.411zm-12.982 16.214a1.166 1.166 0 0 0-.949 0 .785.785 0 0 1-.744.8l.847.487.847-.308 1.129-.385.949.693c.718-.872 0-1.385 0-1.385zm18.213 16.343l-.821-.18-1.437-.924h-1.257l-1.1-.564h-.436s.077-.616-.051-.667-1.1-.616-1.1-.616l-.744.257v-.513l-.513-.231h-.441l.051-.436s.385-.77.18-.924a10.592 10.592 0 0 1-1-1.9l-1.18-.667h-1.257l-1.1-1.052-1.1-.872-.616-1.231-.667-.436s-.744.487-.924.436-1.257-.436-1.257-.436l-.924-.257-1.129.513v1.18l-.436-.308v-.385l.385-.744.18-.513-.385-.18-.513.616-1.308.385-.257.564-.616.564-.18.487-.975-.8a7.706 7.706 0 0 1-1 .436 6.758 6.758 0 0 1-1-.667l-.487-.924.257-1.231.231-1.257-.821-.513h-1.129l-.9-.257.41-.667.487-.975.436-.693a1.073 1.073 0 0 1 .257-.385c.564-.282 0-.564 0-.564a7.944 7.944 0 0 0-1.36 0c-.18.077-.667.359-.667.359v1l-.872.385-1.36.308-.924-.924a9.834 9.834 0 0 1-.436-1.565l.564-.513.257-.436.051-1.052.564-.487.231-.564.667-.487.616-.564.564-.18.8.18c.051-.308 1.488-.18 1.488-.18l.564-.026-.051-.334c.257-.231 1.129 0 1.129 0l1.18-.1c.257.051.487.59.487.59l-.513.487.359 1.052.359.487-.128.487.821-.128.051-.821.051-1-.128-1.1.8-1.693 3.181-2.052-.051-.744.231-1.052.564.205 1-1.206 1.308-.436.8-.539.385-.8 1.437-.436 1.437-.744-.667.693-.077.616.8-.18.693-.385.616-.18.564-.18.18-.385h-.385l-.616-.231c-.385-.308-.872-.667-.872-.667a.417.417 0 0 1 .128-.385l.385-.359s.18-.205.051-.205-1.1-.205-1.1-.205l-1.052.411h-.616l.744-.641h.821l.924-.231h1.924l1.052-.231.744-.41.924-.1.257-.975-.616-.539-.872-.462-.18-1.026-.487-1.052h-.436l-.051.564h-.693l-.18.359-.257.18-.436.077-.385-.385.513-.564-.616-.564-.744-.385h-.8l-.564.18-.8.924-.616.513.18.487-.231.718.128.282-.744.257-.821.18-.359-.077-.257.359.487.975-.487.334h-.667l-.564-.693-.128-.41.385-.205-.308-.539-.924-.051-1.231-.77h-.539l-.128-.462-.385-.18.564-.667.821-.487 1.437-.513.513-.18 1.129-.257.8-.436.693-.616h.924l1.1-.282h.693l.308-.821h-1.411l-.513.411h-.9a1.581 1.581 0 0 0-.693-.411v-.308l.487-.436.616-.487a3.526 3.526 0 0 0 .513-.924l1.257.436.949-.051.667-.026.821.051.487.18c-.128.359-.667.077-.667.077l-1.565.18-.693.385.231-.487-.744.051-.872.564.616.308h1.437l.8.308.667-.257.693.257.821.257-1 .308-.872.411-.872.18-.693.257.308.616 1.847-.051 1.129.693h.975l.051-.385.231-.385.436-.077-.359-.487-.128-.359h.513l.436.334c.359.257 1.1-.334 1.1-.334l1.1-.41-1.36-.41-.436-.436c.128-.257-1.437-.667-1.437-.667l-1.231-.744-.308-.308h-1.052l.821-.359 2.052.231 1.052-.231 2.412-.616 1.616-.385 1.18-.436-1.36-.231s-.975.257-1.1.257-1.257.077-1.411.077h-3.053l-.975.231.872.231-.513.308h-.935l-.513.18.693-.513-.744-.18-.924.231-1.129.667.513.18.744-.308.616.128-.667.18-.257.359.436.128-1.18.077-2.052-.359-.821 1-1.668 1.18.436.359-.308.18-.385.205-1.129-.205-1.565.411-2.9.718-9.672 9.339-3.848 5.028-2.232 13.392 3.925-1.308.616.667 1.052.18.693.436.744-.308.616.616 1.36.744 1.308.18.385 1.308s.924.821.872 1 .308.975.487.975a8.55 8.55 0 0 1 1.257.564l.744.077.308-.667h.667v.667l.257.359.077 1 .257.744-.436.487-.693.872-.872 1.231.077 1.18-.231.8.667.231-.564.8a9.615 9.615 0 0 1 .308 1 9.313 9.313 0 0 0 .487 1.1l.616.513.257.872 1.488 3.053 1.052.872 1.539.8a12.565 12.565 0 0 1 1 1.18c.051.128.513 2.052.513 2.052l-.051 1.1.308 1.129.077 1.257.128 1.745.436 1.411.385 1.847-.487.616.308.9.359 1.334.616.667-.051 1.052.128 1.052 2.719 2.9.513.564v-1.36l.872-.513v-.8l-.872-.385v-.62l.436-.385.436-.693v-.564c.359-.128 0-.513 0-.513h-.59l-.051-.564h.564l.231.359.462-.359-.359-.693c.077-.231.693 0 .693 0l1.052-.616.436-.513v-.693l-.513-.436-.436-.693h.513s.8.385 1.052 0 .667-.924.667-.924l.487-1.129s.924-1.668 1-1.8a13.156 13.156 0 0 0 0-1.745l1.437-1.18h.975l.8-1.308.616-.872v-1.462l.231-1.411-.359-1.385 1.231-1.616.924-.872-.359-1.616zm9.749-34.378l.308.18.41-.359h.539l.513-.18.231-.334-.1-.436.231-.231c.026-.359-.539-.616-.539-.616h-.334l-.41.462h-.41l-.154.513.077.41-.359.205zm2.643-3.31l-.436.205v.667l.051.18a1.775 1.775 0 0 1 .051.41l.334.231.334.205.154.308s-.051.308-.231.308l-.411.128.154.282s-.308.154-.334.282l.282.205-.257.257h-.539v.308h1.156l.462-.308.693.128a6.958 6.958 0 0 1 .693-.128l-.1-.128.18-.231.282-.334-.359-.154-.41-.128.051-.41-.385-.282-.564-.308-.051-.564.051-.487h-.59l-.128-.257.359-.334h-.487zm3.258 2.129v-.18h.41l.231-.154v-.616l.308-.154-.1-.487-.462-.18-.693.231v.385l-.41.051-.1.334.308.128-.462.282-.128.205.41.359zm25.065 15.085l1.642.9.847-.334.564.8 1.514.333.667.334 1.822-4.849-.513-2.591-8.235-13.443-2.437-1.822h-2.95l-1.308.18-.334.667-.693-.231-.334-.616h-.667l.282.282.231.462h-1.026v.616l-.744-.1-.436-.077-.257.128.231.154.334.077-.308.1-.385-.154-.487-.154-.154-.334-.359-.282-.41-.051-.308-.334.641.051.564.257.462.051s.282-.077.334-.026a3.772 3.772 0 0 0 .693.154l.385-.282-.641-.513-1.154-.334s-1.924-.257-2-.257a8 8 0 0 1-.821-.257l-.667-.154h-1.462l-2.232.41-1.231.8-1.462 1.334s-1.257.18-1.334.205a6.393 6.393 0 0 0-.59.564l.282.641-.077.308.205.154.154.282.205.308.744-.1.8-.462.616.333.462.821.1.487.564.1.385-.334.41-.1.205-.641.026-.513.539-.154v-.334l-.205-.154-.257-.154-.1-.59.821-.513a3.817 3.817 0 0 0 .436-.462c0-.077.205-.308.205-.308s.334.026.462.026c.1.026.693.205.693.205l.205.154-.667.333-.385.41-.282.205.282.641.718.359.641-.128 1-.051s1.154.231 1.206.282c.051.026-.334.154-.334.154l-.436.128-.257.154-.41-.205a1.128 1.128 0 0 0-.59-.205 1.1 1.1 0 0 0-.487.205l.282.41.385.257s-.154.462-.282.462c-.1-.026-.308-.334-.308-.334l-.41-.154-.282.154.026.41-.1.564-.462.282-.334.257-.436-.257-.564.154-.975-.051-.205.205-.334-.154s-.847.026-.9.051a2.878 2.878 0 0 1-.564-.257l-.205-.487.282-.334-.128-.154-.1-.282.18-.205-.282-.077-.462.462-.026.436s.231.41.257.462a2.216 2.216 0 0 1 .026.385l-.462.18-.487.154.1.18.513.1-.154.282-.282.026-.154.359-.1.205-.41-.1.026-.257.026-.333-.154-.154-.231.257-.257.334-.59.1-.282.205-.18.41-.436.205-.334.205-.513-.282-.077.128.1.282-.128.154-.693-.051-.385-.051-.051.513.667.1.334.282s.257.308.308.308.41.1.41.1l-.154.8-.334.744-1.36-.026-1.488-.026-.462.18-.154.41.128.436-.282.847-.1.436a2.8 2.8 0 0 0 .026.436c.026.051.257.436.257.436l-.154.616.487.154.821.051.436.231.334.051.539-.231.821-.1.77-.641-.128-.77.462-.59 1-.641.436-.154-.051-.641.59-.334.59.205.41-.205 1.206-.359 1.206 1.129 1.668 1.154.359.744c.025.051-.257.462-.257.462h-.949l-.334.077s.1.282.18.282.821.333.821.333l.231.18.128-.026-.026-.333.077-.334.257.026a2.506 2.506 0 0 0 .282-.359c.026-.077.257-.462.257-.462l-.205-.385.1-.257.308.026.026.385h.1l-.026-.462-.282-.18-.41-.257-.282-.41-.462-.128-.539-.385-.128-.436-.513-.257-.128-.41.154-.411.334-.051.026.41.334.1.205-.128.334.59.667.385.513.308.334.026.539.59.128.77 1.026 1.052.154.744.718.513.205-.154-.1-.462.41-.205-.128-.333-.41-.154-.154-.333.077-.513-.231-.282.205.026.154.205.257-.334.436.026.436.18.334.436.334.513a1.137 1.137 0 0 0-.231.18c-.026.051.18.41.18.41l.41.385.334.462.641-.026.077.282.462.051.462-.1.128-.282.205.282.513.18.462-.026.385-.41.334.154.257.154-.1.359.231.744-.334.744v.975h-1.975l-.744.282-1.231-.616-.8.1-1.36-.487h-1.078l-.334.308.18.513-.41.41-1.078-.667-.847.1-.334-.564-1.257-.385-.9-.41-.667-.334.8-.949-.231-.8-.564-.334-3.335.385-1.308.513-.847.051-.9.334-1.078-.231-.693.847-.847.564-.77 1.591.205.693-.975.949-.975.385-.462.9s-1.026 2.309-1.129 2.489a5.967 5.967 0 0 0 0 1.36l.41 1.36-.975 2.309.385 1.129.513 1.026 1.36 1.924-.051.975 2.822 2.129 1.873-.744 1.822.564 2.258-1.231s.744 0 .975.41a1.164 1.164 0 0 0 1.231.8c.847 0 1.257.949 1.257.949l-.385 1.078.18.564-.385.9.9 1.822.667 1.411.616 1.36.128 1.745-.128.975-1.078 1.873.334 2.925.385.667-.128.462.667.693.41 1.642-.402 1.537.564 1.18s.513 1.257.564 1.411c.051.128.385.616.334.847s-.18.847-.18.847l.18.949h2.386l1.129-.385 2.771-2.822a6.536 6.536 0 0 0 .693-.949c.051-.128.41-1.873.41-1.873l1.975-.8v-1.539l-.41-1.231 1.026-.975 2.771-1.591.231-1.231v-2.1l-.513-1.591.128-.975-.513-.41.9-1.308.334-1.745 1.308-.8.282-.8 2.386-2.489.744-2.36.693-1.308v-1.411l-.667-.231-.744.616-1.026.1-1.078.282-.9-.564.1-.693-1.129-1.257-1.129-.667-.513-1.693-1.078-1.026-.1-1.308-.8-1.18-.975-2.206-1.026-1.026-.1-.847.41.18.462.385.18.693c.385 0 .513-.693.513-.693l.334.693.334.9 1.026 1.539.564.1.667 1.36-.051.616 1.873 1.924.334 1.8.334.8.616.616 2.822-.744.513-.462 1.241-.388v-.56l1.411-.949.59-1.1.334-.564.462-.667-.8-1.078-1.078-.924-.359-.872-.41.1-.282.847-1.078.282-.564-.385-.18-.8-.385.1-.564-1.026-.513-.282-.667-1.078.462-.513zm-22.012-6.927l.1-.436v-.641a.744.744 0 0 0-.359-.18.393.393 0 0 0-.257.1v.718a1.224 1.224 0 0 1 0 .436h.513zm0-1.924a.316.316 0 0 0-.359-.334l-.18.487.18.385h.359zm-12.828-12.853h1.77l.949-1.385H170l.359-.872 1.36-.718c.641-.564 0-1.565 0-1.565l-2.771-.359-2.745.359-4-.744-2.463 1.129a9.416 9.416 0 0 1-2.027.872 8.824 8.824 0 0 0-1.437 0 4.667 4.667 0 0 0 1.283.872 2.9 2.9 0 0 0 .872 0 2.464 2.464 0 0 0 .154.949c.564.641-.59 1.129-.59 1.129v.744s.128 1.437.359 1.36.641.77.641.77l.744.8h1.334l1.693-2 1.668-.718zm34.584 47.873l-.205-.59-.257.257-.205.487-.487.308-.205.641-.308.77-1.206.385-.539.9-.128 1.488-.436.718-.487.539.18.872.334.41-.334.462.334.282h1.154l.641-.975s.539-1.129.539-1.206c0-.1.257-1.129.257-1.129l.9-1.18v-1.591h.616l-.18-1.154zm-62.676-23.808l-1.36-.462s-.385.051-.821.154a5.146 5.146 0 0 0-.949.308l1.924.667h.77l1.308 1.129h.872s.718-.308.487-.872l-1.129-.41z" class="cls-26" data-name="Path 114" transform="translate(-124.183 -164.592)"/>
                                                </g>
                                            </g>
                                        </g>
                                    </g>
                                    <path id="Line_1" d="M0 0l4.182 13.828" class="cls-27" data-name="Line 1" transform="translate(27.118 57.109)"/>
                                    <g id="Group_42" data-name="Group 42" transform="translate(26.092 56.083)">
                                        <circle id="Ellipse_9" cx="1.026" cy="1.026" r="1.026" class="cls-28" data-name="Ellipse 9"/>
                                        <path id="Path_115" d="M108.72 211.578a.513.513 0 1 1-.513-.513.484.484 0 0 1 .513.513z" class="cls-29" data-name="Path 115" transform="translate(-107.181 -210.552)"/>
                                    </g>
                                </g>
                            </g>
                        </g>
                        <g id="Group_46" class="cls-30" data-name="Group 46" transform="translate(118.015 35.61)">
                            <path id="Path_117" d="M253.723 270.1l-3.438 2.052v-4.207l3.438-2.052z" class="cls-31" data-name="Path 117" transform="translate(-250.286 -209.759)"/>
                            <path id="Path_118" d="M253.723 260.35l-3.438 2.052v-4.182l3.438-2.052z" class="cls-31" data-name="Path 118" transform="translate(-250.286 -206.269)"/>
                            <path id="Path_119" d="M253.723 250.625l-3.438 2.052V248.5l3.438-2.052z" class="cls-31" data-name="Path 119" transform="translate(-250.286 -202.778)"/>
                            <path id="Path_120" d="M253.723 240.9l-3.438 2.052v-4.182l3.438-2.052z" class="cls-31" data-name="Path 120" transform="translate(-250.286 -199.287)"/>
                            <path id="Path_121" d="M253.723 231.176l-3.438 2.052v-4.182l3.438-2.052z" class="cls-31" data-name="Path 121" transform="translate(-250.286 -195.797)"/>
                            <path id="Path_122" d="M253.723 221.451l-3.438 2.052v-4.182l3.438-2.052z" class="cls-31" data-name="Path 122" transform="translate(-250.286 -192.306)"/>
                            <path id="Path_123" d="M253.723 211.726l-3.438 2.052V209.6l3.438-2.052z" class="cls-31" data-name="Path 123" transform="translate(-250.286 -188.816)"/>
                            <path id="Path_124" d="M253.723 201.987l-3.438 2.052v-4.207l3.438-2.052z" class="cls-31" data-name="Path 124" transform="translate(-250.286 -185.311)"/>
                            <path id="Path_125" d="M253.723 192.236l-3.438 2.052v-4.182l3.438-2.052z" class="cls-31" data-name="Path 125" transform="translate(-250.286 -181.82)"/>
                            <path id="Path_126" d="M253.723 182.511l-3.438 2.052v-4.182l3.438-2.052z" class="cls-31" data-name="Path 126" transform="translate(-250.286 -178.329)"/>
                        </g>
                        <ellipse id="Ellipse_10" cx="7.825" cy="14.136" class="cls-31" data-name="Ellipse 10" rx="7.825" ry="14.136" transform="rotate(-20.934 171.49 -61.603)"/>
                        <path id="Path_127" d="M135.267 226.538c0 4.926-2.848 7.26-6.363 5.208s-6.363-7.722-6.363-12.648 2.848-7.26 6.363-5.208c3.489 2.053 6.363 7.723 6.363 12.648z" class="cls-31" data-name="Path 127" transform="translate(-86.419 -155.216)"/>
                        <path id="Path_128" d="M128.045 227.34c0 2.643-1.539 3.9-3.412 2.8s-3.412-4.131-3.412-6.773 1.539-3.9 3.412-2.8c1.898 1.103 3.412 4.133 3.412 6.773z" class="cls-31" data-name="Path 128" transform="translate(-85.945 -157.736)"/>
                        <path id="Path_129" d="M124.05 228.777c0 1.668-.975 2.463-2.155 1.77a5.4 5.4 0 0 1-2.155-4.284c0-1.668.975-2.463 2.155-1.77a5.332 5.332 0 0 1 2.155 4.284z" class="cls-32" data-name="Path 129" transform="translate(-85.413 -159.199)"/>
                        <path id="Path_130" d="M120.939 229.266c0 1.052-.616 1.565-1.36 1.129a3.371 3.371 0 0 1-1.36-2.719c0-1.052.616-1.565 1.36-1.129a3.483 3.483 0 0 1 1.36 2.719z" class="cls-33" data-name="Path 130" transform="translate(-84.867 -159.971)"/>
                        <path id="Path_131" d="M118.426 230.066c0 .718-.41 1.052-.924.77a2.328 2.328 0 0 1-.924-1.847c0-.718.41-1.052.924-.77a2.328 2.328 0 0 1 .924 1.847z" class="cls-33" data-name="Path 131" transform="translate(-84.278 -160.591)"/>
                        <path id="Path_132" d="M116.8 229.554c0 2.283-1.334 3.361-2.95 2.412-1.642-.949-2.95-3.592-2.95-5.875s1.334-3.361 2.95-2.412 2.95 3.566 2.95 5.875z" class="cls-33" data-name="Path 132" transform="translate(-82.238 -158.874)"/>
                    </g>
                    <g id="Group_48" data-name="Group 48" transform="translate(0 148.648)">
                        <ellipse id="Ellipse_11" cx="18.831" cy="7.799" class="cls-34" data-name="Ellipse 11" rx="18.831" ry="7.799" transform="translate(0 .128)"/>
                        <path id="Path_133" d="M77.46 312.344c-10.313 0-18.677-3.438-18.831-7.671v.128c0 4.31 8.441 7.8 18.831 7.8 10.416 0 18.831-3.489 18.831-7.8v-.128c-.153 4.259-8.517 7.671-18.831 7.671z" class="cls-35" data-name="Path 133" transform="translate(-58.629 -296.874)"/>
                        <ellipse id="Ellipse_12" cx="14.444" cy="5.798" class="cls-36" data-name="Ellipse 12" rx="14.444" ry="5.798" transform="translate(4.592)"/>
                        <path id="Path_134" d="M80.237 307.087c-7.9 0-14.316-2.54-14.444-5.7v.1c0 3.207 6.465 5.8 14.444 5.8s14.444-2.591 14.444-5.8v-.1c-.154 3.16-6.542 5.7-14.444 5.7z" class="cls-37" data-name="Path 134" transform="translate(-61.201 -295.696)"/>
                        <ellipse id="Ellipse_13" cx="11.827" cy="4.746" class="cls-38" data-name="Ellipse 13" rx="11.827" ry="4.746" transform="translate(7.209)"/>
                        <path id="Path_135" d="M81.7 304.434c-6.465 0-11.7-2.078-11.827-4.644v.1c0 2.617 5.311 4.746 11.827 4.746 6.542 0 11.827-2.129 11.827-4.746v-.1c-.127 2.566-5.36 4.644-11.827 4.644z" class="cls-35" data-name="Path 135" transform="translate(-62.666 -295.121)"/>
                    </g>
                    <g id="Group_49" data-name="Group 49" transform="translate(11.866 90.271)">
                        <path id="Path_136" d="M93.945 214.748l.128.8-.744.077-.282-.539z" class="cls-12" data-name="Path 136" transform="translate(-82.849 -206.22)"/>
                        <path id="Path_137" d="M90.028 217.409v-2.437a3.547 3.547 0 0 0 1.822-.334v-1.078a1.353 1.353 0 0 1-.77-.436l.77-.282-.154-.564.616-.359-.975-1.693-.077-1-.616.436-.282 1.822-.334-.718a.563.563 0 0 0-.847.1 1.033 1.033 0 0 0 .819 1.412l-.308 1.873h-2.768v3.258z" class="cls-39" data-name="Path 137" transform="translate(-80.652 -204.238)"/>
                        <path id="Path_138" d="M86.443 219.985l3.463.205 1 .257-.487-1a5.469 5.469 0 0 0-3.669-.385z" class="cls-40" data-name="Path 138" transform="translate(-80.479 -207.711)"/>
                        <path id="Path_139" d="M84.255 206.82c-.128-1.36 1.719-2.206 2.514-2.437a5.791 5.791 0 0 0 3.438 3.412 3.375 3.375 0 0 1-.616.128l-.282 2-.257-.693c-.231-.334-1.078-.308-.975.334a1.283 1.283 0 0 0 .872.949l-.308 1.9h-2.154l-.616.436v-.436a5.086 5.086 0 0 1-1.616-5.593z" class="cls-41" data-name="Path 139" transform="translate(-79.599 -202.499)"/>
                        <path id="Path_140" d="M89.637 207.613a.7.7 0 0 0 .693-.613s2.1-.9 1.975-2c-.128-1.078-1.514-.462-1.514-.462s1.026-1.924.282-2.668-2.9.924-2.9.924.334-1.129-.205-1.334-2.489 2.771-2.489 2.771l-.718.821 2.745.513 1.129 1.129z" class="cls-41" data-name="Path 140" transform="translate(-79.876 -201.445)"/>
                        <path id="Path_141" d="M93.847 210.826l.359 2.027.616-.359z" class="cls-42" data-name="Path 141" transform="translate(-83.137 -204.812)"/>
                        <path id="Path_142" d="M82.752 222.768s1.873-3.335 7.62-1l.949 17.933H80.52c.026-.027.411-9.827 2.232-16.933z" class="cls-43" data-name="Path 142" transform="translate(-78.353 -208.442)"/>
                        <path id="Path_143" d="M109.815 232.886l1.591-1.18 1.385-1.591a3.353 3.353 0 0 1 .026.9 2.08 2.08 0 0 1-.308.872 2.365 2.365 0 0 1-1.719 2.1z" class="cls-39" data-name="Path 143" transform="translate(-88.868 -211.736)"/>
                        <path id="Path_144" d="M110.415 232.727l.462-1.078.949-1.334a.531.531 0 0 1 .205.641l-.41 1.154" class="cls-39" data-name="Path 144" transform="translate(-89.084 -211.808)"/>
                        <path id="Rectangle_12" d="M0 0h1.18v2.129H0z" class="cls-44" data-name="Rectangle 12" transform="rotate(138.852 6.951 15.343)"/>
                        <path id="Path_145" d="M92.286 299.136v.436a.312.312 0 0 0 .308.308h6.465s-.9-1.668-4.028-1.77a9.019 9.019 0 0 0-2.745 1.026z" class="cls-45" data-name="Path 145" transform="translate(-82.576 -236.141)"/>
                        <path id="Path_146" d="M77.2 298.177v.641a.4.4 0 0 0 .385.385h.872a1.162 1.162 0 0 0 .41-.077l3.566-1.334s-.949-1.1-3.079-.41z" class="cls-45" data-name="Path 146" transform="translate(-77.161 -235.798)"/>
                        <path id="Path_147" d="M79.333 250.165l-.513 17.087a23.087 23.087 0 0 0-.82 2.642c-1.026 3.874-.847 11.545-.847 11.545a1.626 1.626 0 0 0 2.206-.128l3.31-14.88 2.077-10.031 1.385 9.672a14.528 14.528 0 0 0-.462 6.08c.231 2.386 1.231 9.775 1.231 9.775a4.641 4.641 0 0 0 2.591-.975l.667-17.754v-13.007z" class="cls-46" data-name="Path 147" transform="translate(-77.14 -218.933)"/>
                        <path id="Path_148" d="M86.652 258.009l-.847-1.539-3.284-1.822L84.5 256.7l-.41 13.572z" class="cls-47" data-name="Path 148" transform="translate(-79.071 -220.541)"/>
                        <path id="Path_149" d="M88.87 251.679l-8.39-.279.051-1.231z" class="cls-48" data-name="Path 149" transform="translate(-78.339 -218.933)"/>
                        <path id="Path_150" d="M81.424 221.791s-2.617 8.21-3.1 10.75l1.745 6.388.975-7.158" class="cls-49" data-name="Path 150" transform="translate(-77.563 -208.748)"/>
                        <path id="Path_151" d="M81.955 221.324s2.412-2.052 8.158.282l1.822 19.447a9.989 9.989 0 0 1-3.515.975 17.875 17.875 0 0 1-3.515 0l-1.283-1.385-.872 1.385-2.95-.59c0-.026.334-13.033 2.155-20.114z" class="cls-50" data-name="Path 151" transform="translate(-78.095 -208.281)"/>
                        <path id="Path_152" d="M94.6 222.231s1.437 7.337 4.438 8.312a4.152 4.152 0 0 0 3.54-.128l1.385 1.591a6.813 6.813 0 0 1-5.747 1.36c-4.438-.949-5.849-5.644-5.849-5.644s-.667-4.772 2.233-5.491z" class="cls-49" data-name="Path 152" transform="translate(-82.582 -208.906)"/>
                    </g>
                    <g id="Group_50" data-name="Group 50" transform="translate(135.384 90.641)">
                        <path id="Path_153" d="M300.91 210.725c0 4.721-6.953 8.543-15.547 8.543s-15.547-3.823-15.547-8.543 6.953-8.543 15.547-8.543 15.547 3.818 15.547 8.543z" class="cls-51" data-name="Path 153" transform="translate(-269.815 -202.079)"/>
                        <path id="Path_154" d="M285.377 223.7c-8.492 0-15.393-3.746-15.522-8.389v.128c0 4.721 6.953 8.543 15.547 8.543s15.547-3.823 15.547-8.543v-.128c-.149 4.641-7.055 8.389-15.572 8.389z" class="cls-35" data-name="Path 154" transform="translate(-269.83 -206.79)"/>
                        <ellipse id="Ellipse_14" cx="11.904" cy="6.337" class="cls-52" data-name="Ellipse 14" rx="11.904" ry="6.337" transform="translate(3.823)"/>
                        <path id="Path_155" d="M287.682 217.955c-6.516 0-11.8-2.771-11.9-6.209v.1c0 3.489 5.336 6.337 11.9 6.337s11.9-2.848 11.9-6.337v-.1c-.098 3.438-5.382 6.209-11.9 6.209z" class="cls-35" data-name="Path 155" transform="translate(-271.956 -205.512)"/>
                        <ellipse id="Ellipse_15" cx="9.749" cy="5.182" class="cls-53" data-name="Ellipse 15" rx="9.749" ry="5.182" transform="translate(5.978)"/>
                        <path id="Path_156" d="M288.889 215.025c-5.336 0-9.646-2.258-9.749-5.08v.1c0 2.873 4.361 5.182 9.749 5.182s9.749-2.335 9.749-5.182v-.1c-.103 2.822-4.413 5.08-9.749 5.08z" class="cls-35" data-name="Path 156" transform="translate(-273.162 -204.865)"/>
                    </g>
                    <g id="Group_54" data-name="Group 54" transform="translate(135.247 25.36)">
                        <path id="Path_157" d="M289.179 205.9l.436 1.1-4.592 1.847 2.668-2.36z" class="cls-45" data-name="Path 157" transform="translate(-275.137 -138.134)"/>
                        <g id="Group_51" data-name="Group 51" transform="translate(9.424 33.648)">
                            <path id="Path_158" d="M323.638 188.695l1.77 1.129-3.208 5.156.77-5.157z" class="cls-45" data-name="Path 158" transform="translate(-297.906 -165.605)"/>
                            <path id="Path_159" d="M311.609 178.274l-17.5-3.31-3.566-9.031 8.62-9.416-1.129 14.418s6.568.8 14.239 6.234z" class="cls-47" data-name="Path 159" transform="translate(-286.543 -154.056)"/>
                            <path id="Path_160" d="M298.539 159.76l-2.206 1-5.747 6.286.872 2.232a16.079 16.079 0 0 0 7-9.236 2.62 2.62 0 0 0 .081-.282z" class="cls-54" data-name="Path 160" transform="translate(-286.558 -155.219)"/>
                            <path id="Path_161" d="M296.822 152.677a15.106 15.106 0 0 1-2.848 11.494c-4.156 5.388-4.746 5.952-4.746 5.952a38.034 38.034 0 0 1-.385 16.83l-1.668.667-2.875-18.909 3.053-12.186z" class="cls-46" data-name="Path 161" transform="translate(-284.303 -152.677)"/>
                            <path id="Path_162" d="M298.6 157.569l-3.438-.18-2.617-.231-3.72 1.642a13.468 13.468 0 0 0 9.364 1.591 13.375 13.375 0 0 0 .411-2.822z" class="cls-47" data-name="Path 162" transform="translate(-285.926 -154.285)"/>
                            <path id="Path_163" d="M298.356 152.914c-.077-.026-.128-.051-.205-.077l-9.646 3.617a19.972 19.972 0 0 0 9.775 1.257 14.693 14.693 0 0 0 .076-4.797z" class="cls-55" data-name="Path 163" transform="translate(-285.811 -152.734)"/>
                        </g>
                        <path id="Path_164" d="M299.651 117.378a3.147 3.147 0 0 0-2.771-3.361 4.945 4.945 0 0 1-.77.693 5.153 5.153 0 0 1-2.078 1.693.768.768 0 0 0-.205.1l1.078 3.489 1.129 1.8 1.078.359a5.229 5.229 0 0 0 .77-.744c3.052-1.54 1.769-4.029 1.769-4.029z" class="cls-41" data-name="Path 164" transform="translate(-278.297 -105.153)"/>
                        <path id="Path_165" d="M292.2 118.419a3.789 3.789 0 0 0-1.616 2l1.462.487z" class="cls-56" data-name="Path 165" transform="translate(-277.134 -106.733)"/>
                        <path id="Path_166" d="M291.246 122.153l-.18 1.154 1.616.18.513-.667-.077-.718" class="cls-12" data-name="Path 166" transform="translate(-277.306 -108.054)"/>
                        <path id="Path_167" d="M295.545 122.556a2.006 2.006 0 0 1-.359-1.565s1.231.154 1.308-.744c.077-.744-.872-.8-1.36-.308l-.257.8s-.436-.154-.026-1.719l-.308-.847-1.8-.59a7.117 7.117 0 0 0-1.514 2.976l1.231.41a1.237 1.237 0 0 1-1.411.744 6.509 6.509 0 0 0 0 1l1.8.59-.41 1.514-.154 1.129 1.8.077.872-.1.59-.872.641-1.95c.024-.032-.31-.211-.643-.545z" class="cls-39" data-name="Path 167" transform="translate(-277.295 -106.431)"/>
                        <path id="Path_168" d="M296.365 112.89s-.821-2.566-2.848-2.848c-1.616-.231-2.309 1.385-1.488 2.206a1.312 1.312 0 0 0-.487 1.488 1.22 1.22 0 0 0 1.437 1.308 1.523 1.523 0 0 0 2.129.231c1.462-.8.59-1.693.59-1.693l.487-.334" class="cls-41" data-name="Path 168" transform="translate(-277.448 -103.718)"/>
                        <g id="Group_52" data-name="Group 52">
                            <path id="Path_169" d="M285.717 122.474s-9.518-4.644-10.955-12.7l-2.386 1.18s.744 10.544 11.468 17.677a8.052 8.052 0 0 0 1.873-6.157z" class="cls-57" data-name="Path 169" transform="translate(-270.598 -103.63)"/>
                            <path id="Path_170" d="M286.781 135.357l2.643-5.772-6.722 2.078a22.754 22.754 0 0 0 4.079 3.694z" class="cls-58" data-name="Path 170" transform="translate(-274.304 -110.741)"/>
                            <path id="Path_171" d="M272.92 106a7.6 7.6 0 0 0 .616-1.334s.59-1.873.667-2.155c0 0-.334-.308-.667.154a5.81 5.81 0 0 0-.536 1.155 4.5 4.5 0 0 1-.128-1.36 4.144 4.144 0 0 0 0-1.873c-.205-.282-.41.026-.41.026s-.18 1.642-.231 2c-.026.308-.154.205-.154.205s-.205-1.924-.257-2.258-.257-.462-.539-.308c0 0 .1 1.026.128 1.668 0 .231.154.975-.1.949 0 0-.359-1.616-.385-1.9a.271.271 0 0 0-.487-.18l.308 2.232s0 .154-.1.128a4.5 4.5 0 0 1-.59-1.1c-.026-.1-.128-.462-.41-.334 0 0-.077.051 0 .385.1.334.487 1.9.487 1.9a4.9 4.9 0 0 0 .872 2.027c.718.975 1.206.9.539.744l.59-.334z" class="cls-39" data-name="Path 171" transform="translate(-269.602 -100.189)"/>
                            <path id="Path_172" d="M270.976 108.656l3.258-.641.411 1.693-3.233.718z" class="cls-59" data-name="Path 172" transform="translate(-270.095 -102.998)"/>
                        </g>
                        <path id="Path_173" d="M299.371 148.265s-3.079 3.053-10.827.616c0 0 .051-9.441.051-14.11 0-2.617 1.385-5.131 2.643-5.105l4.644.026a2.428 2.428 0 0 1 .949.205l.77.334 1.437 16.163z" class="cls-43" data-name="Path 173" transform="translate(-276.401 -110.769)"/>
                        <g id="Group_53" data-name="Group 53" transform="translate(20.119 19.101)">
                            <path id="Path_174" d="M302.067 136.4s5.644.487 9.7 9.185l2.514-.385s-2.745-11.878-12.9-15.214a7.888 7.888 0 0 0 .686 6.414z" class="cls-57" data-name="Path 174" transform="translate(-300.986 -129.985)"/>
                            <path id="Path_175" d="M317.8 154.1l.693 1.257-.462 1.1.487.564.334.308.128 1.257.924-.436 1.616-.411.513-2.027-1.642-1.36-.077-.641z" class="cls-39" data-name="Path 175" transform="translate(-307.021 -138.503)"/>
                        </g>
                        <path id="Path_176" d="M293.976 129.352l-1.719 1.334a2.23 2.23 0 0 1 .641-1.822 1.23 1.23 0 0 0 1.078.488z" class="cls-60" data-name="Path 176" transform="translate(-277.728 -110.481)"/>
                        <path id="Path_177" d="M294.948 129.252s1.591.077 2.181-.667c0 0 .41.026.77.667a2.5 2.5 0 0 1-1.385 1.539z" class="cls-60" data-name="Path 177" transform="translate(-278.699 -110.381)"/>
                    </g>
                    <g id="Group_56" data-name="Group 56" transform="translate(109.626)">
                        <g id="Group_55" data-name="Group 55">
                            <circle id="Ellipse_16" cx="16.266" cy="16.266" r="16.266" class="cls-61" data-name="Ellipse 16" transform="translate(2.617 5.67)"/>
                            <circle id="Ellipse_17" cx="11.468" cy="11.468" r="11.468" class="cls-62" data-name="Ellipse 17" transform="translate(7.414 10.467)"/>
                            <path id="Path_178" d="M248.518 60.63L229.635 71.1l18.882 10.467L267.4 71.1z" class="cls-63" data-name="Path 178" transform="translate(-229.635 -60.63)"/>
                            <path id="Path_179" d="M253.258 67.954l-10.416 5.772 10.416 5.774 10.416-5.772z" class="cls-63" data-name="Path 179" transform="translate(-234.375 -63.259)"/>
                            <path id="Path_180" d="M277.972 98.2l-18.882 10.443V87.426l18.882-10.467z" class="cls-64" data-name="Path 180" transform="translate(-240.208 -66.491)"/>
                            <path id="Path_181" d="M269.84 115.6l-2.386 1.437v-2.9l2.386-1.437z" class="cls-65" data-name="Path 181" transform="translate(-243.21 -79.319)"/>
                            <path id="Path_182" d="M269.84 108.832l-2.386 1.437v-2.9l2.386-1.437z" class="cls-65" data-name="Path 182" transform="translate(-243.21 -76.891)"/>
                            <path id="Path_183" d="M269.84 102.069l-2.386 1.437v-2.925l2.386-1.411z" class="cls-65" data-name="Path 183" transform="translate(-243.21 -74.464)"/>
                            <path id="Path_184" d="M263.823 118.877l-2.412 1.437v-2.925l2.412-1.411z" class="cls-65" data-name="Path 184" transform="translate(-241.041 -80.497)"/>
                            <path id="Path_185" d="M263.823 112.1l-2.412 1.437v-2.925l2.412-1.437z" class="cls-65" data-name="Path 185" transform="translate(-241.041 -78.055)"/>
                            <path id="Path_186" d="M263.823 105.336l-2.412 1.411v-2.9l2.412-1.437z" class="cls-65" data-name="Path 186" transform="translate(-241.041 -75.627)"/>
                            <path id="Path_187" d="M231.876 104.55l2.412 1.437v-2.925l-2.412-1.411z" class="cls-65" data-name="Path 187" transform="translate(-230.44 -75.354)"/>
                            <path id="Path_188" d="M237.919 101.028l2.412 1.437v-2.9l-2.412-1.437z" class="cls-65" data-name="Path 188" transform="translate(-232.609 -74.09)"/>
                            <path id="Path_189" d="M243.682 97.947l2.386 1.437v-2.925l-2.386-1.411z" class="cls-65" data-name="Path 189" transform="translate(-234.677 -72.984)"/>
                            <path id="Path_190" d="M249.685 94.425l2.412 1.437v-2.9l-2.412-1.437z" class="cls-65" data-name="Path 190" transform="translate(-236.832 -71.72)"/>
                            <path id="Path_191" d="M284.647 107.817l-2.386 1.411v-2.9l2.386-1.437z" class="cls-65" data-name="Path 191" transform="translate(-248.525 -76.518)"/>
                            <path id="Path_192" d="M284.647 101.028l-2.386 1.437v-2.9l2.386-1.437z" class="cls-65" data-name="Path 192" transform="translate(-248.525 -74.09)"/>
                            <path id="Path_193" d="M278.63 112.222l-2.412 1.437v-.847l2.412-1.437z" class="cls-65" data-name="Path 193" transform="translate(-246.356 -78.845)"/>
                            <path id="Path_194" d="M278.63 109.141l-2.412 1.437v-.872l2.412-1.411z" class="cls-65" data-name="Path 194" transform="translate(-246.356 -77.739)"/>
                            <path id="Path_195" d="M278.63 106.059l-2.412 1.411v-.847l2.412-1.411z" class="cls-65" data-name="Path 195" transform="translate(-246.356 -76.633)"/>
                            <path id="Path_196" d="M278.63 102.963l-2.412 1.411v-.847l2.412-1.437z" class="cls-65" data-name="Path 196" transform="translate(-246.356 -75.512)"/>
                            <path id="Path_197" d="M278.63 99.856l-2.412 1.437v-.847l2.412-1.437z" class="cls-65" data-name="Path 197" transform="translate(-246.356 -74.406)"/>
                            <path id="Path_198" d="M278.63 96.775l-2.412 1.437v-.847l2.412-1.437z" class="cls-65" data-name="Path 198" transform="translate(-246.356 -73.3)"/>
                            <path id="Path_199" d="M278.63 93.693l-2.412 1.437v-.872l2.412-1.411z" class="cls-65" data-name="Path 199" transform="translate(-246.356 -72.194)"/>
                            <path id="Path_200" d="M278.63 90.612l-2.412 1.411v-.847l2.412-1.411z" class="cls-66" data-name="Path 200" transform="translate(-246.356 -71.088)"/>
                            <path id="Path_201" d="M229.635 98.2l18.882 10.442V87.426l-18.882-10.467z" class="cls-67" data-name="Path 201" transform="translate(-229.635 -66.491)"/>
                            <path id="Path_202" d="M251.926 120.673l1.95 1.18v-.693l-1.95-1.18z" class="cls-68" data-name="Path 202" transform="translate(-237.636 -81.933)"/>
                            <path id="Path_203" d="M251.926 118.152l1.95 1.18v-.693l-1.95-1.18z" class="cls-68" data-name="Path 203" transform="translate(-237.636 -81.028)"/>
                            <path id="Path_204" d="M251.926 115.67l1.95 1.154v-.693l-1.95-1.154z" class="cls-68" data-name="Path 204" transform="translate(-237.636 -80.138)"/>
                            <path id="Path_205" d="M251.926 113.149l1.95 1.154v-.693l-1.95-1.154z" class="cls-68" data-name="Path 205" transform="translate(-237.636 -79.233)"/>
                            <path id="Path_206" d="M251.926 110.628l1.95 1.154v-.693l-1.95-1.154z" class="cls-68" data-name="Path 206" transform="translate(-237.636 -78.328)"/>
                        </g>
                    </g>
                    <g id="Group_68" data-name="Group 68" transform="translate(44.487 18.677)">
                        <g id="Group_67" data-name="Group 67" transform="translate(2.745 .585)">
                            <g id="Group_57" data-name="Group 57" transform="translate(0 25.969)">
                                <ellipse id="Ellipse_18" cx="18.831" cy="7.799" class="cls-69" data-name="Ellipse 18" rx="18.831" ry="7.799" transform="translate(0 .128)"/>
                                <path id="Path_207" d="M151.137 151.023c-10.314 0-18.677-3.438-18.831-7.671v.128c0 4.31 8.441 7.8 18.831 7.8 10.416 0 18.831-3.489 18.831-7.8v-.128c-.153 4.259-8.517 7.671-18.831 7.671z" class="cls-35" data-name="Path 207" transform="translate(-132.306 -135.553)"/>
                                <ellipse id="Ellipse_19" cx="14.444" cy="5.798" class="cls-69" data-name="Ellipse 19" rx="14.444" ry="5.798" transform="translate(4.592)"/>
                                <path id="Path_208" d="M153.914 145.766c-7.9 0-14.316-2.54-14.444-5.7v.1c0 3.207 6.465 5.8 14.444 5.8s14.444-2.591 14.444-5.8v-.1c-.128 3.16-6.542 5.7-14.444 5.7z" class="cls-35" data-name="Path 208" transform="translate(-134.878 -134.375)"/>
                                <path id="Path_209" d="M167.206 135.932c0 2.617-5.311 4.746-11.827 4.746-6.542 0-11.827-2.129-11.827-4.746s5.311-4.746 11.827-4.746c6.542 0 11.827 2.129 11.827 4.746z" class="cls-70" data-name="Path 209" transform="translate(-136.343 -131.186)"/>
                                <path id="Path_210" d="M155.379 143.113c-6.465 0-11.7-2.078-11.827-4.644v.1c0 2.617 5.311 4.746 11.827 4.746 6.542 0 11.827-2.129 11.827-4.746v-.1c-.128 2.566-5.362 4.644-11.827 4.644z" class="cls-35" data-name="Path 210" transform="translate(-136.343 -133.8)"/>
                            </g>
                            <g id="Group_66" data-name="Group 66" transform="translate(2.54)">
                                <g id="Group_62" data-name="Group 62" transform="translate(6.977)">
                                    <path id="Path_211" d="M168.019 109.175s4.721 3.823 5.567 8.646a7.593 7.593 0 0 1-3.8 8.338l-.513-3.027a6.044 6.044 0 0 0 1.154-3.566 7.079 7.079 0 0 0-1.924-3.643 12.292 12.292 0 0 1-.484-6.748z" class="cls-50" data-name="Path 211" transform="translate(-154.548 -97.317)"/>
                                    <path id="Path_212" d="M152.874 109.175s-4.721 3.823-5.567 8.646a7.593 7.593 0 0 0 3.8 8.338l.513-3.027a6.044 6.044 0 0 1-1.154-3.566 7.079 7.079 0 0 1 1.924-3.643 12.292 12.292 0 0 0 .484-6.748z" class="cls-50" data-name="Path 212" transform="translate(-147.151 -97.317)"/>
                                    <path id="Path_213" d="M154.368 113.5l-.154-3.566s-2.668 2.668-1.8 9.236a7.155 7.155 0 0 1 1.77-2.95 1.077 1.077 0 0 0 .051-.128z" class="cls-71" data-name="Path 213" transform="translate(-148.979 -97.589)"/>
                                    <path id="Path_214" d="M168.765 113.5l.154-3.566s2.617 2.668 1.719 9.236a8.859 8.859 0 0 0-1.693-2.95 1.077 1.077 0 0 1-.051-.128z" class="cls-71" data-name="Path 214" transform="translate(-154.909 -97.589)"/>
                                    <path id="Path_215" d="M164.492 111.72a4.011 4.011 0 0 0-3.592-3.746h-3.746a4.034 4.034 0 0 0-3.617 3.746c-.308 2.848.1 7.03.59 12.469 0 0 1.437 1.847 4.875 1.462 3.438.385 4.875-1.462 4.875-1.462.513-5.44.923-9.621.615-12.469z" class="cls-43" data-name="Path 215" transform="translate(-149.405 -96.886)"/>
                                    <path id="Path_216" d="M153.677 123.087c.077 1.257.205 2.643.334 4.131l2.8.359 6.645-.641a8.678 8.678 0 0 0 .872-.847c.1-1.078.18-2.078.231-3.027a18.96 18.96 0 0 1-10.882.025z" class="cls-72" data-name="Path 216" transform="translate(-149.494 -102.301)"/>
                                    <g id="Group_61" data-name="Group 61" transform="translate(5.21)">
                                        <g id="Group_60" data-name="Group 60">
                                            <g id="Group_58" data-name="Group 58" transform="translate(6.209 4.957)">
                                                <path id="Path_217" d="M164.963 99.666a1.257 1.257 0 1 0 1.257-1.257 1.259 1.259 0 0 0-1.257 1.257z" class="cls-73" data-name="Path 217" transform="translate(-164.963 -98.409)"/>
                                            </g>
                                            <g id="Group_59" data-name="Group 59" transform="translate(0 4.957)">
                                                <path id="Path_218" d="M155.278 99.666a1.257 1.257 0 1 0 1.257-1.257 1.259 1.259 0 0 0-1.257 1.257z" class="cls-73" data-name="Path 218" transform="translate(-155.278 -98.409)"/>
                                            </g>
                                            <path id="Path_219" d="M163.019 106.035l-1.95 2.309-1.95-2.309v-3.463h3.9z" class="cls-74" data-name="Path 219" transform="translate(-156.657 -94.946)"/>
                                            <path id="Path_220" d="M160.584 92.006l-.539.231-.154-.231-3.053 2.309v4.207a5.976 5.976 0 0 0 3.412 3.8 6.043 6.043 0 0 0 3.412-3.8v-4.207z" class="cls-39" data-name="Path 220" transform="translate(-155.838 -91.154)"/>
                                            <path id="Path_221" d="M162.365 101.44l-.462-1.95-.462 1.95z" class="cls-75" data-name="Path 221" transform="translate(-157.49 -93.84)"/>
                                            <path id="Path_222" d="M163.311 96.686l-.462-1.77a2.814 2.814 0 0 1-2.309.616l.693-.667a8.18 8.18 0 0 1-4.079.77l.18-.539-.1-.18-.744 1.385a3.041 3.041 0 0 1-.077-3.54l1.873-1.8a5.948 5.948 0 0 1 1.822-.282 4.15 4.15 0 0 1 3.823 3.8z" class="cls-41" data-name="Path 222" transform="translate(-155.487 -90.677)"/>
                                        </g>
                                        <path id="Path_223" d="M161.371 104.983a1.424 1.424 0 0 0 1.411-1.411h-2.822a1.407 1.407 0 0 0 1.411 1.411z" class="cls-12" data-name="Path 223" transform="translate(-156.959 -95.306)"/>
                                    </g>
                                    <path id="Path_224" d="M165.571 132.863h-15.5v-9.416a1.029 1.029 0 0 1 1.026-1.026h13.443a1.029 1.029 0 0 1 1.026 1.026z" class="cls-12" data-name="Path 224" transform="translate(-148.201 -102.071)"/>
                                    <path id="Path_225" d="M157.8 135.05a19.419 19.419 0 0 0-7.722-4.464v1.437z" class="cls-76" data-name="Path 225" transform="translate(-148.201 -105.002)"/>
                                    <path id="Path_226" d="M162.2 135.05a19.419 19.419 0 0 1 7.722-4.464v1.437z" class="cls-77" data-name="Path 226" transform="translate(-152.553 -105.002)"/>
                                </g>
                                <g id="Group_65" data-name="Group 65" transform="translate(0 25.608)">
                                    <g id="Group_63" data-name="Group 63" transform="translate(7.158)">
                                        <path id="Path_227" d="M147.434 138.578v1.77s9.749-1.052 16.8-2.617a53.508 53.508 0 0 0 9.159-3.823 4.038 4.038 0 0 0-4.413-3.284c-3.951.077-11.955 4.464-11.955 4.464z" class="cls-78" data-name="Path 227" transform="translate(-147.434 -130.623)"/>
                                        <path id="Path_228" d="M156.9 143.031l-.257-.026-7.209-1.334-2 .872v1.77" class="cls-48" data-name="Path 228" transform="translate(-147.434 -134.589)"/>
                                        <path id="Path_229" d="M173.647 139.545l2.155-1.9 7-1.9a30.877 30.877 0 0 1-9.155 3.8z" class="cls-79" data-name="Path 229" transform="translate(-156.843 -132.463)"/>
                                    </g>
                                    <g id="Group_64" data-name="Group 64">
                                        <path id="Path_230" d="M162.272 138.578v1.77s-9.749-1.052-16.8-2.617a53.508 53.508 0 0 1-9.159-3.823 4.038 4.038 0 0 1 4.413-3.284c3.951.077 11.955 4.464 11.955 4.464z" class="cls-46" data-name="Path 230" transform="translate(-136.283 -130.623)"/>
                                        <path id="Path_231" d="M145.427 139.545l-2.155-1.9-7-1.9a31.615 31.615 0 0 0 9.155 3.8z" class="cls-79" data-name="Path 231" transform="translate(-136.268 -132.463)"/>
                                    </g>
                                </g>
                                <path id="Path_232" d="M144.058 144.457a57.958 57.958 0 0 1-6.029.539l4.592-2.925 1.437.59z" class="cls-45" data-name="Path 232" transform="translate(-136.9 -109.124)"/>
                                <path id="Path_233" d="M176.809 144.457a57.958 57.958 0 0 0 6.029.539l-4.592-2.925-1.437.59z" class="cls-45" data-name="Path 233" transform="translate(-150.82 -109.124)"/>
                            </g>
                        </g>
                        <path id="Path_234" d="M146.137 115.317V113.5a2.693 2.693 0 0 0-2.694-2.694 2.651 2.651 0 0 0-2.181 1.129V110.9a3.13 3.13 0 1 0-6.26 0v.18a2.734 2.734 0 0 0-2.155-1.078 2.693 2.693 0 0 0-2.694 2.694v2.412a3.325 3.325 0 0 0-2.129 3.079 3.318 3.318 0 0 0 3.31 3.31h13.187a3.318 3.318 0 0 0 3.31-3.31 3.366 3.366 0 0 0-1.694-2.87z" class="cls-80" data-name="Path 234" transform="translate(-128.024 -96.229)"/>
                        <path id="Path_235" d="M144.539 118.1l-2.283-2.283a.7.7 0 0 0-1 0l-2.283 2.283a.813.813 0 0 0 .436 1.385v1.975a.92.92 0 0 0 .924.924h2.848a.92.92 0 0 0 .924-.924v-1.975a.818.818 0 0 0 .434-1.385z" class="cls-81" data-name="Path 235" transform="translate(-131.865 -99.041)"/>
                        <path id="Path_236" d="M162.319 90.124a.359.359 0 1 1-.359-.359.367.367 0 0 1 .359.359z" class="cls-50" data-name="Path 236" transform="translate(-140.076 -89.765)"/>
                        <path id="Path_237" d="M159.906 90.325a4.018 4.018 0 0 0-4.028 4.028h8.056a4.018 4.018 0 0 0-4.028-4.028z" class="cls-43" data-name="Path 237" transform="translate(-138.022 -89.966)"/>
                        <path id="Path_238" d="M155.878 96.608s3.361 4.618 8.056 0z" class="cls-50" data-name="Path 238" transform="translate(-138.022 -92.221)"/>
                    </g>
                </g>
            </g>
        </g>
    </g>
</svg>
