<svg xmlns="http://www.w3.org/2000/svg" width="44.975" height="57.008" viewBox="0 0 44.975 57.008">
    <defs>
        <style>
            .cls-1{fill:#fff;stroke:#674cf3;stroke-miterlimit:10}.cls-2{fill:#674cf3;opacity:.1}
        </style>
    </defs>
    <g id="oral_sus" transform="translate(-5.874 -1.995)">
        <path id="Rectangle-path" d="M0 0h37.544v1.821H0z" class="cls-1" transform="rotate(40.38 -24.772 21.083)"/>
        <path id="Shape" d="M1.458 0l-.81.081c-1.767 2.051.2 6.61 4.4 10.185 2.9 2.455 7 2.577 9.309 2.4a.755.755 0 0 0 .445-1.349z" class="cls-1" transform="translate(35.245 45.773)"/>
        <path id="Shape-2" d="M14.806 11.346l-.863-.728a11.642 11.642 0 0 1-7.11-2.442C3.838 5.626 1.976 2.577 1.8.3L1.464 0 .641.081C-1.113 2.145.856 6.7 5.052 10.266c2.833 2.469 7 2.658 9.309 2.415a.755.755 0 0 0 .445-1.336z" class="cls-2" transform="translate(35.563 45.449)"/>
        <path id="Shape-3" d="M4.182 0h15.177a4.182 4.182 0 0 1 4.182 4.182V39.73a4.6 4.6 0 0 1-4.6 4.6H4.6a4.6 4.6 0 0 1-4.6-4.6V4.223A4.182 4.182 0 0 1 4.182 0z" class="cls-1" transform="translate(11.968 13.854)"/>
        <path id="Rectangle-path-2" d="M2.41 0h8.779A2.41 2.41 0 0 1 13.6 2.41v6.607a2.41 2.41 0 0 1-2.41 2.41H2.41A2.41 2.41 0 0 1 0 9.017V2.41A2.41 2.41 0 0 1 2.41 0z" class="cls-1" transform="translate(16.966 2.495)"/>
        <g id="Group" opacity="0.4" transform="translate(19.796 2.643)">
            <path id="Shape-4" fill="#674cf3" d="M10.768 8.175V3.251A3.143 3.143 0 0 0 7.773 0H1.756A3.292 3.292 0 0 0 0 2.954v4.925a3.143 3.143 0 0 0 3 3.251h6.014a3.292 3.292 0 0 0 1.754-2.954z" opacity="0.4"/>
        </g>
        <path id="Shape-5" d="M18.738 0H3.71a4.047 4.047 0 0 1 .553 2v34.708A4.533 4.533 0 0 1 0 41.12a4.614 4.614 0 0 0 3.912 2.145H18.32a4.546 4.546 0 0 0 4.6-4.492V4.088A4.142 4.142 0 0 0 18.738 0z" class="cls-2" transform="translate(12.657 14.556)"/>
        <path id="Shape-6" fill="#ffbe0b" d="M3.008 0h10.4v25.133h-10.4A3.008 3.008 0 0 1 0 22.125V3.008A3.008 3.008 0 0 1 3.008 0z" opacity="0.78" transform="translate(21.253 23.131)"/>
    </g>
</svg>
