<svg xmlns="http://www.w3.org/2000/svg" width="20.01" height="22" viewBox="0 0 20.01 22">
    <defs>
        <style>
            .cls-1{fill:none;stroke:#fff;stroke-linecap:round;stroke-miterlimit:10;stroke-width:2px}
        </style>
    </defs>
    <g id="order" transform="translate(.51 -.5)">
        <g id="Box" transform="translate(-.5 .5)">
            <path id="Shape-path" d="M0 0h9.5" class="cls-1" transform="translate(.99 5.211)"/>
            <path id="Shape-path-2" d="M0 0h1.5" class="cls-1" transform="translate(13.397 5.211)"/>
            <path id="Shape-path-3" d="M0 0h1.34" class="cls-1" transform="translate(17.656 5.211)"/>
            <g id="Rectangle_2278" fill="none" stroke="#fff" stroke-width="2px">
                <rect width="20" height="22" stroke="none" rx="4"/>
                <rect width="18" height="20" x="1" y="1" rx="3"/>
            </g>
            <path id="Path_3802" fill="#fff" stroke="#fff" stroke-width="0.4px" d="M179.123 100.025h-.805a.832.832 0 1 1 0-1.664h1.611a.376.376 0 0 0 0-.752h-.829v-.832a.376.376 0 1 0-.752 0v.832h-.027a1.584 1.584 0 1 0 0 3.168h.805a.832.832 0 1 1 0 1.664h-1.611a.376.376 0 0 0 0 .752h.832v.832a.376.376 0 0 0 .752 0v-.832h.027a1.584 1.584 0 1 0 0-3.168z" transform="translate(-168.729 -87.068)"/>
        </g>
    </g>
</svg>
