<svg xmlns="http://www.w3.org/2000/svg" width="109.311" height="72" viewBox="0 0 109.311 72">
    <defs>
        <style>
            .cls-1{fill:#f2f2f2}.cls-2{fill:#ff6584}.cls-3{fill:#3f3d56}.cls-4{fill:#6c19d8}.cls-5{fill:#2f2e41}.cls-6{fill:#ffb8b8}.cls-7{opacity:.1}.cls-8{fill:none;stroke:#3f3d56;stroke-miterlimit:10}.cls-9{fill:#fff}.cls-10{fill:#57b894}
        </style>
    </defs>
    <g id="undraw_happy_news_hxmt" transform="translate(0 2.228)">
        <path id="Path_3917" d="M258.013 373.651c-5.535.026-10.04.107-10.04.107s5.355-7.093 10.02-4.465a63.7 63.7 0 0 0 10.023 4.373s-4.468-.041-10.003-.015z" class="cls-1" data-name="Path 3917" transform="translate(-235.351 -344.516)"/>
        <circle id="Ellipse_1335" cx="1.159" cy="1.159" r="1.159" class="cls-2" data-name="Ellipse 1335" transform="translate(83.454 28.919)"/>
        <path id="Rectangle_2524" d="M0 0h13.201v.355H0z" class="cls-3" data-name="Rectangle 2524" transform="rotate(-48.93 91.004 -59.568)"/>
        <circle id="Ellipse_1336" cx="1.867" cy="1.867" r="1.867" class="cls-3" data-name="Ellipse 1336" transform="translate(83.061 36.488)"/>
        <path id="Path_3918" d="M801.446 482.691s3.566-4.5-.995-7.588" class="cls-3" data-name="Path 3918" transform="translate(-721.854 -438.205)"/>
        <path id="Path_3919" d="M292.781 412.466c6.421 11.909 20.05 17.021 20.05 17.021s3.217-14.2-3.2-26.1-20.05-17.021-20.05-17.021-3.221 14.191 3.2 26.1z" class="cls-3" data-name="Path 3919" transform="translate(-271.299 -360.113)"/>
        <path id="Path_3920" d="M168.369 535.924c11.593 6.975 16.058 20.829 16.058 20.829S170.1 559.3 158.5 552.324s-16.058-20.829-16.058-20.829 14.333-2.546 25.927 4.429z" class="cls-4" data-name="Path 3920" transform="translate(-142.444 -487.489)"/>
        <path id="Path_3921" d="M625.32 538.009c-11.655 6.872-16.242 20.686-16.242 20.686s14.308 2.672 25.963-4.2 16.242-20.686 16.242-20.686-14.309-2.672-25.963 4.2z" class="cls-3" data-name="Path 3921" transform="translate(-553.406 -489.475)"/>
        <path id="Path_3922" d="M624.943 416.372c-6.526 11.852-20.2 16.843-20.2 16.843s-3.092-14.224 3.435-26.075 20.2-16.843 20.2-16.843 3.092 14.224-3.435 26.075z" class="cls-4" data-name="Path 3922" transform="translate(-548.898 -363.578)"/>
        <path id="Path_3923" d="M569.229 299.633a3.622 3.622 0 0 1-.45-4.883 3.313 3.313 0 0 0-.212.215 3.622 3.622 0 0 0 5.374 4.859c.068-.075.132-.154.192-.233a3.622 3.622 0 0 1-4.904.042z" class="cls-5" data-name="Path 3923" transform="translate(-516.846 -279.392)"/>
        <circle id="Ellipse_1337" cx="7.46" cy="7.46" r="7.46" class="cls-5" data-name="Ellipse 1337" transform="translate(41.649 7.917)"/>
        <path id="Path_3924" d="M415.789 310.62l.221-.575-4.024 3.4-4.864 2.741s-2.476-9.551-2.653-9.727-3.36-6.9-4.775-3.714 2.741 5.041 2.741 5.041.133 11.629 4.377 11.54 9.506-3.935 9.595-4.289-.618-4.417-.618-4.417z" class="cls-6" data-name="Path 3924" transform="translate(-368.714 -285.688)"/>
        <circle id="Ellipse_1338" cx="4.422" cy="4.422" r="4.422" class="cls-6" data-name="Ellipse 1338" transform="translate(43.788 14.15)"/>
        <path id="Path_3925" d="M530.235 326.748s1.15 1.5.8 1.68-2.388.265-3.626 1.769 1.5 5.306 1.5 5.306l10.435-6.986-4.244-1.417s-2.918-1.592-2.83-3.272z" class="cls-6" data-name="Path 3925" transform="translate(-481.146 -305.001)"/>
        <path id="Path_3926" d="M461.218 403.476h-11.782c-.667-4.88-.976-9.352-.976-9.352s-.172 4.5-.63 9.352h-15.137c2.146-14.371 12.318-29.956 12.318-29.956a9.718 9.718 0 0 1 .354-2.477c.266-.353-1.5-.441-2.3-3.094a3.588 3.588 0 0 1 .366-3.258 2.341 2.341 0 0 1 .519-.545 8.437 8.437 0 0 0 0-2.122c-.023-.035.152-.157.475-.342a28.7 28.7 0 0 1 1.086-.585c2.549-1.322 7.482-3.66 9.172-4.456.371-.176.586-.276.586-.276l3.007 1.061c2.387.8 2.387 5.837 2.387 5.837l-.135.206-3.608 5.466-2.093 3.172c.531.353-.53 2.564-.53 2.564a26.89 26.89 0 0 1 2.741 5.487 24.957 24.957 0 0 1 1.413 5.723 19.577 19.577 0 0 1 .091 3.823c-.328 4.259 1.129 9.437 2.676 13.772z" class="cls-5" data-name="Path 3926" transform="translate(-398.038 -333.704)"/>
        <path id="Path_3927" d="M619.838 368.864a.772.772 0 0 0-1.106.414 15.921 15.921 0 0 0-.44 5.432c.177 5.836.265 9.816.265 9.816v8.843s-3.891 8.489-1.769 8.489 3.626-6.721 3.626-6.721 1.945-10.17 1.326-11.938c.001.001 1.746-12.218-1.902-14.335z" class="cls-6" data-name="Path 3927" transform="translate(-559.575 -344.591)"/>
        <ellipse id="Ellipse_1339" cx="3.795" cy="2.587" class="cls-5" data-name="Ellipse 1339" rx="3.795" ry="2.587" transform="translate(43.897 12.065)"/>
        <circle id="Ellipse_1340" cx="3.622" cy="3.622" r="3.622" class="cls-5" data-name="Ellipse 1340" transform="translate(50.087 5.398)"/>
        <path id="Path_3928" d="M587.052 238.743a3.622 3.622 0 0 1-3.609-3.32c-.008.1-.014.2-.014.3a3.622 3.622 0 1 0 7.245 0c0-.1-.005-.2-.013-.3a3.622 3.622 0 0 1-3.609 3.32z" class="cls-5" data-name="Path 3928" transform="translate(-530.758 -227.135)"/>
        <ellipse id="Ellipse_1341" cx=".31" cy=".707" class="cls-6" data-name="Ellipse 1341" rx=".31" ry=".707" transform="rotate(-13.41 96.074 -212.39)"/>
        <circle id="Ellipse_1342" cx=".177" cy=".177" r=".177" class="cls-1" data-name="Ellipse 1342" transform="translate(52.316 17.377)"/>
        <path id="Path_3929" d="M219.8 418.635a1.435 1.435 0 1 1 1.435-1.435 1.435 1.435 0 0 1-1.435 1.435zm0-2.631a1.2 1.2 0 1 0 1.2 1.2 1.2 1.2 0 0 0-1.2-1.204z" class="cls-3" data-name="Path 3929" transform="translate(-209.283 -385.951)"/>
        <path id="Path_3930" d="M726.973 329.375h-3.11v-3.11h3.11zm-2.87-.239h2.631V326.5H724.1z" class="cls-3" data-name="Path 3930" transform="translate(-654.415 -307.141)"/>
        <path id="Path_3931" d="M900.013 455.651c-5.535.025-10.04.107-10.04.107s5.355-7.093 10.02-4.465a63.7 63.7 0 0 0 10.023 4.373s-4.469-.041-10.003-.015z" class="cls-1" data-name="Path 3931" transform="translate(-800.705 -416.722)"/>
        <path id="Path_3932" d="M758.013 255.651c-5.535.026-10.04.107-10.04.107s5.355-7.093 10.02-4.465a63.7 63.7 0 0 0 10.023 4.373s-4.468-.041-10.003-.015z" class="cls-1" data-name="Path 3932" transform="translate(-675.663 -240.61)"/>
        <path id="Path_3933" d="M291.952 183.646l-12.8-6.581a1.779 1.779 0 0 1-.769-2.4l3.017-5.865a.705.705 0 0 1 .43-.354l10.087-2.941a1.641 1.641 0 0 1 2.008 1.033L297.24 176a1.843 1.843 0 0 1-.1 1.452l-2.791 5.429a1.779 1.779 0 0 1-2.397.765z" class="cls-1" data-name="Path 3933" transform="translate(-261.953 -165.526)"/>
        <path id="Path_3934" d="M301.044 206.776l-12.922-5.517c-.416-.214-.026.115.188-.3l1.624-6.6 15.83 8.14-4 4.948c-.216.413-.303-.457-.72-.671z" class="cls-7" data-name="Path 3934" transform="translate(-270.563 -190.98)"/>
        <rect id="Rectangle_2525" width="13.238" height="13.238" class="cls-4" data-name="Rectangle 2525" rx="6.619" transform="rotate(-62.787 18.152 -9.147)"/>
        <path id="Path_3936" d="M165.713 61.821l-3.327 6.47-11.773-6.054 3.327-6.47 4.424 5.872z" class="cls-7" data-name="Path 3936" transform="translate(-132.626 -51.058)"/>
        <path id="Path_3937" d="M285.671 201.264L280 193.74a.344.344 0 0 0-.581.05l-3.225 6.272a1.074 1.074 0 0 0 .464 1.447l14.052 7.226a1.074 1.074 0 0 0 1.447-.464l3.17-6.165a.42.42 0 0 0-.363-.612z" class="cls-1" data-name="Path 3937" transform="translate(-260.095 -190.317)"/>
        <path id="Rectangle_2526" d="M0 0h3.702v.524H0z" class="cls-1" data-name="Rectangle 2526" transform="rotate(27.213 10.165 51.102)"/>
        <path id="Rectangle_2527" d="M0 0h10.994v.299H0z" class="cls-1" data-name="Rectangle 2527" transform="rotate(27.213 6.373 49.53)"/>
        <path id="Rectangle_2528" d="M0 0h10.994v.299H0z" class="cls-1" data-name="Rectangle 2528" transform="rotate(27.213 4.29 49.025)"/>
        <path id="Rectangle_2529" d="M0 0h10.994v.299H0z" class="cls-1" data-name="Rectangle 2529" transform="rotate(27.213 2.204 48.522)"/>
        <ellipse id="Ellipse_1343" cx="1.536" cy="1.533" class="cls-9" data-name="Ellipse 1343" rx="1.536" ry="1.533" transform="rotate(-62.787 11.592 -18.068)"/>
        <path id="Path_3938" d="M334.122 149.925a1.832 1.832 0 1 0 .792 2.468 1.832 1.832 0 0 0-.792-2.468zm-1.619 2.326l-.406-1.265.355-.114.292.911 1.923-.617.114.355z" class="cls-10" data-name="Path 3938" transform="translate(-308.875 -151.685)"/>
    </g>
</svg>
