<svg xmlns="http://www.w3.org/2000/svg" id="otp_Illus" width="191.744" height="191.744" data-name="otp Illus" viewBox="0 0 191.744 191.744">
    <defs>
        <style>
            .cls-1,.cls-2,.cls-8{fill:#674cf3}.cls-1{opacity:.1}.cls-2{opacity:.15}.cls-3{fill:#ef2b4a}.cls-4{fill:#ffe128}.cls-5{fill:#ff7b20}.cls-11,.cls-12,.cls-13,.cls-6,.cls-9{fill:#fff}.cls-6,.cls-9{stroke:#8039db}.cls-13,.cls-14,.cls-6,.cls-9{stroke-miterlimit:10}.cls-6{stroke-width:2.133px}.cls-10,.cls-7{fill:#8039db}.cls-7{opacity:.8}.cls-8{opacity:.4}.cls-9{stroke-width:1.067px}.cls-10{opacity:.91}.cls-12{opacity:.35}.cls-13,.cls-14{stroke:#00d3b4}.cls-13{stroke-width:3.2px}.cls-14{fill:none;stroke-linecap:round;stroke-linejoin:round;stroke-width:4.267px}
        </style>
    </defs>
    <g id="_04">
        <circle id="Oval" cx="95.872" cy="95.872" r="95.872" class="cls-1"/>
        <circle id="Oval-2" cx="76.256" cy="76.256" r="76.256" class="cls-1" data-name="Oval" transform="translate(19.616 19.616)"/>
        <circle id="Oval-3" cx="56.171" cy="56.171" r="56.171" class="cls-2" data-name="Oval" transform="translate(39.701 39.701)"/>
    </g>
    <circle id="Oval-4" cx="3.403" cy="3.403" r="3.403" class="cls-3" data-name="Oval" transform="translate(49.451 42.155)"/>
    <circle id="Oval-5" cx="3.403" cy="3.403" r="3.403" class="cls-4" data-name="Oval" transform="translate(134.581 97.408)"/>
    <circle id="Oval-6" cx="3.403" cy="3.403" r="3.403" class="cls-5" data-name="Oval" transform="translate(83.947 158.613)"/>
    <rect id="Rectangle" width="54.859" height="96" class="cls-6" rx="9.365" transform="rotate(-.39 7618.441 -9224.032)"/>
    <path id="Path" d="M47.083 4.939A6.4 6.4 0 0 0 40.768 0L29.8.075V1.59a2.571 2.571 0 0 1-2.549 2.592h-7.304a2.56 2.56 0 0 1-2.517-2.507V.15L6.4.214A6.464 6.464 0 0 0 0 6.721l.363 51.8L46.5 4.406z" class="cls-7" transform="translate(66.837 56.319)"/>
    <path id="Path-2" d="M0 48.331h.693l34.368-.231a6.464 6.464 0 0 0 6.4-6.5L41.173 0z" class="cls-7" data-name="Path" transform="translate(73.12 93.536)"/>
    <path id="Path-3" d="M46.933 2.005a6.187 6.187 0 0 0-.192-1.472L46.123 0 0 54.112l.107 20.629a6.475 6.475 0 0 0 5.813 6.4l41.195-48.33z" class="cls-8" data-name="Path" transform="translate(67.2 60.725)"/>
    <path id="Path-4" d="M30.251 34.731l-12.619 6.133a2.283 2.283 0 0 1-2.005 0l-12.64-6.133A5.333 5.333 0 0 1 0 29.952V5.333A5.333 5.333 0 0 1 5.333 0h22.614a5.333 5.333 0 0 1 5.333 5.333v24.619a5.333 5.333 0 0 1-3.029 4.779z" class="cls-9" data-name="Path" transform="translate(41.216 63.296)"/>
    <path id="Path-5" d="M24.992 28.6L14.56 33.664a1.973 1.973 0 0 1-1.664 0L2.475 28.6A4.384 4.384 0 0 1 0 24.651V4.384A4.384 4.384 0 0 1 4.384 0h18.709a4.384 4.384 0 0 1 4.384 4.384v20.267a4.384 4.384 0 0 1-2.485 3.949z" class="cls-10" data-name="Path" transform="translate(44.107 66.955)"/>
    <circle id="Oval-7" cx="2.005" cy="2.005" r="2.005" class="cls-11" data-name="Oval" transform="translate(47.392 78.656)"/>
    <circle id="Oval-8" cx="2.005" cy="2.005" r="2.005" class="cls-11" data-name="Oval" transform="translate(52.843 78.656)"/>
    <circle id="Oval-9" cx="2.005" cy="2.005" r="2.005" class="cls-11" data-name="Oval" transform="translate(58.293 78.656)"/>
    <circle id="Oval-10" cx="2.005" cy="2.005" r="2.005" class="cls-11" data-name="Oval" transform="translate(63.755 78.656)"/>
    <circle id="Oval-11" cx="1.461" cy="1.461" r="1.461" class="cls-12" data-name="Oval" transform="translate(53.931 88.896)"/>
    <circle id="Oval-12" cx="1.035" cy="1.035" r="1.035" class="cls-12" data-name="Oval" transform="translate(51.819 71.637)"/>
    <circle id="Oval-13" cx="1.067" cy="1.067" r="1.067" class="cls-12" data-name="Oval" transform="translate(66.688 83.872)"/>
    <circle id="Oval-14" cx="23.915" cy="23.915" r="23.915" class="cls-13" data-name="Oval" transform="translate(102.688 21.643)"/>
    <path id="Path-6" d="M0 7.307l6.357 9.717L23.819 0" class="cls-14" data-name="Path" transform="translate(115.808 38.251)"/>
</svg>
