<svg xmlns="http://www.w3.org/2000/svg" width="15.33" height="16.604" viewBox="0 0 15.33 16.604">
    <defs>
        <style>
            .cls-1{fill:#fff;stroke:#fff;stroke-width:.6px}
        </style>
    </defs>
    <g id="package" transform="translate(-18.5 .304)">
        <path id="Path_3869" d="M33.524 3.772a.419.419 0 0 0-.041-.179.391.391 0 0 0-.274-.216L26.331.041a.408.408 0 0 0-.355 0L19.03 3.407a.407.407 0 0 0-.23.351v8.466a.4.4 0 0 0 .23.365l6.946 3.367h.007a.12.12 0 0 1 .03.014h.014l.03.01h.01c.003 0 .024 0 .034.007h.054a.193.193 0 0 0 .044 0h.01a.12.12 0 0 0 .034-.007h.01l.03-.01h.014a.12.12 0 0 0 .03-.014h.007l6.966-3.377a.408.408 0 0 0 .23-.365V3.782c-.006-.003-.006-.007-.006-.01zM26.152.854l6.024 2.921-2.219 1.078-6.024-2.921zm0 5.842l-6.025-2.921L23 2.381 29.029 5.3zM19.61 4.427L25.746 7.4v7.541l-6.136-2.973zm6.946 10.516V7.4L29.437 6v1.976a.405.405 0 1 0 .81 0V5.609l2.465-1.2v7.541z" class="cls-1" data-name="Path 3869"/>
    </g>
</svg>
