<svg xmlns="http://www.w3.org/2000/svg" width="22.551" height="14.063" viewBox="0 0 22.551 14.063">
    <g>
        <path fill="#e24b4b" d="M399.989 403.29a7.019 7.019 0 1 1-7.007-7.031 7.013 7.013 0 0 1 7.007 7.031z" transform="translate(-126.269 -253.897) translate(-251.169 -142.362)"/>
        <path fill="#ffd93b" d="M355.682 403.29a7.018 7.018 0 1 1-7-7.031 7.012 7.012 0 0 1 7 7.031z" transform="translate(-126.269 -253.897) translate(-215.378 -142.362)"/>
        <path fill="#d03f3f" d="M399.989 403.29a7.019 7.019 0 1 1-7.007-7.031 7.013 7.013 0 0 1 7.007 7.031z" transform="translate(-126.269 -253.897) translate(-251.169 -142.362)"/>
    </g>
</svg>
