<svg xmlns="http://www.w3.org/2000/svg" width="18" height="18" viewBox="0 0 18 18">
    <defs>
        <clipPath id="clip-path">
            <path id="Rectangle_553" fill="#fff" stroke="#002f4f" d="M0 0H18V18H0z"/>
        </clipPath>
        <style>
            .cls-3{fill:#002f4f}
        </style>
    </defs>
    <g id="Mask_Group_49" clip-path="url(#clip-path)">
        <path id="Union_23" d="M-16172.714 2625.01a1.919 1.919 0 0 1-1.916-1.916v-.861h-.187a.771.771 0 0 1-.771-.771v-4.681a.772.772 0 0 1 .771-.771h.188v-7.088a1.916 1.916 0 0 1 1.916-1.912h7.229l4.551 4.531v11.553a1.919 1.919 0 0 1-1.916 1.916zm-.739-1.916a.745.745 0 0 0 .739.743h9.864a.746.746 0 0 0 .743-.743l-.028-11.087-2.46.008a1.332 1.332 0 0 1-1.328-1.332v-2.509l-6.791.008a.742.742 0 0 0-.739.739v7.088h9.2a.771.771 0 0 1 .771.771v4.681a.771.771 0 0 1-.771.771h-9.2zm2.691-5.468v3.187a6.241 6.241 0 0 0 .832.049 2.325 2.325 0 0 0 1.5-.418 1.648 1.648 0 0 0 .54-1.315 1.43 1.43 0 0 0-.548-1.222 2.1 2.1 0 0 0-1.332-.349 6.338 6.338 0 0 0-.992.068zm3.354 3.2h.738v-1.307h1.165v-.6h-1.165v-.739h1.247v-.6h-1.985zm-6.154-3.2v3.2h.727v-1.161a2.139 2.139 0 0 0 .252.016 1.509 1.509 0 0 0 1.055-.345 1.037 1.037 0 0 0 .3-.771.953.953 0 0 0-.345-.751 1.585 1.585 0 0 0-1-.26 5.761 5.761 0 0 0-.989.072z" class="cls-3" transform="translate(16177.261 -2607.009)"/>
        <g id="pdf-file" transform="translate(1.673)">
            <path id="Path_2383" d="M5.3 11.581c0-.3-.207-.477-.573-.477a1.269 1.269 0 0 0-.3.029v.959a1.15 1.15 0 0 0 .246.019c.388-.001.627-.198.627-.53z" class="cls-3" transform="translate(-1.673)"/>
            <path id="Path_2384" d="M7.568 11.114a1.514 1.514 0 0 0-.332.029v2.124a1.329 1.329 0 0 0 .255.015 1.007 1.007 0 0 0 1.1-1.137.931.931 0 0 0-1.023-1.031z" class="cls-3" transform="translate(-1.673)"/>
        </g>
    </g>
</svg>
