<svg xmlns="http://www.w3.org/2000/svg" xmlns:xlink="http://www.w3.org/1999/xlink" id="pharmacy" width="72.002" height="72" viewBox="0 0 72.002 72">
    <defs>
        <style>
            .cls-1{fill:#fff}.cls-2{fill:url(#linear-gradient)}.cls-3{fill:url(#linear-gradient-2)}.cls-4,.cls-5{fill:#674cf3}.cls-4{opacity:.2}.cls-5{opacity:.1}.cls-6{fill:#3f3d56}.cls-7{fill:#2f2e41}
        </style>
        <linearGradient id="linear-gradient" x1=".134" x2=".793" y1=".148" y2=".72" gradientUnits="objectBoundingBox">
            <stop offset="0" stop-color="#674cf3"/>
            <stop offset="1" stop-color="#8039db"/>
        </linearGradient>
        <linearGradient id="linear-gradient-2" x1=".126" x2=".817" y1=".111" y2=".72" xlink:href="#linear-gradient"/>
    </defs>
    <path id="Rectangle_2541" d="M0 0h62.992v43.705H0z" class="cls-1" data-name="Rectangle 2541" transform="translate(4.505 26.887)"/>
    <path id="Path_4028" d="M185.544 154.831v4.918a5.419 5.419 0 0 1-5.419 5.419h-.706a5.419 5.419 0 0 1-5.419-5.419v-4.918z" class="cls-2" data-name="Path 4028" transform="translate(-149.536 -133.062)"/>
    <path id="Path_4029" d="M267.544 154.831v4.918a5.419 5.419 0 0 1-5.419 5.419h-.706a5.419 5.419 0 0 1-5.419-5.419v-4.918z" class="cls-3" data-name="Path 4029" transform="translate(-220.006 -133.062)"/>
    <path id="Path_4030" d="M349.544 154.831v4.918a5.419 5.419 0 0 1-5.419 5.419h-.706a5.419 5.419 0 0 1-5.419-5.419v-4.918z" class="cls-1" data-name="Path 4030" transform="translate(-290.477 -133.203)"/>
    <path id="Path_4031" d="M431.544 154.831v4.918a5.419 5.419 0 0 1-5.419 5.419h-.706a5.419 5.419 0 0 1-5.419-5.419v-4.918z" class="cls-1" data-name="Path 4031" transform="translate(-360.95 -133.062)"/>
    <path id="Path_4032" d="M21.544 154.831v4.918a5.419 5.419 0 0 1-5.419 5.419h-.706A5.419 5.419 0 0 1 10 159.75v-4.918z" class="cls-1" data-name="Path 4032" transform="translate(-8.592 -133.062)"/>
    <path id="Path_4033" d="M103.544 154.831v4.918a5.419 5.419 0 0 1-5.419 5.419h-.706A5.419 5.419 0 0 1 92 159.75v-4.918z" class="cls-1" data-name="Path 4033" transform="translate(-79.065 -133.062)"/>
    <path id="Path_4034" d="M10 76.669v-9.863a2.814 2.814 0 0 1 2.812-2.816h63.562a2.814 2.814 0 0 1 2.812 2.816v9.864H10z" class="cls-4" data-name="Path 4034" transform="translate(-8.592 -54.982)"/>
    <g id="Group_1900" data-name="Group 1900" transform="translate(12.028 40.182)">
        <path id="Rectangle_2542" d="M0 0h21.962v30.409H0z" class="cls-4" data-name="Rectangle 2542"/>
        <path id="Path_4035" d="M327.06 306.263H302V285.99h25.06" class="cls-4" data-name="Path 4035" transform="translate(-271.591 -285.99)"/>
    </g>
    <path id="Path_4036" d="M217.425 11.207a4.156 4.156 0 0 0-5.877 0l-6.33 6.33a4.156 4.156 0 0 0 0 5.877 4.156 4.156 0 0 0 5.877 0l6.33-6.33a4.156 4.156 0 0 0 0-5.877z" class="cls-1" data-name="Path 4036" transform="translate(-175.32 -8.585)"/>
    <path id="Path_4037" d="M235.126 14.372L241 20.25l3.165-3.165a4.156 4.156 0 0 0-5.877-5.877z" class="cls-5" data-name="Path 4037" transform="translate(-202.066 -8.585)"/>
    <path id="Path_4038" d="M72 58.208a4.223 4.223 0 0 0-4.219-4.218h-11.74a1.406 1.406 0 1 0 0 2.812h11.742a1.408 1.408 0 0 1 1.406 1.406v8.446H2.813v-8.446A1.408 1.408 0 0 1 4.219 56.8h17.52a1.406 1.406 0 1 0 0-2.812H4.219A4.223 4.223 0 0 0 0 58.208v14.875a6.817 6.817 0 0 0 3.124 5.726 1.407 1.407 0 0 0-.03.29v36.48H1.406a1.406 1.406 0 1 0 0 2.812H70.6a1.406 1.406 0 1 0 0-2.812h-1.692V79.1a1.417 1.417 0 0 0-.03-.29A6.817 6.817 0 0 0 72 73.082v-4.913-.055-.055zM14.344 69.466h8.719v3.616a4.011 4.011 0 0 1-4.007 4.006h-.706a4.011 4.011 0 0 1-4.007-4.006v-3.616zm11.532 0h8.719v3.616a4.011 4.011 0 0 1-4.007 4.006h-.706a4.011 4.011 0 0 1-4.007-4.006v-3.616zm11.532 0h8.719v3.616a4.011 4.011 0 0 1-4.007 4.006h-.706a4.011 4.011 0 0 1-4.007-4.006v-3.616zm11.532 0h8.719v3.616a4.011 4.011 0 0 1-4.007 4.006h-.706a4.011 4.011 0 0 1-4.007-4.006v-3.616zm-46.126 0h8.719v3.616a4.011 4.011 0 0 1-4.007 4.006h-.707a4.011 4.011 0 0 1-4.007-4.006v-3.616zM13.5 115.578v-27.56h19.126v27.56zm52.6-10.124H43.876V88.018H66.1zm0-20.248H42.47a1.406 1.406 0 0 0-1.406 1.406v20.248a1.406 1.406 0 0 0 1.406 1.406H66.1v7.312H35.439V86.612a1.406 1.406 0 0 0-1.406-1.406H12.094a1.406 1.406 0 0 0-1.406 1.406v28.966H5.906V79.837a6.835 6.835 0 0 0 .913.063h.706a6.811 6.811 0 0 0 5.413-2.678 6.811 6.811 0 0 0 5.413 2.678h.706a6.811 6.811 0 0 0 5.413-2.678 6.811 6.811 0 0 0 5.413 2.678h.706A6.811 6.811 0 0 0 36 77.222a6.811 6.811 0 0 0 5.415 2.678h.706a6.811 6.811 0 0 0 5.413-2.678 6.811 6.811 0 0 0 5.412 2.678h.706a6.811 6.811 0 0 0 5.413-2.678 6.811 6.811 0 0 0 5.413 2.678h.706a6.835 6.835 0 0 0 .913-.063v5.368zm-.913-8.118h-.706a4.011 4.011 0 0 1-4.007-4.006v-3.616h8.716v3.616a4.011 4.011 0 0 1-4.007 4.006z" class="cls-6" data-name="Path 4038" transform="translate(0 -46.39)"/>
    <path id="Path_4039" d="M191.408 383.99a1.408 1.408 0 1 0 1 .413 1.418 1.418 0 0 0-1-.413z" class="cls-6" data-name="Path 4039" transform="translate(-163.282 -329.993)"/>
    <path id="Path_4040" d="M199.564 17.461a5.547 5.547 0 0 0 3.934-1.627l3.164-3.164 3.166-3.17a5.564 5.564 0 0 0-7.868-7.868l-6.33 6.33a5.561 5.561 0 0 0 3.934 9.5zm4.386-13.834a2.748 2.748 0 1 1 3.886 3.886l-2.169 2.169-3.886-3.882zm-6.33 6.33l2.169-2.169 3.886 3.886-2.169 2.169a2.748 2.748 0 1 1-3.886-3.886z" class="cls-7" data-name="Path 4040" transform="translate(-166.727 -.009)"/>
    <path id="Path_4041" d="M345.727 319.306h3.741v3.741a1.408 1.408 0 1 0 2.816 0v-3.741h3.741a1.408 1.408 0 1 0 0-2.816h-3.741v-3.741a1.408 1.408 0 1 0-2.816 0v3.741h-3.741a1.408 1.408 0 1 0 0 2.816z" class="cls-6" data-name="Path 4041" transform="translate(-295.923 -267.569)"/>
    <path id="Path_4042" d="M125.408 323.323a1.408 1.408 0 0 0-1.408 1.408v11.732a1.408 1.408 0 1 0 2.816 0v-11.732a1.408 1.408 0 0 0-1.408-1.408z" class="cls-6" data-name="Path 4042" transform="translate(-106.563 -277.868)"/>
    <path id="Path_4043" d="M125.408 444.66a1.406 1.406 0 1 0 1 .411 1.417 1.417 0 0 0-1-.411z" class="cls-6" data-name="Path 4043" transform="translate(-106.563 -382.139)"/>
</svg>
