<svg xmlns="http://www.w3.org/2000/svg" width="46" height="36" viewBox="0 0 46 36">
    <defs>
        <style>
            .prefix__cls-1{fill:#4db7e5}.prefix__cls-2{fill:#348fd9}.prefix__cls-3{fill:#2a71ad}.prefix__cls-4{fill:#79c6e8}.prefix__cls-8{fill:#0d1321}
        </style>
    </defs>
    <g id="prefix__Group_1518" data-name="Group 1518" transform="translate(-267 -920)">
        <path id="prefix__Path_3654" d="M312 40v30.6h18V40zm0 0" class="prefix__cls-1" data-name="Path 3654" transform="translate(-17.9 884.5)"/>
        <path id="prefix__Path_3655" d="M360 264h7.2v5.4H360zm0 0" class="prefix__cls-2" data-name="Path 3655" transform="translate(-60.5 685.7)"/>
        <path id="prefix__Path_3656" d="M384 264h1.8v5.4H384zm0 0" class="prefix__cls-3" data-name="Path 3656" transform="translate(-81.8 685.7)"/>
        <g id="prefix__Group_1517" data-name="Group 1517" transform="translate(297.7 928.1)">
            <path id="prefix__Path_3657" d="M344 200h3.6v3.6H344zm0 0" class="prefix__cls-2" data-name="Path 3657" transform="translate(-344 -185.6)"/>
            <path id="prefix__Path_3658" d="M408 200h3.6v3.6H408zm0 0" class="prefix__cls-2" data-name="Path 3658" transform="translate(-400.8 -185.6)"/>
            <path id="prefix__Path_3659" d="M344 136h3.6v3.6H344zm0 0" class="prefix__cls-2" data-name="Path 3659" transform="translate(-344 -128.8)"/>
            <path id="prefix__Path_3660" d="M408 136h3.6v3.6H408zm0 0" class="prefix__cls-2" data-name="Path 3660" transform="translate(-400.8 -128.8)"/>
            <path id="prefix__Path_3661" d="M344 72h3.6v3.6H344zm0 0" class="prefix__cls-2" data-name="Path 3661" transform="translate(-344 -72)"/>
            <path id="prefix__Path_3662" d="M408 72h3.6v3.6H408zm0 0" class="prefix__cls-2" data-name="Path 3662" transform="translate(-400.8 -72)"/>
        </g>
        <path id="prefix__Path_3663" d="M344 72h3.6v1.8H344zm0 0" class="prefix__cls-3" data-name="Path 3663" transform="translate(-46.3 856.1)"/>
        <path id="prefix__Path_3664" d="M408 72h3.6v1.8H408zm0 0" class="prefix__cls-3" data-name="Path 3664" transform="translate(-103.1 856.1)"/>
        <path id="prefix__Path_3665" d="M344 136h3.6v1.8H344zm0 0" class="prefix__cls-3" data-name="Path 3665" transform="translate(-46.3 799.3)"/>
        <path id="prefix__Path_3666" d="M408 136h3.6v1.8H408zm0 0" class="prefix__cls-3" data-name="Path 3666" transform="translate(-103.1 799.3)"/>
        <path id="prefix__Path_3667" d="M344 200h3.6v1.8H344zm0 0" class="prefix__cls-3" data-name="Path 3667" transform="translate(-46.3 742.5)"/>
        <path id="prefix__Path_3668" d="M408 200h3.6v1.8H408zm0 0" class="prefix__cls-3" data-name="Path 3668" transform="translate(-103.1 742.5)"/>
        <path id="prefix__Path_3669" d="M328 8h14.4v3.6H328zm0 0" class="prefix__cls-4" data-name="Path 3669" transform="translate(-32.1 912.9)"/>
        <path id="prefix__Path_3670" d="M360 264h7.2v1.8H360zm0 0" class="prefix__cls-3" data-name="Path 3670" transform="translate(-60.5 685.7)"/>
        <path id="prefix__Path_3671" d="M312 168v7.2l3.6-3.6zm0 0" data-name="Path 3671" transform="translate(-17.9 770.9)" style="fill:#48add9"/>
        <path id="prefix__Path_3672" d="M8 40v30.6h18V40zm0 0" class="prefix__cls-1" data-name="Path 3672" transform="translate(259.9 884.5)"/>
        <path id="prefix__Path_3673" d="M56 264h7.2v5.4H56zm0 0" class="prefix__cls-2" data-name="Path 3673" transform="translate(217.3 685.7)"/>
        <path id="prefix__Path_3674" d="M80 264h1.8v5.4H80zm0 0" class="prefix__cls-3" data-name="Path 3674" transform="translate(196 685.7)"/>
        <path id="prefix__Path_3675" d="M40 200h3.6v3.6H40zm0 0" class="prefix__cls-2" data-name="Path 3675" transform="translate(231.5 742.5)"/>
        <path id="prefix__Path_3676" d="M104 200h3.6v3.6H104zm0 0" class="prefix__cls-2" data-name="Path 3676" transform="translate(174.7 742.5)"/>
        <path id="prefix__Path_3677" d="M40 136h3.6v3.6H40zm0 0" class="prefix__cls-2" data-name="Path 3677" transform="translate(231.5 799.3)"/>
        <path id="prefix__Path_3678" d="M104 136h3.6v3.6H104zm0 0" class="prefix__cls-2" data-name="Path 3678" transform="translate(174.7 799.3)"/>
        <path id="prefix__Path_3679" d="M40 72h3.6v3.6H40zm0 0" class="prefix__cls-2" data-name="Path 3679" transform="translate(231.5 856.1)"/>
        <path id="prefix__Path_3680" d="M104 72h3.6v3.6H104zm0 0" class="prefix__cls-2" data-name="Path 3680" transform="translate(174.7 856.1)"/>
        <path id="prefix__Path_3681" d="M40 72h3.6v1.8H40zm0 0" class="prefix__cls-3" data-name="Path 3681" transform="translate(231.5 856.1)"/>
        <path id="prefix__Path_3682" d="M104 72h3.6v1.8H104zm0 0" class="prefix__cls-3" data-name="Path 3682" transform="translate(174.7 856.1)"/>
        <path id="prefix__Path_3683" d="M40 136h3.6v1.8H40zm0 0" class="prefix__cls-3" data-name="Path 3683" transform="translate(231.5 799.3)"/>
        <path id="prefix__Path_3684" d="M104 136h3.6v1.8H104zm0 0" class="prefix__cls-3" data-name="Path 3684" transform="translate(174.7 799.3)"/>
        <path id="prefix__Path_3685" d="M40 200h3.6v1.8H40zm0 0" class="prefix__cls-3" data-name="Path 3685" transform="translate(231.5 742.5)"/>
        <path id="prefix__Path_3686" d="M104 200h3.6v1.8H104zm0 0" class="prefix__cls-3" data-name="Path 3686" transform="translate(174.7 742.5)"/>
        <path id="prefix__Path_3687" d="M24 8h14.4v3.6H24zm0 0" class="prefix__cls-4" data-name="Path 3687" transform="translate(245.7 912.9)"/>
        <path id="prefix__Path_3688" d="M56 264h7.2v1.8H56zm0 0" class="prefix__cls-3" data-name="Path 3688" transform="translate(217.3 685.7)"/>
        <path id="prefix__Path_3689" d="M158.954 132.362L154.593 128v2.492h-6.231V128L144 132.362l4.362 4.362v-2.492h6.231v2.492zm0 0" data-name="Path 3689" transform="translate(138.523 808.338)" style="fill:#ffb531"/>
        <path id="prefix__Path_3690" d="M232.723 132.362L228.362 128v2.492h-.623L224 134.231h4.362v2.492zm0 0" data-name="Path 3690" transform="translate(64.754 808.338)" style="fill:#ffa912"/>
        <path id="prefix__Path_3691" d="M.9 36h18a.9.9 0 0 0 .9-.9v-7.2H18v6.3h-3.6v-4.5a.9.9 0 0 0-.9-.9H6.3a.9.9 0 0 0-.9.9v4.5H1.8V5.4H18v8.1h1.8v-9a.9.9 0 0 0-.9-.9H18V.9a.9.9 0 0 0-.9-.9H2.7a.9.9 0 0 0-.9.9v2.7H.9a.9.9 0 0 0-.9.9v30.6a.9.9 0 0 0 .9.9zm11.7-1.8h-1.8v-3.6h1.8zm-5.4-3.6H9v3.6H7.2zM3.6 1.8h12.6v1.8H3.6zm0 0" class="prefix__cls-8" data-name="Path 3691" transform="translate(267 920)"/>
        <path id="prefix__Path_3692" d="M36.5 192h-3.6a.9.9 0 0 0-.9.9v3.6a.9.9 0 0 0 .9.9h3.6a.9.9 0 0 0 .9-.9v-3.6a.9.9 0 0 0-.9-.9zm-.9 3.6h-1.8v-1.8h1.8zm0 0" data-name="Path 3692" transform="translate(238.6 749.6)"/>
        <path id="prefix__Path_3693" d="M96 196.5a.9.9 0 0 0 .9.9h3.6a.9.9 0 0 0 .9-.9v-2.7h-1.8v1.8h-1.8v-1.8h1.8V192h-2.7a.9.9 0 0 0-.9.9zm0 0" data-name="Path 3693" transform="translate(181.8 749.6)"/>
        <path id="prefix__Path_3694" d="M37.4 128.9a.9.9 0 0 0-.9-.9h-3.6a.9.9 0 0 0-.9.9v3.6a.9.9 0 0 0 .9.9h3.6a.9.9 0 0 0 .9-.9zm-1.8 2.7h-1.8v-1.8h1.8zm0 0" data-name="Path 3694" transform="translate(238.6 806.4)"/>
        <path id="prefix__Path_3695" d="M96 132.5a.9.9 0 0 0 .9.9h2.7v-1.8h-1.8v-1.8h1.8v1.8h1.8v-2.7a.9.9 0 0 0-.9-.9h-3.6a.9.9 0 0 0-.9.9zm0 0" data-name="Path 3695" transform="translate(181.8 806.4)"/>
        <path id="prefix__Path_3696" d="M37.4 64.9a.9.9 0 0 0-.9-.9h-3.6a.9.9 0 0 0-.9.9v3.6a.9.9 0 0 0 .9.9h3.6a.9.9 0 0 0 .9-.9zm-1.8 2.7h-1.8v-1.8h1.8zm0 0" data-name="Path 3696" transform="translate(238.6 863.2)"/>
        <path id="prefix__Path_3697" d="M96.9 69.4h3.6a.9.9 0 0 0 .9-.9v-3.6a.9.9 0 0 0-.9-.9h-3.6a.9.9 0 0 0-.9.9v3.6a.9.9 0 0 0 .9.9zm.9-3.6h1.8v1.8h-1.8zm0 0" data-name="Path 3697" transform="translate(181.8 863.2)"/>
        <path id="prefix__Path_3698" d="M322.9 3.6h-.9V.9a.9.9 0 0 0-.9-.9h-14.4a.9.9 0 0 0-.9.9v2.7h-.9a.9.9 0 0 0-.9.9v9h1.8V5.4H322v28.8h-3.6v-4.5a.9.9 0 0 0-.9-.9h-7.2a.9.9 0 0 0-.9.9v4.5h-3.6v-6.3H304v7.2a.9.9 0 0 0 .9.9h18a.9.9 0 0 0 .9-.9V4.5a.9.9 0 0 0-.9-.9zm-11.7 27h1.8v3.6h-1.8zm3.6 3.6v-3.6h1.8v3.6zm-7.2-30.6V1.8h12.6v1.8zm0 0" class="prefix__cls-8" data-name="Path 3698" transform="translate(-10.8 920)"/>
        <path id="prefix__Path_3699" d="M340.5 192h-2.7v1.8h1.8v1.8h-1.8v-1.8H336v2.7a.9.9 0 0 0 .9.9h3.6a.9.9 0 0 0 .9-.9v-3.6a.9.9 0 0 0-.9-.9zm0 0" data-name="Path 3699" transform="translate(-39.2 749.6)"/>
        <path id="prefix__Path_3700" d="M400 196.5a.9.9 0 0 0 .9.9h3.6a.9.9 0 0 0 .9-.9v-3.6a.9.9 0 0 0-.9-.9h-3.6a.9.9 0 0 0-.9.9zm1.8-2.7h1.8v1.8h-1.8zm0 0" data-name="Path 3700" transform="translate(-96 749.6)"/>
        <path id="prefix__Path_3701" d="M336 131.6h1.8v-1.8h1.8v1.8h-1.8v1.8h2.7a.9.9 0 0 0 .9-.9v-3.6a.9.9 0 0 0-.9-.9h-3.6a.9.9 0 0 0-.9.9zm0 0" data-name="Path 3701" transform="translate(-39.2 806.4)"/>
        <path id="prefix__Path_3702" d="M400 132.5a.9.9 0 0 0 .9.9h3.6a.9.9 0 0 0 .9-.9v-3.6a.9.9 0 0 0-.9-.9h-3.6a.9.9 0 0 0-.9.9zm1.8-2.7h1.8v1.8h-1.8zm0 0" data-name="Path 3702" transform="translate(-96 806.4)"/>
        <path id="prefix__Path_3703" d="M336.9 69.4h3.6a.9.9 0 0 0 .9-.9v-3.6a.9.9 0 0 0-.9-.9h-3.6a.9.9 0 0 0-.9.9v3.6a.9.9 0 0 0 .9.9zm.9-3.6h1.8v1.8h-1.8zm0 0" data-name="Path 3703" transform="translate(-39.2 863.2)"/>
        <path id="prefix__Path_3704" d="M400.9 69.4h3.6a.9.9 0 0 0 .9-.9v-3.6a.9.9 0 0 0-.9-.9h-3.6a.9.9 0 0 0-.9.9v3.6a.9.9 0 0 0 .9.9zm.9-3.6h1.8v1.8h-1.8zm0 0" data-name="Path 3704" transform="translate(-96 863.2)"/>
        <path id="prefix__Path_3705" d="M136.186 125.426l4.362 4.362a.623.623 0 0 0 1.064-.441v-1.869h4.988v1.869a.623.623 0 0 0 1.064.441l4.362-4.362a.623.623 0 0 0 0-.881l-4.362-4.362a.623.623 0 0 0-1.064.441v1.869h-4.985v-1.869a.623.623 0 0 0-1.064-.441l-4.362 4.362a.623.623 0 0 0-.003.881zm4.179-3.3v.988a.623.623 0 0 0 .623.623h6.231a.623.623 0 0 0 .623-.623v-.988l2.858 2.857-2.858 2.857v-.988a.623.623 0 0 0-.623-.623h-6.231a.623.623 0 0 0-.623.623v.988l-2.857-2.857zm0 0" data-name="Path 3705" transform="translate(145.897 815.715)"/>
    </g>
</svg>
