<svg xmlns="http://www.w3.org/2000/svg" width="16.174" height="16.206" viewBox="0 0 16.174 16.206">
    <defs>
        <style>
            .cls-1{fill:#fff}
        </style>
    </defs>
    <g id="printer" transform="translate(-.5)">
        <path id="Path_5300" d="M99.072 3.133v-.76A2.377 2.377 0 0 0 96.7 0h-5.826A2.377 2.377 0 0 0 88.5 2.374v.76z" class="cls-1" transform="translate(-85.215)"/>
        <path id="Path_5301" d="M118.5 319v5.159a.95.95 0 0 0 .95.95h6.773a.95.95 0 0 0 .95-.95V319zm5.6 4.051h-2.53a.475.475 0 0 1 0-.95h2.53a.475.475 0 0 1 0 .95zm0-2.026h-2.53a.475.475 0 0 1 0-.95h2.53a.475.475 0 0 1 0 .95z" class="cls-1" transform="translate(-114.265 -308.903)"/>
        <path id="Path_5302" d="M14.3 129H2.874A2.377 2.377 0 0 0 .5 131.374v3.8a2.377 2.377 0 0 0 2.374 2.374h.411v-2.532H3a.475.475 0 0 1 0-.95h11.142a.475.475 0 0 1 0 .95h-.285v2.532h.443a2.377 2.377 0 0 0 2.374-2.374v-3.8A2.377 2.377 0 0 0 14.3 129zm-9.78 2.975H3a.475.475 0 1 1 0-.95h1.52a.475.475 0 1 1 0 .95z" class="cls-1" transform="translate(0 -124.917)"/>
    </g>
</svg>
