<svg xmlns="http://www.w3.org/2000/svg" width="15.996" height="13.313" viewBox="0 0 15.996 13.313">
    <g>
        <path fill="#0d1321" d="M130.682 147.46a.911.911 0 0 1 0 1.282l-2.9 2.9a.9.9 0 0 1-1.282 0l-2.9-2.9a.906.906 0 0 1 1.282-1.282l1.35 1.35v-9.3a.908.908 0 0 1 1.815 0v9.3l1.35-1.35a.918.918 0 0 1 1.285 0zm-8.378-5.689a.906.906 0 1 1-1.282 1.282l-1.356-1.35v9.3a.908.908 0 0 1-1.815 0v-9.3l-1.356 1.35a.906.906 0 1 1-1.282-1.282l2.9-2.9a.911.911 0 0 1 1.282 0z" transform="translate(-1084 -421) translate(969.05 282.4)"/>
    </g>
</svg>
