<svg xmlns="http://www.w3.org/2000/svg" width="16" height="15.789" viewBox="0 0 16 15.789">
    <g opacity="0.8">
        <g>
            <path fill="#5b636a" d="M15.332 15.789a.668.668 0 0 1-.472-.193L11.014 11.8a6.8 6.8 0 0 1-4.271 1.5A6.706 6.706 0 0 1 0 6.654 6.706 6.706 0 0 1 6.743 0a6.706 6.706 0 0 1 6.743 6.654 6.616 6.616 0 0 1-1.528 4.218l3.846 3.8a.647.647 0 0 1 0 .928.668.668 0 0 1-.472.189zM6.743 1.321a5.375 5.375 0 0 0-5.4 5.333 5.4 5.4 0 0 0 10.809 0 5.375 5.375 0 0 0-5.409-5.333z"/>
        </g>
    </g>
</svg>
