<svg xmlns="http://www.w3.org/2000/svg" width="257.947" height="59.058" viewBox="0 0 257.947 59.058"><defs><style>.a{fill:#fff;}.b{fill:#00d3b4;}</style></defs><g transform="translate(-794 -390)"><g transform="translate(794 390)"><path class="a" d="M394.027,355.2a1.588,1.588,0,0,1-1.567-1.568V322.272a1.568,1.568,0,0,1,3.136,0v29.791h20.383a1.568,1.568,0,0,1,0,3.136Z" transform="translate(-392.46 -313.163)"/><path class="a" d="M429.6,326.51a1.5,1.5,0,0,1-.465-1.1v-3.135a1.568,1.568,0,0,1,3.136,0v3.135a1.559,1.559,0,0,1-2.671,1.1Zm0,28.223a1.5,1.5,0,0,1-.465-1.1V331.679a1.568,1.568,0,0,1,3.136,0v21.952a1.56,1.56,0,0,1-2.671,1.1Z" transform="translate(-400.636 -313.163)"/><path class="a" d="M447.656,357.624a1.383,1.383,0,0,1-.539-.661l-9.407-21.952a1.461,1.461,0,0,1-.049-1.225,1.488,1.488,0,0,1,.833-.833,1.467,1.467,0,0,1,1.225-.05,1.5,1.5,0,0,1,.833.834l7.987,18.619,7.987-18.619a1.491,1.491,0,0,1,.833-.834,1.467,1.467,0,0,1,1.225.05,1.5,1.5,0,0,1,.833.833,1.467,1.467,0,0,1-.049,1.225l-9.408,21.952a1.386,1.386,0,0,1-.539.661,1.577,1.577,0,0,1-1.764,0Z" transform="translate(-402.511 -315.858)"/><path class="a" d="M473.367,357.163a8.1,8.1,0,0,1-3.871-2.352,7.948,7.948,0,0,1-1.911-3.993,30.222,30.222,0,0,1-.441-5.464,18.983,18.983,0,0,1,.734-5.659,8.728,8.728,0,0,1,6.15-6.15,18.972,18.972,0,0,1,5.659-.734,19.52,19.52,0,0,1,5.316.637,10.042,10.042,0,0,1,3.749,1.911,8.925,8.925,0,0,1,2.4,3.429,16.032,16.032,0,0,1,1.03,4.9,1.993,1.993,0,0,1-.1.636,1.381,1.381,0,0,1-.343.539,1.2,1.2,0,0,1-.49.368,1.631,1.631,0,0,1-.637.123H470.28a23.941,23.941,0,0,0,.368,4.728,5.706,5.706,0,0,0,1.2,2.671,5.58,5.58,0,0,0,2.817,1.519,20.705,20.705,0,0,0,5.023.49q4.31,0,5.928-.784a5.72,5.72,0,0,0,2.205-1.616,1.5,1.5,0,0,1,1-.613,1.365,1.365,0,0,1,1.152.27,1.437,1.437,0,0,1,.661.981,1.456,1.456,0,0,1-.269,1.176,7.7,7.7,0,0,1-3.9,2.842,21.172,21.172,0,0,1-6.786.882A22.5,22.5,0,0,1,473.367,357.163Zm1.838-20.7a6.155,6.155,0,0,0-2.818,1.592,5.308,5.308,0,0,0-1.2,1.716,10.132,10.132,0,0,0-.71,2.449h18.375a10,10,0,0,0-.759-2.622,5.248,5.248,0,0,0-1.4-1.837,6.4,6.4,0,0,0-2.768-1.372,17.516,17.516,0,0,0-4.238-.441A16.513,16.513,0,0,0,475.2,336.461Z" transform="translate(-409.109 -315.862)"/><path class="a" d="M594.289,335.9a10.016,10.016,0,0,1,1.912,3.846,21.5,21.5,0,0,1,.637,5.611V356.33a1.568,1.568,0,0,1-3.136,0V345.355a19.424,19.424,0,0,0-.441-4.508,6.822,6.822,0,0,0-1.372-2.891,5.16,5.16,0,0,0-2.351-1.519,14.02,14.02,0,0,0-7.35,0,5.155,5.155,0,0,0-2.351,1.519,6.814,6.814,0,0,0-1.372,2.891,19.468,19.468,0,0,0-.441,4.508V356.33a1.568,1.568,0,0,1-3.136,0V334.378a1.568,1.568,0,0,1,3.136,0v.931a8.163,8.163,0,0,1,3.282-1.887,15.345,15.345,0,0,1,4.557-.612,14.537,14.537,0,0,1,4.973.759A8.258,8.258,0,0,1,594.289,335.9Z" transform="translate(-433.127 -315.862)"/><path class="a" d="M626.932,335.9a10.015,10.015,0,0,1,1.911,3.846,21.508,21.508,0,0,1,.637,5.611V356.33a1.568,1.568,0,0,1-3.136,0V345.355a19.469,19.469,0,0,0-.441-4.508,6.815,6.815,0,0,0-1.372-2.891,5.156,5.156,0,0,0-2.352-1.519,14.02,14.02,0,0,0-7.35,0,5.159,5.159,0,0,0-2.351,1.519,6.824,6.824,0,0,0-1.372,2.891,19.459,19.459,0,0,0-.441,4.508V356.33a1.568,1.568,0,0,1-3.136,0V334.378a1.568,1.568,0,0,1,3.136,0v.931a8.17,8.17,0,0,1,3.283-1.887,15.336,15.336,0,0,1,4.556-.612,14.541,14.541,0,0,1,4.974.759A8.263,8.263,0,0,1,626.932,335.9Z" transform="translate(-440.404 -315.862)"/><path class="a" d="M645.781,357.163a8.1,8.1,0,0,1-3.871-2.352A7.955,7.955,0,0,1,640,350.818a30.219,30.219,0,0,1-.441-5.464,18.956,18.956,0,0,1,.735-5.659,8.725,8.725,0,0,1,6.149-6.15,18.976,18.976,0,0,1,5.659-.734,19.53,19.53,0,0,1,5.317.637,10.03,10.03,0,0,1,3.748,1.911,8.925,8.925,0,0,1,2.4,3.429,16.03,16.03,0,0,1,1.029,4.9,2,2,0,0,1-.1.636,1.383,1.383,0,0,1-.344.539,1.2,1.2,0,0,1-.489.368,1.628,1.628,0,0,1-.637.123H642.694a23.954,23.954,0,0,0,.367,4.728,5.715,5.715,0,0,0,1.2,2.671,5.579,5.579,0,0,0,2.818,1.519,20.694,20.694,0,0,0,5.022.49q4.312,0,5.929-.784a5.712,5.712,0,0,0,2.2-1.616,1.5,1.5,0,0,1,1-.613,1.366,1.366,0,0,1,1.152.27,1.44,1.44,0,0,1,.661.981,1.456,1.456,0,0,1-.27,1.176,7.688,7.688,0,0,1-3.9,2.842,21.172,21.172,0,0,1-6.786.882A22.5,22.5,0,0,1,645.781,357.163Zm1.837-20.7a6.156,6.156,0,0,0-2.817,1.592,5.283,5.283,0,0,0-1.2,1.716,10.087,10.087,0,0,0-.71,2.449h18.374a9.968,9.968,0,0,0-.759-2.622,5.245,5.245,0,0,0-1.4-1.837,6.408,6.408,0,0,0-2.769-1.372,17.513,17.513,0,0,0-4.238-.441A16.517,16.517,0,0,0,647.618,336.461Z" transform="translate(-447.544 -315.862)"/><path class="a" d="M682.507,357.163a8.725,8.725,0,0,1-6.149-6.149,22.153,22.153,0,0,1,0-11.319,8.725,8.725,0,0,1,6.149-6.15,18.975,18.975,0,0,1,5.659-.734,19.748,19.748,0,0,1,5.145.588,10.4,10.4,0,0,1,3.675,1.764,1.609,1.609,0,0,1,.245,2.205,1.433,1.433,0,0,1-1.029.612,1.524,1.524,0,0,1-1.176-.368,7.352,7.352,0,0,0-2.768-1.25,17.4,17.4,0,0,0-4.091-.416,16.513,16.513,0,0,0-4.484.514,6.044,6.044,0,0,0-4.409,4.41,19.792,19.792,0,0,0,0,8.967,6.045,6.045,0,0,0,4.409,4.41,16.517,16.517,0,0,0,4.484.514,17.356,17.356,0,0,0,4.091-.416,7.34,7.34,0,0,0,2.768-1.25,1.521,1.521,0,0,1,1.176-.367,1.433,1.433,0,0,1,1.029.612,1.608,1.608,0,0,1-.245,2.2,10.392,10.392,0,0,1-3.675,1.764,19.72,19.72,0,0,1-5.145.588A18.946,18.946,0,0,1,682.507,357.163Z" transform="translate(-455.584 -315.862)"/><path class="a" d="M719.24,352.063a1.568,1.568,0,0,1,0,3.136,27.841,27.841,0,0,1-5.193-.416,6.323,6.323,0,0,1-5.366-5.366,27.776,27.776,0,0,1-.417-5.194V322.272a1.568,1.568,0,0,1,3.136,0v7.84h7.839a1.568,1.568,0,0,1,0,3.135H711.4v10.975a24.113,24.113,0,0,0,.294,4.312,3.559,3.559,0,0,0,3.234,3.234A24.115,24.115,0,0,0,719.24,352.063Z" transform="translate(-462.861 -313.163)"/><path class="b" d="M547.866,359.658a16.67,16.67,0,1,1,0-33.34v-4.286a20.956,20.956,0,1,0,0,41.912Z" transform="translate(-422.432 -313.459)"/><circle class="b" cx="11.907" cy="11.907" r="11.907" transform="translate(113.527 17.622)"/><path class="b" d="M554.406,364.117a25.242,25.242,0,1,1-.01-47.18,2.141,2.141,0,0,0,2.917-1.992h0a2.143,2.143,0,0,0-1.374-2,29.529,29.529,0,1,0,0,55.175,2.145,2.145,0,0,0,1.375-2h0A2.138,2.138,0,0,0,554.406,364.117Z" transform="translate(-419.973 -311)"/><path class="b" d="M552.348,359.047a16.67,16.67,0,1,1-.051-32.132,2.119,2.119,0,0,0,2.714-2.02v-.071a2.123,2.123,0,0,0-1.571-2.041,20.956,20.956,0,1,0,.067,40.392,2.088,2.088,0,0,0,1.5-2.02v-.075A2.1,2.1,0,0,0,552.348,359.047Z" transform="translate(-422.432 -313.459)"/></g></g></svg>