<svg xmlns="http://www.w3.org/2000/svg" width="263.949" height="60.432" viewBox="0 0 263.949 60.432"><defs><style>.a{fill:#002f4f;}.b{fill:#00d3b4;}</style></defs><g transform="translate(-794 -390)"><g transform="translate(794 390)"><path class="a" d="M394.064,356a1.625,1.625,0,0,1-1.6-1.6V322.309a1.6,1.6,0,0,1,3.208,0v30.484h20.858a1.6,1.6,0,0,1,0,3.209Z" transform="translate(-392.46 -312.988)"/><path class="a" d="M429.613,326.645a1.539,1.539,0,0,1-.476-1.128v-3.208a1.6,1.6,0,0,1,3.209,0v3.208a1.6,1.6,0,0,1-2.733,1.128Zm0,28.88a1.539,1.539,0,0,1-.476-1.128V331.935a1.6,1.6,0,0,1,3.209,0V354.4a1.6,1.6,0,0,1-2.733,1.128Z" transform="translate(-399.973 -312.988)"/><path class="a" d="M447.891,358.2a1.416,1.416,0,0,1-.552-.677l-9.626-22.462a1.5,1.5,0,0,1-.05-1.253,1.522,1.522,0,0,1,.852-.852,1.5,1.5,0,0,1,1.253-.051,1.531,1.531,0,0,1,.852.853l8.173,19.053,8.173-19.053a1.526,1.526,0,0,1,.852-.853,1.5,1.5,0,0,1,1.253.051,1.529,1.529,0,0,1,.852.852,1.5,1.5,0,0,1-.05,1.253l-9.627,22.462a1.418,1.418,0,0,1-.551.677,1.614,1.614,0,0,1-1.8,0Z" transform="translate(-401.696 -315.464)"/><path class="a" d="M473.512,357.729a8.287,8.287,0,0,1-3.961-2.407,8.133,8.133,0,0,1-1.955-4.085,30.927,30.927,0,0,1-.451-5.591,19.424,19.424,0,0,1,.751-5.791,8.931,8.931,0,0,1,6.293-6.293,19.413,19.413,0,0,1,5.791-.751,19.973,19.973,0,0,1,5.44.652,10.275,10.275,0,0,1,3.836,1.955,9.132,9.132,0,0,1,2.456,3.509,16.4,16.4,0,0,1,1.054,5.014,2.039,2.039,0,0,1-.1.651,1.414,1.414,0,0,1-.351.552,1.23,1.23,0,0,1-.5.376,1.67,1.67,0,0,1-.652.126H470.353a24.5,24.5,0,0,0,.376,4.838,5.839,5.839,0,0,0,1.229,2.733,5.71,5.71,0,0,0,2.882,1.554,21.187,21.187,0,0,0,5.14.5q4.411,0,6.066-.8a5.853,5.853,0,0,0,2.257-1.654,1.538,1.538,0,0,1,1.027-.627,1.4,1.4,0,0,1,1.178.276,1.471,1.471,0,0,1,.677,1,1.49,1.49,0,0,1-.275,1.2,7.874,7.874,0,0,1-3.986,2.908,21.665,21.665,0,0,1-6.944.9A23.019,23.019,0,0,1,473.512,357.729Zm1.88-21.184a6.3,6.3,0,0,0-2.883,1.629,5.431,5.431,0,0,0-1.228,1.756,10.369,10.369,0,0,0-.727,2.506h18.8a10.236,10.236,0,0,0-.777-2.683,5.369,5.369,0,0,0-1.43-1.88,6.549,6.549,0,0,0-2.832-1.4,17.925,17.925,0,0,0-4.337-.451A16.9,16.9,0,0,0,475.392,336.546Z" transform="translate(-407.759 -315.468)"/><path class="a" d="M594.74,335.969a10.248,10.248,0,0,1,1.956,3.936,22,22,0,0,1,.652,5.741v11.231a1.6,1.6,0,0,1-3.209,0V345.646a19.877,19.877,0,0,0-.452-4.613,6.981,6.981,0,0,0-1.4-2.958,5.279,5.279,0,0,0-2.406-1.554,14.345,14.345,0,0,0-7.521,0,5.275,5.275,0,0,0-2.406,1.554,6.972,6.972,0,0,0-1.4,2.958,19.921,19.921,0,0,0-.451,4.613v11.231a1.6,1.6,0,0,1-3.209,0V334.415a1.6,1.6,0,0,1,3.209,0v.953a8.353,8.353,0,0,1,3.359-1.931,15.7,15.7,0,0,1,4.663-.626,14.875,14.875,0,0,1,5.089.777A8.45,8.45,0,0,1,594.74,335.969Z" transform="translate(-429.83 -315.468)"/><path class="a" d="M627.383,335.969a10.247,10.247,0,0,1,1.955,3.936,22.008,22.008,0,0,1,.652,5.741v11.231a1.6,1.6,0,0,1-3.209,0V345.646a19.921,19.921,0,0,0-.451-4.613,6.974,6.974,0,0,0-1.4-2.958,5.275,5.275,0,0,0-2.406-1.554,14.345,14.345,0,0,0-7.521,0,5.279,5.279,0,0,0-2.406,1.554,6.982,6.982,0,0,0-1.4,2.958,19.915,19.915,0,0,0-.451,4.613v11.231a1.6,1.6,0,0,1-3.209,0V334.415a1.6,1.6,0,0,1,3.209,0v.953a8.36,8.36,0,0,1,3.359-1.931,15.693,15.693,0,0,1,4.662-.626,14.88,14.88,0,0,1,5.09.777A8.455,8.455,0,0,1,627.383,335.969Z" transform="translate(-436.517 -315.468)"/><path class="a" d="M645.925,357.729a8.286,8.286,0,0,1-3.961-2.407,8.14,8.14,0,0,1-1.955-4.085,30.921,30.921,0,0,1-.451-5.591,19.4,19.4,0,0,1,.752-5.791,8.928,8.928,0,0,1,6.292-6.293,19.417,19.417,0,0,1,5.791-.751,19.983,19.983,0,0,1,5.44.652,10.265,10.265,0,0,1,3.835,1.955,9.132,9.132,0,0,1,2.457,3.509,16.4,16.4,0,0,1,1.053,5.014,2.044,2.044,0,0,1-.1.651,1.414,1.414,0,0,1-.352.552,1.229,1.229,0,0,1-.5.376,1.667,1.667,0,0,1-.652.126H642.767a24.507,24.507,0,0,0,.375,4.838,5.848,5.848,0,0,0,1.229,2.733,5.709,5.709,0,0,0,2.883,1.554,21.175,21.175,0,0,0,5.139.5q4.412,0,6.067-.8a5.844,5.844,0,0,0,2.256-1.654,1.54,1.54,0,0,1,1.028-.627,1.4,1.4,0,0,1,1.178.276,1.473,1.473,0,0,1,.677,1,1.49,1.49,0,0,1-.276,1.2,7.866,7.866,0,0,1-3.986,2.908,21.664,21.664,0,0,1-6.944.9A23.019,23.019,0,0,1,645.925,357.729Zm1.88-21.184a6.3,6.3,0,0,0-2.882,1.629,5.407,5.407,0,0,0-1.228,1.756,10.325,10.325,0,0,0-.727,2.506h18.8a10.2,10.2,0,0,0-.777-2.683,5.366,5.366,0,0,0-1.429-1.88,6.557,6.557,0,0,0-2.833-1.4,17.921,17.921,0,0,0-4.337-.451A16.9,16.9,0,0,0,647.805,336.546Z" transform="translate(-443.078 -315.468)"/><path class="a" d="M682.667,357.729a8.929,8.929,0,0,1-6.292-6.292,22.669,22.669,0,0,1,0-11.582,8.928,8.928,0,0,1,6.292-6.293,19.416,19.416,0,0,1,5.791-.751,20.208,20.208,0,0,1,5.265.6,10.646,10.646,0,0,1,3.76,1.8,1.646,1.646,0,0,1,.251,2.257,1.466,1.466,0,0,1-1.053.627,1.56,1.56,0,0,1-1.2-.376,7.523,7.523,0,0,0-2.832-1.279,17.8,17.8,0,0,0-4.187-.426,16.9,16.9,0,0,0-4.588.526,6.185,6.185,0,0,0-4.512,4.512,20.253,20.253,0,0,0,0,9.175,6.185,6.185,0,0,0,4.512,4.513,16.9,16.9,0,0,0,4.588.526,17.759,17.759,0,0,0,4.187-.425,7.51,7.51,0,0,0,2.832-1.279,1.556,1.556,0,0,1,1.2-.375,1.466,1.466,0,0,1,1.053.627,1.645,1.645,0,0,1-.251,2.256,10.634,10.634,0,0,1-3.76,1.805,20.178,20.178,0,0,1-5.265.6A19.388,19.388,0,0,1,682.667,357.729Z" transform="translate(-450.466 -315.468)"/><path class="a" d="M719.5,352.792a1.6,1.6,0,0,1,0,3.209,28.492,28.492,0,0,1-5.314-.426,6.47,6.47,0,0,1-5.49-5.491,28.417,28.417,0,0,1-.426-5.315V322.309a1.6,1.6,0,0,1,3.209,0v8.022H719.5a1.6,1.6,0,0,1,0,3.208h-8.021V344.77a24.679,24.679,0,0,0,.3,4.412,3.642,3.642,0,0,0,3.309,3.309A24.681,24.681,0,0,0,719.5,352.792Z" transform="translate(-457.153 -312.988)"/><path class="b" d="M548.354,360.533a17.058,17.058,0,1,1,0-34.115v-4.386a21.444,21.444,0,1,0,0,42.887Z" transform="translate(-420.002 -313.26)"/><circle class="b" cx="12.184" cy="12.184" r="12.184" transform="translate(116.167 18.032)"/><path class="b" d="M555.3,365.352a25.83,25.83,0,1,1-.01-48.278,2.191,2.191,0,0,0,2.985-2.038h0a2.193,2.193,0,0,0-1.406-2.05,30.215,30.215,0,1,0,0,56.458,2.195,2.195,0,0,0,1.406-2.051h0A2.188,2.188,0,0,0,555.3,365.352Z" transform="translate(-417.742 -311)"/><path class="b" d="M552.939,359.908a17.058,17.058,0,1,1-.052-32.879,2.169,2.169,0,0,0,2.777-2.067v-.072a2.172,2.172,0,0,0-1.608-2.089,21.444,21.444,0,1,0,.068,41.332,2.137,2.137,0,0,0,1.539-2.067v-.077A2.152,2.152,0,0,0,552.939,359.908Z" transform="translate(-420.002 -313.26)"/></g></g></svg>