<svg xmlns="http://www.w3.org/2000/svg" width="32.471" height="41.006" viewBox="0 0 32.471 41.006">
    <defs>
        <style>
            .cls-1{fill:#fff;stroke:#674cf3;stroke-miterlimit:10}.cls-2{fill:#674cf3;opacity:.1}
        </style>
    </defs>
    <g id="oral_sus" transform="translate(-5.874 -1.995)">
        <path id="Rectangle-path" d="M0 0h26.836v1.3H0z" class="cls-1" transform="rotate(40.38 -17.714 17.967)"/>
        <path id="Shape" d="M1.042 0L.463.058C-.8 1.524.608 4.783 3.607 7.338c2.073 1.755 5 1.842 6.653 1.716a.54.54 0 0 0 .318-.964z" class="cls-1" transform="translate(27.047 33.402)"/>
        <path id="Shape-2" d="M10.583 8.109l-.617-.521a8.322 8.322 0 0 1-5.082-1.745c-2.141-1.822-3.471-4-3.6-5.631L1.046 0 .458.058C-.8 1.533.612 4.792 3.611 7.338c2.025 1.765 5 1.9 6.653 1.726a.54.54 0 0 0 .318-.955z" class="cls-2" transform="translate(27.275 33.17)"/>
        <path id="Shape-3" d="M2.989 0h10.848a2.989 2.989 0 0 1 2.989 2.989V28.4a3.288 3.288 0 0 1-3.288 3.288H3.288A3.288 3.288 0 0 1 0 28.4V3.018A2.989 2.989 0 0 1 2.989 0z" class="cls-1" transform="translate(10.431 10.587)"/>
        <path id="Rectangle-path-2" d="M2.41 0h4.9a2.41 2.41 0 0 1 2.41 2.41v3.347a2.41 2.41 0 0 1-2.41 2.41h-4.9A2.41 2.41 0 0 1 0 5.757V2.41A2.41 2.41 0 0 1 2.41 0z" class="cls-1" transform="translate(13.996 2.495)"/>
        <g id="Group" opacity="0.4" transform="translate(16.018 2.601)">
            <path id="Shape-4" fill="#674cf3" d="M7.7 5.843V2.324A2.247 2.247 0 0 0 5.556 0h-4.3A2.353 2.353 0 0 0 0 2.112v3.52a2.247 2.247 0 0 0 2.142 2.323h4.3A2.353 2.353 0 0 0 7.7 5.843z" opacity="0.4"/>
        </g>
        <path id="Shape-5" d="M13.394 0H2.652a2.893 2.893 0 0 1 .4 1.427v24.811A3.24 3.24 0 0 1 0 29.391a3.3 3.3 0 0 0 2.8 1.533h10.3a3.25 3.25 0 0 0 3.288-3.211V2.922A2.96 2.96 0 0 0 13.394 0z" class="cls-2" transform="translate(10.923 11.089)"/>
        <path id="Shape-6" fill="#ffbe0b" d="M2.15 0h7.435v17.964H2.15A2.15 2.15 0 0 1 0 15.814V2.15A2.15 2.15 0 0 1 2.15 0z" opacity="0.78" transform="translate(17.058 17.227)"/>
    </g>
</svg>
