<svg xmlns="http://www.w3.org/2000/svg" width="27.166" height="40.975" viewBox="0 0 27.166 40.975">
    <defs>
        <style>
            .cls-1{fill:#fff;stroke:#674cf3;stroke-miterlimit:10}.cls-2{fill:#674cf3;opacity:.1}.cls-3{fill:#ffbe0b;opacity:.78}
        </style>
    </defs>
    <g id="injectable" transform="translate(-8.5 -2.038)">
        <path id="Shape" d="M5.266 0h3.853a5.249 5.249 0 0 1 5.249 5.249v18.357a4.755 4.755 0 0 1-4.755 4.755H4.781A4.755 4.755 0 0 1 0 23.606V5.249A5.249 5.249 0 0 1 5.249 0z" class="cls-1" transform="translate(9 14.152)"/>
        <path id="Shape-2" d="M4.7 0h3.4a4.662 4.662 0 0 1 4.66 4.662v19.471a4.253 4.253 0 0 1-4.253 4.253H4.253A4.253 4.253 0 0 1 0 24.133V4.662A4.662 4.662 0 0 1 4.662 0z" class="cls-2" transform="translate(10.523 14.152)"/>
        <path id="Rectangle-path" d="M2.4 0h1.427a2.4 2.4 0 0 1 2.4 2.4v.78a2.4 2.4 0 0 1-2.4 2.4H2.4A2.4 2.4 0 0 1 0 3.18V2.4A2.4 2.4 0 0 1 2.4 0z" class="cls-1" transform="translate(13.006 8.634)"/>
        <path id="Rectangle-path-2" d="M2.22 0h.715a2.22 2.22 0 0 1 2.22 2.22v1.14a2.22 2.22 0 0 1-2.22 2.22H2.22A2.22 2.22 0 0 1 0 3.36V2.22A2.22 2.22 0 0 1 2.22 0z" class="cls-2" transform="translate(14.144 8.634)"/>
        <path id="Shape-3" d="M.442 0h.349a.476.476 0 0 1 .476.476v5.632H0V.468A.476.476 0 0 1 .442 0z" class="cls-1" transform="translate(15.352 2.538)"/>
        <path id="Rectangle-path-3" d="M2.62 0H6.3a2.62 2.62 0 0 1 2.62 2.62v7.324a2.62 2.62 0 0 1-2.62 2.62H2.62A2.62 2.62 0 0 1 0 9.944V2.62A2.62 2.62 0 0 1 2.62 0z" class="cls-3" transform="translate(11.841 21.87)"/>
        <path id="Rectangle-path-4" d="M3.8 0h1.341a3.8 3.8 0 0 1 3.8 3.8v10.953a3.8 3.8 0 0 1-3.8 3.8H3.8a3.8 3.8 0 0 1-3.8-3.8V3.8A3.8 3.8 0 0 1 3.8 0z" class="cls-1" transform="translate(26.225 23.96)"/>
        <path id="Rectangle-path-5" d="M3.31 0h1.079A3.31 3.31 0 0 1 7.7 3.31V14.2a3.31 3.31 0 0 1-3.31 3.31H3.31A3.31 3.31 0 0 1 0 14.2V3.31A3.31 3.31 0 0 1 3.31 0z" class="cls-2" transform="translate(27.459 24.538)"/>
        <path id="Rectangle-path-6" d="M0 0h2.875v1.761H0z" class="cls-1" transform="translate(29.253 22.231)"/>
        <path id="Rectangle-path-7" fill="#6c3c96" d="M0 0h2.127v1.761H0z" opacity="0.1" transform="translate(30.002 22.019)"/>
        <path id="Rectangle-path-8" d="M1.47 0h4.912a1.47 1.47 0 0 1 1.47 1.47v.522a1.47 1.47 0 0 1-1.47 1.47H1.47A1.47 1.47 0 0 1 0 1.992V1.47A1.47 1.47 0 0 1 1.47 0z" class="cls-1" transform="translate(26.659 18.774)"/>
        <path id="Rectangle-path-9" d="M1.1 0h4.58a1.1 1.1 0 0 1 1.1 1.1v1.05a1.1 1.1 0 0 1-1.1 1.1H1.1A1.1 1.1 0 0 1 0 2.15V1.1A1.1 1.1 0 0 1 1.1 0z" class="cls-2" transform="translate(27.688 18.774)"/>
        <path id="Shape-4" d="M2.475 0h2.8v8.217h-2.8A2.475 2.475 0 0 1 0 5.742V2.475A2.475 2.475 0 0 1 2.475 0z" class="cls-3" transform="translate(29.449 29.038)"/>
    </g>
</svg>
