<svg xmlns="http://www.w3.org/2000/svg" width="18.711" height="41.004" viewBox="0 0 18.711 41.004">
    <defs>
        <style>
            .cls-1{fill:#fff;stroke:#674cf3;stroke-miterlimit:10}.cls-2{fill:#674cf3;opacity:.1}
        </style>
    </defs>
    <g id="drops" transform="translate(-12.086 -1.709)">
        <path id="Rectangle-path" d="M2.82 0h12.071a2.82 2.82 0 0 1 2.82 2.82v12.206a2.82 2.82 0 0 1-2.82 2.82H2.82A2.82 2.82 0 0 1 0 15.026V2.82A2.82 2.82 0 0 1 2.82 0z" class="cls-1" transform="translate(12.586 24.366)"/>
        <path id="Shape" d="M14.021 0H2.718a3.182 3.182 0 0 1 .408 1.564v11.25A3.292 3.292 0 0 1 0 16.106a3.274 3.274 0 0 0 2.881 1.74h11.14a3.291 3.291 0 0 0 3.278-3.3V3.315a3.317 3.317 0 0 0-.956-2.343A3.265 3.265 0 0 0 14.021 0z" class="cls-2" transform="translate(12.998 24.366)"/>
        <path id="Rectangle-path-2" d="M1.5 0h13.523a1.5 1.5 0 0 1 1.5 1.5v.539a1.5 1.5 0 0 1-1.5 1.5H1.5a1.5 1.5 0 0 1-1.5-1.5V1.5A1.5 1.5 0 0 1 1.5 0z" class="cls-1" transform="translate(13.186 21.023)"/>
        <path id="Shape-2" fill="none" stroke="#674cf3" stroke-miterlimit="10" d="M0 16.382L.212 11.1a4.575 4.575 0 0 1 1.083-2.81A13.862 13.862 0 0 0 4.158 1.5 1.775 1.775 0 0 1 5.892.005h1.35a1.852 1.852 0 0 1 1.921 1.364C9.593 3.2 10.548 6.483 12.1 8.27a4.656 4.656 0 0 1 1.164 2.822l.268 5.267a2.5 2.5 0 0 1-.672 1.838 2.444 2.444 0 0 1-1.784.772H2.458A2.444 2.444 0 0 1 .683 18.2 2.5 2.5 0 0 1 0 16.382z" transform="translate(14.7 2.212)"/>
        <path id="Shape-3" d="M10.23 10.91a4.632 4.632 0 0 0-1.175-2.833C7.5 6.29 6.539 3.021 6.092 1.176A1.658 1.658 0 0 0 5.128 0a1.8 1.8 0 0 0-.952 1.27 13.684 13.684 0 0 1-2.892 6.783 4.7 4.7 0 0 0-1.094 2.81L0 16.153a2.481 2.481 0 0 0 2.483 2.587h5.525a2.481 2.481 0 0 0 2.481-2.586z" class="cls-2" transform="translate(17.304 2.288)"/>
        <path id="Shape-4" fill="#ffbe0b" d="M2.116 0h7.842v8.617H2.116A2.116 2.116 0 0 1 0 6.5V2.1A2.116 2.116 0 0 1 2.116 0z" opacity="0.78" transform="translate(19.74 28.81)"/>
    </g>
</svg>
