<svg xmlns="http://www.w3.org/2000/svg" width="21.251" height="22.411" viewBox="0 0 21.251 22.411">
    <defs>
        <style>
            .cls-1{fill:none;stroke-miterlimit:10;stroke-width:2px;stroke:#fff}.cls-2,.cls-3{stroke:#fff;fill:#fff}.cls-3{stroke-width:.8px}
        </style>
    </defs>
    <g id="smart_cart" data-name="smart cart" transform="translate(-836.307 -76.589)">
        <g id="cart" transform="translate(836.969 78)">
            <path id="Path-30" d="M18.276 2.978l.952 8.889a3.333 3.333 0 0 1-3.314 3.688H3.333a3.333 3.333 0 0 1-3.314-3.688l.952-8.889A3.333 3.333 0 0 1 4.286 0h10.676a3.333 3.333 0 0 1 3.314 2.978z" class="cls-1" transform="translate(.339 4.444)"/>
        </g>
        <g id="Group_1863" data-name="Group 1863" transform="translate(843.871 88.993)">
            <g id="Group_1863-2" data-name="Group 1863">
                <path id="Path_3906" d="M77.392 85.333h-.028a.357.357 0 0 0-.357.357.353.353 0 0 0 .028.138v1.826a2.321 2.321 0 0 1-4.642 0V85.69a.357.357 0 0 0-.714 0v1.964a3.035 3.035 0 0 0 6.07 0V85.69a.357.357 0 0 0-.357-.357z" class="cls-2" data-name="Path 3906" transform="translate(-71.679 -86.333)"/>
            </g>
        </g>
        <path id="Path_3907" d="M117.123 75.093a1.071 1.071 0 1 0 1.071 1.071 1.072 1.072 0 0 0-1.071-1.071zm0 1.428a.357.357 0 1 1 .357-.357.357.357 0 0 1-.357.357z" class="cls-2" data-name="Path 3907" transform="translate(732.454 12.839)"/>
        <path id="Path_3908" d="M65.923 75.093a1.071 1.071 0 1 0 1.071 1.071 1.072 1.072 0 0 0-1.071-1.071zm0 1.428a.357.357 0 1 1 .357-.357.357.357 0 0 1-.357.357z" class="cls-2" data-name="Path 3908" transform="translate(778.313 12.839)"/>
        <g id="Group_1864" data-name="Group 1864" transform="translate(0 .667)">
            <path id="Path_3910" d="M111.239 20.433a.357.357 0 0 0-.222-.159l-4.868-1.139a.357.357 0 0 0-.429.266l-.367 1.569a.357.357 0 0 0 .7.162l.286-1.221 4.172.976-.656 2.8a.357.357 0 0 0 .266.429.361.361 0 0 0 .082.009.357.357 0 0 0 .347-.276l.737-3.151a.356.356 0 0 0-.048-.265z" class="cls-3" data-name="Path 3910" transform="translate(742.027 58.114)"/>
            <path id="Path_3911" d="M42.5 13.441l-.325-2.752a.357.357 0 0 0-.4-.313l-5.972.706a.357.357 0 0 0-.313.4l.542 4.59a.357.357 0 0 0 .354.315h.042a.357.357 0 0 0 .313-.4l-.5-4.235 5.263-.622.283 2.4a.357.357 0 0 0 .709-.084z" class="cls-3" data-name="Path 3911" transform="translate(804.613 65.949)"/>
            <path id="Path_3912" d="M68.161 35.99l-.709-2.947a.357.357 0 0 0-.431-.264l-5.751 1.384a.357.357 0 0 0-.264.431l.354 1.473a.357.357 0 1 0 .694-.167l-.271-1.126 5.057-1.216.625 2.6a.357.357 0 0 0 .694-.167z" class="cls-3" data-name="Path 3912" transform="translate(781.759 45.884)"/>
        </g>
    </g>
</svg>
