<svg xmlns="http://www.w3.org/2000/svg" width="356" height="213.251" viewBox="0 0 356 213.251">
    <defs>
        <style>
            .prefix__cls-10,.prefix__cls-18,.prefix__cls-20,.prefix__cls-28,.prefix__cls-31,.prefix__cls-32,.prefix__cls-34,.prefix__cls-4,.prefix__cls-45,.prefix__cls-47{fill:none}.prefix__cls-31{stroke-width:.5px}.prefix__cls-4{stroke:#ebf2ff}.prefix__cls-18,.prefix__cls-28,.prefix__cls-31,.prefix__cls-32,.prefix__cls-34,.prefix__cls-4,.prefix__cls-45,.prefix__cls-47{stroke-miterlimit:10}.prefix__cls-4{stroke-width:4px}.prefix__cls-7{fill:#fefefe}.prefix__cls-8{fill:#c4dbfe}.prefix__cls-9{fill:#a4c2e6;opacity:.34}.prefix__cls-10,.prefix__cls-28{stroke:#a4c2e6}.prefix__cls-10,.prefix__cls-20{stroke-linecap:round;stroke-linejoin:round}.prefix__cls-10,.prefix__cls-34{stroke-width:.75px}.prefix__cls-11{fill:#585166}.prefix__cls-19,.prefix__cls-40{mix-blend-mode:multiply;isolation:isolate}.prefix__cls-14{fill:#4f4b5b}.prefix__cls-15{fill:#5b3927}.prefix__cls-16{fill:#fcd6b1}.prefix__cls-18{stroke:#68411d;stroke-width:.841px}.prefix__cls-19{fill:#523d6b;opacity:.428}.prefix__cls-20{stroke:#e59e6e;stroke-width:.561px}.prefix__cls-23{fill:#fcc2a2}.prefix__cls-24{fill:#f9b485}.prefix__cls-28{opacity:.429}.prefix__cls-29{fill:#97b714}.prefix__cls-30{fill:#2b50a0}.prefix__cls-31{stroke:#332b27}.prefix__cls-32,.prefix__cls-34{stroke:#5b3927}.prefix__cls-40{fill:#00d5bc;opacity:.273}.prefix__cls-45{stroke:#00b09f}.prefix__cls-47{stroke:#009684}
        </style>
    </defs>
    <g id="prefix__eco_green_bg" data-name="eco green bg" transform="translate(-462 -2062.737)">
        <g id="prefix___36a73251c4ae873ab29bb0ad23aceb03" data-name="36a73251c4ae873ab29bb0ad23aceb03" transform="translate(462 2063)" style="stroke-width:.5px;stroke:#c3cde4;opacity:.4;fill:none">
            <rect width="356" height="212.988" rx="5" style="stroke:none"/>
            <rect width="355.5" height="212.488" x=".25" y=".25" rx="4.75" style="fill:none"/>
        </g>
        <rect id="prefix___36a73251c4ae873ab29bb0ad23aceb03-2" width="356" height="212.988" data-name="36a73251c4ae873ab29bb0ad23aceb03" rx="5" transform="translate(462 2063)" style="fill:#fcfaf9;opacity:.2"/>
        <path id="prefix__Path_4950" d="M5.2 0h99.787v8.2c0 21.9-13.088 33.2-29.736 33.2 0 0-5.321.778-36.881-1.558S0 45.043 0 45.043V6.837C0 3.061 2.327 0 5.2 0z" data-name="Path 4950" transform="translate(462.016 2062.737)" style="opacity:.6;fill:#ebf2ff"/>
        <g id="prefix__Group_2234" data-name="Group 2234" transform="translate(6674.692 13001.4)">
            <g id="prefix__Group_2233" data-name="Group 2233" transform="translate(-6019.692 -10860.4)">
                <path id="prefix__Path_4231" d="M304.008 332.662c-1.824 8.507-6.508 16.082-11.112 23.464" class="prefix__cls-4" data-name="Path 4231" transform="translate(-285.885 -241.518)"/>
                <path id="prefix__Path_4232" d="M277.3 403.592a20.706 20.706 0 0 1-2.91 3.89" class="prefix__cls-4" data-name="Path 4232" transform="translate(-273.888 -283.666)"/>
                <path id="prefix__Path_4233" d="M416.505 125.147a96.747 96.747 0 0 1 14.76-9.285" data-name="Path 4233" transform="translate(-360.335 -115.694)" style="stroke-width:7px;stroke-miterlimit:10;stroke:#ebf2ff;fill:none"/>
                <g id="prefix__Group_2075" data-name="Group 2075">
                    <path id="prefix__Path_4235" d="M433.074 132.2v107.679H270.69a21.54 21.54 0 0 1 3.344-4.645 95.934 95.934 0 0 0 18.3-30.921c4.3-12.153 5.079-25.157 8.644-37.544 1.825-6.347 4.717-12.034 7.887-17.849 7.635-14.016 18.716-27.284 34.191-35.166 31.444-16.024 69.259-7.721 90.018 18.446z" data-name="Path 4235" transform="translate(-270.69 -105.59)" style="fill:#ebf2ff"/>
                    <g id="prefix__Group_2052" data-name="Group 2052" transform="translate(105.836 49.986)">
                        <path id="prefix__Path_4236" d="M537.38 231.821v-1.381h.691a.278.278 0 0 0 .278-.278v-1.112a.278.278 0 0 0-.278-.278H533.1a.278.278 0 0 0-.278.278v1.112a.278.278 0 0 0 .278.278h.691v1.381a2.842 2.842 0 0 0-2.29 2.788v7.585a.889.889 0 0 0 .889.889h6.39a.889.889 0 0 0 .889-.889v-7.585a2.842 2.842 0 0 0-2.289-2.788z" class="prefix__cls-7" data-name="Path 4236" transform="translate(-531.503 -228.772)"/>
                        <path id="prefix__Path_4237" d="M540.139 242.241v7a.841.841 0 0 1-.786.89h-4.58a.841.841 0 0 1-.786-.89v-7z" class="prefix__cls-8" data-name="Path 4237" transform="translate(-532.98 -236.775)"/>
                    </g>
                    <g id="prefix__Group_2053" data-name="Group 2053" transform="translate(115.54 49.986)">
                        <path id="prefix__Path_4238" d="M561.3 231.821v-1.381h.692a.278.278 0 0 0 .278-.278v-1.112a.278.278 0 0 0-.278-.278h-4.971a.278.278 0 0 0-.278.278v1.112a.278.278 0 0 0 .278.278h.692v1.381a2.842 2.842 0 0 0-2.291 2.788v7.585a.889.889 0 0 0 .889.889h6.39a.889.889 0 0 0 .889-.889v-7.585a2.843 2.843 0 0 0-2.29-2.788z" class="prefix__cls-7" data-name="Path 4238" transform="translate(-555.419 -228.772)"/>
                        <path id="prefix__Path_4239" d="M564.055 242.241v7a.841.841 0 0 1-.786.89h-4.58a.841.841 0 0 1-.786-.89v-7z" class="prefix__cls-8" data-name="Path 4239" transform="translate(-556.896 -236.775)"/>
                    </g>
                    <g id="prefix__Group_2054" data-name="Group 2054" transform="translate(125.341 44.691)">
                        <path id="prefix__Path_4240" d="M587.622 219.9v-1.892h.948a.381.381 0 0 0 .381-.381V216.1a.381.381 0 0 0-.381-.381h-6.81a.381.381 0 0 0-.381.381v1.523a.381.381 0 0 0 .381.381h.948v1.896a3.894 3.894 0 0 0-3.138 3.819v10.392a1.218 1.218 0 0 0 1.218 1.218h8.755a1.218 1.218 0 0 0 1.218-1.218v-10.392a3.894 3.894 0 0 0-3.139-3.819z" class="prefix__cls-8" data-name="Path 4240" transform="translate(-579.57 -215.723)"/>
                        <path id="prefix__Path_4241" d="M591.4 234.176v9.59a1.152 1.152 0 0 1-1.076 1.219h-6.275a1.152 1.152 0 0 1-1.076-1.219v-9.59z" class="prefix__cls-9" data-name="Path 4241" transform="translate(-581.593 -226.688)"/>
                    </g>
                    <g id="prefix__Group_2056" data-name="Group 2056" transform="translate(35.996 15.324)">
                        <g id="prefix__Group_2055" data-name="Group 2055" transform="translate(16.865)">
                            <path id="prefix__Rectangle_2606" d="M0 0H17.714V7.869H0z" class="prefix__cls-8" data-name="Rectangle 2606" transform="translate(0 11.099)"/>
                            <path id="prefix__Rectangle_2607" d="M0 0H19.912V4.638H0z" class="prefix__cls-7" data-name="Rectangle 2607" transform="translate(60.423 14.329)"/>
                            <path id="prefix__Rectangle_2608" d="M0 0H20.694V4.638H0z" class="prefix__cls-7" data-name="Rectangle 2608" transform="translate(46.568 42.947)"/>
                            <path id="prefix__Rectangle_2609" d="M0 0H19.912V16.451H0z" class="prefix__cls-7" data-name="Rectangle 2609" transform="translate(11.029 31.493)"/>
                            <path id="prefix__Rectangle_2610" d="M0 0H14.074V4.217H0z" class="prefix__cls-8" data-name="Rectangle 2610" transform="translate(13.949 34.912)"/>
                            <path id="prefix__Rectangle_2611" d="M0 0H14.074V4.217H0z" class="prefix__cls-8" data-name="Rectangle 2611" transform="translate(13.949 40.465)"/>
                            <path id="prefix__Rectangle_2612" d="M0 0H10.782V7.869H0z" class="prefix__cls-8" data-name="Rectangle 2612" transform="translate(47.958 11.099)"/>
                            <path id="prefix__Rectangle_2613" d="M0 0H10.782V3.453H0z" class="prefix__cls-8" data-name="Rectangle 2613" transform="translate(33.392 44.492)"/>
                            <path id="prefix__Rectangle_2614" d="M0 0H10.782V3.453H0z" class="prefix__cls-8" data-name="Rectangle 2614" transform="translate(33.392 40.101)"/>
                            <path id="prefix__Rectangle_2615" d="M0 0H10.782V3.453H0z" class="prefix__cls-8" data-name="Rectangle 2615" transform="translate(33.392 35.71)"/>
                            <path id="prefix__Rectangle_2616" d="M0 0H4.349V18.967H0z" class="prefix__cls-7" data-name="Rectangle 2616" transform="translate(19.048)"/>
                            <path id="prefix__Rectangle_2617" d="M0 0H1.607V9.272H0z" class="prefix__cls-9" data-name="Rectangle 2617" transform="translate(20.419 4.847)"/>
                            <path id="prefix__Rectangle_2618" d="M0 0H4.349V14.435H0z" class="prefix__cls-7" data-name="Rectangle 2618" transform="translate(24.615 4.532)"/>
                            <path id="prefix__Rectangle_2619" d="M0 0H4.349V10.452H0z" class="prefix__cls-7" data-name="Rectangle 2619" transform="translate(30.621 8.515)"/>
                        </g>
                        <path id="prefix__Path_4242" d="M466.155 190.094H359.944a.549.549 0 0 0-.549.549.549.549 0 0 0 .549.549h106.211a.549.549 0 0 0 .549-.549.548.548 0 0 0-.549-.549z" class="prefix__cls-8" data-name="Path 4242" transform="translate(-359.395 -171.127)"/>
                        <path id="prefix__Path_4243" d="M466.155 261.267H359.944a.549.549 0 0 0-.549.549.549.549 0 0 0 .549.549h106.211a.548.548 0 0 0 .549-.549.548.548 0 0 0-.549-.549z" class="prefix__cls-8" data-name="Path 4243" transform="translate(-359.395 -213.419)"/>
                    </g>
                    <g id="prefix__Group_2060" data-name="Group 2060" transform="translate(125.963 5.023)">
                        <circle id="prefix__Ellipse_1376" cx="10.568" cy="10.568" r="10.568" class="prefix__cls-8" data-name="Ellipse 1376"/>
                        <circle id="prefix__Ellipse_1377" cx="9.383" cy="9.383" r="9.383" class="prefix__cls-7" data-name="Ellipse 1377" transform="translate(1.185 1.185)"/>
                        <path id="prefix__Rectangle_2620" d="M0 0H2.77V6.785H0z" class="prefix__cls-8" data-name="Rectangle 2620" transform="translate(9.149 7.322)"/>
                        <path id="prefix__Rectangle_2621" d="M0 0H2.577V6.311H0z" class="prefix__cls-8" data-name="Rectangle 2621" transform="rotate(90 2.149 11.575)"/>
                        <g id="prefix__Group_2057" data-name="Group 2057" transform="translate(10.568 6.62)">
                            <path id="prefix__Line_163" d="M0 4.528L0 0" class="prefix__cls-10" data-name="Line 163"/>
                            <path id="prefix__Line_164" d="M0 3.087L6.853 0" class="prefix__cls-10" data-name="Line 164" transform="translate(0 1.441)"/>
                        </g>
                        <g id="prefix__Group_2058" data-name="Group 2058" transform="translate(2.145 10.714)">
                            <path id="prefix__Line_165" d="M0 0L1.021 0" class="prefix__cls-10" data-name="Line 165" transform="translate(15.757)"/>
                            <path id="prefix__Line_166" d="M0 0L1.021 0" class="prefix__cls-10" data-name="Line 166"/>
                        </g>
                        <g id="prefix__Group_2059" data-name="Group 2059" transform="translate(10.534 1.548)">
                            <path id="prefix__Line_167" d="M0 1.098L0 0" class="prefix__cls-10" data-name="Line 167"/>
                            <path id="prefix__Line_168" d="M0 1.098L0 0" class="prefix__cls-10" data-name="Line 168" transform="translate(0 16.942)"/>
                        </g>
                    </g>
                    <g id="prefix__Group_2061" data-name="Group 2061" transform="translate(92.3 57.837)">
                        <path id="prefix__Rectangle_2622" d="M0 0H39.494V7.869H0z" class="prefix__cls-8" data-name="Rectangle 2622" transform="translate(26.626 37.66)"/>
                        <rect id="prefix__Rectangle_2623" width="49.01" height="32.47" class="prefix__cls-11" data-name="Rectangle 2623" rx="2.085"/>
                        <path id="prefix__Path_4244" d="M548.085 254.727v26.05a.889.889 0 0 1-.889.889H503.96a.518.518 0 0 1-.085 0 .894.894 0 0 1-.8-.885v-26.05a.891.891 0 0 1 .889-.889H547.2a.889.889 0 0 1 .885.885z" data-name="Path 4244" transform="translate(-501.073 -251.517)" style="opacity:.356;fill:#6d687a"/>
                        <path id="prefix__Path_4245" d="M549.262 254.727v26.05a.889.889 0 0 1-.889.889h-43.236a.518.518 0 0 1-.085 0c43.321 0 42.8-26.871 43.287-27.824h.034a.889.889 0 0 1 .889.885z" data-name="Path 4245" transform="translate(-502.25 -251.517)" style="mix-blend-mode:multiply;isolation:isolate;opacity:.069;fill:#6d687a"/>
                        <rect id="prefix__Rectangle_2624" width="6.006" height="31.025" class="prefix__cls-14" data-name="Rectangle 2624" rx="1.104" transform="translate(21.502 14.635)"/>
                        <path id="prefix__Rectangle_2625" d="M0 0H20.592V2.886H0z" class="prefix__cls-14" data-name="Rectangle 2625" transform="translate(14.209 42.499)"/>
                    </g>
                    <g id="prefix__Group_2072" data-name="Group 2072" transform="translate(29.773 16.91)">
                        <g id="prefix__Group_2070" data-name="Group 2070">
                            <g id="prefix__Group_2069" data-name="Group 2069" transform="translate(.775)">
                                <g id="prefix__Group_2068" data-name="Group 2068">
                                    <path id="prefix__Path_4246" d="M383.273 200.747a6.082 6.082 0 0 1-1.041 3.287 4.571 4.571 0 0 1-1.074 1.107l-.066-.9a6.949 6.949 0 0 1-.893.044 8.95 8.95 0 0 0-2.953.6c-2.2.619-4.558.52-6.728 1.3a15.111 15.111 0 0 0-5.457 3.967 18.211 18.211 0 0 1-2.975 2.7 8.23 8.23 0 0 1-1.8.871l.016.219a2.8 2.8 0 0 1-.975.071 4.985 4.985 0 0 1-3.063-1.759 11.513 11.513 0 0 1-2.651-5.972 22.826 22.826 0 0 1 .1-6.607c.5-3.648.877-7.4 2.865-10.508.528-.824 1.09-1.612 1.57-2.466a6.163 6.163 0 0 1 1.649-2.134c.259-.184.545-.327.806-.507a7.068 7.068 0 0 0 .979-.868.106.106 0 0 0 .043-.084.1.1 0 0 0-.044-.059c-1.459-1.2-3.235-1.9-4.783-2.962-3.184-2.183-6.381-5.673-7.151-9.585-1.887-9.594 3.526-19.738 13.007-22.61a12.5 12.5 0 0 1 4.169-.449h.022a18.866 18.866 0 0 1 2.12.225c1.518.241 1.408 1.123 2.219 2.219 1.605 2.175 3.1 4.443 4.652 6.656.811 1.156 1.687 2.131 2.476 3.178.088.1.186.2.285.3a9.622 9.622 0 0 1 1.364 1.206 4.2 4.2 0 0 1 .318 1.287c.1.444.23.887.373 1.326a5.418 5.418 0 0 0-.011.794 14.442 14.442 0 0 1 .345 1.923 5.133 5.133 0 0 0 .575 1.271 5.181 5.181 0 0 1 1.118 2.964c-.038 1.567-.98 2.953-1.156 4.5a4.789 4.789 0 0 0 .948 3.391.32.32 0 0 1-.334.5 5.737 5.737 0 0 1-3.008-1.857l-.082-1.183c-.115.208-.235.405-.356.6a16.161 16.161 0 0 1-2.8 3.359 17.716 17.716 0 0 1-3.585 2.7 1.339 1.339 0 0 0 .727 1.029 7.1 7.1 0 0 0 1.226.467 7.9 7.9 0 0 1 3.783 3.157 23.554 23.554 0 0 1 2.173 4.506c.546 1.375 1.219 2.612 1.88 3.934a10.979 10.979 0 0 1 1.178 4.852z" class="prefix__cls-15" data-name="Path 4246" transform="translate(-347.934 -147.355)"/>
                                    <g id="prefix__Group_2064" data-name="Group 2064" transform="translate(8.061 9.237)">
                                        <g id="prefix__Group_2062" data-name="Group 2062" transform="translate(6.326 13.088)">
                                            <path id="prefix__Path_4247" d="M387.922 229.084c-3.409-.7-5.081-7.564-5.419-10.444-.166-1.4-.35-2.8-.516-4.208-.234-1.972-.436-3.95-.553-5.934-.135-2.334.793-6.83 4.122-6.149 3.292.676 4.717 5.326 4.883 8.194.1 1.763.27 3.513.473 5.264.191 1.622.4 3.249.59 4.877.283 2.354-.349 9.064-3.58 8.4z" class="prefix__cls-16" data-name="Path 4247" transform="translate(-381.422 -202.281)"/>
                                        </g>
                                        <g id="prefix__Group_2063" data-name="Group 2063">
                                            <path id="prefix__Path_4248" d="M390.889 215.75c-.516.319-1.044.627-1.566.928a4.336 4.336 0 0 1-1.6.651 3.981 3.981 0 0 1-2.285-.67 23.689 23.689 0 0 1-3.47-2.285c-.233-1.972-.436-3.95-.553-5.933-.135-2.334.793-6.831 4.122-6.149 3.293.676 4.717 5.325 4.883 8.194.094 1.763.266 3.514.469 5.264z" data-name="Path 4248" transform="translate(-375.082 -189.158)" style="fill:#fcd6b1;mix-blend-mode:multiply;isolation:isolate"/>
                                            <path id="prefix__Path_4249" d="M365.833 180.388a16.7 16.7 0 0 0 3 10.033 20.533 20.533 0 0 0 6.629 5.476 3.988 3.988 0 0 0 2.288.668 4.254 4.254 0 0 0 1.6-.652 17.953 17.953 0 0 0 5.559-4.27 13.853 13.853 0 0 0 2.369-6.17c.646-3.806 1.2-8.622-1.4-11.787-2.04-2.486-5.566-3.659-8.7-3.659-5.371 0-11.345 3.34-11.345 10.361z" class="prefix__cls-16" data-name="Path 4249" transform="translate(-365.833 -170.027)"/>
                                        </g>
                                    </g>
                                    <path id="prefix__Path_4250" d="M381.777 193.811a3.356 3.356 0 0 1 3.5.178" class="prefix__cls-18" data-name="Path 4250" transform="translate(-367.247 -174.679)"/>
                                    <path id="prefix__Path_4251" d="M366.449 200.026c.26 1.737-.648 3.312-2.029 3.519s-2.711-1.033-2.972-2.77.648-3.312 2.029-3.519 2.711 1.033 2.972 2.77z" class="prefix__cls-16" data-name="Path 4251" transform="translate(-355.14 -176.956)"/>
                                    <path id="prefix__Path_4252" d="M379.053 166.949a17.246 17.246 0 0 1-1.865 1.8 14.491 14.491 0 0 1-4.927 2.8 11.085 11.085 0 0 1-6.207.251c-1.344-.468-.98-1.794-1.249-3.035q-.18-.831-.3-1.676a14.781 14.781 0 0 1-.111-3.389 7.58 7.58 0 0 1 .319-1.616c1.269-3.893 4.943-8.821 9.607-8.358 1.652.164 3.394 1.343 4.889 2.018a5.223 5.223 0 0 1 2.622 1.947 4.042 4.042 0 0 1 .387 2.106 11.612 11.612 0 0 1-3.165 7.152z" class="prefix__cls-19" data-name="Path 4252" transform="translate(-356.889 -151.086)"/>
                                    <path id="prefix__Path_4253" d="M376.674 166.783a17.207 17.207 0 0 1-1.865 1.8 14.484 14.484 0 0 1-4.927 2.8 11.081 11.081 0 0 1-6.207.251c-1.344-.468-.98-1.794-1.249-3.035-.12-.554-.219-1.113-.295-1.676a14.758 14.758 0 0 1-.111-3.389 7.584 7.584 0 0 1 .319-1.616c1.269-3.893 4.943-8.821 9.607-8.358 1.652.164 3.394 1.343 4.889 2.018a5.225 5.225 0 0 1 2.622 1.947 4.046 4.046 0 0 1 .387 2.106 11.614 11.614 0 0 1-3.17 7.152z" class="prefix__cls-15" data-name="Path 4253" transform="translate(-355.475 -150.988)"/>
                                    <path id="prefix__Path_4254" d="M394.531 159.993c2.115 1.48 4.457 2.767 5.813 4.943a7.437 7.437 0 0 1 1.092 4.495c-.123 1.523-.718 3-.674 4.525a5.7 5.7 0 0 0 4.344 5.178.322.322 0 0 0 .336-.5 4.794 4.794 0 0 1-.949-3.391c.174-1.547 1.115-2.932 1.155-4.5a5.147 5.147 0 0 0-1.118-2.962 6.817 6.817 0 0 1-.836-4.454c.225-1.05.583-2.074.714-3.14a9.913 9.913 0 0 0-1.915-6.7 14.3 14.3 0 0 0-6.726-5.239c-1.394-.519-3.659-1.251-5.16-.885-1.322.321-1.49 3.212-1.487 4.466a7.817 7.817 0 0 0 1.315 4.429 14.491 14.491 0 0 0 3.523 3.325q.283.208.573.41z" class="prefix__cls-19" data-name="Path 4254" transform="translate(-371.609 -147.263)"/>
                                    <path id="prefix__Path_4255" d="M403.1 178.65a.32.32 0 0 1-.334.5 5.738 5.738 0 0 1-3.008-1.857 5.63 5.63 0 0 1-.439-.586 5.21 5.21 0 0 1-.9-2.734c-.044-1.528.553-3 .674-4.525a7.439 7.439 0 0 0-1.09-4.493c-1.359-2.181-3.7-3.468-5.813-4.947l-.575-.411a22 22 0 0 1-6.739-8.18c-.356-.745-1.03-1.7-.86-2.58.225-1.129 1.381-1.161 2.312-1.3.372-.055.751-.1 1.123-.126h.022a14.173 14.173 0 0 1 12.677 6.1 9.9 9.9 0 0 1 1.912 6.695c-.126 1.068-.487 2.087-.712 3.139-.027.148-.055.3-.071.46v.006a5.414 5.414 0 0 0-.011.794 7.462 7.462 0 0 0 .345 1.923 5.134 5.134 0 0 0 .575 1.271 5.181 5.181 0 0 1 1.118 2.964c-.038 1.567-.98 2.953-1.156 4.5a4.789 4.789 0 0 0 .95 3.387z" class="prefix__cls-15" data-name="Path 4255" transform="translate(-368.563 -147.331)"/>
                                    <path id="prefix__Path_4256" d="M399.682 198.3a20.588 20.588 0 0 0 .058 2.69 5.107 5.107 0 0 0 .161 1.334c.112.276.521.387.795.47a2.711 2.711 0 0 1 .423.141.567.567 0 0 1 .3.312.53.53 0 0 1-.09.46 1.285 1.285 0 0 1-.363.319 4.876 4.876 0 0 1-.921.471" class="prefix__cls-20" data-name="Path 4256" transform="translate(-377.874 -177.587)"/>
                                    <g id="prefix__Group_2065" data-name="Group 2065" transform="translate(16.652 27.78)">
                                        <path id="prefix__Path_4257" d="M394.323 216.753a3.216 3.216 0 0 1-.719 1.719c-.043.055-.089.106-.136.157a3.468 3.468 0 0 1-4.181.825 4.145 4.145 0 0 1-.791-.545 1.161 1.161 0 0 1-.136-.115 3.861 3.861 0 0 1-1.353-2.442 11.524 11.524 0 0 0 2.306.472 9.433 9.433 0 0 0 2.421.055 5.065 5.065 0 0 0 2.548-1.157 3.932 3.932 0 0 1 .041 1.031z" data-name="Path 4257" transform="translate(-387.006 -215.723)" style="fill:#332b27"/>
                                        <path id="prefix__Path_4258" d="M395.648 221.742a3.467 3.467 0 0 1-4.181.825 4.146 4.146 0 0 1-.791-.545 3.637 3.637 0 0 1 2.646-1.059 3.7 3.7 0 0 1 2.326.779z" data-name="Path 4258" transform="translate(-389.186 -218.837)" style="fill:#f85c55"/>
                                    </g>
                                    <path id="prefix__Path_4259" d="M410.415 205.307c0 .564-1.147 1.021-2.562 1.021s-2.562-.457-2.562-1.021 1.147-1.021 2.562-1.021 2.562.457 2.562 1.021z" class="prefix__cls-23" data-name="Path 4259" transform="translate(-381.219 -181.147)"/>
                                    <g id="prefix__Group_2067" data-name="Group 2067" transform="translate(0 37.819)">
                                        <path id="prefix__Path_4260" d="M428.968 282.528a11.87 11.87 0 0 1-.7-2.02 4.068 4.068 0 0 1-.073-1.989c.417-1.57 3.024-2.433 4.411-2.823a12.03 12.03 0 0 0 2.114-.441 54.839 54.839 0 0 0 2.745 7.545q.83 1.83 1.813 3.585c.643 1.143 1.437 2.07 2.174 3.143a15.412 15.412 0 0 1 2.479 7 17.963 17.963 0 0 1 .065 3.606c-.1 1.114-.383 1.763-1.35.807-.381-.377-.854-.627-1.236-1-1.252-1.231-2.231-2.726-3.514-3.945a25.985 25.985 0 0 1-2.867-2.843 16.28 16.28 0 0 1-1.173-1.854l-3.388-5.931a31.98 31.98 0 0 1-1.5-2.84z" class="prefix__cls-24" data-name="Path 4260" transform="translate(-394.769 -261.136)"/>
                                        <path id="prefix__Path_4261" d="M388.051 291.763c-.043.03-.092.061-.135.086a3.248 3.248 0 0 1-1.394.326 131.181 131.181 0 0 1-15.927.338c-2.862-.116-5.718-.319-8.575-.553a12.69 12.69 0 0 1-4.324-.7c-1.2-.6-.258-2.229.006-3.366a55.1 55.1 0 0 0 1.517-8.82c.43-6.222-1.726-11.4-4.638-16.763a45.754 45.754 0 0 1-3.439-7.174c-.829-2.469-.536-3.573-.106-6.135.387-2.26 3.01-3.069 4.865-3.678a55.981 55.981 0 0 0 6.086-2.842 13.466 13.466 0 0 0 2.019-1.921s.8 1.056 1.109 1.371a6 6 0 0 0 3.178 1.744c.562 1.368 2.219 6.627 2.219 6.627a65.927 65.927 0 0 1 .465-7.2c1.553-.778 1.678-1.192 1.755-2.64a29.279 29.279 0 0 0 2.574 1.9l3.477 2.869a8.91 8.91 0 0 1 3.2 4.232l.958 2.1c.283.62.565 1.241.854 1.861 0 .012.006.018.006.025.086.178.166.356.246.534.111.24.221.479.332.725.061.142.123.277.184.418 1.327 3.022 2.205 6.02 1.118 9.324-.4 1.21-1.014 2.34-1.456 3.532a16.581 16.581 0 0 0-.559 8.809 22.5 22.5 0 0 0 .89 2.936q1.216 3.345 2.426 6.689c.412 1.126 2.353 4.412 1.069 5.346z" data-name="Path 4261" transform="translate(-348.729 -240.461)" style="fill:#4768ae"/>
                                        <g id="prefix__Group_2066" data-name="Group 2066" transform="translate(0 .474)">
                                            <path id="prefix__Path_4262" d="M361.371 293.728l3.381.31a41.689 41.689 0 0 0 6.11.26.527.527 0 0 0 .313-.086.536.536 0 0 0 .127-.434q-.1-12.347-.383-24.69c-.025-1.112.141-2.18-.5-3.121-.7-1.031-1.464-2.017-2.141-3.068a51.124 51.124 0 0 1-6.155-13.588q-.515-1.8-.9-3.633c-.085-.41-1-3.832-.724-4.049-2.2 1.733-5.229 2.418-7.8 3.569-2.553 1.143-5.435 2.347-6.383 4.979-.764 2.121-.151 4.471.569 6.607 2.235 6.641 4.4 13.346 7.656 19.569a6.584 6.584 0 0 1 .662 1.571 5.869 5.869 0 0 1 .089 1.474 100.342 100.342 0 0 1-1.32 11.279 3.8 3.8 0 0 0 .045 1.859c.461 1.245 1.77.866 2.8.886 1.526.027 3.041.167 4.554.306z" class="prefix__cls-7" data-name="Path 4262" transform="translate(-345.969 -241.628)"/>
                                        </g>
                                        <path id="prefix__Path_4263" d="M408.337 243.823c1.653.515 3.309 1.028 4.985 1.5a8.046 8.046 0 0 1 1.761.652c1.441.809 2.232 2.395 2.939 3.888l2.065 4.361a12.46 12.46 0 0 1 1.2 3.621c-1.359.59-2.753 1.039-4.073 1.742-1.347.717-2.527 1.837-3.868 2.508.836-.646-5.139-11.671-5.662-12.7-1.029-2.024-2.5-2-3.108-4.321-.4-1.521.648-.554.356-2.361.019.116 0 0 .1.042a8.073 8.073 0 0 0 .775.281q1.267.391 2.53.787z" data-name="Path 4263" transform="translate(-380.741 -241.801)" style="fill:#4163ce"/>
                                        <path id="prefix__Path_4264" d="M407.451 242.537a79.511 79.511 0 0 1 .943 16.41 44.868 44.868 0 0 1-.806 8.171c-.574 2.41-.1 5.205-.05 7.7q.208 9.906-.179 19.812a103.866 103.866 0 0 0 12.9.294 3.553 3.553 0 0 0 2.252-.62c1.076-.941.675-2.672.187-4.016l-3.968-10.908c-.477-1.312-1.568-2.744-1.567-4.139 0-2.474.917-4.551 1.738-6.886a12.232 12.232 0 0 0 .933-5.13 26.182 26.182 0 0 0-3.746-11.68 17.186 17.186 0 0 0-4.219-5.069l-4.426-3.982" class="prefix__cls-7" data-name="Path 4264" transform="translate(-382.416 -241.668)"/>
                                        <path id="prefix__Path_4265" d="M394.519 282.133c-.4 1.21-.922 3.435-1.365 4.627a12.823 12.823 0 0 0-.65 7.713 58.338 58.338 0 0 1-13.446 1.867 11.481 11.481 0 0 1-5.178-.547c-2.051-.9-3.4-2.893-4.428-4.883a34.279 34.279 0 0 1-3.778-14.152c-.037-.8.031-1.622-.024-2.414a4.838 4.838 0 0 1-.031-2.2 1.23 1.23 0 0 1 1.425-.823 1.75 1.75 0 0 1 .688.553c2.74 3.256 3.857 8.053 7.617 10.405 3.925 2.451 9.029 2.046 13.4.54a6.592 6.592 0 0 0 2.813-1.585c1.154-1.247 1.3-3.114 1.259-4.816a25.67 25.67 0 0 0-1.081-7.23l.037.055a7.916 7.916 0 0 1 .854 1.861c0 .012.006.018.006.025a6.328 6.328 0 0 0 .381 1c.068.086.129.172.2.258.061.141.123.276.184.418 1.326 3.026 2.204 6.024 1.117 9.328z" data-name="Path 4265" transform="translate(-357.568 -257.533)" style="fill:#e9f5ff"/>
                                        <path id="prefix__Path_4266" d="M420.317 323.156a.4.4 0 0 1-.049.055c-.246.264-.682.24-1.008.344-.43.135-.872.258-1.32.356a10.118 10.118 0 0 1-2.647.264 19.377 19.377 0 0 1-6.339-1.806c-.909-.362-1.824-.706-2.752-1.038q-2.985-1.069-6.044-1.9c-1.013-.276-2.039-.528-3.065-.768a32.411 32.411 0 0 1-5.321-1.337c-1.376-.633-1.669-1.574-2.289-2.956a2.494 2.494 0 0 1-.227-1.542c.123-.516-.648-.934-.12-.971.3-.025 0-.1.28 0 5.688 2.2 13.084 2.162 19.428 2.648 1.069.08 2.156.184 3.274.319.135.012.276.031.411.049 1.486.2 3.041-.54 4.453-.043a5.5 5.5 0 0 1 3.157 3.557 7.7 7.7 0 0 1 .289 2.457c0 .43-.012.86.012 1.29a1.585 1.585 0 0 1-.123 1.022z" class="prefix__cls-24" data-name="Path 4266" transform="translate(-371.507 -282.852)"/>
                                        <path id="prefix__Path_4267" d="M407.82 242.094a31.115 31.115 0 0 1 9.086 2.617 5.83 5.83 0 0 1 3.1 2.792 29.406 29.406 0 0 1 3.05 6.575c.491 1.53.856 3.1 1.339 4.632a46.874 46.874 0 0 0 5.646 11.318 17.537 17.537 0 0 1 2.427 4.589 12.5 12.5 0 0 1 .116 5.859 3.174 3.174 0 0 1-1.6 2.326 5.594 5.594 0 0 1-2.715.121c-3.18-.227-6.337-.253-9.515-.727l-2.781-.415a1.972 1.972 0 0 1-.765-.223c-.662-.411-.609-1.371-.5-2.143a31.6 31.6 0 0 0 .229-6.181.623.623 0 0 1 .076-.428.633.633 0 0 1 .442-.177 13.755 13.755 0 0 0 3-.73c.614-.225 2.358-.644 1.994-1.466a10.706 10.706 0 0 1-1.142-3.049 15.021 15.021 0 0 0 .473-5.344 16.846 16.846 0 0 0-1.474-4.77 25.353 25.353 0 0 0-5.467-8.781 11.059 11.059 0 0 1-1.25-1.345c-.314-.438-.544-.934-.88-1.355a15.226 15.226 0 0 0-1.392-1.323 6.948 6.948 0 0 1-1.654-2.165" class="prefix__cls-7" data-name="Path 4267" transform="translate(-382.628 -241.431)"/>
                                        <path id="prefix__Path_4268" d="M350.2 276.3c2.483 5.244 4.4 10.74 7.034 15.918a40.618 40.618 0 0 0 4.594 7.307 10.821 10.821 0 0 0 2.419 2.664c1.282.738 3.2.37 4.536.026a39.257 39.257 0 0 0 9.023-3.808c1.044-.572 2.193-.937 3.209-1.527 1.166-.678 2.33-1.359 3.5-2.025q1.849-1.05 3.716-2.07c.951-.519 2.17-1.584 3.26-1.686a.856.856 0 0 0 .465-.118c.474-.376-.132-1.122-.454-1.346l-.726-.5a5.206 5.206 0 0 0-1.129-.652c-1.362-.505-2.423.184-3.709.566-2.884.856-5.972 1.235-8.929 1.816a55.951 55.951 0 0 1-9.4 1.034 1.494 1.494 0 0 1-.926-.182 1.534 1.534 0 0 1-.472-.891c-.563-2.079-7.184-16.753-9.526-19.173a33.39 33.39 0 0 0-5.953 4.713" class="prefix__cls-16" data-name="Path 4268" transform="translate(-348.481 -258.993)"/>
                                        <path id="prefix__Path_4269" d="M359.246 269.47c-1.227-2.724-2.509-5.421-3.866-8.118a31.508 31.508 0 0 0-2.93-5.025 3.779 3.779 0 0 0-2.371-1.74c-.907-.086-1.56.675-2.141 1.287a7.217 7.217 0 0 0-1.659 5.7c.281 2.524 1.484 4.836 2.546 7.144 3.262 7.093 5.432 14.848 10.314 20.94a9.338 9.338 0 0 0 2.82 2.553c1.131.594 2.788 1.136 3.918.54.544-.287 1.534-.121 2.07-.423.961-.54 4.776-2.64 5.434-2.856.689-.227-1.686-7.929-2.061-8.206-.569-.043-4.671.336-6.649.489-1.582-.885-1.7-3.54-2.385-5.217-.986-2.386-1.991-4.738-3.04-7.068z" class="prefix__cls-7" data-name="Path 4269" transform="translate(-346.122 -248.851)"/>
                                    </g>
                                    <path id="prefix__Path_4270" d="M365.963 202.657a1.327 1.327 0 0 0-.469 1.632 1.549 1.549 0 0 0 .6.643" class="prefix__cls-20" data-name="Path 4270" transform="translate(-357.503 -180.179)"/>
                                    <path id="prefix__Path_4271" d="M403.169 200.894a4.231 4.231 0 0 1 .368-1.794 1.619 1.619 0 0 1 .861-.934 1.272 1.272 0 0 1 1.271.368 2.635 2.635 0 0 1 .614 1.236 5.876 5.876 0 0 1 .17 1.18" class="prefix__cls-18" data-name="Path 4271" transform="translate(-379.958 -177.478)"/>
                                    <path id="prefix__Path_4272" d="M381.911 201.832a4.244 4.244 0 0 1 .368-1.794 1.619 1.619 0 0 1 .862-.934 1.272 1.272 0 0 1 1.271.368 2.639 2.639 0 0 1 .614 1.236 5.875 5.875 0 0 1 .17 1.18" class="prefix__cls-18" data-name="Path 4272" transform="translate(-367.326 -178.036)"/>
                                    <path id="prefix__Path_4273" d="M381 207.31c0 .564-1.147 1.021-2.562 1.021s-2.562-.457-2.562-1.021 1.147-1.021 2.562-1.021 2.562.457 2.562 1.021z" class="prefix__cls-23" data-name="Path 4273" transform="translate(-363.738 -182.337)"/>
                                    <path id="prefix__Path_4274" d="M403.5 193.566a3.355 3.355 0 0 1 3.489.335" class="prefix__cls-18" data-name="Path 4274" transform="translate(-380.153 -174.575)"/>
                                    <path id="prefix__Path_4275" d="M374.707 301.586a.546.546 0 0 0-.265-.117.374.374 0 0 0-.345.392.993.993 0 0 0 .219.533 7.775 7.775 0 0 0 1.383 1.535 8.34 8.34 0 0 1-2.779-.344 1.347 1.347 0 0 0-.558-.091.416.416 0 0 0-.38.36.545.545 0 0 0 .184.36 2.68 2.68 0 0 0 .892.623 1.338 1.338 0 0 0-.558-.086.455.455 0 0 0-.4.344c-.036.241.187.435.392.566a7.852 7.852 0 0 0 2.391 1.024 1.658 1.658 0 0 0-.665-.047.565.565 0 0 0-.464.426c-.043.295.23.537.5.671a10.107 10.107 0 0 0 2.311.569 25.852 25.852 0 0 1 3.252 1.277.429.429 0 0 0 .407.009.367.367 0 0 0 .114-.2 1.249 1.249 0 0 0-.22-1.105 3.274 3.274 0 0 1-.323-.39 2.814 2.814 0 0 1-.14-1.064c-.355-2.704-3.013-3.837-4.948-5.245z" class="prefix__cls-24" data-name="Path 4275" transform="translate(-361.427 -238.894)"/>
                                    <path id="prefix__Path_4276" d="M428.541 268.447q1.343 2.323 2.482 4.756" class="prefix__cls-28" data-name="Path 4276" transform="translate(-395.034 -219.272)"/>
                                    <rect id="prefix__Rectangle_2626" width="6.464" height="2.52" class="prefix__cls-29" data-name="Rectangle 2626" rx="1.024" transform="rotate(-7.13 446.04 -213.86)"/>
                                </g>
                                <path id="prefix__Path_4277" d="M370.671 331.03c2.643 6.061 6.341 7.693 8.288 7.591 2.027-.107 7.753-3.269 8.946-3.718" class="prefix__cls-28" data-name="Path 4277" transform="translate(-360.647 -256.459)"/>
                                <path id="prefix__Path_4278" d="M365.834 196.5a4.827 4.827 0 0 0 .741 4.191 3.026 3.026 0 0 1 .941 2.419 10.332 10.332 0 0 1-.539 1.423 3.568 3.568 0 0 0 .433 3.176c.36.515.842.924 1.235 1.41a4 4 0 0 1 .774 1.729.227.227 0 0 0 .049.117c.11.11.266-.078.306-.228a7.765 7.765 0 0 0 .314-1.627 2.6 2.6 0 0 0-.385-1.585 6.375 6.375 0 0 1-.727-.984 2.961 2.961 0 0 1 .1-1.764 10.769 10.769 0 0 0-.573-5.152 7.3 7.3 0 0 1 0-3.7" class="prefix__cls-19" data-name="Path 4278" transform="translate(-357.668 -176.18)"/>
                                <path id="prefix__Path_4279" d="M366.85 195.927a4.828 4.828 0 0 0 .74 4.192 3.024 3.024 0 0 1 .941 2.419 10.366 10.366 0 0 1-.539 1.424 3.569 3.569 0 0 0 .434 3.176c.36.514.841.924 1.235 1.41a4.008 4.008 0 0 1 .774 1.729.229.229 0 0 0 .049.117c.11.11.266-.078.306-.228a7.766 7.766 0 0 0 .314-1.627 2.606 2.606 0 0 0-.385-1.585 6.365 6.365 0 0 1-.727-.984 2.961 2.961 0 0 1 .1-1.764 10.778 10.778 0 0 0-.573-5.152 7.3 7.3 0 0 1 0-3.7" class="prefix__cls-15" data-name="Path 4279" transform="translate(-358.272 -175.84)"/>
                                <path id="prefix__Path_4280" d="M434.577 283.529c.573 2.444.977 5.7.293 8.116-.4 1.415-1.05 2.173-1.2 3.635" class="prefix__cls-28" data-name="Path 4280" transform="translate(-398.079 -228.234)"/>
                                <path id="prefix__Path_4281" d="M419.573 338.1a16.15 16.15 0 0 1 3.572.624 14.891 14.891 0 0 0 3.165.317" class="prefix__cls-28" data-name="Path 4281" transform="translate(-389.705 -260.657)"/>
                            </g>
                            <path id="prefix__Path_4282" d="M384.719 243.348c.024.19.142.339.049.286a17.03 17.03 0 0 1-.237 3.134 9.748 9.748 0 0 1-4.785-3.167 19.4 19.4 0 0 1-1.333-1.931 9.442 9.442 0 0 1 2.15-1.361 2.965 2.965 0 0 0 1.026 1.342 8.838 8.838 0 0 0 1.475.866l1.654.832" class="prefix__cls-30" data-name="Path 4282" transform="translate(-364.473 -202.552)"/>
                            <path id="prefix__Path_4283" d="M402.578 237.112a4.517 4.517 0 0 1-.6 2.718 5.5 5.5 0 0 1-.763.894c-.086.077-.289.166-.258.293.023.1.255.263.325.343a5.867 5.867 0 0 1 1.01 1.64c.071.174.133.352.2.528.019.047.054.1.1.094a.109.109 0 0 0 .051-.035 4.9 4.9 0 0 0 1.008-2.059 8.717 8.717 0 0 0 .407-2.568.593.593 0 0 0-.031-.224.837.837 0 0 0-.1-.162c-.123-.172-.2-.371-.324-.545a2.834 2.834 0 0 0-1.053-.8" class="prefix__cls-30" data-name="Path 4283" transform="translate(-377.865 -200.652)"/>
                            <path id="prefix__Path_4284" d="M365.769 253.585a8.9 8.9 0 0 0 6.336 4.773l-2 2.672a.285.285 0 0 0 0 .431 61.268 61.268 0 0 0 11.362 11.645" class="prefix__cls-28" data-name="Path 4284" transform="translate(-356.96 -210.441)"/>
                            <path id="prefix__Path_4285" d="M384.439 205.866c-.868 1.3-5.334 1.045-6.315.416a2.976 2.976 0 0 1-1.169-2.062 1.333 1.333 0 0 1 .735-1.345 1.8 1.8 0 0 1 .242-.1c.633-.213 5.875-.465 6.536.2a1.747 1.747 0 0 1 .524 1.3 3.073 3.073 0 0 1-.553 1.591z" class="prefix__cls-31" data-name="Path 4285" transform="translate(-363.604 -180.112)"/>
                            <path id="prefix__Path_4286" d="M409.673 205.866c-.868 1.3-5.335 1.045-6.315.416a2.976 2.976 0 0 1-1.169-2.062 1.333 1.333 0 0 1 .735-1.345 1.8 1.8 0 0 1 .242-.1c.633-.213 5.875-.465 6.536.2a2.239 2.239 0 0 1-.029 2.891z" class="prefix__cls-31" data-name="Path 4286" transform="translate(-378.598 -180.112)"/>
                            <path id="prefix__Line_169" d="M2.267 0L0 0" class="prefix__cls-31" data-name="Line 169" transform="translate(21.403 24.289)"/>
                            <path id="prefix__Path_4287" d="M370.749 200.8c-.931-.667-4.235-3.506-4.235-3.506" class="prefix__cls-31" data-name="Path 4287" transform="translate(-357.402 -176.989)"/>
                            <path id="prefix__Path_4288" d="M348.318 162.5a20.032 20.032 0 0 0-3.908 16.04" class="prefix__cls-32" data-name="Path 4288" transform="translate(-344.06 -156.318)"/>
                            <path id="prefix__Path_4289" d="M345.934 206.357a11.373 11.373 0 0 0 1.066 2.764" class="prefix__cls-32" data-name="Path 4289" transform="translate(-345.173 -182.377)"/>
                            <path id="prefix__Path_4290" d="M370.306 236.37c0 .023.043-.006.028-.024s-.043-.013-.065-.005a7.548 7.548 0 0 0-2.774 1.581 5.548 5.548 0 0 0-1.65 2.709" class="prefix__cls-32" data-name="Path 4290" transform="translate(-357.005 -200.19)"/>
                        </g>
                        <g id="prefix__Group_2071" data-name="Group 2071" transform="translate(10.744 13.446)" style="opacity:.42;mix-blend-mode:multiply;isolation:isolate">
                            <path id="prefix__Path_4291" d="M370.535 187.948a9.7 9.7 0 0 0 6.078-.911 15.5 15.5 0 0 0 4.845-3.89" class="prefix__cls-34" data-name="Path 4291" transform="translate(-370.535 -182.033)"/>
                            <path id="prefix__Path_4292" d="M371.254 186.3a15.819 15.819 0 0 0 8.65-5.9" class="prefix__cls-34" data-name="Path 4292" transform="translate(-370.962 -180.399)"/>
                            <path id="prefix__Path_4293" d="M370.851 187.168a3.58 3.58 0 0 0 1.445-1.429q1.256-1.858 2.429-3.771" class="prefix__cls-34" data-name="Path 4293" transform="translate(-370.723 -181.331)"/>
                        </g>
                        <path id="prefix__Path_4294" d="M413.125 247.654a11.39 11.39 0 0 1-2.078 5.663c-.131.183-.273.415-.172.616a.622.622 0 0 0 .26.229 9.45 9.45 0 0 1 1.508 1.126.773.773 0 0 1 .231.3.8.8 0 0 1-.009.42 71.724 71.724 0 0 1-4.229 13.644" data-name="Path 4294" transform="translate(-382.432 -206.916)" style="stroke:#cae7fc;stroke-miterlimit:10;fill:none"/>
                    </g>
                    <path id="prefix__Path_4295" d="M467.726 361.788v29.479h-138.72v-29.479a1.38 1.38 0 0 1 1.331-1.425h136.058a1.287 1.287 0 0 1 .949.425 1.475 1.475 0 0 1 .382 1z" data-name="Path 4295" transform="translate(-305.342 -256.979)" style="fill:#4b6cb0"/>
                    <path id="prefix__Path_4296" d="M468.854 366.683v25.542H335v-25.542a1.26 1.26 0 0 1 1.285-1.234H467.57a1.307 1.307 0 0 1 .915.368 1.208 1.208 0 0 1 .369.866z" data-name="Path 4296" transform="translate(-308.901 -260.001)" style="opacity:.2;stroke:#4b40d1;mix-blend-mode:multiply;isolation:isolate;stroke-miterlimit:10;fill:none"/>
                    <path id="prefix__Path_4297" d="M496.641 386.2h-5.223v-5.22h-3.725v5.22h-5.223v3.725h5.223v5.223h3.725v-5.223h5.223z" data-name="Path 4297" transform="translate(-396.532 -269.23)" style="fill:#4b40d1;opacity:.2;mix-blend-mode:multiply;isolation:isolate"/>
                    <path id="prefix__Path_4298" d="M545.561 361.887v29.479h-85.816c15.075-1.481 78.06 1.837 85.433-30.479a1.475 1.475 0 0 1 .383 1z" data-name="Path 4298" transform="translate(-383.028 -257.29)" style="opacity:.114;fill:#4b40d1;mix-blend-mode:multiply;isolation:isolate"/>
                    <path id="prefix__Path_4299" d="M481.788 331.626h-1.482a.391.391 0 0 1-.39-.36l-.559-6.928a.391.391 0 0 1 .39-.423h2.6a.391.391 0 0 1 .39.423l-.559 6.928a.391.391 0 0 1-.39.36z" class="prefix__cls-11" data-name="Path 4299" transform="translate(-394.681 -235.321)"/>
                    <rect id="prefix__Rectangle_2627" width="8.978" height="2.854" class="prefix__cls-11" data-name="Rectangle 2627" rx="1.427" transform="translate(81.877 87.43)"/>
                    <rect id="prefix__Rectangle_2628" width="1.406" height="9.358" class="prefix__cls-14" data-name="Rectangle 2628" rx=".703" transform="translate(85.663 93.051)"/>
                    <path id="prefix__Path_4300" d="M481.5 357.449h-8.7c.153-.961 2.042-1.719 4.352-1.719s4.199.757 4.348 1.719z" class="prefix__cls-14" data-name="Path 4300" transform="translate(-390.784 -254.226)"/>
                    <g id="prefix__Group_2074" data-name="Group 2074" transform="translate(143.978 77.028)">
                        <path id="prefix__Path_4301" d="M640.864 320.794a53.891 53.891 0 0 1-.216-8.73c.147-2.6.528-5.307 2.038-7.426a2.262 2.262 0 0 1 1.674-1.131 1.724 1.724 0 0 1 1.495 1.134 4.316 4.316 0 0 1 .193 1.964c-.395 5.326-2.967 10.212-5.485 14.92" class="prefix__cls-29" data-name="Path 4301" transform="translate(-634.449 -300.222)"/>
                        <path id="prefix__Path_4302" d="M646.047 306.6c-.4 5.326-2.969 10.213-5.487 14.923l.3-.732c-.06-.574-.111-1.153-.153-1.732 1.987-3.871 3.731-7.9 4.05-12.2a4.306 4.306 0 0 0-.192-1.965 1.9 1.9 0 0 0-1.1-1.076 1.557 1.557 0 0 1 .893-.315 1.722 1.722 0 0 1 1.493 1.136 4.3 4.3 0 0 1 .196 1.961z" class="prefix__cls-40" data-name="Path 4302" transform="translate(-634.447 -300.22)"/>
                        <path id="prefix__Path_4303" d="M632.474 324.535l-.085-.787q-.319-.459-.625-.919-.645-.97-1.247-1.974c-.914-1.51-1.752-3.067-2.514-4.658-1.119-2.348-2.084-4.909-1.782-7.491a3.94 3.94 0 0 1 .144-.693 1.754 1.754 0 0 1 .783-1.1 1.72 1.72 0 0 1 1.855.276 4.357 4.357 0 0 1 1.114 1.629 24.582 24.582 0 0 1 1.9 6.993v.013a70.905 70.905 0 0 1 .457 8.711z" class="prefix__cls-29" data-name="Path 4303" transform="translate(-625.894 -302.146)"/>
                        <path id="prefix__Path_4304" d="M632.313 315.81v.013c.034 2.306-.183 4.662-.255 7.006-.021.591-.03 1.187-.026 1.778l-.085-.787c-.37-.532-.732-1.072-1.08-1.617-.013-.451-.034-.9-.056-1.348a29.378 29.378 0 0 0-2.237-10.817 4.3 4.3 0 0 0-1.115-1.629 2.015 2.015 0 0 0-.8-.4 1.754 1.754 0 0 1 .783-1.1 1.72 1.72 0 0 1 1.855.276 4.357 4.357 0 0 1 1.114 1.629 24.58 24.58 0 0 1 1.902 6.996z" data-name="Path 4304" transform="translate(-626.188 -302.146)" style="opacity:.273;fill:#97b714;mix-blend-mode:multiply;isolation:isolate"/>
                        <path id="prefix__Path_4305" d="M636.331 313.076a53.854 53.854 0 0 1-2.059-8.486c-.406-2.57-.607-5.3.42-7.689a2.264 2.264 0 0 1 1.4-1.46 1.724 1.724 0 0 1 1.7.793 4.315 4.315 0 0 1 .6 1.878c.742 5.288-.738 10.608-2.2 15.743" data-name="Path 4305" transform="translate(-630.515 -295.411)" style="fill:#b8d03a"/>
                        <path id="prefix__Path_4306" d="M637.518 313.856l.14-.778c-.136-.408-.264-.817-.387-1.225 1.106-4.16 1.931-8.41 1.34-12.638a4.3 4.3 0 0 0-.6-1.876 1.732 1.732 0 0 0-1.7-.8c-.043.009-.085.021-.127.034a2 2 0 0 1 1.238-1.135 1.721 1.721 0 0 1 1.7.791 4.264 4.264 0 0 1 .6 1.88c.744 5.291-.737 10.613-2.204 15.747z" class="prefix__cls-40" data-name="Path 4306" transform="translate(-631.844 -295.411)"/>
                        <path id="prefix__Path_4307" d="M638.258 336.285l-1.5 8.848a.665.665 0 0 1-.685.5h-8.384a.657.657 0 0 1-.681-.5l-1.5-8.848a.624.624 0 0 1 .68-.672h11.387a.63.63 0 0 1 .683.672z" data-name="Path 4307" transform="translate(-625.497 -319.299)" style="fill:#9e6826"/>
                        <path id="prefix__Path_4308" d="M641.664 336.285l-1.5 8.848a.665.665 0 0 1-.685.5h-8.249c.5-.294 1.008-.583 1.5-.894a24 24 0 0 0 7.678-8.418c.132-.234.264-.472.387-.711h.187a.63.63 0 0 1 .682.675z" data-name="Path 4308" transform="translate(-628.904 -319.299)" style="fill:#7f5119;opacity:.169;mix-blend-mode:multiply;isolation:isolate"/>
                        <g id="prefix__Group_2073" data-name="Group 2073" transform="translate(.938 1.409)">
                            <path id="prefix__Path_4309" d="M639.089 303.038v1.014" class="prefix__cls-45" data-name="Path 4309" transform="translate(-634.511 -301.352)"/>
                            <path id="prefix__Path_4310" d="M642.456 298.884l-.023 1.014" class="prefix__cls-45" data-name="Path 4310" transform="translate(-636.498 -298.884)"/>
                            <path id="prefix__Path_4311" d="M635.854 299.412l.125 1.006" class="prefix__cls-45" data-name="Path 4311" transform="translate(-632.589 -299.198)"/>
                            <path id="prefix__Path_4312" d="M642.554 306.26l-.093.95" data-name="Path 4312" transform="translate(-636.515 -303.267)" style="stroke:#3b8c34;stroke-miterlimit:10;fill:none"/>
                            <path id="prefix__Path_4313" d="M635.441 307.152a4.133 4.133 0 0 0 .23.983" class="prefix__cls-45" data-name="Path 4313" transform="translate(-632.344 -303.797)"/>
                            <path id="prefix__Path_4314" d="M640.089 312.066a7.916 7.916 0 0 1 .016 1.015" class="prefix__cls-45" data-name="Path 4314" transform="translate(-635.105 -306.717)"/>
                            <path id="prefix__Path_4315" d="M643.862 314.649a4.57 4.57 0 0 1-.218 1.018" class="prefix__cls-45" data-name="Path 4315" transform="translate(-637.218 -308.252)"/>
                            <path id="prefix__Path_4316" d="M636.931 314.965a8.65 8.65 0 0 1 .3 1.08" class="prefix__cls-45" data-name="Path 4316" transform="translate(-633.229 -308.439)"/>
                            <path id="prefix__Path_4317" d="M639.9 321.261v1.178" class="prefix__cls-45" data-name="Path 4317" transform="translate(-634.99 -312.181)"/>
                            <path id="prefix__Path_4318" d="M641.815 325.693a5.5 5.5 0 0 1-.277 1.279" class="prefix__cls-45" data-name="Path 4318" transform="translate(-635.966 -314.814)"/>
                            <path id="prefix__Path_4319" d="M637.5 323.518a6.883 6.883 0 0 0 .329 1.144" class="prefix__cls-45" data-name="Path 4319" transform="translate(-633.565 -313.522)"/>
                            <path id="prefix__Path_4320" d="M639.9 329.971a6.152 6.152 0 0 1 .107.883" class="prefix__cls-45" data-name="Path 4320" transform="translate(-634.994 -317.356)"/>
                            <path id="prefix__Path_4321" d="M631.485 311.6q.062.552.14 1.1" class="prefix__cls-45" data-name="Path 4321" transform="translate(-629.993 -306.44)"/>
                            <path id="prefix__Path_4322" d="M627.808 314.376q.154.463.34.915" class="prefix__cls-47" data-name="Path 4322" transform="translate(-627.808 -308.09)"/>
                            <path id="prefix__Path_4323" d="M631.076 318.706a4.99 4.99 0 0 0 .268 1.222" class="prefix__cls-47" data-name="Path 4323" transform="translate(-629.75 -310.662)"/>
                            <path id="prefix__Path_4324" d="M634.066 322.939c.057.455.1.788.125 1" class="prefix__cls-47" data-name="Path 4324" transform="translate(-631.527 -313.178)"/>
                            <path id="prefix__Path_4325" d="M629.593 324.1q.292.554.555 1.124" class="prefix__cls-47" data-name="Path 4325" transform="translate(-628.869 -313.865)"/>
                            <path id="prefix__Path_4326" d="M633.189 328.741q.128.5.3.993" class="prefix__cls-47" data-name="Path 4326" transform="translate(-631.005 -316.625)"/>
                            <path id="prefix__Path_4327" d="M647.868 307.415l.07 1.247" class="prefix__cls-47" data-name="Path 4327" transform="translate(-639.728 -303.953)"/>
                            <path id="prefix__Path_4328" d="M651.3 311.4a6 6 0 0 1-.3 1.333" class="prefix__cls-47" data-name="Path 4328" transform="translate(-641.586 -306.32)"/>
                            <path id="prefix__Path_4329" d="M646.613 314.975q.048.551.1 1.1" class="prefix__cls-47" data-name="Path 4329" transform="translate(-638.982 -308.445)"/>
                            <path id="prefix__Path_4330" d="M648.629 318.251a5.179 5.179 0 0 1-.232 1.248" class="prefix__cls-47" data-name="Path 4330" transform="translate(-640.042 -310.392)"/>
                            <path id="prefix__Path_4331" d="M648.806 324.958a4.978 4.978 0 0 1-.518.979" class="prefix__cls-47" data-name="Path 4331" transform="translate(-639.977 -314.377)"/>
                            <path id="prefix__Path_4332" d="M645.913 323.895q-.1.62-.144 1.247" class="prefix__cls-47" data-name="Path 4332" transform="translate(-638.48 -313.746)"/>
                            <path id="prefix__Path_4333" d="M645.585 329.89l-.329.879" class="prefix__cls-47" data-name="Path 4333" transform="translate(-638.176 -317.308)"/>
                        </g>
                    </g>
                    <path id="prefix__Path_4334" d="M485.932 338.867a.966.966 0 0 1 1.164 1.482.287.287 0 0 1-.2.125c-.135 0-.217-.155-.221-.29a.759.759 0 0 1 .983-.655 1.1 1.1 0 0 1 .679 1.095 2.062 2.062 0 0 1-.566 1.233c-.138-.222.129-.5.388-.534a1.1 1.1 0 0 1 1.146.958 1.971 1.971 0 0 1-.52 1.519.521.521 0 0 1 .743-.177.881.881 0 0 1 .347.758 1.847 1.847 0 0 1-.7 1.324 5.466 5.466 0 0 1-1.331.768" data-name="Path 4334" transform="translate(-398.589 -244.154)" style="stroke:#585166;stroke-linecap:round;stroke-linejoin:round;fill:none"/>
                </g>
            </g>
        </g>
    </g>
</svg>
