<svg xmlns="http://www.w3.org/2000/svg" width="356" height="212.988" viewBox="0 0 356 212.988">
    <defs>
        <style>
            .prefix__cls-1{fill:#4f69b0}
        </style>
    </defs>
    <g id="prefix__pharmassist_bg" data-name="pharmassist bg" transform="translate(-834 -2063)">
        <g id="prefix__distribution" transform="translate(1067 2124)">
            <path id="prefix__Path_4960" d="M350 174a1.5 1.5 0 0 0-1.026-1.423l-13.5-4.5a1.5 1.5 0 0 0-.948 0l-13.5 4.5A1.5 1.5 0 0 0 320 174v16.5a1.5 1.5 0 0 0 1.5 1.5h27a1.5 1.5 0 0 0 1.5-1.5zm-21 15v-9h12v9zm18 0h-3v-10.5a1.5 1.5 0 0 0-1.5-1.5h-15a1.5 1.5 0 0 0-1.5 1.5V189h-3v-13.918l12-4 12 4zm0 0" class="prefix__cls-1" data-name="Path 4960" transform="translate(-260 -136.5)"/>
            <path id="prefix__Path_4961" d="M350 358a1.5 1.5 0 0 0-1.026-1.423l-13.5-4.5a1.5 1.5 0 0 0-.948 0l-13.5 4.5A1.5 1.5 0 0 0 320 358v16.5a1.5 1.5 0 0 0 1.5 1.5h27a1.5 1.5 0 0 0 1.5-1.5zm-21 15v-9h12v9zm18 0h-3v-10.5a1.5 1.5 0 0 0-1.5-1.5h-15a1.5 1.5 0 0 0-1.5 1.5V373h-3v-13.918l12-4 12 4zm0 0" class="prefix__cls-1" data-name="Path 4961" transform="translate(-260 -286)"/>
            <path id="prefix__Path_4962" d="M350 6a1.5 1.5 0 0 0-1.026-1.423l-13.5-4.5a1.5 1.5 0 0 0-.948 0l-13.5 4.5A1.5 1.5 0 0 0 320 6v16.5a1.5 1.5 0 0 0 1.5 1.5h27a1.5 1.5 0 0 0 1.5-1.5zm-21 15v-9h12v9zm18 0h-3V10.5a1.5 1.5 0 0 0-1.5-1.5h-15a1.5 1.5 0 0 0-1.5 1.5V21h-3V7.082l12-4 12 4zm0 0" class="prefix__cls-1" data-name="Path 4962" transform="translate(-260)"/>
            <path id="prefix__Path_4963" d="M252 67v-3h-10.5a1.5 1.5 0 0 0-1.5 1.5V133a1.5 1.5 0 0 0 1.5 1.5H252v-3h-9v-33h9v-3h-9V67zm0 0" class="prefix__cls-1" data-name="Path 4963" transform="translate(-195 -52)"/>
            <path id="prefix__Path_4964" d="M1.5 105H6v4.5a1.5 1.5 0 0 0 1.5 1.5h1.776a4.458 4.458 0 0 0 7.224 1.83 4.457 4.457 0 0 0 7.224-1.83h6.552a4.473 4.473 0 0 0 8.448 0H40.5a1.5 1.5 0 0 0 1.5-1.5V102a1.5 1.5 0 0 0-.439-1.06L39 98.38V82.5a1.5 1.5 0 0 0-2.17-1.342L33 83.073V73.5a1.5 1.5 0 0 0-1.5-1.5h-6a1.5 1.5 0 0 0-1.5 1.5v8.073l-3 1.5V73.5a1.5 1.5 0 0 0-1.5-1.5h-6a1.5 1.5 0 0 0-1.5 1.5v8.073l-3 1.5V73.5A1.5 1.5 0 0 0 7.5 72h-6A1.5 1.5 0 0 0 0 73.5v30a1.5 1.5 0 0 0 1.5 1.5zm7.5 3V96h18v12h-3.276a4.458 4.458 0 0 0-7.224-1.83A4.458 4.458 0 0 0 9.276 108zm4.5 3a1.5 1.5 0 1 1 1.5-1.5 1.5 1.5 0 0 1-1.5 1.5zm6 0a1.5 1.5 0 1 1 1.5-1.5 1.5 1.5 0 0 1-1.5 1.5zm15 0a1.5 1.5 0 1 1 1.5-1.5 1.5 1.5 0 0 1-1.5 1.5zm4.5-3h-.276a4.473 4.473 0 0 0-8.448 0H30v-9h5.379L39 102.621zM27 75h3v9.573l-3 1.5zm-12 0h3v9.573l-3 1.5zm-3 12v1.5a1.5 1.5 0 0 0 2.171 1.343L24 84.927V88.5a1.5 1.5 0 0 0 2.171 1.343L36 84.927V96h-6v-1.5a1.5 1.5 0 0 0-1.5-1.5h-21A1.5 1.5 0 0 0 6 94.5v7.5H3V89.427l9-4.5zM6 75v9.573l-3 1.5V75zm0 0" data-name="Path 4964" transform="translate(0 -58.5)" style="fill:#ff7300"/>
        </g>
        <g id="prefix___36a73251c4ae873ab29bb0ad23aceb03" data-name="36a73251c4ae873ab29bb0ad23aceb03" transform="translate(834 2063)" style="stroke:#c3cde4;stroke-width:.5px;opacity:.4;fill:none">
            <rect width="356" height="212.988" rx="5" style="stroke:none"/>
            <rect width="355.5" height="212.488" x=".25" y=".25" rx="4.75" style="fill:none"/>
        </g>
    </g>
</svg>
