<svg xmlns="http://www.w3.org/2000/svg" width="16.6" height="16.6" viewBox="0 0 16.6 16.6">
    <g>
        <path fill="#5b636a" stroke="#5b636a" stroke-width="0.6px" d="M12.535 1.415l.013-.009-.348-.217-.063-.036q-.174-.1-.353-.2c-.065-.034-.127-.065-.184-.096-.09-.046-.181-.089-.273-.131l-.162-.074q-.218-.092-.438-.173l-.091-.03q-.192-.067-.389-.125l-.126-.036C9.976.248 9.83.211 9.681.18L9.639.17c-.164-.034-.33-.063-.5-.087L9.031.069q-.2-.025-.4-.041L8.5.018C8.335.007 8.169 0 8 0s-.362.008-.541.02l-.141.011c-.168.014-.335.032-.5.057l-.05.007c-.168.026-.331.058-.494.094l-.161.038c-.15.036-.3.076-.445.121l-.137.044q-.2.064-.389.138c-.059.022-.118.045-.176.07-.147.061-.293.124-.435.193-.047.023-.093.048-.14.072q-.167.085-.33.177l-.162.093q-.2.122-.4.255c-.018.012-.037.022-.054.035l-.145.1v.006a8 8 0 1 0 9.233-.116zm-8.511.27q.129-.082.261-.158l.147-.085c.124-.068.249-.131.376-.191.055-.026.11-.05.166-.075q.14-.062.281-.118c.052-.021.1-.042.157-.062q.2-.075.409-.138l.153-.043Q6.134.77 6.3.731L6.442.7c.149-.032.3-.059.45-.082L7 .6q.191-.026.385-.042L7.516.55C7.677.541 7.838.533 8 .533c.141 0 .282 0 .422.013l.12.009c.1.007.2.016.3.027L8.978.6c.1.013.194.027.291.044L9.4.667c.1.019.2.041.3.064l.11.026q.184.046.365.1l.037.01c.129.04.257.084.383.131l.15.059c.074.029.147.059.219.09s.125.056.187.085l.167.081.121.062a5.1 5.1 0 0 0-2.361 1.831.705.705 0 0 0-.147.45.719.719 0 0 0-.27-.338 1 1 0 0 0-.987.035l-.074.009c-.535.06-.83.093-.856.675a.833.833 0 0 0 .4.74.745.745 0 0 0 .2.085.285.285 0 0 0 .037.077l.107.149.171-.029a1.857 1.857 0 0 1 .353-.028.635.635 0 0 0 .062.347.593.593 0 0 0 .359.308c.15.046.163.091.182.154a.854.854 0 0 0 .534.6.8.8 0 0 0 .744-.14c.137-.1.215-.082.514.063a2.363 2.363 0 0 0 .754.253.16.16 0 0 1 .09.033 4.217 4.217 0 0 1 .544.785 2.428 2.428 0 0 0 .88 1.024c.313.163-.038 1.083-.206 1.525-.034.089-.066.172-.092.246a4.217 4.217 0 0 0-.895 1.013 4.6 4.6 0 0 1-.782.923 4.482 4.482 0 0 1-1.473.9.14.14 0 0 1-.158-.043.132.132 0 0 1-.016-.156c.526-.942 1.135-2.27.347-2.922a2.068 2.068 0 0 1-.737-2.363.709.709 0 0 0-.357-.9 1 1 0 0 1-.063-.293 1.67 1.67 0 0 0-.234-.75.8.8 0 0 0-.28-.238 2.993 2.993 0 0 0-.94-.249 3.177 3.177 0 0 1-.7-.157c-.883-.339-1.512-1.772-1.971-2.819-.066-.15-.129-.294-.19-.428zM8 15.467A7.463 7.463 0 0 1 3.483 2.06l.146.329c.525 1.2 1.177 2.684 2.269 3.1a3.6 3.6 0 0 0 .814.187 2.537 2.537 0 0 1 .783.2.327.327 0 0 1 .073.056 1.22 1.22 0 0 1 .146.519.809.809 0 0 0 .334.687c.085.045.159.136.121.229a2.59 2.59 0 0 0 .891 2.975c.245.2.362.758-.473 2.251a.666.666 0 0 0 .074.76.673.673 0 0 0 .515.241.687.687 0 0 0 .229-.04 5.146 5.146 0 0 0 2.514-2.019 3.628 3.628 0 0 1 .826-.928.317.317 0 0 0 .114-.153c.029-.084.067-.183.108-.293.274-.719.689-1.806-.046-2.188a2.055 2.055 0 0 1-.666-.821 4.713 4.713 0 0 0-.618-.883.672.672 0 0 0-.408-.194 1.859 1.859 0 0 1-.59-.2.921.921 0 0 0-1.067-.009.282.282 0 0 1-.251.063.334.334 0 0 1-.191-.24.711.711 0 0 0-.537-.515.063.063 0 0 1-.038-.035.108.108 0 0 1 0-.087.378.378 0 0 0-.055-.377.643.643 0 0 0-.509-.175.263.263 0 0 0-.07-.126l-.162-.148-.182.107a.146.146 0 0 1-.158-.011.3.3 0 0 1-.145-.259.957.957 0 0 1 .01-.116 3.142 3.142 0 0 1 .373-.054l.162-.018.039-.018c.238-.111.429-.144.51-.092.033.022.138.125.126.554l-.007.237.234.035a.7.7 0 0 0 .67-.175.755.755 0 0 0 .078-.736.17.17 0 0 1 .031-.149 4.711 4.711 0 0 1 2.535-1.809A7.464 7.464 0 0 1 8 15.467z" transform="translate(.3 .3)"/>
    </g>
</svg>
