<svg xmlns="http://www.w3.org/2000/svg" width="50.959" height="57.218" viewBox="0 0 50.959 57.218">
    <defs>
        <style>
            .cls-1{fill:#fff;stroke:#674cf3;stroke-miterlimit:10}
        </style>
    </defs>
    <g id="tablet" transform="translate(-6.994 -5.432)">
        <path id="Rectangle-path" d="M4.565 0h43.222a4.565 4.565 0 0 1 4.565 4.565v12.3a4.565 4.565 0 0 1-4.565 4.565H4.565A4.565 4.565 0 0 1 0 16.862V4.565A4.565 4.565 0 0 1 4.565 0z" class="cls-1" transform="rotate(-75.83 40.246 23.508)"/>
        <path id="Shape" fill="#674cf3" d="M13.643 10.13L5.912 41.688A10.567 10.567 0 0 1 0 48.867a10.327 10.327 0 0 0 5.616 3.8 10.372 10.372 0 0 0 12.6-7.766l7.754-31.558a11 11 0 0 0-1.145-8.123 10.4 10.4 0 0 0-6.384-4.9 10.006 10.006 0 0 0-6.685.587 11.014 11.014 0 0 1 1.887 9.223z" opacity="0.1" transform="translate(12.357 7.547)"/>
        <path id="Shape-2" fill="none" stroke="#674cf3" stroke-miterlimit="10" d="M0 0l20.123 5.229" transform="translate(14.313 31.427)"/>
        <path id="Oval" d="M14.348 0A14.577 14.577 0 0 1 28.7 14.8a14.577 14.577 0 0 1-14.348 14.8A14.577 14.577 0 0 1 0 14.8 14.577 14.577 0 0 1 14.348 0z" class="cls-1" transform="translate(28.757 30.951)"/>
        <path id="Shape-3" fill="#ffbe0b" d="M11.687 0v.75A11.043 11.043 0 0 1 .819 11.959H0a10.981 10.981 0 0 0 11.051 10.372 11.016 11.016 0 0 0 10.608-10.854A11.065 11.065 0 0 0 11.687 0z" opacity="0.78" transform="translate(32.214 34.633)"/>
        <path id="Shape-4" fill="none" stroke="#674cf3" stroke-linecap="round" stroke-miterlimit="10" d="M10.232 0L0 19.767" transform="translate(37.982 35.852)"/>
    </g>
</svg>
