<svg xmlns="http://www.w3.org/2000/svg" id="transaction" width="36" height="36" viewBox="0 0 36 36">
    <defs>
        <style>
            .cls-1{fill:#ffbe0b}.cls-2{fill:#e7eced}.cls-3{fill:#afb6bb}.cls-4{fill:#23a24d}.cls-5{fill:#366db6}.cls-6{fill:#187f38}.cls-7{fill:#1f436d}.cls-8{fill:#fff}.cls-9{fill:#dd352e}
        </style>
    </defs>
    <path id="Path_3595" d="M105.931 70.621V96.69h21.1V70.621z" class="cls-1" data-name="Path 3595" transform="translate(-98.483 -65.655)"/>
    <path id="Path_3596" d="M125.007 446.345h-17.049a2.027 2.027 0 0 1-2.027-2.027v-2.938h21.1v2.938a2.027 2.027 0 0 1-2.024 2.027z" class="cls-2" data-name="Path 3596" transform="translate(-98.483 -410.345)"/>
    <g id="Group_1509" data-name="Group 1509" transform="translate(9.931 32.896)">
        <path id="Path_3597" d="M225.034 469.1h-3.724a.621.621 0 1 1 0-1.241h3.724a.621.621 0 1 1 0 1.241z" class="cls-3" data-name="Path 3597" transform="translate(-215.103 -467.861)"/>
        <path id="Path_3598" d="M320.9 469.1h-2.483a.621.621 0 1 1 0-1.241h2.483a.621.621 0 1 1 0 1.241z" class="cls-3" data-name="Path 3598" transform="translate(-305.379 -467.861)"/>
        <path id="Path_3599" d="M144.344 469.1h-2.483a.621.621 0 1 1 0-1.241h2.483a.621.621 0 1 1 0 1.241z" class="cls-3" data-name="Path 3599" transform="translate(-141.241 -467.861)"/>
    </g>
    <path id="Path_3600" d="M107.958 0h17.05a2.027 2.027 0 0 1 2.027 2.027v2.939h-21.1V2.027A2.027 2.027 0 0 1 107.958 0z" class="cls-2" data-name="Path 3600" transform="translate(-98.483)"/>
    <path id="Path_3601" d="M209.862 27.723h-6.207a.621.621 0 0 1 0-1.241h6.207a.621.621 0 1 1 0 1.241z" class="cls-3" data-name="Path 3601" transform="translate(-188.758 -24.62)"/>
    <path id="Rectangle_2231" d="M0 0h16.138v11.172H0z" class="cls-4" data-name="Rectangle 2231" transform="translate(0 8.69)"/>
    <path id="Path_3602" d="M297.178 265.31h-13.252a1.443 1.443 0 0 1-1.443-1.443v-6.424a1.443 1.443 0 0 1 1.443-1.443h13.252a1.443 1.443 0 0 1 1.443 1.443v6.424a1.443 1.443 0 0 1-1.443 1.443z" class="cls-5" data-name="Path 3602" transform="translate(-262.621 -238)"/>
    <g id="Group_1510" data-name="Group 1510" transform="translate(0 8.69)">
        <circle id="Ellipse_1251" cx="2.483" cy="2.483" r="2.483" class="cls-6" data-name="Ellipse 1251" transform="translate(5.586 3.103)"/>
        <path id="Path_3603" d="M0 127.31v-3.724h3.724A3.724 3.724 0 0 1 0 127.31z" class="cls-6" data-name="Path 3603" transform="translate(0 -123.586)"/>
        <path id="Path_3604" d="M180.275 127.31v-3.724h-3.724a3.724 3.724 0 0 0 3.724 3.724z" class="cls-6" data-name="Path 3604" transform="translate(-164.137 -123.586)"/>
        <path id="Path_3605" d="M180.275 229.517v3.724h-3.724a3.724 3.724 0 0 1 3.724-3.724z" class="cls-6" data-name="Path 3605" transform="translate(-164.137 -222.069)"/>
        <path id="Path_3606" d="M0 229.517v3.724h3.724A3.724 3.724 0 0 0 0 229.517z" class="cls-6" data-name="Path 3606" transform="translate(0 -222.069)"/>
    </g>
    <path id="Path_3607" d="M298.621 233.242h-16.138v-2.281a1.443 1.443 0 0 1 1.443-1.443h13.252a1.443 1.443 0 0 1 1.443 1.443z" class="cls-7" data-name="Path 3607" transform="translate(-262.621 -213.38)"/>
    <g id="Group_1511" data-name="Group 1511" transform="translate(21.724 23.586)">
        <path id="Path_3608" d="M312.068 336.688h-2.483a.621.621 0 0 1 0-1.241h2.483a.621.621 0 0 1 0 1.241z" class="cls-8" data-name="Path 3608" transform="translate(-308.965 -335.447)"/>
        <path id="Path_3609" d="M435.655 336.688h-2.483a.621.621 0 0 1 0-1.241h2.483a.621.621 0 0 1 0 1.241z" class="cls-8" data-name="Path 3609" transform="translate(-423.862 -335.447)"/>
        <path id="Path_3610" d="M381.448 336.688h-1.241a.621.621 0 0 1 0-1.241h1.241a.621.621 0 0 1 0 1.241z" class="cls-8" data-name="Path 3610" transform="translate(-374.62 -335.447)"/>
    </g>
    <g id="Group_1512" data-name="Group 1512" transform="translate(.621 22.345)">
        <path id="Path_3611" d="M35.931 324.621a.621.621 0 0 1-.621-.621v-5.586a.621.621 0 1 1 1.241 0V324a.621.621 0 0 1-.62.621z" class="cls-5" data-name="Path 3611" transform="translate(-33.448 -317.793)"/>
        <path id="Path_3612" d="M9.446 320.895a.621.621 0 0 1-.439-1.059l1.862-1.862a.621.621 0 1 1 .878.878l-1.862 1.862a.619.619 0 0 1-.439.181z" class="cls-5" data-name="Path 3612" transform="translate(-8.825 -317.791)"/>
        <path id="Path_3613" d="M37.791 320.895a.619.619 0 0 1-.439-.182l-1.862-1.862a.621.621 0 0 1 .878-.878l1.862 1.862a.621.621 0 0 1-.439 1.059z" class="cls-5" data-name="Path 3613" transform="translate(-33.446 -317.791)"/>
    </g>
    <g id="Group_1513" data-name="Group 1513" transform="translate(30.414 6.828)">
        <path id="Path_3614" d="M459.655 103.931a.621.621 0 0 1-.621-.621v-5.586a.621.621 0 1 1 1.241 0v5.586a.621.621 0 0 1-.62.621z" class="cls-9" data-name="Path 3614" transform="translate(-457.172 -97.103)"/>
        <path id="Path_3615" d="M459.653 153.171a.621.621 0 0 1-.439-1.059l1.862-1.862a.621.621 0 0 1 .878.878l-1.862 1.862a.619.619 0 0 1-.439.181z" class="cls-9" data-name="Path 3615" transform="translate(-457.17 -146.343)"/>
        <path id="Path_3616" d="M435.032 153.171a.619.619 0 0 1-.439-.182l-1.862-1.862a.621.621 0 1 1 .878-.878l1.862 1.862a.621.621 0 0 1-.439 1.059z" class="cls-9" data-name="Path 3616" transform="translate(-432.549 -146.343)"/>
    </g>
</svg>
