<svg xmlns="http://www.w3.org/2000/svg" width="16.4" height="16.4">
    <defs>
        <style>
            .cls-1{fill:#ff7b20;stroke:#ff7b20;stroke-width:.4px}
        </style>
    </defs>
    <g id="download_1_" data-name="download (1)" transform="translate(.2 .2)">
        <g id="Group_4963" data-name="Group 4963">
            <g id="Group_4962" data-name="Group 4962">
                <path id="Path_10769" data-name="Path 10769" class="cls-1" d="M15.127.873A2.96 2.96 0 0 0 13.021 0H2.979A2.983 2.983 0 0 0 0 2.979v10.042A2.983 2.983 0 0 0 2.979 16h10.042A2.983 2.983 0 0 0 16 13.021V2.979a2.96 2.96 0 0 0-.873-2.106zm-.065 12.148a2.044 2.044 0 0 1-2.042 2.042H2.979a2.044 2.044 0 0 1-2.041-2.042V2.979A2.044 2.044 0 0 1 2.979.938h10.042a2.042 2.042 0 0 1 2.042 2.042z"/>
                <path id="Path_39149" data-name="Path 39149" class="cls-1" d="M15.127.873A2.96 2.96 0 0 0 13.021 0H2.979A2.983 2.983 0 0 0 0 2.979v10.042A2.983 2.983 0 0 0 2.979 16h10.042A2.983 2.983 0 0 0 16 13.021V2.979a2.96 2.96 0 0 0-.873-2.106zm-.065 12.148a2.044 2.044 0 0 1-2.042 2.042H2.979a2.044 2.044 0 0 1-2.041-2.042V2.979A2.044 2.044 0 0 1 2.979.938h10.042a2.042 2.042 0 0 1 2.042 2.042z"/>
                <path id="Path_39150" data-name="Path 39150" class="cls-1" d="M15.127.873A2.96 2.96 0 0 0 13.021 0H2.979A2.983 2.983 0 0 0 0 2.979v10.042A2.983 2.983 0 0 0 2.979 16h10.042A2.983 2.983 0 0 0 16 13.021V2.979a2.96 2.96 0 0 0-.873-2.106zm-.065 12.148a2.044 2.044 0 0 1-2.042 2.042H2.979a2.044 2.044 0 0 1-2.041-2.042V2.979A2.044 2.044 0 0 1 2.979.938h10.042a2.042 2.042 0 0 1 2.042 2.042z"/>
            </g>
        </g>
        <g id="Group_4965" data-name="Group 4965" transform="translate(4.988 2.966)">
            <g id="Group_4964" data-name="Group 4964">
                <path id="Path_10770" data-name="Path 10770" class="cls-1" d="M167.356 100.259a.478.478 0 0 0-.676 0l-1.718 1.718v-5.1a.478.478 0 1 0-.956 0v5.1l-1.718-1.718a.478.478 0 0 0-.676.676l2.534 2.534a.478.478 0 0 0 .676 0l2.534-2.534a.478.478 0 0 0 0-.676z" transform="translate(-161.472 -96.4)"/>
                <path id="Path_39151" data-name="Path 39151" class="cls-1" d="M167.356 100.259a.478.478 0 0 0-.676 0l-1.718 1.718v-5.1a.478.478 0 1 0-.956 0v5.1l-1.718-1.718a.478.478 0 0 0-.676.676l2.534 2.534a.478.478 0 0 0 .676 0l2.534-2.534a.478.478 0 0 0 0-.676z" transform="translate(-161.472 -96.4)"/>
            </g>
        </g>
        <g id="Group_4967" data-name="Group 4967" transform="translate(2.914 12.035)">
            <g id="Group_4966" data-name="Group 4966">
                <path id="Path_10771" data-name="Path 10771" class="cls-1" d="M106.1 385.6h-9.22a.478.478 0 0 0 0 .956h9.22a.478.478 0 0 0 0-.956z" transform="translate(-96.402 -385.601)"/>
            </g>
        </g>
    </g>
</svg>
