<svg id="oops" xmlns="http://www.w3.org/2000/svg" width="51" height="68">
    <defs>
        <style>
            .cls-2,.cls-3{fill:#674cf3;fill-rule:evenodd}.cls-3{fill:#8e7af5}
        </style>
    </defs>
    <path id="Path_42770" data-name="Path 42770" d="M10 75.3h34.516L58.3 61.5V10H10zm0 0" transform="translate(-8.651 -8.651)" style="opacity:.135;fill-rule:evenodd;fill:#674cf3"/>
    <path id="Path_42771" data-name="Path 42771" class="cls-2" d="M270.426 412.014V397.98h14.033zm0 0" transform="translate(-234.808 -345.363)"/>
    <path id="Path_42772" data-name="Path 42772" class="cls-3" d="M1.327 53.159a1.324 1.324 0 0 0 1.327-1.322V2.645h45.693V5.29a1.327 1.327 0 0 0 2.653 0V1.322A1.324 1.324 0 0 0 49.673 0H1.327A1.324 1.324 0 0 0 0 1.322v50.515a1.324 1.324 0 0 0 1.327 1.322zm0 0"/>
    <path id="Path_42773" data-name="Path 42773" class="cls-3" d="M49.673 110a1.324 1.324 0 0 0-1.327 1.322v35.437H35.874a1.324 1.324 0 0 0-1.327 1.322v12.433H2.653v-2.645a1.327 1.327 0 0 0-2.653 0v3.968a1.324 1.324 0 0 0 1.327 1.322H35.9c.036 0 .073 0 .109-.005l.066-.01c.022-.003.042-.005.062-.009l.066-.016.06-.015c.021-.006.04-.014.061-.022s.041-.013.062-.022l.053-.025c.022-.01.044-.019.064-.03l.049-.029c.016-.01.042-.024.063-.038s.037-.027.055-.04l.05-.037a1.124 1.124 0 0 0 .1-.088l13.8-13.755a1.27 1.27 0 0 0 .115-.133.453.453 0 0 0 .026-.035 1.369 1.369 0 0 0 .092-.145v-.009a1.3 1.3 0 0 0 .065-.148l.015-.041a1.366 1.366 0 0 0 .046-.164 1.354 1.354 0 0 0 .02-.166v-36.851A1.324 1.324 0 0 0 49.673 110zM37.2 158.649v-9.241h9.27zm0 0" transform="translate(0 -95.163)"/>
    <path id="Path_42774" data-name="Path 42774" class="cls-2" d="M237.465 105.391a1.349 1.349 0 0 0-1.908 0l-3.049 3.049-3.049-3.049a1.349 1.349 0 1 0-1.908 1.908l3.049 3.049-3.049 3.049a1.349 1.349 0 1 0 1.908 1.908l3.049-3.049 3.049 3.049a1.349 1.349 0 1 0 1.908-1.908l-3.049-3.049 3.049-3.049a1.349 1.349 0 0 0 0-1.908zm0 0" transform="translate(-197.155 -91.092)"/>
    <path id="Path_42775" data-name="Path 42775" class="cls-2" d="M80.081 264.054a21.44 21.44 0 0 1 25.7 0 1.281 1.281 0 0 0 .822.3 1.3 1.3 0 0 0 1.022-.5 1.376 1.376 0 0 0-.2-1.9 23.989 23.989 0 0 0-28.99 0 1.376 1.376 0 0 0-.2 1.9 1.287 1.287 0 0 0 1.846.2zm0 0" transform="translate(-67.431 -222.998)"/>
    <path id="Path_42776" data-name="Path 42776" class="cls-2" d="M78.344 115.3a1.349 1.349 0 0 0 1.908 0l3.049-3.049 3.049 3.049a1.349 1.349 0 0 0 1.908-1.908l-3.049-3.049 3.049-3.049a1.349 1.349 0 0 0-1.908-1.908l-3.05 3.05-3.049-3.049a1.349 1.349 0 0 0-1.908 1.908l3.049 3.049-3.049 3.049a1.349 1.349 0 0 0 .001 1.907zm0 0" transform="translate(-67.654 -91.088)"/>
    <path id="Path_42777" data-name="Path 42777" class="cls-2" d="M1.349 424.694A1.349 1.349 0 1 0 0 423.345a1.351 1.351 0 0 0 1.349 1.349zm0 0" transform="translate(0 -366.139)"/>
    <path id="Path_42778" data-name="Path 42778" class="cls-2" d="M365.794 70a1.349 1.349 0 1 0 1.349 1.349A1.351 1.351 0 0 0 365.794 70zm0 0" transform="translate(-316.144 -60.56)"/>
</svg>
