<svg xmlns="http://www.w3.org/2000/svg" width="17.452" height="21.9" viewBox="0 0 17.452 21.9">
    <path fill="#fff" stroke="#fff" stroke-width="0.9px" d="M15.408 12.805V9.53A7.066 7.066 0 0 0 10.5 2.786v-.7a2.075 2.075 0 1 0-4.15-.03v.726A7.066 7.066 0 0 0 1.44 9.53v3.275a2.231 2.231 0 0 0-1.292 2.021v1.062a2.231 2.231 0 0 0 2.229 2.228h2.83a3.237 3.237 0 0 0 6.435 0h2.83a2.231 2.231 0 0 0 2.228-2.228v-1.062a2.231 2.231 0 0 0-1.292-2.021zM7.4 2.089a1.026 1.026 0 1 1 2.05-.02v.476a6.938 6.938 0 0 0-2.051 0zm1.024 1.428a5.981 5.981 0 0 1 5.935 6.013v3.07H2.489V9.53a5.981 5.981 0 0 1 5.935-6.013zm0 16.432a2.192 2.192 0 0 1-2.159-1.833h4.318a2.192 2.192 0 0 1-2.159 1.833zm7.227-4.061a1.18 1.18 0 0 1-1.179 1.179H2.377A1.18 1.18 0 0 1 1.2 15.888v-1.062a1.18 1.18 0 0 1 1.179-1.179h12.092a1.18 1.18 0 0 1 1.179 1.179zm0 0" transform="translate(0.302 0.451)"/>
</svg>
