<svg xmlns="http://www.w3.org/2000/svg" width="88" height="91.585" viewBox="0 0 88 91.585">
    <g>
        <path fill="#ffdfe4" d="M56.317 59.5l-6.234-.89a6.15 6.15 0 0 0-6.911 5.065l-1.088 6.256a6.193 6.193 0 0 1-3.171 4.4l-5.562 2.977a6.224 6.224 0 0 0-2.64 8.2l2.765 5.707a6.247 6.247 0 0 1 0 5.443l-2.765 5.707a6.224 6.224 0 0 0 2.64 8.2l5.562 2.977a6.2 6.2 0 0 1 3.171 4.4l1.088 6.256a6.15 6.15 0 0 0 6.911 5.065l6.234-.89a6.084 6.084 0 0 1 1.161-.052l.328-3.475a4.245 4.245 0 0 1-4.77-3.5l-2.229-10.844a4.276 4.276 0 0 0-2.189-3.04l-3.839-2.055a4.3 4.3 0 0 1-1.822-5.658l1.909-3.939a4.312 4.312 0 0 0 0-3.757l-1.909-3.939a4.3 4.3 0 0 1 1.822-5.658l3.839-2.055a4.275 4.275 0 0 0 2.189-3.04l2.144-10.926a4.245 4.245 0 0 1 4.77-3.5l.419-3.462a6.069 6.069 0 0 1-1.823.027z" transform="translate(-10.025 -0.001) translate(-16.497 -48.146)"/>
        <path fill="#ef2b4a" d="M54.025 91.586a9.727 9.727 0 0 1-6.786-2.762l-4.554-4.408a2.586 2.586 0 0 0-2.175-.707l-6.273.888a9.986 9.986 0 0 1-1.4.1 9.714 9.714 0 0 1-9.58-8.079l-1.095-6.245a2.592 2.592 0 0 0-1.346-1.854l-5.6-2.971a9.725 9.725 0 0 1-4.193-12.909l2.783-5.7a2.6 2.6 0 0 0 0-2.293l-2.783-5.7a9.725 9.725 0 0 1 4.193-12.909l5.6-2.972a2.592 2.592 0 0 0 1.346-1.854l1.095-6.245a9.719 9.719 0 0 1 10.978-7.98l6.274.888a2.585 2.585 0 0 0 2.175-.707l4.556-4.403a9.715 9.715 0 0 1 13.571 0l4.554 4.408a2.585 2.585 0 0 0 2.175.707l6.273-.888a9.719 9.719 0 0 1 10.978 7.98l1.095 6.245a2.593 2.593 0 0 0 1.346 1.854l5.6 2.971a9.725 9.725 0 0 1 4.193 12.909l-2.782 5.7a2.6 2.6 0 0 0 0 2.293l2.783 5.7a9.724 9.724 0 0 1-4.193 12.909l-5.6 2.972a2.592 2.592 0 0 0-1.346 1.854l-1.095 6.245A9.719 9.719 0 0 1 73.813 84.6l-6.273-.888a2.586 2.586 0 0 0-2.175.707l-4.554 4.408a9.727 9.727 0 0 1-6.786 2.762zM40.9 76.528a9.683 9.683 0 0 1 6.763 2.749l4.554 4.408a2.592 2.592 0 0 0 3.621 0l4.554-4.408a9.691 9.691 0 0 1 8.152-2.65l6.274.888a2.6 2.6 0 0 0 2.931-2.133l1.095-6.245a9.7 9.7 0 0 1 5.034-6.937l5.6-2.972a2.6 2.6 0 0 0 1.12-3.452l-2.783-5.7a9.7 9.7 0 0 1 0-8.573l2.782-5.7a2.6 2.6 0 0 0-1.12-3.452l-5.6-2.971a9.7 9.7 0 0 1-5.037-6.937l-1.095-6.245a2.6 2.6 0 0 0-2.931-2.133l-6.273.888a9.7 9.7 0 0 1-8.153-2.65L55.836 7.9a2.592 2.592 0 0 0-3.622 0l-4.554 4.411a9.693 9.693 0 0 1-8.152 2.65l-6.274-.888a2.6 2.6 0 0 0-2.934 2.133l-1.095 6.245a9.7 9.7 0 0 1-5.037 6.937l-5.6 2.972a2.6 2.6 0 0 0-1.12 3.452l2.783 5.7a9.7 9.7 0 0 1 0 8.573l-2.783 5.7a2.6 2.6 0 0 0 1.12 3.452l5.6 2.971a9.7 9.7 0 0 1 5.037 6.937l1.095 6.236a2.594 2.594 0 0 0 2.931 2.133l6.274-.888a9.919 9.919 0 0 1 1.395-.098z" transform="translate(-10.025 -0.001) translate(0 0)"/>
        <path fill="#ff2c2c" d="M236.53 165.874a3.554 3.554 0 0 1-3.554-3.554v-21.677a3.554 3.554 0 1 1 7.108 0v21.678a3.554 3.554 0 0 1-3.554 3.553zm0 14.037a4.442 4.442 0 1 0-4.442-4.442 4.442 4.442 0 0 0 4.442 4.442" transform="translate(-10.025 -0.001) translate(-182.326 -112.437)"/>
    </g>
</svg>
