<svg xmlns="http://www.w3.org/2000/svg" width="22.5" height="18" viewBox="0 0 22.5 18">
    <defs>
        <style>
            .cls-2{fill:#5b636a}
        </style>
    </defs>
    <g id="scan" opacity="0.8" transform="translate(0 -48)">
        <g id="Group_1818" transform="translate(0 48)">
            <g id="Group_1817">
                <path id="Path_3890" d="M3.75 48h-3a.75.75 0 0 0-.75.75v3a.75.75 0 0 0 1.5 0V49.5h2.25a.75.75 0 0 0 0-1.5z" class="cls-2" transform="translate(0 -48)"/>
            </g>
        </g>
        <g id="Group_1820" transform="translate(18 61.5)">
            <g id="Group_1819">
                <path id="Path_3891" d="M387.75 336a.75.75 0 0 0-.75.75V339h-2.25a.75.75 0 1 0 0 1.5h3a.75.75 0 0 0 .75-.75v-3a.75.75 0 0 0-.75-.75z" class="cls-2" transform="translate(-384 -336)"/>
            </g>
        </g>
        <g id="Group_1822" transform="translate(18 48)">
            <g id="Group_1821">
                <path id="Path_3892" d="M387.75 48h-3a.75.75 0 1 0 0 1.5H387v2.25a.75.75 0 1 0 1.5 0v-3a.75.75 0 0 0-.75-.75z" class="cls-2" transform="translate(-384 -48)"/>
            </g>
        </g>
        <g id="Group_1824" transform="translate(0 61.5)">
            <g id="Group_1823">
                <path id="Path_3893" d="M3.75 339H1.5v-2.25a.75.75 0 0 0-1.5 0v3a.75.75 0 0 0 .75.75h3a.75.75 0 0 0 0-1.5z" class="cls-2" transform="translate(0 -336)"/>
            </g>
        </g>
        <g id="Group_1826" transform="translate(2.25 50.7)">
            <g id="Group_1825" transform="translate(0 0)">
                <path id="Rectangle_2514" d="M0 0H2V12H0z" class="cls-2" transform="translate(0 0.3)"/>
            </g>
        </g>
        <g id="Group_1828" transform="translate(5.85 50.7)">
            <g id="Group_1827" transform="translate(0 0)">
                <path id="Rectangle_2515" d="M0 0H1V9H0z" class="cls-2" transform="translate(0.4 0.3)"/>
            </g>
        </g>
        <g id="Group_1830" transform="translate(8.55 50.7)">
            <g id="Group_1829" transform="translate(0 0)">
                <path id="Rectangle_2516" d="M0 0H2V9H0z" class="cls-2" transform="translate(-0.3 0.3)"/>
            </g>
        </g>
        <g id="Group_1832" transform="translate(12.15 50.7)">
            <g id="Group_1831" transform="translate(0 0)">
                <path id="Rectangle_2517" d="M0 0H2V12H0z" class="cls-2" transform="translate(0.1 0.3)"/>
            </g>
        </g>
        <g id="Group_1834" transform="translate(14.85 50.7)">
            <g id="Group_1833" transform="translate(0 0)">
                <path id="Rectangle_2518" d="M0 0H1V9H0z" class="cls-2" transform="translate(0.4 0.3)"/>
            </g>
        </g>
        <g id="Group_1836" transform="translate(18.45 50.7)">
            <g id="Group_1835" transform="translate(0 0)">
                <path id="Rectangle_2519" d="M0 0H2V12H0z" class="cls-2" transform="translate(-0.2 0.3)"/>
            </g>
        </g>
        <g id="Group_1838" transform="translate(5.85 61.5)">
            <g id="Group_1837" transform="translate(0 0)">
                <path id="Rectangle_2520" d="M0 0H1V1H0z" class="cls-2" transform="translate(0.4 0.5)"/>
            </g>
        </g>
        <g id="Group_1840" transform="translate(8.55 61.5)">
            <g id="Group_1839" transform="translate(0 0)">
                <path id="Rectangle_2521" d="M0 0H2V1H0z" class="cls-2" transform="translate(-0.3 0.5)"/>
            </g>
        </g>
        <g id="Group_1842" transform="translate(14.85 61.5)">
            <g id="Group_1841" transform="translate(0 0)">
                <path id="Rectangle_2522" d="M0 0H1V1H0z" class="cls-2" transform="translate(0.4 0.5)"/>
            </g>
        </g>
    </g>
</svg>
