<svg xmlns="http://www.w3.org/2000/svg" width="10.089" height="10.3" viewBox="0 0 10.089 10.3">
    <g>
        <g>
            <path fill="#93a4b8" stroke="#93a4b8" stroke-width="0.3px" d="M9.38 10a.4.4 0 0 1-.289-.123l-2.353-2.4a4.075 4.075 0 0 1-2.613.953A4.175 4.175 0 0 1 0 4.214 4.175 4.175 0 0 1 4.125 0 4.175 4.175 0 0 1 8.25 4.214a4.281 4.281 0 0 1-.935 2.672l2.353 2.4a.42.42 0 0 1 0 .588.4.4 0 0 1-.288.126zM4.125.837A3.346 3.346 0 0 0 .819 4.214 3.345 3.345 0 0 0 4.125 7.59a3.345 3.345 0 0 0 3.307-3.376A3.346 3.346 0 0 0 4.125.837z" transform="translate(0.15 0.15) translate(0)"/>
        </g>
    </g>
</svg>
