<svg xmlns="http://www.w3.org/2000/svg" width="18" height="22" viewBox="0 0 18 22">
    <g stroke="#fff">
        <g fill="none" stroke-width="2.2px" transform="translate(-862 -37) translate(862 37)">
            <rect width="18" height="22" stroke="none" rx="3"/>
            <rect width="15.8" height="19.8" x="1.1" y="1.1" rx="1.9"/>
        </g>
        <path fill="#fff" d="M76.233 6.911a.217.217 0 0 0 .2 0c.173-.091 4.234-2.255 4.234-4.527A2.387 2.387 0 0 0 78.285 0a2.363 2.363 0 0 0-1.951 1.016A2.363 2.363 0 0 0 74.384 0 2.387 2.387 0 0 0 72 2.384c0 2.272 4.061 4.436 4.234 4.527zM74.384.433a1.937 1.937 0 0 1 1.756 1.105.226.226 0 0 0 .39 0 1.95 1.95 0 0 1 3.707.845c0 1.83-3.279 3.742-3.9 4.088-.623-.346-3.9-2.256-3.9-4.088a1.953 1.953 0 0 1 1.947-1.95zm0 0" transform="translate(-862 -37) translate(794.5 44.501)"/>
    </g>
</svg>
