<svg xmlns="http://www.w3.org/2000/svg" width="18.117" height="24.156" viewBox="0 0 18.117 24.156">
    <defs>
        <style>
            .cls-2{fill:#fff;stroke:#fff;stroke-width:.5px}
        </style>
    </defs>
    <g id="commerce-and-shopping" transform="translate(-61.088 0.02)">
        <path id="Path_10705" fill="#ef2b4a" d="M77.34 0H62.953a1.871 1.871 0 0 0-1.866 1.876V22.7a1.45 1.45 0 0 0 2.244 1.221l6.815-4.477 6.815 4.477a1.45 1.45 0 0 0 2.244-1.221V1.876A1.871 1.871 0 0 0 77.34 0z" transform="translate(0 -0.02)"/>
        <g id="Group_4761" transform="translate(65.627 4.893)">
            <g id="Group_4758" transform="translate(2.329 0.408)">
                <path id="Path_10707" d="M209.537 191.409a.418.418 0 0 1-.385-.58l3.672-8.757a.418.418 0 1 1 .771.324l-3.672 8.757a.418.418 0 0 1-.386.256z" class="cls-2" transform="translate(-209.119 -181.815)"/>
            </g>
            <g id="Group_4759" transform="translate(0)">
                <path id="Path_10708" d="M169.436 179.106a2.32 2.32 0 1 1 2.04-2.3 2.186 2.186 0 0 1-2.04 2.3zm0-3.77a1.5 1.5 0 1 0 1.2 1.467 1.357 1.357 0 0 0-1.2-1.467z" class="cls-2" transform="translate(-167.396 -174.5)"/>
            </g>
            <g id="Group_4760" transform="translate(4.967 5.991)">
                <path id="Path_10709" d="M258.419 286.446a2.32 2.32 0 1 1 2.04-2.3 2.186 2.186 0 0 1-2.04 2.3zm0-3.77a1.5 1.5 0 1 0 1.2 1.467 1.357 1.357 0 0 0-1.2-1.467z" class="cls-2" transform="translate(-256.379 -281.84)"/>
            </g>
        </g>
    </g>
</svg>
