<svg xmlns="http://www.w3.org/2000/svg" width="14.926" height="16.5" viewBox="0 0 14.926 16.5">
    <g>
        <path fill="#002f4f" stroke="#002f4f" stroke-width="0.5px" d="M11.147 16H3.279a1.912 1.912 0 0 1-1.968-1.845V3.692H0V2.461h3.934v-.62A1.907 1.907 0 0 1 5.9 0h2.63a1.907 1.907 0 0 1 1.962 1.841v.62h3.934v1.231h-1.311v10.463A1.912 1.912 0 0 1 11.147 16zM2.623 3.692v10.463a.63.63 0 0 0 .656.615h7.868a.63.63 0 0 0 .656-.615V3.692zM5.9 1.231a.618.618 0 0 0-.651.611v.62h3.932v-.62a.618.618 0 0 0-.651-.611zm4.6 12.308H9.181V4.923h1.311v8.616zm-2.623 0h-1.32V4.923H7.87v8.616zm-2.624 0H3.934V4.923h1.311v8.616z" opacity="0.3" transform="translate(-207.75 -313.75) translate(208 314)"/>
    </g>
</svg>
