<svg xmlns="http://www.w3.org/2000/svg" width="93.8" height="21.476" viewBox="0 0 93.8 21.476">
    <defs>
        <style>
            .prefix__cls-1{fill:#fff}.prefix__cls-2{fill:#00d3b4}
        </style>
    </defs>
    <g id="prefix__Group_23" data-name="Group 23" transform="translate(-794 -390)">
        <g id="prefix__Group_22" data-name="Group 22" transform="translate(794 390)">
            <path id="prefix__Path_74" d="M393.036 333.377a.583.583 0 0 1-.576-.576V321.28a.576.576 0 0 1 1.152 0v10.945h7.488a.576.576 0 0 1 0 1.152z" class="prefix__cls-1" data-name="Path 74" transform="translate(-392.46 -317.934)"/>
            <path id="prefix__Path_75" d="M429.308 322.837a.552.552 0 0 1-.171-.405v-1.152a.576.576 0 0 1 1.152 0v1.152a.573.573 0 0 1-.981.405zm0 10.369a.553.553 0 0 1-.171-.405v-8.065a.576.576 0 0 1 1.152 0v8.064a.573.573 0 0 1-.981.405z" class="prefix__cls-1" data-name="Path 75" transform="translate(-418.666 -317.934)"/>
            <path id="prefix__Path_76" d="M441.262 341.916a.508.508 0 0 1-.2-.243l-3.456-8.065a.537.537 0 0 1-.018-.45.547.547 0 0 1 .306-.306.539.539 0 0 1 .45-.018.549.549 0 0 1 .306.306l2.934 6.84 2.934-6.84a.547.547 0 0 1 .306-.306.539.539 0 0 1 .45.018.549.549 0 0 1 .306.306.539.539 0 0 1-.018.45l-3.456 8.065a.509.509 0 0 1-.2.243.579.579 0 0 1-.648 0z" class="prefix__cls-1" data-name="Path 76" transform="translate(-424.677 -326.682)"/>
            <path id="prefix__Path_77" d="M469.431 341.757a2.975 2.975 0 0 1-1.422-.864 2.92 2.92 0 0 1-.7-1.467 11.114 11.114 0 0 1-.162-2.007 6.974 6.974 0 0 1 .27-2.079 3.206 3.206 0 0 1 2.259-2.259 6.969 6.969 0 0 1 2.079-.27 7.171 7.171 0 0 1 1.953.234 3.688 3.688 0 0 1 1.377.7 3.277 3.277 0 0 1 .882 1.26 5.888 5.888 0 0 1 .378 1.8.733.733 0 0 1-.036.234.506.506 0 0 1-.126.2.441.441 0 0 1-.18.135.6.6 0 0 1-.234.045H468.3a8.792 8.792 0 0 0 .135 1.737 2.1 2.1 0 0 0 .441.981 2.05 2.05 0 0 0 1.035.558 7.607 7.607 0 0 0 1.845.18 5.594 5.594 0 0 0 2.178-.288 2.1 2.1 0 0 0 .81-.594.552.552 0 0 1 .369-.225.5.5 0 0 1 .423.1.527.527 0 0 1 .243.36.535.535 0 0 1-.1.432 2.828 2.828 0 0 1-1.431 1.044 7.779 7.779 0 0 1-2.493.324 8.266 8.266 0 0 1-2.324-.271zm.675-7.606a2.26 2.26 0 0 0-1.035.585 1.951 1.951 0 0 0-.441.63 3.727 3.727 0 0 0-.261.9h6.751a3.68 3.68 0 0 0-.279-.963 1.927 1.927 0 0 0-.513-.675 2.352 2.352 0 0 0-1.017-.5 6.435 6.435 0 0 0-1.557-.162 6.068 6.068 0 0 0-1.648.186z" class="prefix__cls-1" data-name="Path 77" transform="translate(-446.064 -326.695)"/>
            <path id="prefix__Path_78" d="M582.014 333.945a3.679 3.679 0 0 1 .7 1.413 7.9 7.9 0 0 1 .234 2.061v4.032a.576.576 0 0 1-1.152 0v-4.032a7.131 7.131 0 0 0-.162-1.656 2.507 2.507 0 0 0-.5-1.062 1.9 1.9 0 0 0-.864-.558 5.151 5.151 0 0 0-2.7 0 1.894 1.894 0 0 0-.864.558 2.5 2.5 0 0 0-.5 1.062 7.152 7.152 0 0 0-.162 1.656v4.032a.576.576 0 0 1-1.152 0v-8.065a.576.576 0 0 1 1.152 0v.342a3 3 0 0 1 1.206-.693 5.636 5.636 0 0 1 1.674-.225 5.341 5.341 0 0 1 1.827.279 3.035 3.035 0 0 1 1.263.856z" class="prefix__cls-1" data-name="Path 78" transform="translate(-523.386 -326.695)"/>
            <path id="prefix__Path_79" d="M614.656 333.945a3.677 3.677 0 0 1 .7 1.413 7.9 7.9 0 0 1 .234 2.061v4.032a.576.576 0 0 1-1.152 0v-4.032a7.153 7.153 0 0 0-.162-1.656 2.5 2.5 0 0 0-.5-1.062 1.9 1.9 0 0 0-.864-.558 5.151 5.151 0 0 0-2.7 0 1.9 1.9 0 0 0-.864.558 2.508 2.508 0 0 0-.5 1.062 7.149 7.149 0 0 0-.162 1.656v4.032a.576.576 0 0 1-1.152 0v-8.065a.576.576 0 0 1 1.152 0v.342a3 3 0 0 1 1.206-.693 5.632 5.632 0 0 1 1.674-.225 5.344 5.344 0 0 1 1.828.279 3.035 3.035 0 0 1 1.262.856z" class="prefix__cls-1" data-name="Path 79" transform="translate(-546.814 -326.695)"/>
            <path id="prefix__Path_80" d="M641.844 341.757a2.975 2.975 0 0 1-1.422-.864 2.923 2.923 0 0 1-.7-1.467 11.1 11.1 0 0 1-.162-2.007 6.969 6.969 0 0 1 .27-2.079 3.205 3.205 0 0 1 2.259-2.259 6.972 6.972 0 0 1 2.079-.27 7.175 7.175 0 0 1 1.953.234 3.685 3.685 0 0 1 1.377.7 3.279 3.279 0 0 1 .882 1.26 5.891 5.891 0 0 1 .378 1.8.734.734 0 0 1-.036.234.509.509 0 0 1-.126.2.442.442 0 0 1-.18.135.6.6 0 0 1-.234.045h-7.47a8.8 8.8 0 0 0 .135 1.737 2.1 2.1 0 0 0 .441.981 2.05 2.05 0 0 0 1.035.558 7.6 7.6 0 0 0 1.845.18 5.594 5.594 0 0 0 2.178-.288 2.1 2.1 0 0 0 .81-.594.553.553 0 0 1 .369-.225.5.5 0 0 1 .423.1.529.529 0 0 1 .243.36.536.536 0 0 1-.1.432 2.824 2.824 0 0 1-1.431 1.044 7.779 7.779 0 0 1-2.493.324 8.264 8.264 0 0 1-2.323-.271zm.675-7.606a2.262 2.262 0 0 0-1.035.585 1.941 1.941 0 0 0-.441.63 3.7 3.7 0 0 0-.261.9h6.75a3.666 3.666 0 0 0-.279-.963 1.924 1.924 0 0 0-.513-.675 2.354 2.354 0 0 0-1.017-.5 6.434 6.434 0 0 0-1.557-.162 6.07 6.07 0 0 0-1.647.186z" class="prefix__cls-1" data-name="Path 80" transform="translate(-569.812 -326.695)"/>
            <path id="prefix__Path_81" d="M678.152 341.757a3.205 3.205 0 0 1-2.259-2.259 8.138 8.138 0 0 1 0-4.158 3.205 3.205 0 0 1 2.259-2.259 6.971 6.971 0 0 1 2.079-.27 7.257 7.257 0 0 1 1.89.216 3.821 3.821 0 0 1 1.35.648.591.591 0 0 1 .09.81.527.527 0 0 1-.378.225.561.561 0 0 1-.432-.135 2.7 2.7 0 0 0-1.017-.459 6.4 6.4 0 0 0-1.5-.153 6.069 6.069 0 0 0-1.647.189 2.221 2.221 0 0 0-1.62 1.62 7.273 7.273 0 0 0 0 3.294 2.221 2.221 0 0 0 1.62 1.62 6.072 6.072 0 0 0 1.647.189 6.374 6.374 0 0 0 1.5-.153 2.7 2.7 0 0 0 1.017-.459.559.559 0 0 1 .432-.135.526.526 0 0 1 .378.225.591.591 0 0 1-.09.81 3.818 3.818 0 0 1-1.35.648 7.246 7.246 0 0 1-1.89.216 6.962 6.962 0 0 1-2.079-.27z" class="prefix__cls-1" data-name="Path 81" transform="translate(-595.75 -326.695)"/>
            <path id="prefix__Path_82" d="M712.3 332.225a.576.576 0 0 1 0 1.152 10.232 10.232 0 0 1-1.908-.153 2.323 2.323 0 0 1-1.971-1.971 10.194 10.194 0 0 1-.153-1.908v-8.065a.576.576 0 0 1 1.152 0v2.88h2.88a.576.576 0 0 1 0 1.152h-2.88v4.032a8.869 8.869 0 0 0 .108 1.584 1.308 1.308 0 0 0 1.188 1.188 8.859 8.859 0 0 0 1.584.109z" class="prefix__cls-1" data-name="Path 82" transform="translate(-619.073 -317.934)"/>
            <path id="prefix__Path_83" d="M534.609 335.657a6.037 6.037 0 1 1 0-12.073v-1.552a7.589 7.589 0 1 0 0 15.177z" class="prefix__cls-2" data-name="Path 83" transform="translate(-488.952 -318.883)"/>
            <circle id="prefix__Ellipse_4" cx="4.374" cy="4.374" r="4.374" class="prefix__cls-2" data-name="Ellipse 4" transform="translate(41.239 6.364)"/>
            <path id="prefix__Path_84" d="M530.032 330.315a9.36 9.36 0 0 1-3.883.584 9.181 9.181 0 1 1 3.879-17.741.786.786 0 0 0 1.072-.724.78.78 0 0 0-.5-.729 10.936 10.936 0 0 0-4.677-.677 10.74 10.74 0 1 0 4.676 20.741.78.78 0 0 0 .5-.729.785.785 0 0 0-1.067-.725z" class="prefix__cls-2" data-name="Path 84" transform="translate(-481.071 -311)"/>
            <path id="prefix__Path_85" d="M536.255 335.436a6.22 6.22 0 0 1-1.889.216 6.035 6.035 0 0 1 .243-12.068 6.2 6.2 0 0 1 1.628.216.777.777 0 0 0 1-.732v-.026a.771.771 0 0 0-.577-.739 7.831 7.831 0 0 0-2.5-.259 7.586 7.586 0 0 0 .452 15.164 7.806 7.806 0 0 0 2.072-.279.757.757 0 0 0 .553-.732v-.027a.77.77 0 0 0-.982-.734z" class="prefix__cls-2" data-name="Path 85" transform="translate(-488.966 -318.883)"/>
        </g>
    </g>
</svg>
