<svg xmlns="http://www.w3.org/2000/svg" xmlns:xlink="http://www.w3.org/1999/xlink" width="108" height="25.705" viewBox="0 0 108 25.705">
    <defs>
        <linearGradient id="linear-gradient" x1=".185" x2=".606" y1=".117" y2=".782" gradientUnits="objectBoundingBox">
            <stop offset="0" stop-color="#c7bff3"/>
            <stop offset="1" stop-color="#674cf3"/>
        </linearGradient>
        <linearGradient id="linear-gradient-2" x1=".194" x2=".875" y1=".204" y2=".814" gradientUnits="objectBoundingBox">
            <stop offset="0" stop-color="#cec5ff"/>
            <stop offset="1" stop-color="#674cf3"/>
        </linearGradient>
        <linearGradient id="linear-gradient-3" x1=".862" x2=".5" y1=".04" y2=".968" gradientUnits="objectBoundingBox">
            <stop offset="0" stop-color="#00705f"/>
            <stop offset="1" stop-color="#2aeccf"/>
        </linearGradient>
        <linearGradient id="linear-gradient-4" x1=".123" x2=".93" y1=".064" y2=".978" gradientUnits="objectBoundingBox">
            <stop offset="0" stop-color="#007160"/>
            <stop offset="1" stop-color="#43f6db"/>
        </linearGradient>
        <linearGradient id="linear-gradient-5" x1=".5" x2=".406" y2=".985" gradientUnits="objectBoundingBox">
            <stop offset="0" stop-color="#8039db"/>
            <stop offset="1" stop-color="#401d6e"/>
        </linearGradient>
        <linearGradient id="linear-gradient-6" x1="1.895" x2="-.927" y1=".5" y2=".5" xlink:href="#linear-gradient-5"/>
        <clipPath id="clip-path">
            <path id="Path_7248" d="M0 .288L.137.256.218.238.369.2.437.19H.48L.564.173h.008L.7.149h.009L.752.142h.025l.19-.031h.02L1.038.1l.124-.013.1-.013H1.3l.048-.007.2-.022H1.6l.154-.017.086-.007h.093l.18-.015H2.2L2.383 0h.4a11.5 11.5 0 0 1 8.781 4.135 11.376 11.376 0 0 1 2.451 9.351l-.005.025-.01.052-.007.033v.047c0 .019-.008.039-.012.058l-.019.087v.01l-.005.025v.052l-.013.056v.009l-.005.024-.01.036V14.028l-.015.061-.008.034-.011.046v.015l-.008.028v.037l-.017.065v.005l-.005.021-.008.031v.029l-.02.067-.023.082v.008l-.014.043v.031l-.02.065v.004l-.008.025-.009.028v.016l-.02.061-.01.03-.013.04v.058l-.006.019v.016l-.02.055v.016l-.019.055v.011l-.019.055-.011.031v.008l-.012.031v.009l-.019.05v.026l-.023.061v.005l-.006.017v.008l-.008.022v.016l-.023.059v.006l-.012.028-.017.04v.015l-.015.036-.005.012v.035l-.026.061v.01l-.005.013v.016l-.011.023-.021.048-.014.031-.011.027v.008L13.39 16V16.029l-.023.052v.01l-.029.061-.029.061-.015.031-.014.028v.006l-.018.037v.007l-.007.013v.007l-.03.06v.008l-.011.022-.014.028-.031.059-.015.028-.016.029v.01l-.019.036v.007l-.006.011-.035.064-.012.022-.012.022-.026.046-.016.028-.01.017-.034.06v.005l-.039.096-.011.019v.151l-.016.026-.031.052-.017.028-.018.031-.021.033-.015.024-.033.051v.012c.046-.063-.017.033-.151.225l-.039.057-.009.013-.019.027-.031.044-.02.029-.362.094c-.092.132-.2.286-.319.45l-.047.066.184-.268.014-.019-.028.038-.02.027-.016.022-.037.048-.042.053-.017.022-.008.01-.015.019-.029.035-.023.028-.013.015-.042.051-.005.006-.044.052-.014.016-.022.026-.038.045-.025.028-.009.01-.05.057c.042-.038.084-.075.124-.118a3.081 3.081 0 0 1-.424.363l-.01.007h-.027l-.008.005h-.061l-.01.006h-.086l-.011.005h-.5c-1.858.78-3.936 1.22-5.726 2.1a8.872 8.872 0 0 0-1.471 1.337c-.11.075-.122.039-.13.024l-.026-.049-.023-.048-.02-.047-.017-.046-.014-.045-.012-.043L3 22.185a.4.4 0 0 0-.006-.042.372.372 0 0 1 0-.04v-.154L3 21.912l.009-.035a.121.121 0 0 1 .011-.034c0-.011.008-.022.013-.034l.014-.033.016-.032.018-.031.019-.031a.349.349 0 0 1 .02-.03l.022-.029.023-.028.024-.028.026-.027.026-.027.028-.026.028-.025.029-.027.03-.024.03-.025c.33-.254.765-.427.9-.632l-.746.135a.244.244 0 0 1-.124 0 .152.152 0 0 1-.044-.023.169.169 0 0 1-.048-.053l-.018-.013a.555.555 0 0 1-.029-.06.59.59 0 0 1-.034-.106c0-.019-.007-.037-.009-.055-.059-.616 1.224-.724 1.625-.863A.547.547 0 0 1 5 19.441c.278-.287 1.582-.432 2.075-.611a4.731 4.731 0 0 0 1.937-1.516 3.953 3.953 0 0 1-1.808 1c-.739.048-.8-.6-.417-.825 1.6-1.066 2.759-2.945 4.273-3.757a3.082 3.082 0 0 1 .747-.284 10.4 10.4 0 0 0-2.262-9.78A10.529 10.529 0 0 0 .04.3z" class="cls-1" data-name="Path 7248"/>
        </clipPath>
        <clipPath id="clip-path-2">
            <path id="Path_7249" d="M1.713.21a10.5 10.5 0 0 1 8.364 4.183 10.548 10.548 0 0 1 1.73 9.207A9.963 9.963 0 0 0 9.2 1.987 11.4 11.4 0 0 0 2.789 0 11.592 11.592 0 0 0 1.27.1 11.321 11.321 0 0 0 0 .335l.038.011A10.559 10.559 0 0 1 1.713.21z" class="cls-1" data-name="Path 7249"/>
        </clipPath>
        <clipPath id="clip-path-3">
            <path id="Path_7246" d="M14.23 21.378l-.137.033-.081.018-.151.033-.068.013h-.043l-.085.016h-.008l-.131.024-.043.007h-.026l-.189.03h-.02l-.051.007h-.005l-.119.017-.1.013h-.039l-.046.006-.2.021h-.059l-.151.014-.086.007h-.094l-.18.011h-.093l-.183.007h-.4a11.581 11.581 0 0 1-8.8-4.092A11.162 11.162 0 0 1 .186 8.31l.005-.025.009-.052.008-.033v-.05l.012-.056.019-.086V8l.005-.025V7.92l.013-.056v-.01l.005-.023.01-.031v-.017l.015-.061.013-.038.011-.046v-.019l.008-.028v-.036l.017-.065v-.005l.006-.021.008-.031v-.019l.019-.068.023-.081v-.007l.013-.042v-.032L.43 7.12v-.007l.008-.024.007-.029V7.04l.019-.06v-.006l.01-.03.013-.039v-.046L.5 6.841v-.016l.015-.055v-.018L.534 6.7v-.022l.02-.054.011-.03v-.009l.011-.031v-.009L.6 6.5v-.045l.023-.06V6.39l.007-.017v-.009l.008-.021v-.021l.023-.059.011-.029.017-.04v-.019c0-.012.01-.024.015-.036l.005-.012v-.013l.026-.06v-.01l.006-.014v-.008L.751 6l.021-.047.014-.053.014-.032v-.012l.019-.04v-.029l.005-.011v-.011l.023-.051V5.7l.029-.06.024-.057.015-.03v-.011l.014-.028V5.49l.018-.036v-.009l.006-.013v-.006l.03-.059v-.009L1 5.337l.014-.028.03-.059.015-.028.015-.029v-.012l.02-.036V5.14l.006-.012.035-.064.012-.022.013-.022.026-.045.014-.028V4.94l.01-.017v-.007l.035-.059v-.006l.037-.062.011-.019.016-.026.032-.051.017-.027.019-.03.02-.033.016-.024.032-.05V4.51c-.046.062.017-.033.151-.223l.038-.056.009-.013.019-.027.031-.045.02-.029v.007c.092-.131.2-.283.32-.445l.047-.065-.184.265-.017.021.029-.038.02-.027.016-.022.037-.047.041-.053.017-.022.008-.009.015-.019.029-.036.023-.027.013-.015.041-.05v-.006l.044-.052.014-.016.022-.025.039-.045.025-.028.009-.01.051-.056c-.042.038-.084.074-.124.117a3.032 3.032 0 0 1 .425-.359l.01-.007h.04l.008-.006H2.8l.01-.006H2.895l.01-.005h.866C5.635 2.241 7.717 1.806 9.51.93a8.941 8.941 0 0 0 1.469-.89c.109-.074.122-.039.13-.024l.026.048.023.048.02.047.017.045c.005.015.011.03.014.045s.008.029.012.043l.009.042a.393.393 0 0 0 .006.042.176.176 0 0 0 0 .04.115.115 0 0 1 0 .039v.039a.317.317 0 0 1 0 .038v.036a.148.148 0 0 1-.008.032l-.009.04c0 .012-.007.023-.011.034 0 .011-.008.022-.013.033l-.013.033a.312.312 0 0 1-.016.032L11.149.8l-.019.03-.02.03-.022.029-.023.031-.025.027-.025.027-.026.026-.028.026-.028.025-.029.024-.03.024-.03.024c-.331.252-.766.423-.9.627l.747-.133a.242.242 0 0 1 .125 0 .152.152 0 0 1 .045.023.168.168 0 0 1 .048.052l.008.013a.423.423 0 0 1 .028.059.645.645 0 0 1 .034.1.5.5 0 0 1 .008.054c.058.609-1.227.716-1.629.854a.544.544 0 0 1-.136.269c-.278.283-1.589.427-2.079.6a4.745 4.745 0 0 0-1.941 1.5 3.976 3.976 0 0 1 1.811-.993c.741-.049.806.6.419.817C5.828 6.03 4.67 7.89 3.155 8.694a3.135 3.135 0 0 1-.748.282 10.2 10.2 0 0 0 2.041 8.609 10.585 10.585 0 0 0 8.066 3.915 10.786 10.786 0 0 0 1.679-.13z" class="cls-1" data-name="Path 7246"/>
        </clipPath>
        <clipPath id="clip-path-4">
            <path id="Path_7247" d="M10.979 13.39A10.529 10.529 0 0 1 .863 0a9.947 9.947 0 0 0 2.616 11.612A11.439 11.439 0 0 0 9.9 13.6a11.78 11.78 0 0 0 1.522-.1 11.5 11.5 0 0 0 1.273-.236l-.037-.011a10.61 10.61 0 0 1-1.68.131z" class="cls-1" data-name="Path 7247"/>
        </clipPath>
        <style>
            .cls-1{fill:none}.cls-2{fill:#002f4f}
        </style>
    </defs>
    <g id="main_logo" data-name="main logo" transform="translate(-141.719 -110.284)">
        <path id="Path_4020" d="M393.193 336.625a.709.709 0 0 1-.516-.215.691.691 0 0 1-.217-.509v-14.473a.692.692 0 0 1 .217-.509.727.727 0 0 1 1.032 0 .692.692 0 0 1 .218.509v13.75h9.538a.711.711 0 0 1 .516.215.7.7 0 0 1 0 1.018.71.71 0 0 1-.516.215z" class="cls-2" data-name="Path 4020" transform="translate(-250.741 -205.698)"/>
        <path id="Path_4021" d="M429.355 323.384a.69.69 0 0 1-.218-.509v-1.447a.691.691 0 0 1 .218-.509.727.727 0 0 1 1.032 0 .692.692 0 0 1 .218.509v1.447a.691.691 0 0 1-.218.509.727.727 0 0 1-1.032 0zm0 13.026a.69.69 0 0 1-.218-.509v-10.132a.692.692 0 0 1 .218-.509.728.728 0 0 1 1.032 0 .693.693 0 0 1 .218.509V335.9a.691.691 0 0 1-.218.509.727.727 0 0 1-1.032 0z" class="cls-2" data-name="Path 4021" transform="translate(-274.082 -205.698)"/>
        <path id="Path_4022" d="M442.278 344.412a.647.647 0 0 1-.252-.309l-4.4-10.272a.684.684 0 0 1-.023-.573.7.7 0 0 1 .39-.39.686.686 0 0 1 .573-.023.7.7 0 0 1 .39.39l3.737 8.712 3.737-8.712a.7.7 0 0 1 .39-.39.686.686 0 0 1 .573.023.7.7 0 0 1 .39.39.686.686 0 0 1-.023.573l-4.4 10.272a.649.649 0 0 1-.252.309.738.738 0 0 1-.825 0z" class="cls-2" data-name="Path 4022" transform="translate(-279.371 -213.36)"/>
        <path id="Path_4023" d="M470.056 344.206a3.789 3.789 0 0 1-1.811-1.1 3.718 3.718 0 0 1-.894-1.868 14.138 14.138 0 0 1-.206-2.556 8.88 8.88 0 0 1 .344-2.648 4.084 4.084 0 0 1 2.878-2.878 8.879 8.879 0 0 1 2.648-.344 9.131 9.131 0 0 1 2.487.3 4.7 4.7 0 0 1 1.754.894 4.176 4.176 0 0 1 1.123 1.6 7.5 7.5 0 0 1 .482 2.293.932.932 0 0 1-.046.3.646.646 0 0 1-.161.252.562.562 0 0 1-.229.172.763.763 0 0 1-.3.057h-9.515a11.2 11.2 0 0 0 .172 2.212 2.669 2.669 0 0 0 .562 1.25 2.61 2.61 0 0 0 1.318.711 9.686 9.686 0 0 0 2.35.229 7.122 7.122 0 0 0 2.774-.367 2.676 2.676 0 0 0 1.032-.756.7.7 0 0 1 .47-.287.639.639 0 0 1 .539.126.673.673 0 0 1 .309.459.681.681 0 0 1-.126.55 3.6 3.6 0 0 1-1.823 1.33 9.9 9.9 0 0 1-3.175.413 10.527 10.527 0 0 1-2.956-.344zm.86-9.687a2.88 2.88 0 0 0-1.318.745 2.483 2.483 0 0 0-.562.8 4.738 4.738 0 0 0-.332 1.146h8.6a4.68 4.68 0 0 0-.355-1.227 2.455 2.455 0 0 0-.654-.86 2.994 2.994 0 0 0-1.3-.642 8.194 8.194 0 0 0-1.983-.206 7.726 7.726 0 0 0-2.096.244z" class="cls-2" data-name="Path 4023" transform="translate(-298.162 -213.377)"/>
        <path id="Path_4024" d="M642.47 344.206a3.788 3.788 0 0 1-1.811-1.1 3.721 3.721 0 0 1-.894-1.868 14.135 14.135 0 0 1-.206-2.556 8.872 8.872 0 0 1 .344-2.648 4.083 4.083 0 0 1 2.877-2.878 8.881 8.881 0 0 1 2.648-.344 9.135 9.135 0 0 1 2.488.3 4.694 4.694 0 0 1 1.754.894 4.177 4.177 0 0 1 1.124 1.6 7.5 7.5 0 0 1 .481 2.293.934.934 0 0 1-.046.3.647.647 0 0 1-.161.252.563.563 0 0 1-.229.172.761.761 0 0 1-.3.057h-9.515a11.209 11.209 0 0 0 .172 2.212 2.674 2.674 0 0 0 .562 1.25 2.61 2.61 0 0 0 1.318.711 9.681 9.681 0 0 0 2.35.229 7.125 7.125 0 0 0 2.774-.367 2.671 2.671 0 0 0 1.031-.756.7.7 0 0 1 .47-.287.639.639 0 0 1 .539.126.674.674 0 0 1 .31.459.682.682 0 0 1-.126.55 3.6 3.6 0 0 1-1.823 1.33 9.906 9.906 0 0 1-3.175.413 10.525 10.525 0 0 1-2.956-.344zm.859-9.687a2.881 2.881 0 0 0-1.318.745 2.472 2.472 0 0 0-.562.8 4.716 4.716 0 0 0-.332 1.146h8.6a4.666 4.666 0 0 0-.355-1.227 2.453 2.453 0 0 0-.653-.86 3 3 0 0 0-1.3-.642 8.194 8.194 0 0 0-1.983-.206 7.728 7.728 0 0 0-2.097.244z" class="cls-2" data-name="Path 4024" transform="translate(-409.306 -213.377)"/>
        <path id="Path_4025" d="M580.031 332.81h.5a.749.749 0 0 1 .519.191.617.617 0 0 1 .237.567.628.628 0 0 1-.237.526 1.394 1.394 0 0 1-.689.186l-.328-.023s.689.023 0 .023a5.522 5.522 0 0 0-1.723.23 2.416 2.416 0 0 0-1.1.712 3.194 3.194 0 0 0-.643 1.355 9.12 9.12 0 0 0-.207 2.113v5.145a.735.735 0 0 1-1.47 0v-10.29a.735.735 0 0 1 1.47 0v.436a3.827 3.827 0 0 1 1.539-.885 7.2 7.2 0 0 1 2.136-.287z" class="cls-2" data-name="Path 4025" transform="translate(-364.397 -213.377)"/>
        <path id="Path_4026" d="M580.031 332.81h.5a.749.749 0 0 1 .519.191.617.617 0 0 1 .237.567.628.628 0 0 1-.237.526 1.394 1.394 0 0 1-.689.186l-.328-.023s.689.023 0 .023a5.522 5.522 0 0 0-1.723.23 2.416 2.416 0 0 0-1.1.712 3.194 3.194 0 0 0-.643 1.355 9.12 9.12 0 0 0-.207 2.113v5.145a.735.735 0 0 1-1.47 0v-10.29a.735.735 0 0 1 1.47 0v.436a3.827 3.827 0 0 1 1.539-.885 7.2 7.2 0 0 1 2.136-.287z" class="cls-2" data-name="Path 4026" transform="translate(-331.567 -213.377)"/>
        <g id="Group_1895" data-name="Group 1895" transform="translate(217.399 114.895)">
            <path id="Path_82" d="M709.749 336.37a.747.747 0 0 1-1.488 0v-14.922a.744.744 0 0 1 1.488 0V335.8s.005.434 0 .57z" class="cls-2" data-name="Path 82" transform="translate(-698.638 -320.704)"/>
            <path id="Path_95" d="M678.786 344a4.009 4.009 0 0 1-2.825-2.825 10.176 10.176 0 0 1 0-5.2 4.009 4.009 0 0 1 2.825-2.826 8.716 8.716 0 0 1 2.6-.337 9.073 9.073 0 0 1 2.364.27 3.489 3.489 0 0 1 2.523 2.3.82.82 0 0 1 .042.5c-.063.168-.035.126-.2.293a.477.477 0 0 1-.415.095.72.72 0 0 1-.45-.2l-.014-.039a2.443 2.443 0 0 0-1.968-1.587 7.991 7.991 0 0 0-1.88-.191 7.589 7.589 0 0 0-2.06.236 2.777 2.777 0 0 0-2.026 2.026 9.1 9.1 0 0 0 0 4.12 2.777 2.777 0 0 0 2.026 2.026 7.591 7.591 0 0 0 2.06.236 7.974 7.974 0 0 0 1.88-.191c.518-.128 2.027-.886 1.981-1.376.1-.353.29-.39.485-.367a2.693 2.693 0 0 1 .295.049c.14.056.154.056.224.175s.283.434.133.554c-.163 1.484-1.975 2.146-2.635 2.326a9.062 9.062 0 0 1-2.364.27 8.707 8.707 0 0 1-2.601-.337z" class="cls-2" data-name="Path 95" transform="translate(-675.623 -328.039)"/>
        </g>
        <g id="Group_4428" data-name="Group 4428" transform="translate(183.62 110.127)">
            <g id="Group_4382" data-name="Group 4382" transform="matrix(-.998 .07 -.07 -.998 25.269 24.202)">
                <g id="Group_4378" data-name="Group 4378" transform="translate(9.428 -.005)">
                    <g id="Mask_Group_9" clip-path="url(#clip-path)" data-name="Mask Group 9" transform="translate(0 -.004)">
                        <path id="Path_7632" fill="url(#linear-gradient)" d="M0 0l26.584.016.016 27.893-26.584-.015z" data-name="Path 7632" transform="translate(-4.05 -3.335)"/>
                    </g>
                    <g id="Mask_Group_10" clip-path="url(#clip-path-2)" data-name="Mask Group 10" transform="translate(0 .027)">
                        <path id="Path_7633" fill="url(#linear-gradient-2)" d="M0 0l18.713.011.011 18.709-18.713-.011z" data-name="Path 7633" transform="translate(-4.051 -4.069)"/>
                    </g>
                </g>
                <g id="Group_4379" data-name="Group 4379" transform="translate(-.001 1.752)">
                    <g id="Mask_Group_11" clip-path="url(#clip-path-3)" data-name="Mask Group 11" transform="translate(-.001 .167)">
                        <path id="Path_7634" fill="url(#linear-gradient-3)" d="M0 0l24.92.014.016 26.586-24.92-.012z" data-name="Path 7634" transform="translate(-2.22 -3.007)"/>
                    </g>
                    <g id="Mask_Group_12" clip-path="url(#clip-path-4)" data-name="Mask Group 12" transform="matrix(.998 -.07 .07 .998 1.532 8.959)">
                        <path id="Path_7635" fill="url(#linear-gradient-4)" d="M0 0l19.113.011.011 19.12L.011 19.12z" data-name="Path 7635" transform="translate(-4.46 -1.966)"/>
                    </g>
                </g>
            </g>
            <g id="Group_4383" data-name="Group 4383" transform="translate(8.706 9.58)">
                <path id="Rectangle_3684" fill="url(#linear-gradient-5)" d="M0 0H2.778V7.86H0z" data-name="Rectangle 3684" transform="rotate(90 2.729 5.131)"/>
                <path id="Rectangle_3683" fill="url(#linear-gradient-6)" d="M0 0H2.543V7.911H0z" data-name="Rectangle 3683" transform="translate(2.646)"/>
            </g>
        </g>
    </g>
</svg>
